G75*
%MOIN*%
%OFA0B0*%
%FSLAX25Y25*%
%IPPOS*%
%LPD*%
%AMOC8*
5,1,8,0,0,1.08239X$1,22.5*
%
%ADD10C,0.00000*%
D10*
X0033333Y0026800D02*
X0033695Y0026796D01*
X0034058Y0026782D01*
X0034420Y0026761D01*
X0034781Y0026730D01*
X0035141Y0026691D01*
X0035500Y0026643D01*
X0035858Y0026586D01*
X0036215Y0026521D01*
X0036570Y0026447D01*
X0036923Y0026364D01*
X0037274Y0026273D01*
X0037622Y0026174D01*
X0037968Y0026066D01*
X0038312Y0025950D01*
X0038652Y0025825D01*
X0038989Y0025693D01*
X0039323Y0025552D01*
X0039654Y0025403D01*
X0039981Y0025246D01*
X0040304Y0025082D01*
X0040623Y0024910D01*
X0040937Y0024730D01*
X0041248Y0024542D01*
X0041553Y0024347D01*
X0041854Y0024145D01*
X0042150Y0023935D01*
X0042440Y0023719D01*
X0042726Y0023495D01*
X0043006Y0023265D01*
X0043280Y0023028D01*
X0043548Y0022784D01*
X0043811Y0022534D01*
X0044067Y0022278D01*
X0044317Y0022015D01*
X0044561Y0021747D01*
X0044798Y0021473D01*
X0045028Y0021193D01*
X0045252Y0020907D01*
X0045468Y0020617D01*
X0045678Y0020321D01*
X0045880Y0020020D01*
X0046075Y0019715D01*
X0046263Y0019404D01*
X0046443Y0019090D01*
X0046615Y0018771D01*
X0046779Y0018448D01*
X0046936Y0018121D01*
X0047085Y0017790D01*
X0047226Y0017456D01*
X0047358Y0017119D01*
X0047483Y0016779D01*
X0047599Y0016435D01*
X0047707Y0016089D01*
X0047806Y0015741D01*
X0047897Y0015390D01*
X0047980Y0015037D01*
X0048054Y0014682D01*
X0048119Y0014325D01*
X0048176Y0013967D01*
X0048224Y0013608D01*
X0048263Y0013248D01*
X0048294Y0012887D01*
X0048315Y0012525D01*
X0048329Y0012162D01*
X0048333Y0011800D01*
X0387433Y0011800D01*
X0387437Y0012162D01*
X0387451Y0012525D01*
X0387472Y0012887D01*
X0387503Y0013248D01*
X0387542Y0013608D01*
X0387590Y0013967D01*
X0387647Y0014325D01*
X0387712Y0014682D01*
X0387786Y0015037D01*
X0387869Y0015390D01*
X0387960Y0015741D01*
X0388059Y0016089D01*
X0388167Y0016435D01*
X0388283Y0016779D01*
X0388408Y0017119D01*
X0388540Y0017456D01*
X0388681Y0017790D01*
X0388830Y0018121D01*
X0388987Y0018448D01*
X0389151Y0018771D01*
X0389323Y0019090D01*
X0389503Y0019404D01*
X0389691Y0019715D01*
X0389886Y0020020D01*
X0390088Y0020321D01*
X0390298Y0020617D01*
X0390514Y0020907D01*
X0390738Y0021193D01*
X0390968Y0021473D01*
X0391205Y0021747D01*
X0391449Y0022015D01*
X0391699Y0022278D01*
X0391955Y0022534D01*
X0392218Y0022784D01*
X0392486Y0023028D01*
X0392760Y0023265D01*
X0393040Y0023495D01*
X0393326Y0023719D01*
X0393616Y0023935D01*
X0393912Y0024145D01*
X0394213Y0024347D01*
X0394518Y0024542D01*
X0394829Y0024730D01*
X0395143Y0024910D01*
X0395462Y0025082D01*
X0395785Y0025246D01*
X0396112Y0025403D01*
X0396443Y0025552D01*
X0396777Y0025693D01*
X0397114Y0025825D01*
X0397454Y0025950D01*
X0397798Y0026066D01*
X0398144Y0026174D01*
X0398492Y0026273D01*
X0398843Y0026364D01*
X0399196Y0026447D01*
X0399551Y0026521D01*
X0399908Y0026586D01*
X0400266Y0026643D01*
X0400625Y0026691D01*
X0400985Y0026730D01*
X0401346Y0026761D01*
X0401708Y0026782D01*
X0402071Y0026796D01*
X0402433Y0026800D01*
X0402433Y0256800D01*
X0402079Y0256796D01*
X0401725Y0256800D01*
X0401371Y0256813D01*
X0401017Y0256835D01*
X0400665Y0256865D01*
X0400313Y0256903D01*
X0399962Y0256950D01*
X0399612Y0257006D01*
X0399264Y0257070D01*
X0398917Y0257142D01*
X0398572Y0257223D01*
X0398229Y0257312D01*
X0397889Y0257409D01*
X0397551Y0257514D01*
X0397215Y0257628D01*
X0396883Y0257750D01*
X0396553Y0257879D01*
X0396227Y0258017D01*
X0395904Y0258162D01*
X0395585Y0258316D01*
X0395269Y0258476D01*
X0394958Y0258645D01*
X0394650Y0258821D01*
X0394347Y0259004D01*
X0394049Y0259195D01*
X0393755Y0259392D01*
X0393466Y0259597D01*
X0393182Y0259809D01*
X0392904Y0260027D01*
X0392630Y0260252D01*
X0392363Y0260484D01*
X0392100Y0260722D01*
X0391844Y0260966D01*
X0391594Y0261217D01*
X0391350Y0261473D01*
X0391112Y0261736D01*
X0390880Y0262004D01*
X0390655Y0262277D01*
X0390437Y0262556D01*
X0390225Y0262840D01*
X0390021Y0263129D01*
X0389823Y0263423D01*
X0389633Y0263721D01*
X0389450Y0264025D01*
X0389274Y0264332D01*
X0389106Y0264644D01*
X0388945Y0264959D01*
X0388792Y0265279D01*
X0388647Y0265601D01*
X0388509Y0265928D01*
X0388380Y0266257D01*
X0388258Y0266590D01*
X0388145Y0266926D01*
X0388040Y0267264D01*
X0387943Y0267604D01*
X0387854Y0267947D01*
X0387773Y0268292D01*
X0387701Y0268639D01*
X0387637Y0268987D01*
X0387582Y0269337D01*
X0387535Y0269688D01*
X0387497Y0270040D01*
X0387467Y0270393D01*
X0387446Y0270746D01*
X0387433Y0271100D01*
X0048333Y0271100D01*
X0048320Y0270746D01*
X0048299Y0270393D01*
X0048269Y0270040D01*
X0048231Y0269688D01*
X0048184Y0269337D01*
X0048129Y0268987D01*
X0048065Y0268639D01*
X0047993Y0268292D01*
X0047912Y0267947D01*
X0047823Y0267604D01*
X0047726Y0267264D01*
X0047621Y0266926D01*
X0047508Y0266590D01*
X0047386Y0266257D01*
X0047257Y0265928D01*
X0047119Y0265601D01*
X0046974Y0265279D01*
X0046821Y0264959D01*
X0046660Y0264644D01*
X0046492Y0264332D01*
X0046316Y0264025D01*
X0046133Y0263721D01*
X0045943Y0263423D01*
X0045745Y0263129D01*
X0045541Y0262840D01*
X0045329Y0262556D01*
X0045111Y0262277D01*
X0044886Y0262004D01*
X0044654Y0261736D01*
X0044416Y0261473D01*
X0044172Y0261217D01*
X0043922Y0260966D01*
X0043666Y0260722D01*
X0043403Y0260484D01*
X0043136Y0260252D01*
X0042862Y0260027D01*
X0042584Y0259809D01*
X0042300Y0259597D01*
X0042011Y0259392D01*
X0041717Y0259195D01*
X0041419Y0259004D01*
X0041116Y0258821D01*
X0040808Y0258645D01*
X0040497Y0258476D01*
X0040181Y0258316D01*
X0039862Y0258162D01*
X0039539Y0258017D01*
X0039213Y0257879D01*
X0038883Y0257750D01*
X0038551Y0257628D01*
X0038215Y0257514D01*
X0037877Y0257409D01*
X0037537Y0257312D01*
X0037194Y0257223D01*
X0036849Y0257142D01*
X0036502Y0257070D01*
X0036154Y0257006D01*
X0035804Y0256950D01*
X0035453Y0256903D01*
X0035101Y0256865D01*
X0034749Y0256835D01*
X0034395Y0256813D01*
X0034041Y0256800D01*
X0033687Y0256796D01*
X0033333Y0256800D01*
X0033333Y0026800D01*
M02*
