%
M48
M72
T01C0.0276
T02C0.0320
T03C0.0354
T04C0.0394
T05C0.0400
T06C0.0472
T07C0.0551
T08C0.1102
T09C0.1500
%
T01
X17333Y2180
X17333Y3180
X17333Y4680
X18333Y4680
X19833Y3180
X19833Y2180
X25333Y10680
X25333Y11680
X28333Y11680
X28333Y10680
X18833Y16180
X18833Y17180
X16833Y17180
X16833Y16180
X34333Y18680
X34333Y19680
X35833Y19680
X35833Y18680
T02
X25833Y8680
X24833Y8680
X23833Y8680
X22833Y8680
X22833Y5680
X23833Y5680
X24833Y5680
X25833Y5680
X12833Y2680
X11833Y2680
X12333Y1930
X7333Y2680
X6833Y1930
X6333Y2680
T03
X4633Y7080
X4633Y11080
X10133Y11180
X10133Y7180
X15833Y6180
X18708Y6180
X18708Y7180
X18708Y8180
X18833Y10680
X22833Y10680
X14333Y15680
X10333Y15680
X8833Y15680
X4833Y15680
X4833Y22680
X8833Y22680
X10333Y22680
X14333Y22680
X16833Y22680
X18833Y22680
X18833Y18680
X16833Y18680
X15833Y2180
T04
X4833Y4680
X8833Y4680
X10333Y4680
X14333Y4680
X27833Y2180
X31833Y2180
T05
X28333Y6180
X28333Y7180
X28333Y8180
X28432Y14782
X29432Y14782
X30432Y14782
X31432Y14782
X32432Y14782
X33432Y14782
X34432Y14782
X36943Y16400
X36033Y17180
X35033Y17180
X34033Y17180
X32333Y17180
X32333Y18180
X32333Y19180
X32333Y20180
X32333Y21180
X32333Y22180
X31333Y22680
X30333Y22680
X29333Y22680
X28333Y22680
X27333Y22680
X26333Y22680
X25333Y22680
X24333Y22680
X23333Y22680
X22333Y22680
X21333Y22680
X20333Y22680
X14333Y20180
X14333Y19180
X14333Y18180
X14333Y17180
X10333Y17180
X10333Y18180
X10333Y19180
X10333Y20180
X8833Y20180
X8833Y19180
X8833Y18180
X8833Y17180
X4833Y17180
X4833Y18180
X4833Y19180
X4833Y20180
X5833Y10680
X5833Y9680
X5833Y8680
X7833Y8680
X7833Y9680
X7833Y10680
X11333Y10680
X11333Y9680
X11333Y8680
X13333Y8680
X13333Y9680
X13333Y10680
X13333Y6680
X11333Y6680
X7833Y6680
X5833Y6680
X19432Y14782
X20432Y14782
X21432Y14782
X22432Y14782
X23432Y14782
X24432Y14782
X25432Y14782
X26432Y14782
X27432Y14782
X27333Y16680
X26333Y16680
X25333Y16680
X24333Y16680
X23333Y16680
X22333Y16680
X21333Y16680
X20333Y16680
X22771Y17805
X23771Y17805
X26896Y17805
X27896Y17805
X28333Y16680
X29333Y16680
X30333Y16680
X31333Y16680
X36943Y18960
X36943Y20400
X38723Y20400
X38723Y18960
X38723Y16400
X38723Y22960
X36943Y22960
T06
X16833Y14180
X16833Y8180
X21833Y3680
X27833Y3680
T07
X34833Y4818
X34833Y9542
T08
X34833Y11885
X34833Y2475
T09
X37833Y25180
X31433Y25180
X24833Y25180
X18633Y25180
X12233Y25180
X5833Y25180
M30
