G75*
%MOIN*%
%OFA0B0*%
%FSLAX25Y25*%
%IPPOS*%
%LPD*%
%AMOC8*
5,1,8,0,0,1.08239X$1,22.5*
%
%ADD10C,0.07400*%
%ADD11OC8,0.07400*%
%ADD12C,0.07800*%
%ADD13C,0.06500*%
%ADD14R,0.07400X0.07400*%
%ADD15C,0.21500*%
%ADD16R,0.06500X0.06500*%
%ADD17C,0.06000*%
%ADD18OC8,0.06800*%
%ADD19C,0.07000*%
%ADD20C,0.08268*%
%ADD21C,0.15024*%
%ADD22C,0.01200*%
%ADD23C,0.03200*%
%ADD24C,0.01600*%
D10*
X0063333Y0026800D03*
X0068333Y0019300D03*
X0073333Y0026800D03*
X0118333Y0026800D03*
X0128333Y0026800D03*
X0123333Y0019300D03*
X0158333Y0021800D03*
X0158333Y0061800D03*
X0133333Y0066800D03*
X0113333Y0066800D03*
X0101333Y0071800D03*
X0113333Y0086800D03*
X0113333Y0096800D03*
X0113333Y0106800D03*
X0101333Y0111800D03*
X0078333Y0106800D03*
X0078333Y0096800D03*
X0078333Y0086800D03*
X0058333Y0086800D03*
X0058333Y0096800D03*
X0058333Y0106800D03*
X0046333Y0110800D03*
X0046333Y0070800D03*
X0058333Y0066800D03*
X0078333Y0066800D03*
X0133333Y0086800D03*
X0133333Y0096800D03*
X0133333Y0106800D03*
X0168333Y0081800D03*
X0188333Y0106800D03*
X0228333Y0106800D03*
X0224318Y0147824D03*
X0234318Y0147824D03*
X0244318Y0147824D03*
X0254318Y0147824D03*
X0264318Y0147824D03*
X0274318Y0147824D03*
X0284318Y0147824D03*
X0294318Y0147824D03*
X0304318Y0147824D03*
X0314318Y0147824D03*
X0324318Y0147824D03*
X0334318Y0147824D03*
X0313333Y0166800D03*
X0303333Y0166800D03*
X0293333Y0166800D03*
X0283333Y0166800D03*
X0273333Y0166800D03*
X0263333Y0166800D03*
X0253333Y0166800D03*
X0243333Y0166800D03*
X0233333Y0166800D03*
X0223333Y0166800D03*
X0213333Y0166800D03*
X0203333Y0166800D03*
X0204318Y0147824D03*
X0214318Y0147824D03*
X0194318Y0147824D03*
X0168333Y0141800D03*
X0143333Y0156800D03*
X0143333Y0181800D03*
X0143333Y0191800D03*
X0143333Y0201800D03*
X0168333Y0186800D03*
X0188333Y0186800D03*
X0227708Y0178050D03*
X0237708Y0178050D03*
X0268958Y0178050D03*
X0278958Y0178050D03*
X0323333Y0181800D03*
X0323333Y0171800D03*
X0340333Y0171800D03*
X0350333Y0171800D03*
X0360333Y0171800D03*
X0369433Y0164000D03*
X0387233Y0164000D03*
X0387233Y0189600D03*
X0387233Y0204000D03*
X0369433Y0204000D03*
X0369433Y0189600D03*
X0323333Y0191800D03*
X0323333Y0201800D03*
X0323333Y0211800D03*
X0323333Y0221800D03*
X0313333Y0226800D03*
X0303333Y0226800D03*
X0293333Y0226800D03*
X0283333Y0226800D03*
X0273333Y0226800D03*
X0263333Y0226800D03*
X0253333Y0226800D03*
X0243333Y0226800D03*
X0233333Y0226800D03*
X0223333Y0226800D03*
X0213333Y0226800D03*
X0203333Y0226800D03*
X0188333Y0226800D03*
X0168333Y0226800D03*
X0143333Y0226800D03*
X0103333Y0226800D03*
X0088333Y0226800D03*
X0088333Y0201800D03*
X0088333Y0191800D03*
X0088333Y0181800D03*
X0103333Y0181800D03*
X0103333Y0171800D03*
X0103333Y0156800D03*
X0088333Y0156800D03*
X0048333Y0156800D03*
X0048333Y0171800D03*
X0048333Y0181800D03*
X0048333Y0191800D03*
X0048333Y0201800D03*
X0048333Y0226800D03*
X0103333Y0201800D03*
X0103333Y0191800D03*
X0218333Y0036800D03*
X0278333Y0036800D03*
X0369433Y0229600D03*
X0387233Y0229600D03*
D11*
X0143333Y0171800D03*
X0088333Y0171800D03*
D12*
X0088333Y0046800D03*
X0103333Y0046800D03*
X0143333Y0046800D03*
X0048333Y0046800D03*
X0278333Y0021800D03*
X0318333Y0021800D03*
D13*
X0253333Y0106800D03*
X0253333Y0116800D03*
X0283333Y0116800D03*
X0343333Y0186800D03*
X0343333Y0196800D03*
X0358333Y0196800D03*
X0358333Y0186800D03*
X0188333Y0171800D03*
X0188333Y0161800D03*
X0168333Y0161800D03*
X0168333Y0171800D03*
X0173333Y0046800D03*
X0183333Y0046800D03*
X0173333Y0031800D03*
X0173333Y0021800D03*
X0198333Y0031800D03*
D14*
X0344318Y0147824D03*
D15*
X0314333Y0251800D03*
X0378333Y0251800D03*
X0248333Y0251800D03*
X0186333Y0251800D03*
X0122333Y0251800D03*
X0058333Y0251800D03*
D16*
X0283333Y0106800D03*
X0198333Y0021800D03*
D17*
X0280333Y0061800D02*
X0286333Y0061800D01*
X0286333Y0071800D02*
X0280333Y0071800D01*
X0280333Y0081800D02*
X0286333Y0081800D01*
D18*
X0258333Y0086800D03*
X0248333Y0086800D03*
X0238333Y0086800D03*
X0228333Y0086800D03*
X0228333Y0056800D03*
X0238333Y0056800D03*
X0248333Y0056800D03*
X0258333Y0056800D03*
D19*
X0187083Y0061800D03*
X0187083Y0071800D03*
X0187083Y0081800D03*
D20*
X0348333Y0095422D03*
X0348333Y0048178D03*
D21*
X0348333Y0024753D03*
X0348333Y0118847D03*
D22*
X0035433Y0090154D02*
X0035433Y0031800D01*
X0048788Y0031800D01*
X0039533Y0041054D01*
X0039533Y0066546D01*
X0040588Y0067600D01*
X0041837Y0068850D01*
X0041433Y0069825D01*
X0041433Y0071775D01*
X0042179Y0073576D01*
X0043558Y0074954D01*
X0045359Y0075700D01*
X0047308Y0075700D01*
X0049109Y0074954D01*
X0050487Y0073576D01*
X0051233Y0071775D01*
X0051233Y0069825D01*
X0050487Y0068024D01*
X0049109Y0066646D01*
X0047308Y0065900D01*
X0045359Y0065900D01*
X0044383Y0066304D01*
X0043133Y0065054D01*
X0043133Y0048594D01*
X0043236Y0048911D01*
X0043629Y0049683D01*
X0044138Y0050383D01*
X0044750Y0050995D01*
X0045451Y0051504D01*
X0046222Y0051897D01*
X0047045Y0052165D01*
X0047900Y0052300D01*
X0047949Y0052300D01*
X0047949Y0047184D01*
X0048718Y0047184D01*
X0053833Y0047184D01*
X0053833Y0047233D01*
X0053698Y0048088D01*
X0053430Y0048911D01*
X0053037Y0049683D01*
X0052528Y0050383D01*
X0051916Y0050995D01*
X0051216Y0051504D01*
X0050445Y0051897D01*
X0049621Y0052165D01*
X0048766Y0052300D01*
X0048718Y0052300D01*
X0048718Y0047184D01*
X0048718Y0046416D01*
X0053833Y0046416D01*
X0053833Y0046367D01*
X0053698Y0045512D01*
X0053430Y0044689D01*
X0053037Y0043917D01*
X0052528Y0043217D01*
X0051916Y0042605D01*
X0051216Y0042096D01*
X0050445Y0041703D01*
X0049621Y0041435D01*
X0048766Y0041300D01*
X0048718Y0041300D01*
X0048718Y0046416D01*
X0047949Y0046416D01*
X0047949Y0041300D01*
X0047900Y0041300D01*
X0047045Y0041435D01*
X0046222Y0041703D01*
X0045451Y0042096D01*
X0044750Y0042605D01*
X0044138Y0043217D01*
X0043629Y0043917D01*
X0043236Y0044689D01*
X0043133Y0045006D01*
X0043133Y0042546D01*
X0053879Y0031800D01*
X0075788Y0031800D01*
X0086166Y0042178D01*
X0085444Y0042476D01*
X0084010Y0043911D01*
X0083233Y0045786D01*
X0083233Y0047814D01*
X0083684Y0048903D01*
X0077588Y0055000D01*
X0076533Y0056054D01*
X0076533Y0062242D01*
X0075558Y0062646D01*
X0074179Y0064024D01*
X0073433Y0065825D01*
X0073433Y0067775D01*
X0074179Y0069576D01*
X0075558Y0070954D01*
X0077359Y0071700D01*
X0079308Y0071700D01*
X0081109Y0070954D01*
X0082487Y0069576D01*
X0083233Y0067775D01*
X0083233Y0065825D01*
X0082487Y0064024D01*
X0081109Y0062646D01*
X0080133Y0062242D01*
X0080133Y0057546D01*
X0086230Y0051449D01*
X0087319Y0051900D01*
X0089348Y0051900D01*
X0091222Y0051124D01*
X0092657Y0049689D01*
X0093433Y0047814D01*
X0093433Y0045786D01*
X0092657Y0043911D01*
X0091222Y0042476D01*
X0090133Y0042025D01*
X0090133Y0041054D01*
X0080879Y0031800D01*
X0103788Y0031800D01*
X0094533Y0041054D01*
X0094533Y0067546D01*
X0095588Y0068600D01*
X0096837Y0069850D01*
X0096433Y0070825D01*
X0096433Y0072775D01*
X0097179Y0074576D01*
X0098558Y0075954D01*
X0100359Y0076700D01*
X0102308Y0076700D01*
X0104109Y0075954D01*
X0105487Y0074576D01*
X0106233Y0072775D01*
X0106233Y0070825D01*
X0105487Y0069024D01*
X0104109Y0067646D01*
X0102308Y0066900D01*
X0100359Y0066900D01*
X0099383Y0067304D01*
X0098133Y0066054D01*
X0098133Y0048594D01*
X0098236Y0048911D01*
X0098629Y0049683D01*
X0099138Y0050383D01*
X0099750Y0050995D01*
X0100451Y0051504D01*
X0101222Y0051897D01*
X0102045Y0052165D01*
X0102900Y0052300D01*
X0102949Y0052300D01*
X0102949Y0047184D01*
X0103718Y0047184D01*
X0108833Y0047184D01*
X0108833Y0047233D01*
X0108698Y0048088D01*
X0108430Y0048911D01*
X0108037Y0049683D01*
X0107528Y0050383D01*
X0106916Y0050995D01*
X0106216Y0051504D01*
X0105445Y0051897D01*
X0104621Y0052165D01*
X0103766Y0052300D01*
X0103718Y0052300D01*
X0103718Y0047184D01*
X0103718Y0046416D01*
X0108833Y0046416D01*
X0108833Y0046367D01*
X0108698Y0045512D01*
X0108430Y0044689D01*
X0108037Y0043917D01*
X0107528Y0043217D01*
X0106916Y0042605D01*
X0106216Y0042096D01*
X0105445Y0041703D01*
X0104621Y0041435D01*
X0103766Y0041300D01*
X0103718Y0041300D01*
X0103718Y0046416D01*
X0102949Y0046416D01*
X0102949Y0041300D01*
X0102900Y0041300D01*
X0102045Y0041435D01*
X0101222Y0041703D01*
X0100451Y0042096D01*
X0099750Y0042605D01*
X0099138Y0043217D01*
X0098629Y0043917D01*
X0098236Y0044689D01*
X0098133Y0045006D01*
X0098133Y0042546D01*
X0108879Y0031800D01*
X0130788Y0031800D01*
X0141166Y0042178D01*
X0140444Y0042476D01*
X0139010Y0043911D01*
X0138233Y0045786D01*
X0138233Y0047814D01*
X0138684Y0048903D01*
X0132588Y0055000D01*
X0131533Y0056054D01*
X0131533Y0062242D01*
X0130558Y0062646D01*
X0129179Y0064024D01*
X0128433Y0065825D01*
X0128433Y0067775D01*
X0129179Y0069576D01*
X0130558Y0070954D01*
X0132359Y0071700D01*
X0134308Y0071700D01*
X0136109Y0070954D01*
X0137487Y0069576D01*
X0138233Y0067775D01*
X0138233Y0065825D01*
X0137487Y0064024D01*
X0136109Y0062646D01*
X0135133Y0062242D01*
X0135133Y0057546D01*
X0141230Y0051449D01*
X0142319Y0051900D01*
X0144348Y0051900D01*
X0146222Y0051124D01*
X0147657Y0049689D01*
X0148433Y0047814D01*
X0148433Y0045786D01*
X0147657Y0043911D01*
X0146222Y0042476D01*
X0145133Y0042025D01*
X0145133Y0041054D01*
X0135879Y0031800D01*
X0155533Y0031800D01*
X0155533Y0045640D01*
X0148747Y0052426D01*
X0147960Y0053214D01*
X0147533Y0054243D01*
X0147533Y0068640D01*
X0134274Y0081900D01*
X0132359Y0081900D01*
X0130558Y0082646D01*
X0129179Y0084024D01*
X0128433Y0085825D01*
X0128433Y0087740D01*
X0118116Y0098057D01*
X0118233Y0097775D01*
X0118233Y0095825D01*
X0117487Y0094024D01*
X0116109Y0092646D01*
X0114308Y0091900D01*
X0112359Y0091900D01*
X0110558Y0092646D01*
X0109179Y0094024D01*
X0108433Y0095825D01*
X0108433Y0097775D01*
X0109179Y0099576D01*
X0110558Y0100954D01*
X0112359Y0101700D01*
X0114308Y0101700D01*
X0114591Y0101583D01*
X0114274Y0101900D01*
X0112359Y0101900D01*
X0110558Y0102646D01*
X0109179Y0104024D01*
X0108433Y0105825D01*
X0108433Y0107775D01*
X0109179Y0109576D01*
X0110558Y0110954D01*
X0112359Y0111700D01*
X0114308Y0111700D01*
X0116109Y0110954D01*
X0117487Y0109576D01*
X0118233Y0107775D01*
X0118233Y0105860D01*
X0128550Y0095543D01*
X0128433Y0095825D01*
X0128433Y0097775D01*
X0129179Y0099576D01*
X0130558Y0100954D01*
X0132359Y0101700D01*
X0134308Y0101700D01*
X0136109Y0100954D01*
X0137487Y0099576D01*
X0138233Y0097775D01*
X0138233Y0095825D01*
X0137487Y0094024D01*
X0136109Y0092646D01*
X0134308Y0091900D01*
X0132359Y0091900D01*
X0132076Y0092017D01*
X0132393Y0091700D01*
X0134308Y0091700D01*
X0136109Y0090954D01*
X0137487Y0089576D01*
X0138233Y0087775D01*
X0138233Y0085860D01*
X0152707Y0071386D01*
X0153133Y0070357D01*
X0153133Y0055960D01*
X0160707Y0048386D01*
X0161133Y0047357D01*
X0161133Y0031800D01*
X0168883Y0031800D01*
X0168883Y0032685D01*
X0169561Y0034321D01*
X0170813Y0035573D01*
X0172448Y0036250D01*
X0174218Y0036250D01*
X0175854Y0035573D01*
X0177106Y0034321D01*
X0177783Y0032685D01*
X0177783Y0031800D01*
X0193883Y0031800D01*
X0193883Y0032685D01*
X0194561Y0034321D01*
X0195813Y0035573D01*
X0197448Y0036250D01*
X0199218Y0036250D01*
X0200854Y0035573D01*
X0202106Y0034321D01*
X0202783Y0032685D01*
X0202783Y0031800D01*
X0251533Y0031800D01*
X0251533Y0053495D01*
X0250239Y0052200D01*
X0246428Y0052200D01*
X0243733Y0054895D01*
X0243733Y0058705D01*
X0246428Y0061400D01*
X0250239Y0061400D01*
X0251533Y0060105D01*
X0251533Y0066054D01*
X0251533Y0067546D01*
X0252588Y0068600D01*
X0271533Y0068600D01*
X0271533Y0075000D01*
X0253588Y0075000D01*
X0252533Y0076054D01*
X0252533Y0083929D01*
X0250404Y0081800D01*
X0248533Y0081800D01*
X0248533Y0086600D01*
X0248133Y0086600D01*
X0243333Y0086600D01*
X0243333Y0084729D01*
X0246262Y0081800D01*
X0248133Y0081800D01*
X0248133Y0086600D01*
X0248133Y0087000D01*
X0243333Y0087000D01*
X0243333Y0088871D01*
X0246262Y0091800D01*
X0248133Y0091800D01*
X0248133Y0087000D01*
X0248533Y0087000D01*
X0248533Y0091800D01*
X0250404Y0091800D01*
X0252533Y0089671D01*
X0252533Y0093546D01*
X0253588Y0094600D01*
X0299079Y0094600D01*
X0300133Y0093546D01*
X0300133Y0078600D01*
X0364079Y0078600D01*
X0365133Y0077546D01*
X0365133Y0013900D01*
X0385333Y0013900D01*
X0385333Y0014051D01*
X0386499Y0018400D01*
X0386499Y0018400D01*
X0388750Y0022300D01*
X0388750Y0022300D01*
X0391934Y0025483D01*
X0391934Y0025483D01*
X0395833Y0027735D01*
X0395833Y0027735D01*
X0400182Y0028900D01*
X0400333Y0028900D01*
X0400333Y0254649D01*
X0400278Y0254648D01*
X0400278Y0254648D01*
X0395991Y0255688D01*
X0395991Y0255688D01*
X0392119Y0257801D01*
X0392119Y0257801D01*
X0388926Y0260845D01*
X0388926Y0260845D01*
X0386630Y0264612D01*
X0386630Y0264612D01*
X0385387Y0268845D01*
X0385387Y0268845D01*
X0385383Y0269000D01*
X0353333Y0269000D01*
X0353333Y0240600D01*
X0360979Y0240600D01*
X0367483Y0234096D01*
X0368459Y0234500D01*
X0370408Y0234500D01*
X0372209Y0233754D01*
X0373587Y0232376D01*
X0374333Y0230575D01*
X0374333Y0228625D01*
X0373587Y0226824D01*
X0372209Y0225446D01*
X0370408Y0224700D01*
X0368459Y0224700D01*
X0366658Y0225446D01*
X0365279Y0226824D01*
X0364533Y0228625D01*
X0364533Y0230575D01*
X0364937Y0231550D01*
X0359488Y0237000D01*
X0353333Y0237000D01*
X0353333Y0214346D01*
X0364533Y0203146D01*
X0364533Y0204975D01*
X0365279Y0206776D01*
X0366658Y0208154D01*
X0368459Y0208900D01*
X0370408Y0208900D01*
X0372209Y0208154D01*
X0373587Y0206776D01*
X0374333Y0204975D01*
X0374333Y0203025D01*
X0373587Y0201224D01*
X0372209Y0199846D01*
X0370408Y0199100D01*
X0368579Y0199100D01*
X0371233Y0196446D01*
X0371233Y0194158D01*
X0372209Y0193754D01*
X0373587Y0192376D01*
X0374333Y0190575D01*
X0374333Y0188625D01*
X0373587Y0186824D01*
X0372209Y0185446D01*
X0370408Y0184700D01*
X0368459Y0184700D01*
X0366658Y0185446D01*
X0365279Y0186824D01*
X0364533Y0188625D01*
X0364533Y0190575D01*
X0365279Y0192376D01*
X0366658Y0193754D01*
X0367633Y0194158D01*
X0367633Y0194954D01*
X0353333Y0209254D01*
X0353333Y0175730D01*
X0354487Y0174576D01*
X0355153Y0172970D01*
X0355164Y0173041D01*
X0355422Y0173834D01*
X0355800Y0174578D01*
X0356291Y0175253D01*
X0356881Y0175843D01*
X0357556Y0176333D01*
X0358299Y0176712D01*
X0359092Y0176969D01*
X0359916Y0177100D01*
X0359933Y0177100D01*
X0359933Y0172200D01*
X0360733Y0172200D01*
X0360733Y0177100D01*
X0360750Y0177100D01*
X0361574Y0176969D01*
X0362368Y0176712D01*
X0363111Y0176333D01*
X0363786Y0175843D01*
X0364376Y0175253D01*
X0364866Y0174578D01*
X0365245Y0173834D01*
X0365503Y0173041D01*
X0365633Y0172217D01*
X0365633Y0172200D01*
X0360733Y0172200D01*
X0360733Y0171400D01*
X0360733Y0166500D01*
X0360750Y0166500D01*
X0361574Y0166630D01*
X0362368Y0166888D01*
X0363111Y0167267D01*
X0363786Y0167757D01*
X0364376Y0168347D01*
X0364866Y0169022D01*
X0365245Y0169766D01*
X0365503Y0170559D01*
X0365633Y0171383D01*
X0365633Y0171400D01*
X0360733Y0171400D01*
X0359933Y0171400D01*
X0359933Y0166500D01*
X0359916Y0166500D01*
X0359092Y0166630D01*
X0358299Y0166888D01*
X0357556Y0167267D01*
X0356881Y0167757D01*
X0356291Y0168347D01*
X0355800Y0169022D01*
X0355422Y0169766D01*
X0355164Y0170559D01*
X0355153Y0170630D01*
X0354487Y0169024D01*
X0353333Y0167870D01*
X0353333Y0131800D01*
X0135133Y0131800D01*
X0135133Y0111358D01*
X0136109Y0110954D01*
X0137463Y0109600D01*
X0143890Y0109600D01*
X0144919Y0109174D01*
X0167393Y0086700D01*
X0169308Y0086700D01*
X0171109Y0085954D01*
X0172487Y0084576D01*
X0173233Y0082775D01*
X0173233Y0080825D01*
X0172487Y0079024D01*
X0171109Y0077646D01*
X0169308Y0076900D01*
X0167359Y0076900D01*
X0165558Y0077646D01*
X0164179Y0079024D01*
X0163433Y0080825D01*
X0163433Y0082740D01*
X0142174Y0104000D01*
X0137463Y0104000D01*
X0136109Y0102646D01*
X0134308Y0101900D01*
X0132359Y0101900D01*
X0130558Y0102646D01*
X0129179Y0104024D01*
X0128433Y0105825D01*
X0128433Y0107775D01*
X0129179Y0109576D01*
X0130558Y0110954D01*
X0131533Y0111358D01*
X0131533Y0131800D01*
X0080133Y0131800D01*
X0080133Y0111358D01*
X0081109Y0110954D01*
X0082487Y0109576D01*
X0083233Y0107775D01*
X0083233Y0105825D01*
X0082487Y0104024D01*
X0081109Y0102646D01*
X0079308Y0101900D01*
X0077359Y0101900D01*
X0075558Y0102646D01*
X0074179Y0104024D01*
X0073433Y0105825D01*
X0073433Y0107775D01*
X0074179Y0109576D01*
X0075558Y0110954D01*
X0076533Y0111358D01*
X0076533Y0131800D01*
X0060133Y0131800D01*
X0060133Y0111358D01*
X0061109Y0110954D01*
X0062487Y0109576D01*
X0063233Y0107775D01*
X0063233Y0105860D01*
X0073550Y0095543D01*
X0073433Y0095825D01*
X0073433Y0097775D01*
X0074179Y0099576D01*
X0075558Y0100954D01*
X0077359Y0101700D01*
X0079308Y0101700D01*
X0081109Y0100954D01*
X0082487Y0099576D01*
X0083233Y0097775D01*
X0083233Y0095825D01*
X0082487Y0094024D01*
X0081109Y0092646D01*
X0079308Y0091900D01*
X0077359Y0091900D01*
X0077076Y0092017D01*
X0077393Y0091700D01*
X0079308Y0091700D01*
X0081109Y0090954D01*
X0082487Y0089576D01*
X0083233Y0087775D01*
X0083233Y0085825D01*
X0082487Y0084024D01*
X0081109Y0082646D01*
X0079308Y0081900D01*
X0077359Y0081900D01*
X0075558Y0082646D01*
X0074179Y0084024D01*
X0073433Y0085825D01*
X0073433Y0087740D01*
X0063116Y0098057D01*
X0063233Y0097775D01*
X0063233Y0095825D01*
X0062487Y0094024D01*
X0061109Y0092646D01*
X0059308Y0091900D01*
X0057359Y0091900D01*
X0055558Y0092646D01*
X0054179Y0094024D01*
X0053433Y0095825D01*
X0053433Y0097775D01*
X0054179Y0099576D01*
X0055558Y0100954D01*
X0057359Y0101700D01*
X0059308Y0101700D01*
X0059591Y0101583D01*
X0059274Y0101900D01*
X0057359Y0101900D01*
X0055558Y0102646D01*
X0054179Y0104024D01*
X0053433Y0105825D01*
X0053433Y0107775D01*
X0054179Y0109576D01*
X0055558Y0110954D01*
X0056533Y0111358D01*
X0056533Y0131800D01*
X0040133Y0131800D01*
X0040133Y0117546D01*
X0043141Y0114538D01*
X0043558Y0114954D01*
X0045359Y0115700D01*
X0047308Y0115700D01*
X0049109Y0114954D01*
X0050487Y0113576D01*
X0051233Y0111775D01*
X0051233Y0109825D01*
X0050487Y0108024D01*
X0049109Y0106646D01*
X0047308Y0105900D01*
X0045359Y0105900D01*
X0043558Y0106646D01*
X0042179Y0108024D01*
X0041433Y0109825D01*
X0041433Y0111154D01*
X0038133Y0114454D01*
X0038133Y0092546D01*
X0052079Y0078600D01*
X0082588Y0078600D01*
X0099533Y0095546D01*
X0099533Y0107242D01*
X0098558Y0107646D01*
X0097179Y0109024D01*
X0096433Y0110825D01*
X0096433Y0112775D01*
X0097179Y0114576D01*
X0098558Y0115954D01*
X0100359Y0116700D01*
X0102308Y0116700D01*
X0104109Y0115954D01*
X0105487Y0114576D01*
X0106233Y0112775D01*
X0106233Y0110825D01*
X0105487Y0109024D01*
X0104109Y0107646D01*
X0103133Y0107242D01*
X0103133Y0094054D01*
X0102079Y0093000D01*
X0084079Y0075000D01*
X0050588Y0075000D01*
X0049533Y0076054D01*
X0035433Y0090154D01*
X0035433Y0089497D02*
X0036090Y0089497D01*
X0035433Y0088299D02*
X0037289Y0088299D01*
X0038487Y0087100D02*
X0035433Y0087100D01*
X0035433Y0085902D02*
X0039686Y0085902D01*
X0040884Y0084703D02*
X0035433Y0084703D01*
X0035433Y0083505D02*
X0042083Y0083505D01*
X0043282Y0082306D02*
X0035433Y0082306D01*
X0035433Y0081108D02*
X0044480Y0081108D01*
X0045679Y0079909D02*
X0035433Y0079909D01*
X0035433Y0078711D02*
X0046877Y0078711D01*
X0048076Y0077512D02*
X0035433Y0077512D01*
X0035433Y0076314D02*
X0049274Y0076314D01*
X0048720Y0075115D02*
X0050473Y0075115D01*
X0050146Y0073917D02*
X0096906Y0073917D01*
X0096433Y0072718D02*
X0050843Y0072718D01*
X0051233Y0071520D02*
X0055922Y0071520D01*
X0055556Y0071333D02*
X0056299Y0071712D01*
X0057092Y0071969D01*
X0057916Y0072100D01*
X0057933Y0072100D01*
X0057933Y0067200D01*
X0057933Y0066400D01*
X0053033Y0066400D01*
X0053033Y0066383D01*
X0053164Y0065559D01*
X0053422Y0064766D01*
X0053800Y0064022D01*
X0054291Y0063347D01*
X0054881Y0062757D01*
X0055556Y0062267D01*
X0056299Y0061888D01*
X0057092Y0061630D01*
X0057916Y0061500D01*
X0057933Y0061500D01*
X0057933Y0066400D01*
X0058733Y0066400D01*
X0058733Y0061500D01*
X0058750Y0061500D01*
X0059574Y0061630D01*
X0060368Y0061888D01*
X0061111Y0062267D01*
X0061786Y0062757D01*
X0062376Y0063347D01*
X0062866Y0064022D01*
X0063245Y0064766D01*
X0063503Y0065559D01*
X0063633Y0066383D01*
X0063633Y0066400D01*
X0058733Y0066400D01*
X0058733Y0067200D01*
X0057933Y0067200D01*
X0053033Y0067200D01*
X0053033Y0067217D01*
X0053164Y0068041D01*
X0053422Y0068834D01*
X0053800Y0069578D01*
X0054291Y0070253D01*
X0054881Y0070843D01*
X0055556Y0071333D01*
X0054359Y0070321D02*
X0051233Y0070321D01*
X0050942Y0069123D02*
X0053568Y0069123D01*
X0053145Y0067924D02*
X0050387Y0067924D01*
X0049189Y0066726D02*
X0057933Y0066726D01*
X0058333Y0066800D02*
X0058333Y0056800D01*
X0048333Y0046800D01*
X0047949Y0046351D02*
X0048718Y0046351D01*
X0048718Y0047549D02*
X0047949Y0047549D01*
X0047949Y0048748D02*
X0048718Y0048748D01*
X0048718Y0049946D02*
X0047949Y0049946D01*
X0047949Y0051145D02*
X0048718Y0051145D01*
X0051710Y0051145D02*
X0081443Y0051145D01*
X0082641Y0049946D02*
X0052846Y0049946D01*
X0053483Y0048748D02*
X0083620Y0048748D01*
X0083233Y0047549D02*
X0053783Y0047549D01*
X0053831Y0046351D02*
X0083233Y0046351D01*
X0083496Y0045152D02*
X0053581Y0045152D01*
X0053056Y0043954D02*
X0083992Y0043954D01*
X0085165Y0042755D02*
X0052067Y0042755D01*
X0049995Y0041557D02*
X0085545Y0041557D01*
X0084346Y0040358D02*
X0045321Y0040358D01*
X0046519Y0039160D02*
X0083148Y0039160D01*
X0081949Y0037961D02*
X0047718Y0037961D01*
X0048916Y0036763D02*
X0080751Y0036763D01*
X0079552Y0035564D02*
X0050115Y0035564D01*
X0051313Y0034366D02*
X0078354Y0034366D01*
X0077155Y0033167D02*
X0052512Y0033167D01*
X0053710Y0031969D02*
X0075956Y0031969D01*
X0081048Y0031969D02*
X0103619Y0031969D01*
X0102420Y0033167D02*
X0082246Y0033167D01*
X0083445Y0034366D02*
X0101222Y0034366D01*
X0100023Y0035564D02*
X0084643Y0035564D01*
X0085842Y0036763D02*
X0098825Y0036763D01*
X0097626Y0037961D02*
X0087040Y0037961D01*
X0088239Y0039160D02*
X0096428Y0039160D01*
X0095229Y0040358D02*
X0089437Y0040358D01*
X0090133Y0041557D02*
X0094533Y0041557D01*
X0094533Y0042755D02*
X0091501Y0042755D01*
X0092675Y0043954D02*
X0094533Y0043954D01*
X0094533Y0045152D02*
X0093171Y0045152D01*
X0093433Y0046351D02*
X0094533Y0046351D01*
X0094533Y0047549D02*
X0093433Y0047549D01*
X0093047Y0048748D02*
X0094533Y0048748D01*
X0094533Y0049946D02*
X0092399Y0049946D01*
X0091171Y0051145D02*
X0094533Y0051145D01*
X0094533Y0052343D02*
X0085335Y0052343D01*
X0084137Y0053542D02*
X0094533Y0053542D01*
X0094533Y0054740D02*
X0082938Y0054740D01*
X0081740Y0055939D02*
X0094533Y0055939D01*
X0094533Y0057137D02*
X0080541Y0057137D01*
X0080133Y0058336D02*
X0094533Y0058336D01*
X0094533Y0059534D02*
X0080133Y0059534D01*
X0080133Y0060733D02*
X0094533Y0060733D01*
X0094533Y0061932D02*
X0080133Y0061932D01*
X0081593Y0063130D02*
X0094533Y0063130D01*
X0094533Y0064329D02*
X0082613Y0064329D01*
X0083110Y0065527D02*
X0094533Y0065527D01*
X0094533Y0066726D02*
X0083233Y0066726D01*
X0083171Y0067924D02*
X0094912Y0067924D01*
X0096110Y0069123D02*
X0082675Y0069123D01*
X0081742Y0070321D02*
X0096642Y0070321D01*
X0096433Y0071520D02*
X0079743Y0071520D01*
X0076923Y0071520D02*
X0060745Y0071520D01*
X0061111Y0071333D02*
X0060368Y0071712D01*
X0059574Y0071969D01*
X0058750Y0072100D01*
X0058733Y0072100D01*
X0058733Y0067200D01*
X0063633Y0067200D01*
X0063633Y0067217D01*
X0063503Y0068041D01*
X0063245Y0068834D01*
X0062866Y0069578D01*
X0062376Y0070253D01*
X0061786Y0070843D01*
X0061111Y0071333D01*
X0062308Y0070321D02*
X0074925Y0070321D01*
X0073992Y0069123D02*
X0063098Y0069123D01*
X0063521Y0067924D02*
X0073495Y0067924D01*
X0073433Y0066726D02*
X0058733Y0066726D01*
X0058733Y0067924D02*
X0057933Y0067924D01*
X0057933Y0069123D02*
X0058733Y0069123D01*
X0058733Y0070321D02*
X0057933Y0070321D01*
X0057933Y0071520D02*
X0058733Y0071520D01*
X0058733Y0065527D02*
X0057933Y0065527D01*
X0057933Y0064329D02*
X0058733Y0064329D01*
X0058733Y0063130D02*
X0057933Y0063130D01*
X0057933Y0061932D02*
X0058733Y0061932D01*
X0060453Y0061932D02*
X0076533Y0061932D01*
X0076533Y0060733D02*
X0043133Y0060733D01*
X0043133Y0059534D02*
X0076533Y0059534D01*
X0076533Y0058336D02*
X0043133Y0058336D01*
X0043133Y0057137D02*
X0076533Y0057137D01*
X0076649Y0055939D02*
X0043133Y0055939D01*
X0043133Y0054740D02*
X0077847Y0054740D01*
X0079046Y0053542D02*
X0043133Y0053542D01*
X0043133Y0052343D02*
X0080244Y0052343D01*
X0078333Y0056800D02*
X0078333Y0066800D01*
X0075074Y0063130D02*
X0062159Y0063130D01*
X0063022Y0064329D02*
X0074053Y0064329D01*
X0073557Y0065527D02*
X0063492Y0065527D01*
X0056214Y0061932D02*
X0043133Y0061932D01*
X0043133Y0063130D02*
X0054508Y0063130D01*
X0053644Y0064329D02*
X0043133Y0064329D01*
X0043606Y0065527D02*
X0053174Y0065527D01*
X0046333Y0070800D02*
X0041333Y0065800D01*
X0041333Y0041800D01*
X0063833Y0019300D01*
X0068333Y0019300D01*
X0072857Y0021182D02*
X0114406Y0021182D01*
X0115604Y0019984D02*
X0073233Y0019984D01*
X0073233Y0020275D02*
X0072560Y0021900D01*
X0074308Y0021900D01*
X0076109Y0022646D01*
X0077487Y0024024D01*
X0078233Y0025825D01*
X0078233Y0026800D01*
X0108788Y0026800D01*
X0118088Y0017500D01*
X0118775Y0017500D01*
X0119179Y0016524D01*
X0120558Y0015146D01*
X0122359Y0014400D01*
X0124308Y0014400D01*
X0126109Y0015146D01*
X0127487Y0016524D01*
X0128233Y0018325D01*
X0128233Y0020275D01*
X0127560Y0021900D01*
X0129308Y0021900D01*
X0131109Y0022646D01*
X0132487Y0024024D01*
X0133233Y0025825D01*
X0133233Y0026800D01*
X0288333Y0026800D01*
X0288333Y0013900D01*
X0050433Y0013900D01*
X0050433Y0014051D01*
X0049268Y0018400D01*
X0049268Y0018400D01*
X0047017Y0022300D01*
X0043833Y0025483D01*
X0041553Y0026800D01*
X0053788Y0026800D01*
X0063088Y0017500D01*
X0063775Y0017500D01*
X0064179Y0016524D01*
X0065558Y0015146D01*
X0067359Y0014400D01*
X0069308Y0014400D01*
X0071109Y0015146D01*
X0072487Y0016524D01*
X0073233Y0018325D01*
X0073233Y0020275D01*
X0073233Y0018785D02*
X0116803Y0018785D01*
X0118001Y0017587D02*
X0072927Y0017587D01*
X0072351Y0016388D02*
X0119316Y0016388D01*
X0120514Y0015190D02*
X0071153Y0015190D01*
X0065514Y0015190D02*
X0050128Y0015190D01*
X0050433Y0013991D02*
X0288333Y0013991D01*
X0288333Y0015190D02*
X0126153Y0015190D01*
X0127351Y0016388D02*
X0288333Y0016388D01*
X0288333Y0017587D02*
X0127927Y0017587D01*
X0128233Y0018785D02*
X0288333Y0018785D01*
X0288333Y0019984D02*
X0128233Y0019984D01*
X0127857Y0021182D02*
X0288333Y0021182D01*
X0288333Y0022381D02*
X0130468Y0022381D01*
X0132042Y0023579D02*
X0288333Y0023579D01*
X0288333Y0024778D02*
X0132799Y0024778D01*
X0133233Y0025976D02*
X0288333Y0025976D01*
X0298333Y0031800D02*
X0253333Y0031800D01*
X0253333Y0066800D01*
X0271533Y0066800D01*
X0271533Y0066054D01*
X0272588Y0065000D01*
X0298333Y0065000D01*
X0298333Y0031800D01*
X0298333Y0031969D02*
X0253333Y0031969D01*
X0253333Y0033167D02*
X0298333Y0033167D01*
X0298333Y0034366D02*
X0253333Y0034366D01*
X0253333Y0035564D02*
X0298333Y0035564D01*
X0298333Y0036763D02*
X0253333Y0036763D01*
X0253333Y0037961D02*
X0298333Y0037961D01*
X0298333Y0039160D02*
X0253333Y0039160D01*
X0253333Y0040358D02*
X0298333Y0040358D01*
X0298333Y0041557D02*
X0253333Y0041557D01*
X0253333Y0042755D02*
X0298333Y0042755D01*
X0298333Y0043954D02*
X0253333Y0043954D01*
X0253333Y0045152D02*
X0298333Y0045152D01*
X0298333Y0046351D02*
X0253333Y0046351D01*
X0253333Y0047549D02*
X0298333Y0047549D01*
X0298333Y0048748D02*
X0253333Y0048748D01*
X0253333Y0049946D02*
X0298333Y0049946D01*
X0298333Y0051145D02*
X0253333Y0051145D01*
X0253333Y0052343D02*
X0298333Y0052343D01*
X0298333Y0053542D02*
X0253333Y0053542D01*
X0253333Y0054740D02*
X0298333Y0054740D01*
X0298333Y0055939D02*
X0253333Y0055939D01*
X0253333Y0057137D02*
X0298333Y0057137D01*
X0298333Y0058336D02*
X0253333Y0058336D01*
X0253333Y0059534D02*
X0298333Y0059534D01*
X0298333Y0060733D02*
X0253333Y0060733D01*
X0253333Y0061932D02*
X0298333Y0061932D01*
X0298333Y0063130D02*
X0253333Y0063130D01*
X0253333Y0064329D02*
X0298333Y0064329D01*
X0303333Y0064329D02*
X0363333Y0064329D01*
X0363333Y0065527D02*
X0303333Y0065527D01*
X0303333Y0066726D02*
X0363333Y0066726D01*
X0363333Y0067924D02*
X0273333Y0067924D01*
X0273333Y0066800D02*
X0273333Y0076800D01*
X0363333Y0076800D01*
X0363333Y0013900D01*
X0303333Y0013900D01*
X0303333Y0066800D01*
X0273333Y0066800D01*
X0272061Y0065527D02*
X0253333Y0065527D01*
X0253333Y0066726D02*
X0271533Y0066726D01*
X0271533Y0069123D02*
X0191053Y0069123D01*
X0191068Y0069138D02*
X0191425Y0070000D01*
X0222305Y0070000D01*
X0222505Y0069800D01*
X0224162Y0069800D01*
X0236562Y0082200D01*
X0240239Y0082200D01*
X0242933Y0084895D01*
X0242933Y0088705D01*
X0240239Y0091400D01*
X0236428Y0091400D01*
X0233733Y0088705D01*
X0233733Y0085028D01*
X0222305Y0073600D01*
X0191425Y0073600D01*
X0191068Y0074462D01*
X0189746Y0075784D01*
X0188018Y0076500D01*
X0186148Y0076500D01*
X0184421Y0075784D01*
X0183099Y0074462D01*
X0182383Y0072735D01*
X0182383Y0070865D01*
X0183099Y0069138D01*
X0184421Y0067816D01*
X0186148Y0067100D01*
X0188018Y0067100D01*
X0189746Y0067816D01*
X0191068Y0069138D01*
X0189854Y0067924D02*
X0251912Y0067924D01*
X0251533Y0066726D02*
X0153133Y0066726D01*
X0153133Y0067924D02*
X0184312Y0067924D01*
X0183114Y0069123D02*
X0153133Y0069123D01*
X0153133Y0070321D02*
X0182609Y0070321D01*
X0182383Y0071520D02*
X0152573Y0071520D01*
X0151375Y0072718D02*
X0182383Y0072718D01*
X0182873Y0073917D02*
X0150176Y0073917D01*
X0148978Y0075115D02*
X0183752Y0075115D01*
X0185699Y0076314D02*
X0147779Y0076314D01*
X0146581Y0077512D02*
X0165881Y0077512D01*
X0164493Y0078711D02*
X0145382Y0078711D01*
X0144184Y0079909D02*
X0163813Y0079909D01*
X0163433Y0081108D02*
X0142985Y0081108D01*
X0141787Y0082306D02*
X0163433Y0082306D01*
X0162669Y0083505D02*
X0140588Y0083505D01*
X0139390Y0084703D02*
X0161470Y0084703D01*
X0160272Y0085902D02*
X0138233Y0085902D01*
X0138233Y0087100D02*
X0159073Y0087100D01*
X0157875Y0088299D02*
X0138016Y0088299D01*
X0137520Y0089497D02*
X0156676Y0089497D01*
X0155478Y0090696D02*
X0136367Y0090696D01*
X0136556Y0093093D02*
X0153081Y0093093D01*
X0154279Y0091894D02*
X0132199Y0091894D01*
X0126676Y0089497D02*
X0117520Y0089497D01*
X0117487Y0089576D02*
X0116109Y0090954D01*
X0114308Y0091700D01*
X0112359Y0091700D01*
X0110558Y0090954D01*
X0109179Y0089576D01*
X0108433Y0087775D01*
X0108433Y0085825D01*
X0109179Y0084024D01*
X0110558Y0082646D01*
X0112359Y0081900D01*
X0114308Y0081900D01*
X0116109Y0082646D01*
X0117487Y0084024D01*
X0118233Y0085825D01*
X0118233Y0087775D01*
X0117487Y0089576D01*
X0118016Y0088299D02*
X0127875Y0088299D01*
X0128433Y0087100D02*
X0118233Y0087100D01*
X0118233Y0085902D02*
X0128433Y0085902D01*
X0128898Y0084703D02*
X0117769Y0084703D01*
X0116968Y0083505D02*
X0129699Y0083505D01*
X0131378Y0082306D02*
X0115289Y0082306D01*
X0111378Y0082306D02*
X0091385Y0082306D01*
X0090187Y0081108D02*
X0135066Y0081108D01*
X0136264Y0079909D02*
X0088988Y0079909D01*
X0087790Y0078711D02*
X0137463Y0078711D01*
X0138661Y0077512D02*
X0086591Y0077512D01*
X0085393Y0076314D02*
X0099426Y0076314D01*
X0097719Y0075115D02*
X0084194Y0075115D01*
X0083333Y0076800D02*
X0101333Y0094800D01*
X0101333Y0111800D01*
X0096828Y0109872D02*
X0082191Y0109872D01*
X0082861Y0108673D02*
X0097530Y0108673D01*
X0098971Y0107475D02*
X0083233Y0107475D01*
X0083233Y0106276D02*
X0099533Y0106276D01*
X0099533Y0105078D02*
X0082924Y0105078D01*
X0082342Y0103879D02*
X0099533Y0103879D01*
X0099533Y0102681D02*
X0081144Y0102681D01*
X0079833Y0101482D02*
X0099533Y0101482D01*
X0099533Y0100284D02*
X0081779Y0100284D01*
X0082690Y0099085D02*
X0099533Y0099085D01*
X0099533Y0097887D02*
X0083187Y0097887D01*
X0083233Y0096688D02*
X0099533Y0096688D01*
X0099478Y0095490D02*
X0083094Y0095490D01*
X0082598Y0094291D02*
X0098279Y0094291D01*
X0097081Y0093093D02*
X0081556Y0093093D01*
X0081367Y0090696D02*
X0094684Y0090696D01*
X0095882Y0091894D02*
X0077199Y0091894D01*
X0071676Y0089497D02*
X0062520Y0089497D01*
X0062487Y0089576D02*
X0061109Y0090954D01*
X0059308Y0091700D01*
X0057359Y0091700D01*
X0055558Y0090954D01*
X0054179Y0089576D01*
X0053433Y0087775D01*
X0053433Y0085825D01*
X0054179Y0084024D01*
X0055558Y0082646D01*
X0057359Y0081900D01*
X0059308Y0081900D01*
X0061109Y0082646D01*
X0062487Y0084024D01*
X0063233Y0085825D01*
X0063233Y0087775D01*
X0062487Y0089576D01*
X0063016Y0088299D02*
X0072875Y0088299D01*
X0073433Y0087100D02*
X0063233Y0087100D01*
X0063233Y0085902D02*
X0073433Y0085902D01*
X0073898Y0084703D02*
X0062769Y0084703D01*
X0061968Y0083505D02*
X0074699Y0083505D01*
X0076378Y0082306D02*
X0060289Y0082306D01*
X0056378Y0082306D02*
X0048373Y0082306D01*
X0049571Y0081108D02*
X0085095Y0081108D01*
X0083897Y0079909D02*
X0050770Y0079909D01*
X0051968Y0078711D02*
X0082698Y0078711D01*
X0083333Y0076800D02*
X0051333Y0076800D01*
X0036333Y0091800D01*
X0036333Y0228800D01*
X0046333Y0238800D01*
X0201333Y0238800D01*
X0213333Y0226800D01*
X0208805Y0224929D02*
X0207862Y0224929D01*
X0208233Y0225825D02*
X0207487Y0224024D01*
X0206109Y0222646D01*
X0204308Y0221900D01*
X0202359Y0221900D01*
X0200558Y0222646D01*
X0199179Y0224024D01*
X0198433Y0225825D01*
X0198433Y0227775D01*
X0198837Y0228750D01*
X0192588Y0235000D01*
X0049079Y0235000D01*
X0045030Y0230951D01*
X0045556Y0231333D01*
X0046299Y0231712D01*
X0047092Y0231969D01*
X0047916Y0232100D01*
X0048047Y0232100D01*
X0048047Y0227086D01*
X0048047Y0226514D01*
X0043033Y0226514D01*
X0043033Y0226383D01*
X0043164Y0225559D01*
X0043422Y0224766D01*
X0043800Y0224022D01*
X0044291Y0223347D01*
X0044881Y0222757D01*
X0045556Y0222267D01*
X0046299Y0221888D01*
X0047092Y0221630D01*
X0047916Y0221500D01*
X0048047Y0221500D01*
X0048047Y0226514D01*
X0048619Y0226514D01*
X0048619Y0221500D01*
X0048750Y0221500D01*
X0049574Y0221630D01*
X0050368Y0221888D01*
X0051111Y0222267D01*
X0051786Y0222757D01*
X0052376Y0223347D01*
X0052866Y0224022D01*
X0053245Y0224766D01*
X0053503Y0225559D01*
X0053633Y0226383D01*
X0053633Y0226514D01*
X0048619Y0226514D01*
X0048619Y0227086D01*
X0048047Y0227086D01*
X0043033Y0227086D01*
X0043033Y0227217D01*
X0043164Y0228041D01*
X0043422Y0228834D01*
X0043800Y0229578D01*
X0044182Y0230103D01*
X0040133Y0226054D01*
X0040133Y0136800D01*
X0056533Y0136800D01*
X0056533Y0162546D01*
X0057588Y0163600D01*
X0083837Y0189850D01*
X0083433Y0190825D01*
X0083433Y0192775D01*
X0084179Y0194576D01*
X0085558Y0195954D01*
X0087359Y0196700D01*
X0089308Y0196700D01*
X0091109Y0195954D01*
X0092487Y0194576D01*
X0093233Y0192775D01*
X0093233Y0190825D01*
X0092487Y0189024D01*
X0091109Y0187646D01*
X0089308Y0186900D01*
X0087359Y0186900D01*
X0086383Y0187304D01*
X0060133Y0161054D01*
X0060133Y0136800D01*
X0076533Y0136800D01*
X0076533Y0172546D01*
X0077588Y0173600D01*
X0083837Y0179850D01*
X0083433Y0180825D01*
X0083433Y0182775D01*
X0084179Y0184576D01*
X0085558Y0185954D01*
X0087359Y0186700D01*
X0089308Y0186700D01*
X0091109Y0185954D01*
X0092487Y0184576D01*
X0093233Y0182775D01*
X0093233Y0180825D01*
X0092487Y0179024D01*
X0091109Y0177646D01*
X0089308Y0176900D01*
X0087359Y0176900D01*
X0086383Y0177304D01*
X0080133Y0171054D01*
X0080133Y0136800D01*
X0131533Y0136800D01*
X0131533Y0182546D01*
X0132588Y0183600D01*
X0138837Y0189850D01*
X0138433Y0190825D01*
X0138433Y0192775D01*
X0139179Y0194576D01*
X0139604Y0195000D01*
X0139079Y0195000D01*
X0134079Y0190000D01*
X0107891Y0190000D01*
X0107487Y0189024D01*
X0106109Y0187646D01*
X0104503Y0186981D01*
X0104574Y0186969D01*
X0105368Y0186712D01*
X0106111Y0186333D01*
X0106786Y0185843D01*
X0107376Y0185253D01*
X0107866Y0184578D01*
X0108245Y0183834D01*
X0108503Y0183041D01*
X0108633Y0182217D01*
X0108633Y0182200D01*
X0103733Y0182200D01*
X0103733Y0181400D01*
X0108633Y0181400D01*
X0108633Y0181383D01*
X0108503Y0180559D01*
X0108245Y0179766D01*
X0107866Y0179022D01*
X0107376Y0178347D01*
X0106786Y0177757D01*
X0106111Y0177267D01*
X0105368Y0176888D01*
X0104574Y0176630D01*
X0104503Y0176619D01*
X0106109Y0175954D01*
X0107487Y0174576D01*
X0108233Y0172775D01*
X0108233Y0170825D01*
X0107487Y0169024D01*
X0106109Y0167646D01*
X0105133Y0167242D01*
X0105133Y0161358D01*
X0106109Y0160954D01*
X0107487Y0159576D01*
X0108233Y0157775D01*
X0108233Y0155825D01*
X0107487Y0154024D01*
X0106109Y0152646D01*
X0104308Y0151900D01*
X0102359Y0151900D01*
X0100558Y0152646D01*
X0099179Y0154024D01*
X0098433Y0155825D01*
X0098433Y0157775D01*
X0099179Y0159576D01*
X0100558Y0160954D01*
X0101533Y0161358D01*
X0101533Y0167242D01*
X0100558Y0167646D01*
X0099179Y0169024D01*
X0098433Y0170825D01*
X0098433Y0172775D01*
X0099179Y0174576D01*
X0100558Y0175954D01*
X0102164Y0176619D01*
X0102092Y0176630D01*
X0101299Y0176888D01*
X0100556Y0177267D01*
X0099881Y0177757D01*
X0099291Y0178347D01*
X0098800Y0179022D01*
X0098422Y0179766D01*
X0098164Y0180559D01*
X0098033Y0181383D01*
X0098033Y0181400D01*
X0102933Y0181400D01*
X0102933Y0182200D01*
X0098033Y0182200D01*
X0098033Y0182217D01*
X0098164Y0183041D01*
X0098422Y0183834D01*
X0098800Y0184578D01*
X0099291Y0185253D01*
X0099881Y0185843D01*
X0100556Y0186333D01*
X0101299Y0186712D01*
X0102092Y0186969D01*
X0102164Y0186981D01*
X0100558Y0187646D01*
X0099179Y0189024D01*
X0098433Y0190825D01*
X0098433Y0192775D01*
X0099179Y0194576D01*
X0100558Y0195954D01*
X0102359Y0196700D01*
X0104308Y0196700D01*
X0106109Y0195954D01*
X0107487Y0194576D01*
X0107891Y0193600D01*
X0132588Y0193600D01*
X0136533Y0197546D01*
X0137588Y0198600D01*
X0139604Y0198600D01*
X0139179Y0199024D01*
X0138433Y0200825D01*
X0138433Y0202775D01*
X0139179Y0204576D01*
X0139604Y0205000D01*
X0107063Y0205000D01*
X0107487Y0204576D01*
X0108233Y0202775D01*
X0108233Y0200825D01*
X0107487Y0199024D01*
X0106109Y0197646D01*
X0104308Y0196900D01*
X0102359Y0196900D01*
X0100558Y0197646D01*
X0099179Y0199024D01*
X0098433Y0200825D01*
X0098433Y0202775D01*
X0099179Y0204576D01*
X0099604Y0205000D01*
X0092063Y0205000D01*
X0092487Y0204576D01*
X0093233Y0202775D01*
X0093233Y0200825D01*
X0092487Y0199024D01*
X0091109Y0197646D01*
X0089308Y0196900D01*
X0087359Y0196900D01*
X0085558Y0197646D01*
X0084179Y0199024D01*
X0083433Y0200825D01*
X0083433Y0202775D01*
X0084179Y0204576D01*
X0084604Y0205000D01*
X0084079Y0205000D01*
X0069079Y0190000D01*
X0052891Y0190000D01*
X0052487Y0189024D01*
X0051109Y0187646D01*
X0049503Y0186981D01*
X0049574Y0186969D01*
X0050368Y0186712D01*
X0051111Y0186333D01*
X0051786Y0185843D01*
X0052376Y0185253D01*
X0052866Y0184578D01*
X0053245Y0183834D01*
X0053503Y0183041D01*
X0053633Y0182217D01*
X0053633Y0182200D01*
X0048733Y0182200D01*
X0048733Y0181400D01*
X0053633Y0181400D01*
X0053633Y0181383D01*
X0053503Y0180559D01*
X0053245Y0179766D01*
X0052866Y0179022D01*
X0052376Y0178347D01*
X0051786Y0177757D01*
X0051111Y0177267D01*
X0050368Y0176888D01*
X0049574Y0176630D01*
X0049503Y0176619D01*
X0051109Y0175954D01*
X0052487Y0174576D01*
X0053233Y0172775D01*
X0053233Y0170825D01*
X0052487Y0169024D01*
X0051109Y0167646D01*
X0050133Y0167242D01*
X0050133Y0161358D01*
X0051109Y0160954D01*
X0052487Y0159576D01*
X0053233Y0157775D01*
X0053233Y0155825D01*
X0052487Y0154024D01*
X0051109Y0152646D01*
X0049308Y0151900D01*
X0047359Y0151900D01*
X0045558Y0152646D01*
X0044179Y0154024D01*
X0043433Y0155825D01*
X0043433Y0157775D01*
X0044179Y0159576D01*
X0045558Y0160954D01*
X0046533Y0161358D01*
X0046533Y0167242D01*
X0045558Y0167646D01*
X0044179Y0169024D01*
X0043433Y0170825D01*
X0043433Y0172775D01*
X0044179Y0174576D01*
X0045558Y0175954D01*
X0047164Y0176619D01*
X0047092Y0176630D01*
X0046299Y0176888D01*
X0045556Y0177267D01*
X0044881Y0177757D01*
X0044291Y0178347D01*
X0043800Y0179022D01*
X0043422Y0179766D01*
X0043164Y0180559D01*
X0043033Y0181383D01*
X0043033Y0181400D01*
X0047933Y0181400D01*
X0047933Y0182200D01*
X0043033Y0182200D01*
X0043033Y0182217D01*
X0043164Y0183041D01*
X0043422Y0183834D01*
X0043800Y0184578D01*
X0044291Y0185253D01*
X0044881Y0185843D01*
X0045556Y0186333D01*
X0046299Y0186712D01*
X0047092Y0186969D01*
X0047164Y0186981D01*
X0045558Y0187646D01*
X0044179Y0189024D01*
X0043433Y0190825D01*
X0043433Y0192775D01*
X0044179Y0194576D01*
X0045558Y0195954D01*
X0047359Y0196700D01*
X0049308Y0196700D01*
X0051109Y0195954D01*
X0052487Y0194576D01*
X0052891Y0193600D01*
X0067588Y0193600D01*
X0081533Y0207546D01*
X0082588Y0208600D01*
X0147588Y0208600D01*
X0163837Y0224850D01*
X0163433Y0225825D01*
X0163433Y0227775D01*
X0164179Y0229576D01*
X0165558Y0230954D01*
X0167359Y0231700D01*
X0169308Y0231700D01*
X0171109Y0230954D01*
X0172487Y0229576D01*
X0173233Y0227775D01*
X0173233Y0225825D01*
X0172487Y0224024D01*
X0171109Y0222646D01*
X0169308Y0221900D01*
X0167359Y0221900D01*
X0166383Y0222304D01*
X0149079Y0205000D01*
X0147063Y0205000D01*
X0147487Y0204576D01*
X0148233Y0202775D01*
X0148233Y0200825D01*
X0147487Y0199024D01*
X0147063Y0198600D01*
X0157588Y0198600D01*
X0183837Y0224850D01*
X0183433Y0225825D01*
X0183433Y0227775D01*
X0184179Y0229576D01*
X0185558Y0230954D01*
X0187359Y0231700D01*
X0189308Y0231700D01*
X0191109Y0230954D01*
X0192487Y0229576D01*
X0193233Y0227775D01*
X0193233Y0225825D01*
X0192487Y0224024D01*
X0191109Y0222646D01*
X0189308Y0221900D01*
X0187359Y0221900D01*
X0186383Y0222304D01*
X0159079Y0195000D01*
X0147063Y0195000D01*
X0147487Y0194576D01*
X0148233Y0192775D01*
X0148233Y0190825D01*
X0147487Y0189024D01*
X0146109Y0187646D01*
X0144308Y0186900D01*
X0142359Y0186900D01*
X0141383Y0187304D01*
X0135133Y0181054D01*
X0135133Y0136800D01*
X0348333Y0136800D01*
X0348333Y0142924D01*
X0340121Y0142924D01*
X0339418Y0143627D01*
X0339418Y0146369D01*
X0339229Y0145789D01*
X0338851Y0145046D01*
X0338360Y0144371D01*
X0337770Y0143781D01*
X0337095Y0143291D01*
X0336352Y0142912D01*
X0335559Y0142654D01*
X0334735Y0142524D01*
X0334718Y0142524D01*
X0334718Y0147424D01*
X0333918Y0147424D01*
X0333918Y0142524D01*
X0333900Y0142524D01*
X0333076Y0142654D01*
X0332283Y0142912D01*
X0331540Y0143291D01*
X0330865Y0143781D01*
X0330275Y0144371D01*
X0329785Y0145046D01*
X0329406Y0145789D01*
X0329148Y0146583D01*
X0329137Y0146654D01*
X0328472Y0145048D01*
X0327093Y0143670D01*
X0325292Y0142924D01*
X0323343Y0142924D01*
X0321542Y0143670D01*
X0320164Y0145048D01*
X0319418Y0146849D01*
X0319418Y0148798D01*
X0320164Y0150599D01*
X0321542Y0151978D01*
X0323343Y0152724D01*
X0325292Y0152724D01*
X0326268Y0152319D01*
X0332518Y0158569D01*
X0332518Y0163478D01*
X0332079Y0163039D01*
X0332079Y0163039D01*
X0318813Y0149774D01*
X0319218Y0148798D01*
X0319218Y0146849D01*
X0318472Y0145048D01*
X0317093Y0143670D01*
X0315292Y0142924D01*
X0313343Y0142924D01*
X0311542Y0143670D01*
X0310164Y0145048D01*
X0309418Y0146849D01*
X0309418Y0148798D01*
X0310164Y0150599D01*
X0311542Y0151978D01*
X0313343Y0152724D01*
X0315292Y0152724D01*
X0316268Y0152319D01*
X0329533Y0165585D01*
X0329533Y0224054D01*
X0322588Y0231000D01*
X0315998Y0231000D01*
X0316109Y0230954D01*
X0317487Y0229576D01*
X0318233Y0227775D01*
X0318233Y0225825D01*
X0317487Y0224024D01*
X0316109Y0222646D01*
X0314308Y0221900D01*
X0312359Y0221900D01*
X0310558Y0222646D01*
X0309179Y0224024D01*
X0308433Y0225825D01*
X0308433Y0227775D01*
X0309179Y0229576D01*
X0310558Y0230954D01*
X0310669Y0231000D01*
X0305998Y0231000D01*
X0306109Y0230954D01*
X0307487Y0229576D01*
X0308233Y0227775D01*
X0308233Y0225825D01*
X0307487Y0224024D01*
X0306109Y0222646D01*
X0304308Y0221900D01*
X0302359Y0221900D01*
X0300558Y0222646D01*
X0299179Y0224024D01*
X0298433Y0225825D01*
X0298433Y0227775D01*
X0299179Y0229576D01*
X0300558Y0230954D01*
X0300669Y0231000D01*
X0295998Y0231000D01*
X0296109Y0230954D01*
X0297487Y0229576D01*
X0298233Y0227775D01*
X0298233Y0225825D01*
X0297487Y0224024D01*
X0296109Y0222646D01*
X0294308Y0221900D01*
X0292359Y0221900D01*
X0290558Y0222646D01*
X0289179Y0224024D01*
X0288433Y0225825D01*
X0288433Y0227775D01*
X0289179Y0229576D01*
X0290558Y0230954D01*
X0290669Y0231000D01*
X0285998Y0231000D01*
X0286109Y0230954D01*
X0287487Y0229576D01*
X0288233Y0227775D01*
X0288233Y0225825D01*
X0287487Y0224024D01*
X0286109Y0222646D01*
X0284308Y0221900D01*
X0282359Y0221900D01*
X0280558Y0222646D01*
X0279179Y0224024D01*
X0278433Y0225825D01*
X0278433Y0227775D01*
X0279179Y0229576D01*
X0280558Y0230954D01*
X0280669Y0231000D01*
X0280079Y0231000D01*
X0277829Y0228750D01*
X0278233Y0227775D01*
X0278233Y0225825D01*
X0277487Y0224024D01*
X0276109Y0222646D01*
X0274308Y0221900D01*
X0272359Y0221900D01*
X0270558Y0222646D01*
X0269179Y0224024D01*
X0268433Y0225825D01*
X0268433Y0227775D01*
X0269179Y0229576D01*
X0270558Y0230954D01*
X0272359Y0231700D01*
X0274308Y0231700D01*
X0275284Y0231296D01*
X0276988Y0233000D01*
X0272079Y0233000D01*
X0267829Y0228750D01*
X0268233Y0227775D01*
X0268233Y0225825D01*
X0267487Y0224024D01*
X0266109Y0222646D01*
X0264308Y0221900D01*
X0262359Y0221900D01*
X0260558Y0222646D01*
X0259179Y0224024D01*
X0258433Y0225825D01*
X0258433Y0227775D01*
X0259179Y0229576D01*
X0260558Y0230954D01*
X0262359Y0231700D01*
X0264308Y0231700D01*
X0265284Y0231296D01*
X0268988Y0235000D01*
X0264079Y0235000D01*
X0257829Y0228750D01*
X0258233Y0227775D01*
X0258233Y0225825D01*
X0257487Y0224024D01*
X0256109Y0222646D01*
X0254308Y0221900D01*
X0252359Y0221900D01*
X0250558Y0222646D01*
X0249179Y0224024D01*
X0248433Y0225825D01*
X0248433Y0227775D01*
X0249179Y0229576D01*
X0250558Y0230954D01*
X0252359Y0231700D01*
X0254308Y0231700D01*
X0255284Y0231296D01*
X0260988Y0237000D01*
X0256079Y0237000D01*
X0247829Y0228750D01*
X0248233Y0227775D01*
X0248233Y0225825D01*
X0247487Y0224024D01*
X0246109Y0222646D01*
X0244308Y0221900D01*
X0242359Y0221900D01*
X0240558Y0222646D01*
X0239179Y0224024D01*
X0238433Y0225825D01*
X0238433Y0227775D01*
X0239179Y0229576D01*
X0240558Y0230954D01*
X0242359Y0231700D01*
X0244308Y0231700D01*
X0245284Y0231296D01*
X0253533Y0239546D01*
X0254588Y0240600D01*
X0309961Y0240600D01*
X0309721Y0240664D01*
X0306996Y0242238D01*
X0304771Y0244463D01*
X0303198Y0247187D01*
X0302383Y0250227D01*
X0302383Y0253373D01*
X0303198Y0256413D01*
X0304771Y0259137D01*
X0306996Y0261362D01*
X0309721Y0262936D01*
X0312760Y0263750D01*
X0315907Y0263750D01*
X0318946Y0262936D01*
X0321671Y0261362D01*
X0323896Y0259137D01*
X0325469Y0256413D01*
X0326283Y0253373D01*
X0326283Y0250227D01*
X0325469Y0247187D01*
X0323896Y0244463D01*
X0321671Y0242238D01*
X0318946Y0240664D01*
X0318706Y0240600D01*
X0348333Y0240600D01*
X0348333Y0269000D01*
X0050384Y0269000D01*
X0050380Y0268845D01*
X0050380Y0268845D01*
X0049137Y0264612D01*
X0049137Y0264612D01*
X0046840Y0260845D01*
X0046840Y0260845D01*
X0043647Y0257801D01*
X0043647Y0257801D01*
X0039775Y0255688D01*
X0039775Y0255688D01*
X0035488Y0254648D01*
X0035488Y0254648D01*
X0035433Y0254649D01*
X0035433Y0230446D01*
X0035588Y0230600D01*
X0045588Y0240600D01*
X0053961Y0240600D01*
X0053721Y0240664D01*
X0050996Y0242238D01*
X0048771Y0244463D01*
X0047198Y0247187D01*
X0046383Y0250227D01*
X0046383Y0253373D01*
X0047198Y0256413D01*
X0048771Y0259137D01*
X0050996Y0261362D01*
X0053721Y0262936D01*
X0056760Y0263750D01*
X0059907Y0263750D01*
X0062946Y0262936D01*
X0065671Y0261362D01*
X0067896Y0259137D01*
X0069469Y0256413D01*
X0070283Y0253373D01*
X0070283Y0250227D01*
X0069469Y0247187D01*
X0067896Y0244463D01*
X0065671Y0242238D01*
X0062946Y0240664D01*
X0062706Y0240600D01*
X0117961Y0240600D01*
X0117721Y0240664D01*
X0114996Y0242238D01*
X0112771Y0244463D01*
X0111198Y0247187D01*
X0110383Y0250227D01*
X0110383Y0253373D01*
X0111198Y0256413D01*
X0112771Y0259137D01*
X0114996Y0261362D01*
X0117721Y0262936D01*
X0120760Y0263750D01*
X0123907Y0263750D01*
X0126946Y0262936D01*
X0129671Y0261362D01*
X0131896Y0259137D01*
X0133469Y0256413D01*
X0134283Y0253373D01*
X0134283Y0250227D01*
X0133469Y0247187D01*
X0131896Y0244463D01*
X0129671Y0242238D01*
X0126946Y0240664D01*
X0126706Y0240600D01*
X0181961Y0240600D01*
X0181721Y0240664D01*
X0178996Y0242238D01*
X0176771Y0244463D01*
X0175198Y0247187D01*
X0174383Y0250227D01*
X0174383Y0253373D01*
X0175198Y0256413D01*
X0176771Y0259137D01*
X0178996Y0261362D01*
X0181721Y0262936D01*
X0184760Y0263750D01*
X0187907Y0263750D01*
X0190946Y0262936D01*
X0193671Y0261362D01*
X0195896Y0259137D01*
X0197469Y0256413D01*
X0198283Y0253373D01*
X0198283Y0250227D01*
X0197469Y0247187D01*
X0195896Y0244463D01*
X0193671Y0242238D01*
X0190946Y0240664D01*
X0190706Y0240600D01*
X0202079Y0240600D01*
X0203133Y0239546D01*
X0211383Y0231296D01*
X0212359Y0231700D01*
X0214308Y0231700D01*
X0216109Y0230954D01*
X0217487Y0229576D01*
X0218233Y0227775D01*
X0218233Y0225825D01*
X0217487Y0224024D01*
X0216109Y0222646D01*
X0214308Y0221900D01*
X0212359Y0221900D01*
X0210558Y0222646D01*
X0209179Y0224024D01*
X0208433Y0225825D01*
X0208433Y0227775D01*
X0208837Y0228750D01*
X0200588Y0237000D01*
X0195679Y0237000D01*
X0201383Y0231296D01*
X0202359Y0231700D01*
X0204308Y0231700D01*
X0206109Y0230954D01*
X0207487Y0229576D01*
X0208233Y0227775D01*
X0208233Y0225825D01*
X0208233Y0226128D02*
X0208433Y0226128D01*
X0208433Y0227326D02*
X0208233Y0227326D01*
X0207923Y0228525D02*
X0208744Y0228525D01*
X0207865Y0229723D02*
X0207340Y0229723D01*
X0206666Y0230922D02*
X0206141Y0230922D01*
X0205468Y0232120D02*
X0200559Y0232120D01*
X0199360Y0233319D02*
X0204269Y0233319D01*
X0203071Y0234517D02*
X0198162Y0234517D01*
X0196963Y0235716D02*
X0201872Y0235716D01*
X0200674Y0236914D02*
X0195765Y0236914D01*
X0193333Y0236800D02*
X0048333Y0236800D01*
X0038333Y0226800D01*
X0038333Y0116800D01*
X0044333Y0110800D01*
X0046333Y0110800D01*
X0044450Y0106276D02*
X0038133Y0106276D01*
X0038133Y0105078D02*
X0053743Y0105078D01*
X0053433Y0106276D02*
X0048217Y0106276D01*
X0049938Y0107475D02*
X0053433Y0107475D01*
X0053806Y0108673D02*
X0050756Y0108673D01*
X0051233Y0109872D02*
X0054476Y0109872D01*
X0055839Y0111070D02*
X0051233Y0111070D01*
X0051029Y0112269D02*
X0056533Y0112269D01*
X0056533Y0113468D02*
X0050532Y0113468D01*
X0049397Y0114666D02*
X0056533Y0114666D01*
X0056533Y0115865D02*
X0041814Y0115865D01*
X0040616Y0117063D02*
X0056533Y0117063D01*
X0056533Y0118262D02*
X0040133Y0118262D01*
X0040133Y0119460D02*
X0056533Y0119460D01*
X0056533Y0120659D02*
X0040133Y0120659D01*
X0040133Y0121857D02*
X0056533Y0121857D01*
X0056533Y0123056D02*
X0040133Y0123056D01*
X0040133Y0124254D02*
X0056533Y0124254D01*
X0056533Y0125453D02*
X0040133Y0125453D01*
X0040133Y0126651D02*
X0056533Y0126651D01*
X0056533Y0127850D02*
X0040133Y0127850D01*
X0040133Y0129048D02*
X0056533Y0129048D01*
X0056533Y0130247D02*
X0040133Y0130247D01*
X0040133Y0131445D02*
X0056533Y0131445D01*
X0060133Y0131445D02*
X0076533Y0131445D01*
X0076533Y0130247D02*
X0060133Y0130247D01*
X0060133Y0129048D02*
X0076533Y0129048D01*
X0076533Y0127850D02*
X0060133Y0127850D01*
X0060133Y0126651D02*
X0076533Y0126651D01*
X0076533Y0125453D02*
X0060133Y0125453D01*
X0060133Y0124254D02*
X0076533Y0124254D01*
X0076533Y0123056D02*
X0060133Y0123056D01*
X0060133Y0121857D02*
X0076533Y0121857D01*
X0076533Y0120659D02*
X0060133Y0120659D01*
X0060133Y0119460D02*
X0076533Y0119460D01*
X0076533Y0118262D02*
X0060133Y0118262D01*
X0060133Y0117063D02*
X0076533Y0117063D01*
X0076533Y0115865D02*
X0060133Y0115865D01*
X0060133Y0114666D02*
X0076533Y0114666D01*
X0076533Y0113468D02*
X0060133Y0113468D01*
X0060133Y0112269D02*
X0076533Y0112269D01*
X0075839Y0111070D02*
X0060828Y0111070D01*
X0062191Y0109872D02*
X0074476Y0109872D01*
X0073806Y0108673D02*
X0062861Y0108673D01*
X0063233Y0107475D02*
X0073433Y0107475D01*
X0073433Y0106276D02*
X0063233Y0106276D01*
X0064015Y0105078D02*
X0073743Y0105078D01*
X0074324Y0103879D02*
X0065214Y0103879D01*
X0066412Y0102681D02*
X0075523Y0102681D01*
X0076833Y0101482D02*
X0067611Y0101482D01*
X0068809Y0100284D02*
X0074888Y0100284D01*
X0073976Y0099085D02*
X0070008Y0099085D01*
X0071206Y0097887D02*
X0073480Y0097887D01*
X0073433Y0096688D02*
X0072405Y0096688D01*
X0068081Y0093093D02*
X0061556Y0093093D01*
X0062598Y0094291D02*
X0066882Y0094291D01*
X0065684Y0095490D02*
X0063094Y0095490D01*
X0063233Y0096688D02*
X0064485Y0096688D01*
X0063287Y0097887D02*
X0063187Y0097887D01*
X0056833Y0101482D02*
X0038133Y0101482D01*
X0038133Y0100284D02*
X0054888Y0100284D01*
X0053976Y0099085D02*
X0038133Y0099085D01*
X0038133Y0097887D02*
X0053480Y0097887D01*
X0053433Y0096688D02*
X0038133Y0096688D01*
X0038133Y0095490D02*
X0053572Y0095490D01*
X0054069Y0094291D02*
X0038133Y0094291D01*
X0038133Y0093093D02*
X0055111Y0093093D01*
X0055299Y0090696D02*
X0039983Y0090696D01*
X0038785Y0091894D02*
X0069279Y0091894D01*
X0070478Y0090696D02*
X0061367Y0090696D01*
X0054147Y0089497D02*
X0041182Y0089497D01*
X0042380Y0088299D02*
X0053650Y0088299D01*
X0053433Y0087100D02*
X0043579Y0087100D01*
X0044777Y0085902D02*
X0053433Y0085902D01*
X0053898Y0084703D02*
X0045976Y0084703D01*
X0047174Y0083505D02*
X0054699Y0083505D01*
X0043947Y0075115D02*
X0035433Y0075115D01*
X0035433Y0073917D02*
X0042520Y0073917D01*
X0041824Y0072718D02*
X0035433Y0072718D01*
X0035433Y0071520D02*
X0041433Y0071520D01*
X0041433Y0070321D02*
X0035433Y0070321D01*
X0035433Y0069123D02*
X0041724Y0069123D01*
X0040912Y0067924D02*
X0035433Y0067924D01*
X0035433Y0066726D02*
X0039713Y0066726D01*
X0039533Y0065527D02*
X0035433Y0065527D01*
X0035433Y0064329D02*
X0039533Y0064329D01*
X0039533Y0063130D02*
X0035433Y0063130D01*
X0035433Y0061932D02*
X0039533Y0061932D01*
X0039533Y0060733D02*
X0035433Y0060733D01*
X0035433Y0059534D02*
X0039533Y0059534D01*
X0039533Y0058336D02*
X0035433Y0058336D01*
X0035433Y0057137D02*
X0039533Y0057137D01*
X0039533Y0055939D02*
X0035433Y0055939D01*
X0035433Y0054740D02*
X0039533Y0054740D01*
X0039533Y0053542D02*
X0035433Y0053542D01*
X0035433Y0052343D02*
X0039533Y0052343D01*
X0039533Y0051145D02*
X0035433Y0051145D01*
X0035433Y0049946D02*
X0039533Y0049946D01*
X0039533Y0048748D02*
X0035433Y0048748D01*
X0035433Y0047549D02*
X0039533Y0047549D01*
X0039533Y0046351D02*
X0035433Y0046351D01*
X0035433Y0045152D02*
X0039533Y0045152D01*
X0039533Y0043954D02*
X0035433Y0043954D01*
X0035433Y0042755D02*
X0039533Y0042755D01*
X0039533Y0041557D02*
X0035433Y0041557D01*
X0035433Y0040358D02*
X0040229Y0040358D01*
X0041428Y0039160D02*
X0035433Y0039160D01*
X0035433Y0037961D02*
X0042626Y0037961D01*
X0043825Y0036763D02*
X0035433Y0036763D01*
X0035433Y0035564D02*
X0045023Y0035564D01*
X0046222Y0034366D02*
X0035433Y0034366D01*
X0035433Y0033167D02*
X0047420Y0033167D01*
X0048619Y0031969D02*
X0035433Y0031969D01*
X0042979Y0025976D02*
X0054612Y0025976D01*
X0055810Y0024778D02*
X0044539Y0024778D01*
X0043833Y0025483D02*
X0043833Y0025483D01*
X0045737Y0023579D02*
X0057009Y0023579D01*
X0058207Y0022381D02*
X0046936Y0022381D01*
X0047017Y0022300D02*
X0047017Y0022300D01*
X0047662Y0021182D02*
X0059406Y0021182D01*
X0060604Y0019984D02*
X0048354Y0019984D01*
X0049046Y0018785D02*
X0061803Y0018785D01*
X0063001Y0017587D02*
X0049486Y0017587D01*
X0049807Y0016388D02*
X0064316Y0016388D01*
X0075468Y0022381D02*
X0113207Y0022381D01*
X0112009Y0023579D02*
X0077042Y0023579D01*
X0077799Y0024778D02*
X0110810Y0024778D01*
X0109612Y0025976D02*
X0078233Y0025976D01*
X0073333Y0026800D02*
X0088333Y0041800D01*
X0088333Y0046800D01*
X0078333Y0056800D01*
X0098133Y0057137D02*
X0131533Y0057137D01*
X0131533Y0058336D02*
X0098133Y0058336D01*
X0098133Y0059534D02*
X0131533Y0059534D01*
X0131533Y0060733D02*
X0098133Y0060733D01*
X0098133Y0061932D02*
X0111214Y0061932D01*
X0111299Y0061888D02*
X0112092Y0061630D01*
X0112916Y0061500D01*
X0112933Y0061500D01*
X0112933Y0066400D01*
X0108033Y0066400D01*
X0108033Y0066383D01*
X0108164Y0065559D01*
X0108422Y0064766D01*
X0108800Y0064022D01*
X0109291Y0063347D01*
X0109881Y0062757D01*
X0110556Y0062267D01*
X0111299Y0061888D01*
X0112933Y0061932D02*
X0113733Y0061932D01*
X0113733Y0061500D02*
X0113750Y0061500D01*
X0114574Y0061630D01*
X0115368Y0061888D01*
X0116111Y0062267D01*
X0116786Y0062757D01*
X0117376Y0063347D01*
X0117866Y0064022D01*
X0118245Y0064766D01*
X0118503Y0065559D01*
X0118633Y0066383D01*
X0118633Y0066400D01*
X0113733Y0066400D01*
X0113733Y0061500D01*
X0113733Y0063130D02*
X0112933Y0063130D01*
X0112933Y0064329D02*
X0113733Y0064329D01*
X0113733Y0065527D02*
X0112933Y0065527D01*
X0112933Y0066400D02*
X0113733Y0066400D01*
X0113733Y0067200D01*
X0112933Y0067200D01*
X0112933Y0066400D01*
X0112933Y0066726D02*
X0098804Y0066726D01*
X0098133Y0065527D02*
X0108174Y0065527D01*
X0108644Y0064329D02*
X0098133Y0064329D01*
X0098133Y0063130D02*
X0109508Y0063130D01*
X0108033Y0067200D02*
X0112933Y0067200D01*
X0112933Y0072100D01*
X0112916Y0072100D01*
X0112092Y0071969D01*
X0111299Y0071712D01*
X0110556Y0071333D01*
X0109881Y0070843D01*
X0109291Y0070253D01*
X0108800Y0069578D01*
X0108422Y0068834D01*
X0108164Y0068041D01*
X0108033Y0067217D01*
X0108033Y0067200D01*
X0108145Y0067924D02*
X0104387Y0067924D01*
X0105528Y0069123D02*
X0108568Y0069123D01*
X0109359Y0070321D02*
X0106024Y0070321D01*
X0106233Y0071520D02*
X0110922Y0071520D01*
X0112933Y0071520D02*
X0113733Y0071520D01*
X0113733Y0072100D02*
X0113733Y0067200D01*
X0118633Y0067200D01*
X0118633Y0067217D01*
X0118503Y0068041D01*
X0118245Y0068834D01*
X0117866Y0069578D01*
X0117376Y0070253D01*
X0116786Y0070843D01*
X0116111Y0071333D01*
X0115368Y0071712D01*
X0114574Y0071969D01*
X0113750Y0072100D01*
X0113733Y0072100D01*
X0113733Y0070321D02*
X0112933Y0070321D01*
X0112933Y0069123D02*
X0113733Y0069123D01*
X0113733Y0067924D02*
X0112933Y0067924D01*
X0113333Y0066800D02*
X0113333Y0056800D01*
X0103333Y0046800D01*
X0102949Y0046351D02*
X0103718Y0046351D01*
X0103718Y0047549D02*
X0102949Y0047549D01*
X0102949Y0048748D02*
X0103718Y0048748D01*
X0103718Y0049946D02*
X0102949Y0049946D01*
X0102949Y0051145D02*
X0103718Y0051145D01*
X0106710Y0051145D02*
X0136443Y0051145D01*
X0137641Y0049946D02*
X0107846Y0049946D01*
X0108483Y0048748D02*
X0138620Y0048748D01*
X0138233Y0047549D02*
X0108783Y0047549D01*
X0108831Y0046351D02*
X0138233Y0046351D01*
X0138496Y0045152D02*
X0108581Y0045152D01*
X0108056Y0043954D02*
X0138992Y0043954D01*
X0140165Y0042755D02*
X0107067Y0042755D01*
X0104995Y0041557D02*
X0140545Y0041557D01*
X0139346Y0040358D02*
X0100321Y0040358D01*
X0101519Y0039160D02*
X0138148Y0039160D01*
X0136949Y0037961D02*
X0102718Y0037961D01*
X0103916Y0036763D02*
X0135751Y0036763D01*
X0134552Y0035564D02*
X0105115Y0035564D01*
X0106313Y0034366D02*
X0133354Y0034366D01*
X0132155Y0033167D02*
X0107512Y0033167D01*
X0108710Y0031969D02*
X0130956Y0031969D01*
X0136048Y0031969D02*
X0155533Y0031969D01*
X0155533Y0033167D02*
X0137246Y0033167D01*
X0138445Y0034366D02*
X0155533Y0034366D01*
X0155533Y0035564D02*
X0139643Y0035564D01*
X0140842Y0036763D02*
X0155533Y0036763D01*
X0155533Y0037961D02*
X0142040Y0037961D01*
X0143239Y0039160D02*
X0155533Y0039160D01*
X0155533Y0040358D02*
X0144437Y0040358D01*
X0145133Y0041557D02*
X0155533Y0041557D01*
X0155533Y0042755D02*
X0146501Y0042755D01*
X0147675Y0043954D02*
X0155533Y0043954D01*
X0155533Y0045152D02*
X0148171Y0045152D01*
X0148433Y0046351D02*
X0154823Y0046351D01*
X0153624Y0047549D02*
X0148433Y0047549D01*
X0148047Y0048748D02*
X0152426Y0048748D01*
X0151227Y0049946D02*
X0147399Y0049946D01*
X0146171Y0051145D02*
X0150029Y0051145D01*
X0148830Y0052343D02*
X0140335Y0052343D01*
X0139137Y0053542D02*
X0147824Y0053542D01*
X0147533Y0054740D02*
X0137938Y0054740D01*
X0136740Y0055939D02*
X0147533Y0055939D01*
X0147533Y0057137D02*
X0135541Y0057137D01*
X0135133Y0058336D02*
X0147533Y0058336D01*
X0147533Y0059534D02*
X0135133Y0059534D01*
X0135133Y0060733D02*
X0147533Y0060733D01*
X0147533Y0061932D02*
X0135133Y0061932D01*
X0136593Y0063130D02*
X0147533Y0063130D01*
X0147533Y0064329D02*
X0137613Y0064329D01*
X0138110Y0065527D02*
X0147533Y0065527D01*
X0147533Y0066726D02*
X0138233Y0066726D01*
X0138171Y0067924D02*
X0147533Y0067924D01*
X0147051Y0069123D02*
X0137675Y0069123D01*
X0136742Y0070321D02*
X0145852Y0070321D01*
X0144654Y0071520D02*
X0134743Y0071520D01*
X0131923Y0071520D02*
X0115745Y0071520D01*
X0117308Y0070321D02*
X0129925Y0070321D01*
X0128992Y0069123D02*
X0118098Y0069123D01*
X0118521Y0067924D02*
X0128495Y0067924D01*
X0128433Y0066726D02*
X0113733Y0066726D01*
X0118492Y0065527D02*
X0128557Y0065527D01*
X0129053Y0064329D02*
X0118022Y0064329D01*
X0117159Y0063130D02*
X0130074Y0063130D01*
X0131533Y0061932D02*
X0115453Y0061932D01*
X0101333Y0071800D02*
X0096333Y0066800D01*
X0096333Y0041800D01*
X0118833Y0019300D01*
X0123333Y0019300D01*
X0128333Y0026800D02*
X0143333Y0041800D01*
X0143333Y0046800D01*
X0133333Y0056800D01*
X0133333Y0066800D01*
X0141058Y0075115D02*
X0104948Y0075115D01*
X0105760Y0073917D02*
X0142257Y0073917D01*
X0143455Y0072718D02*
X0106233Y0072718D01*
X0103241Y0076314D02*
X0139860Y0076314D01*
X0153133Y0065527D02*
X0155131Y0065527D01*
X0155558Y0065954D02*
X0154179Y0064576D01*
X0153433Y0062775D01*
X0153433Y0060825D01*
X0154179Y0059024D01*
X0155558Y0057646D01*
X0157359Y0056900D01*
X0159308Y0056900D01*
X0161109Y0057646D01*
X0162487Y0059024D01*
X0162891Y0060000D01*
X0182742Y0060000D01*
X0183099Y0059138D01*
X0184421Y0057816D01*
X0186148Y0057100D01*
X0188018Y0057100D01*
X0189746Y0057816D01*
X0191068Y0059138D01*
X0191783Y0060865D01*
X0191783Y0062735D01*
X0191068Y0064462D01*
X0189746Y0065784D01*
X0188018Y0066500D01*
X0186148Y0066500D01*
X0184421Y0065784D01*
X0183099Y0064462D01*
X0182742Y0063600D01*
X0162891Y0063600D01*
X0162487Y0064576D01*
X0161109Y0065954D01*
X0159308Y0066700D01*
X0157359Y0066700D01*
X0155558Y0065954D01*
X0154077Y0064329D02*
X0153133Y0064329D01*
X0153133Y0063130D02*
X0153581Y0063130D01*
X0153433Y0061932D02*
X0153133Y0061932D01*
X0153133Y0060733D02*
X0153472Y0060733D01*
X0153133Y0059534D02*
X0153968Y0059534D01*
X0153133Y0058336D02*
X0154868Y0058336D01*
X0153133Y0057137D02*
X0156785Y0057137D01*
X0159881Y0057137D02*
X0186058Y0057137D01*
X0188109Y0057137D02*
X0223733Y0057137D01*
X0223733Y0055939D02*
X0153154Y0055939D01*
X0154353Y0054740D02*
X0223728Y0054740D01*
X0223808Y0054820D02*
X0217588Y0048600D01*
X0187404Y0048600D01*
X0187106Y0049321D01*
X0185854Y0050573D01*
X0184218Y0051250D01*
X0182448Y0051250D01*
X0180813Y0050573D01*
X0179561Y0049321D01*
X0178883Y0047685D01*
X0178883Y0045915D01*
X0179561Y0044279D01*
X0180813Y0043027D01*
X0182448Y0042350D01*
X0184218Y0042350D01*
X0185854Y0043027D01*
X0187106Y0044279D01*
X0187404Y0045000D01*
X0219079Y0045000D01*
X0226353Y0052275D01*
X0226428Y0052200D01*
X0230239Y0052200D01*
X0232933Y0054895D01*
X0232933Y0058705D01*
X0230239Y0061400D01*
X0226428Y0061400D01*
X0223733Y0058705D01*
X0223733Y0054895D01*
X0223808Y0054820D01*
X0222530Y0053542D02*
X0155551Y0053542D01*
X0156750Y0052343D02*
X0221331Y0052343D01*
X0220133Y0051145D02*
X0184472Y0051145D01*
X0182195Y0051145D02*
X0174472Y0051145D01*
X0174218Y0051250D02*
X0172448Y0051250D01*
X0170813Y0050573D01*
X0169561Y0049321D01*
X0168883Y0047685D01*
X0168883Y0045915D01*
X0169561Y0044279D01*
X0170813Y0043027D01*
X0172448Y0042350D01*
X0174218Y0042350D01*
X0175854Y0043027D01*
X0177106Y0044279D01*
X0177783Y0045915D01*
X0177783Y0047685D01*
X0177106Y0049321D01*
X0175854Y0050573D01*
X0174218Y0051250D01*
X0172195Y0051145D02*
X0157948Y0051145D01*
X0159147Y0049946D02*
X0170186Y0049946D01*
X0169324Y0048748D02*
X0160345Y0048748D01*
X0161054Y0047549D02*
X0168883Y0047549D01*
X0168883Y0046351D02*
X0161133Y0046351D01*
X0161133Y0045152D02*
X0169199Y0045152D01*
X0169886Y0043954D02*
X0161133Y0043954D01*
X0161133Y0042755D02*
X0171470Y0042755D01*
X0175197Y0042755D02*
X0181470Y0042755D01*
X0179886Y0043954D02*
X0176780Y0043954D01*
X0177467Y0045152D02*
X0179199Y0045152D01*
X0178883Y0046351D02*
X0177783Y0046351D01*
X0177783Y0047549D02*
X0178883Y0047549D01*
X0179324Y0048748D02*
X0177343Y0048748D01*
X0176480Y0049946D02*
X0180186Y0049946D01*
X0183333Y0046800D02*
X0218333Y0046800D01*
X0228333Y0056800D01*
X0231581Y0053542D02*
X0235086Y0053542D01*
X0233887Y0054740D02*
X0232779Y0054740D01*
X0233733Y0054895D02*
X0236428Y0052200D01*
X0240239Y0052200D01*
X0242933Y0054895D01*
X0242933Y0058705D01*
X0240239Y0061400D01*
X0236428Y0061400D01*
X0233733Y0058705D01*
X0233733Y0054895D01*
X0233733Y0055939D02*
X0232933Y0055939D01*
X0232933Y0057137D02*
X0233733Y0057137D01*
X0233733Y0058336D02*
X0232933Y0058336D01*
X0232104Y0059534D02*
X0234562Y0059534D01*
X0235761Y0060733D02*
X0230906Y0060733D01*
X0225761Y0060733D02*
X0191729Y0060733D01*
X0191783Y0061932D02*
X0251533Y0061932D01*
X0251533Y0063130D02*
X0191620Y0063130D01*
X0191123Y0064329D02*
X0251533Y0064329D01*
X0251533Y0065527D02*
X0190003Y0065527D01*
X0187083Y0071800D02*
X0223333Y0071800D01*
X0224683Y0070321D02*
X0271533Y0070321D01*
X0271533Y0071520D02*
X0225881Y0071520D01*
X0227080Y0072718D02*
X0271533Y0072718D01*
X0271533Y0073917D02*
X0228278Y0073917D01*
X0229477Y0075115D02*
X0253473Y0075115D01*
X0252533Y0076314D02*
X0230675Y0076314D01*
X0231874Y0077512D02*
X0252533Y0077512D01*
X0252533Y0078711D02*
X0233072Y0078711D01*
X0234271Y0079909D02*
X0252533Y0079909D01*
X0252533Y0081108D02*
X0235469Y0081108D01*
X0232210Y0083505D02*
X0231543Y0083505D01*
X0231011Y0082306D02*
X0230345Y0082306D01*
X0230239Y0082200D02*
X0232933Y0084895D01*
X0232933Y0088705D01*
X0230239Y0091400D01*
X0226428Y0091400D01*
X0223733Y0088705D01*
X0223733Y0084895D01*
X0226428Y0082200D01*
X0230239Y0082200D01*
X0229813Y0081108D02*
X0191783Y0081108D01*
X0191783Y0080865D02*
X0191068Y0079138D01*
X0189746Y0077816D01*
X0188018Y0077100D01*
X0186148Y0077100D01*
X0184421Y0077816D01*
X0183099Y0079138D01*
X0182383Y0080865D01*
X0182383Y0082735D01*
X0183099Y0084462D01*
X0184421Y0085784D01*
X0186148Y0086500D01*
X0186533Y0086500D01*
X0186533Y0102242D01*
X0185558Y0102646D01*
X0184179Y0104024D01*
X0183433Y0105825D01*
X0183433Y0107775D01*
X0184179Y0109576D01*
X0185558Y0110954D01*
X0187359Y0111700D01*
X0189308Y0111700D01*
X0191109Y0110954D01*
X0192487Y0109576D01*
X0193233Y0107775D01*
X0193233Y0105825D01*
X0192487Y0104024D01*
X0191109Y0102646D01*
X0190133Y0102242D01*
X0190133Y0085397D01*
X0191068Y0084462D01*
X0191783Y0082735D01*
X0191783Y0080865D01*
X0191387Y0079909D02*
X0228614Y0079909D01*
X0227416Y0078711D02*
X0190641Y0078711D01*
X0189013Y0077512D02*
X0226217Y0077512D01*
X0225019Y0076314D02*
X0188468Y0076314D01*
X0190415Y0075115D02*
X0223820Y0075115D01*
X0222622Y0073917D02*
X0191294Y0073917D01*
X0185153Y0077512D02*
X0170786Y0077512D01*
X0172174Y0078711D02*
X0183526Y0078711D01*
X0182779Y0079909D02*
X0172854Y0079909D01*
X0173233Y0081108D02*
X0182383Y0081108D01*
X0182383Y0082306D02*
X0173233Y0082306D01*
X0172931Y0083505D02*
X0182702Y0083505D01*
X0183340Y0084703D02*
X0172360Y0084703D01*
X0171161Y0085902D02*
X0184704Y0085902D01*
X0186533Y0087100D02*
X0166993Y0087100D01*
X0165794Y0088299D02*
X0186533Y0088299D01*
X0186533Y0089497D02*
X0164596Y0089497D01*
X0163397Y0090696D02*
X0186533Y0090696D01*
X0186533Y0091894D02*
X0162199Y0091894D01*
X0161000Y0093093D02*
X0186533Y0093093D01*
X0186533Y0094291D02*
X0159802Y0094291D01*
X0158603Y0095490D02*
X0186533Y0095490D01*
X0186533Y0096688D02*
X0157405Y0096688D01*
X0156206Y0097887D02*
X0186533Y0097887D01*
X0186533Y0099085D02*
X0155008Y0099085D01*
X0153809Y0100284D02*
X0186533Y0100284D01*
X0186533Y0101482D02*
X0152611Y0101482D01*
X0151412Y0102681D02*
X0185523Y0102681D01*
X0184324Y0103879D02*
X0150214Y0103879D01*
X0149015Y0105078D02*
X0183743Y0105078D01*
X0183433Y0106276D02*
X0147817Y0106276D01*
X0146618Y0107475D02*
X0183433Y0107475D01*
X0183806Y0108673D02*
X0145420Y0108673D01*
X0142294Y0103879D02*
X0137342Y0103879D01*
X0136144Y0102681D02*
X0143493Y0102681D01*
X0144691Y0101482D02*
X0134833Y0101482D01*
X0136779Y0100284D02*
X0145890Y0100284D01*
X0147088Y0099085D02*
X0137690Y0099085D01*
X0138187Y0097887D02*
X0148287Y0097887D01*
X0149485Y0096688D02*
X0138233Y0096688D01*
X0138094Y0095490D02*
X0150684Y0095490D01*
X0151882Y0094291D02*
X0137598Y0094291D01*
X0129888Y0100284D02*
X0123809Y0100284D01*
X0122611Y0101482D02*
X0131833Y0101482D01*
X0130523Y0102681D02*
X0121412Y0102681D01*
X0120214Y0103879D02*
X0129324Y0103879D01*
X0128743Y0105078D02*
X0119015Y0105078D01*
X0118233Y0106276D02*
X0128433Y0106276D01*
X0128433Y0107475D02*
X0118233Y0107475D01*
X0117861Y0108673D02*
X0128806Y0108673D01*
X0129476Y0109872D02*
X0117191Y0109872D01*
X0115828Y0111070D02*
X0130839Y0111070D01*
X0131533Y0112269D02*
X0106233Y0112269D01*
X0106233Y0111070D02*
X0110839Y0111070D01*
X0109476Y0109872D02*
X0105838Y0109872D01*
X0105136Y0108673D02*
X0108806Y0108673D01*
X0108433Y0107475D02*
X0103696Y0107475D01*
X0103133Y0106276D02*
X0108433Y0106276D01*
X0108743Y0105078D02*
X0103133Y0105078D01*
X0103133Y0103879D02*
X0109324Y0103879D01*
X0110523Y0102681D02*
X0103133Y0102681D01*
X0103133Y0101482D02*
X0111833Y0101482D01*
X0109888Y0100284D02*
X0103133Y0100284D01*
X0103133Y0099085D02*
X0108976Y0099085D01*
X0108480Y0097887D02*
X0103133Y0097887D01*
X0103133Y0096688D02*
X0108433Y0096688D01*
X0108572Y0095490D02*
X0103133Y0095490D01*
X0103133Y0094291D02*
X0109069Y0094291D01*
X0110111Y0093093D02*
X0102172Y0093093D01*
X0100973Y0091894D02*
X0124279Y0091894D01*
X0125478Y0090696D02*
X0116367Y0090696D01*
X0116556Y0093093D02*
X0123081Y0093093D01*
X0121882Y0094291D02*
X0117598Y0094291D01*
X0118094Y0095490D02*
X0120684Y0095490D01*
X0119485Y0096688D02*
X0118233Y0096688D01*
X0118187Y0097887D02*
X0118287Y0097887D01*
X0125008Y0099085D02*
X0128976Y0099085D01*
X0128480Y0097887D02*
X0126206Y0097887D01*
X0127405Y0096688D02*
X0128433Y0096688D01*
X0133333Y0106800D02*
X0133333Y0181800D01*
X0143333Y0191800D01*
X0138845Y0193768D02*
X0137847Y0193768D01*
X0138433Y0192569D02*
X0136648Y0192569D01*
X0135450Y0191371D02*
X0138433Y0191371D01*
X0138704Y0190172D02*
X0134251Y0190172D01*
X0133333Y0191800D02*
X0138333Y0196800D01*
X0158333Y0196800D01*
X0188333Y0226800D01*
X0183805Y0224929D02*
X0172862Y0224929D01*
X0173233Y0226128D02*
X0183433Y0226128D01*
X0183433Y0227326D02*
X0173233Y0227326D01*
X0172923Y0228525D02*
X0183744Y0228525D01*
X0184327Y0229723D02*
X0172340Y0229723D01*
X0171141Y0230922D02*
X0185525Y0230922D01*
X0191141Y0230922D02*
X0196666Y0230922D01*
X0195468Y0232120D02*
X0046199Y0232120D01*
X0047398Y0233319D02*
X0194269Y0233319D01*
X0193071Y0234517D02*
X0048596Y0234517D01*
X0048619Y0232100D02*
X0048619Y0227086D01*
X0053633Y0227086D01*
X0053633Y0227217D01*
X0053503Y0228041D01*
X0053245Y0228834D01*
X0052866Y0229578D01*
X0052376Y0230253D01*
X0051786Y0230843D01*
X0051111Y0231333D01*
X0050368Y0231712D01*
X0049574Y0231969D01*
X0048750Y0232100D01*
X0048619Y0232100D01*
X0048619Y0230922D02*
X0048047Y0230922D01*
X0048047Y0229723D02*
X0048619Y0229723D01*
X0048619Y0228525D02*
X0048047Y0228525D01*
X0048047Y0227326D02*
X0048619Y0227326D01*
X0048619Y0226128D02*
X0048047Y0226128D01*
X0048047Y0224929D02*
X0048619Y0224929D01*
X0048619Y0223731D02*
X0048047Y0223731D01*
X0048047Y0222532D02*
X0048619Y0222532D01*
X0051476Y0222532D02*
X0081520Y0222532D01*
X0082718Y0223731D02*
X0052654Y0223731D01*
X0053298Y0224929D02*
X0083805Y0224929D01*
X0083837Y0224850D02*
X0062588Y0203600D01*
X0052891Y0203600D01*
X0052487Y0204576D01*
X0051109Y0205954D01*
X0049308Y0206700D01*
X0047359Y0206700D01*
X0045558Y0205954D01*
X0044179Y0204576D01*
X0043433Y0202775D01*
X0043433Y0200825D01*
X0044179Y0199024D01*
X0045558Y0197646D01*
X0047359Y0196900D01*
X0049308Y0196900D01*
X0051109Y0197646D01*
X0052487Y0199024D01*
X0052891Y0200000D01*
X0064079Y0200000D01*
X0086383Y0222304D01*
X0087359Y0221900D01*
X0089308Y0221900D01*
X0091109Y0222646D01*
X0092487Y0224024D01*
X0092891Y0225000D01*
X0098775Y0225000D01*
X0099179Y0224024D01*
X0100558Y0222646D01*
X0102359Y0221900D01*
X0104308Y0221900D01*
X0106109Y0222646D01*
X0107487Y0224024D01*
X0108233Y0225825D01*
X0108233Y0227775D01*
X0107487Y0229576D01*
X0106109Y0230954D01*
X0104308Y0231700D01*
X0102359Y0231700D01*
X0100558Y0230954D01*
X0099179Y0229576D01*
X0098775Y0228600D01*
X0092891Y0228600D01*
X0092487Y0229576D01*
X0091109Y0230954D01*
X0089308Y0231700D01*
X0087359Y0231700D01*
X0085558Y0230954D01*
X0084179Y0229576D01*
X0083433Y0227775D01*
X0083433Y0225825D01*
X0083837Y0224850D01*
X0083433Y0226128D02*
X0053593Y0226128D01*
X0053616Y0227326D02*
X0083433Y0227326D01*
X0083744Y0228525D02*
X0053346Y0228525D01*
X0052761Y0229723D02*
X0084327Y0229723D01*
X0085525Y0230922D02*
X0051677Y0230922D01*
X0043906Y0229723D02*
X0043802Y0229723D01*
X0043321Y0228525D02*
X0042603Y0228525D01*
X0043051Y0227326D02*
X0041405Y0227326D01*
X0040206Y0226128D02*
X0043074Y0226128D01*
X0043368Y0224929D02*
X0040133Y0224929D01*
X0040133Y0223731D02*
X0044012Y0223731D01*
X0045191Y0222532D02*
X0040133Y0222532D01*
X0040133Y0221334D02*
X0080321Y0221334D01*
X0079123Y0220135D02*
X0040133Y0220135D01*
X0040133Y0218937D02*
X0077924Y0218937D01*
X0076726Y0217738D02*
X0040133Y0217738D01*
X0040133Y0216539D02*
X0075527Y0216539D01*
X0074329Y0215341D02*
X0040133Y0215341D01*
X0040133Y0214142D02*
X0073130Y0214142D01*
X0071932Y0212944D02*
X0040133Y0212944D01*
X0040133Y0211745D02*
X0070733Y0211745D01*
X0069535Y0210547D02*
X0040133Y0210547D01*
X0040133Y0209348D02*
X0068336Y0209348D01*
X0067138Y0208150D02*
X0040133Y0208150D01*
X0040133Y0206951D02*
X0065939Y0206951D01*
X0064741Y0205753D02*
X0051310Y0205753D01*
X0052496Y0204554D02*
X0063542Y0204554D01*
X0063333Y0201800D02*
X0088333Y0226800D01*
X0103333Y0226800D01*
X0107862Y0224929D02*
X0138805Y0224929D01*
X0138433Y0225825D02*
X0139179Y0224024D01*
X0140558Y0222646D01*
X0142359Y0221900D01*
X0144308Y0221900D01*
X0146109Y0222646D01*
X0147487Y0224024D01*
X0148233Y0225825D01*
X0148233Y0227775D01*
X0147487Y0229576D01*
X0146109Y0230954D01*
X0144308Y0231700D01*
X0142359Y0231700D01*
X0140558Y0230954D01*
X0139179Y0229576D01*
X0138433Y0227775D01*
X0138433Y0225825D01*
X0138433Y0226128D02*
X0108233Y0226128D01*
X0108233Y0227326D02*
X0138433Y0227326D01*
X0138744Y0228525D02*
X0107923Y0228525D01*
X0107340Y0229723D02*
X0139327Y0229723D01*
X0140525Y0230922D02*
X0106141Y0230922D01*
X0100525Y0230922D02*
X0091141Y0230922D01*
X0092340Y0229723D02*
X0099327Y0229723D01*
X0098805Y0224929D02*
X0092862Y0224929D01*
X0092194Y0223731D02*
X0099473Y0223731D01*
X0100833Y0222532D02*
X0090834Y0222532D01*
X0085412Y0221334D02*
X0160321Y0221334D01*
X0161520Y0222532D02*
X0145834Y0222532D01*
X0147194Y0223731D02*
X0162718Y0223731D01*
X0163805Y0224929D02*
X0147862Y0224929D01*
X0148233Y0226128D02*
X0163433Y0226128D01*
X0163433Y0227326D02*
X0148233Y0227326D01*
X0147923Y0228525D02*
X0163744Y0228525D01*
X0164327Y0229723D02*
X0147340Y0229723D01*
X0146141Y0230922D02*
X0165525Y0230922D01*
X0168333Y0226800D02*
X0148333Y0206800D01*
X0083333Y0206800D01*
X0068333Y0191800D01*
X0048333Y0191800D01*
X0043845Y0193768D02*
X0040133Y0193768D01*
X0040133Y0194966D02*
X0044570Y0194966D01*
X0046067Y0196165D02*
X0040133Y0196165D01*
X0040133Y0197363D02*
X0046240Y0197363D01*
X0044642Y0198562D02*
X0040133Y0198562D01*
X0040133Y0199760D02*
X0043874Y0199760D01*
X0043433Y0200959D02*
X0040133Y0200959D01*
X0040133Y0202157D02*
X0043433Y0202157D01*
X0043674Y0203356D02*
X0040133Y0203356D01*
X0040133Y0204554D02*
X0044171Y0204554D01*
X0045357Y0205753D02*
X0040133Y0205753D01*
X0048333Y0201800D02*
X0063333Y0201800D01*
X0065038Y0200959D02*
X0074947Y0200959D01*
X0076145Y0202157D02*
X0066236Y0202157D01*
X0067435Y0203356D02*
X0077344Y0203356D01*
X0078542Y0204554D02*
X0068633Y0204554D01*
X0069832Y0205753D02*
X0079741Y0205753D01*
X0080939Y0206951D02*
X0071030Y0206951D01*
X0072229Y0208150D02*
X0082138Y0208150D01*
X0083633Y0204554D02*
X0084171Y0204554D01*
X0083674Y0203356D02*
X0082435Y0203356D01*
X0083433Y0202157D02*
X0081236Y0202157D01*
X0080038Y0200959D02*
X0083433Y0200959D01*
X0083874Y0199760D02*
X0078839Y0199760D01*
X0077641Y0198562D02*
X0084642Y0198562D01*
X0086240Y0197363D02*
X0076442Y0197363D01*
X0075244Y0196165D02*
X0086067Y0196165D01*
X0084570Y0194966D02*
X0074045Y0194966D01*
X0072847Y0193768D02*
X0083845Y0193768D01*
X0083433Y0192569D02*
X0071648Y0192569D01*
X0070450Y0191371D02*
X0083433Y0191371D01*
X0083704Y0190172D02*
X0069251Y0190172D01*
X0067756Y0193768D02*
X0052822Y0193768D01*
X0052097Y0194966D02*
X0068954Y0194966D01*
X0070153Y0196165D02*
X0050600Y0196165D01*
X0050427Y0197363D02*
X0071351Y0197363D01*
X0072550Y0198562D02*
X0052025Y0198562D01*
X0052792Y0199760D02*
X0073748Y0199760D01*
X0073427Y0209348D02*
X0148336Y0209348D01*
X0149535Y0210547D02*
X0074626Y0210547D01*
X0075824Y0211745D02*
X0150733Y0211745D01*
X0151932Y0212944D02*
X0077023Y0212944D01*
X0078221Y0214142D02*
X0153130Y0214142D01*
X0154329Y0215341D02*
X0079420Y0215341D01*
X0080618Y0216539D02*
X0155527Y0216539D01*
X0156726Y0217738D02*
X0081817Y0217738D01*
X0083015Y0218937D02*
X0157924Y0218937D01*
X0159123Y0220135D02*
X0084214Y0220135D01*
X0092496Y0204554D02*
X0099171Y0204554D01*
X0098674Y0203356D02*
X0092993Y0203356D01*
X0093233Y0202157D02*
X0098433Y0202157D01*
X0098433Y0200959D02*
X0093233Y0200959D01*
X0092792Y0199760D02*
X0098874Y0199760D01*
X0099642Y0198562D02*
X0092025Y0198562D01*
X0090427Y0197363D02*
X0101240Y0197363D01*
X0101067Y0196165D02*
X0090600Y0196165D01*
X0092097Y0194966D02*
X0099570Y0194966D01*
X0098845Y0193768D02*
X0092822Y0193768D01*
X0093233Y0192569D02*
X0098433Y0192569D01*
X0098433Y0191371D02*
X0093233Y0191371D01*
X0092963Y0190172D02*
X0098704Y0190172D01*
X0099230Y0188974D02*
X0092437Y0188974D01*
X0091238Y0187775D02*
X0100428Y0187775D01*
X0101034Y0186577D02*
X0089606Y0186577D01*
X0091685Y0185378D02*
X0099416Y0185378D01*
X0098598Y0184180D02*
X0092651Y0184180D01*
X0093148Y0182981D02*
X0098154Y0182981D01*
X0098160Y0180584D02*
X0093133Y0180584D01*
X0093233Y0181783D02*
X0102933Y0181783D01*
X0103733Y0181783D02*
X0131533Y0181783D01*
X0131533Y0180584D02*
X0108507Y0180584D01*
X0108051Y0179386D02*
X0131533Y0179386D01*
X0131533Y0178187D02*
X0107216Y0178187D01*
X0105565Y0176989D02*
X0131533Y0176989D01*
X0131533Y0175790D02*
X0106273Y0175790D01*
X0107471Y0174592D02*
X0131533Y0174592D01*
X0131533Y0173393D02*
X0107977Y0173393D01*
X0108233Y0172195D02*
X0131533Y0172195D01*
X0131533Y0170996D02*
X0108233Y0170996D01*
X0107808Y0169798D02*
X0131533Y0169798D01*
X0131533Y0168599D02*
X0107062Y0168599D01*
X0105516Y0167401D02*
X0131533Y0167401D01*
X0131533Y0166202D02*
X0105133Y0166202D01*
X0105133Y0165003D02*
X0131533Y0165003D01*
X0131533Y0163805D02*
X0105133Y0163805D01*
X0105133Y0162606D02*
X0131533Y0162606D01*
X0131533Y0161408D02*
X0105133Y0161408D01*
X0106854Y0160209D02*
X0131533Y0160209D01*
X0131533Y0159011D02*
X0107721Y0159011D01*
X0108218Y0157812D02*
X0131533Y0157812D01*
X0131533Y0156614D02*
X0108233Y0156614D01*
X0108064Y0155415D02*
X0131533Y0155415D01*
X0131533Y0154217D02*
X0107567Y0154217D01*
X0106481Y0153018D02*
X0131533Y0153018D01*
X0131533Y0151820D02*
X0080133Y0151820D01*
X0080133Y0153018D02*
X0085185Y0153018D01*
X0085558Y0152646D02*
X0087359Y0151900D01*
X0089308Y0151900D01*
X0091109Y0152646D01*
X0092487Y0154024D01*
X0093233Y0155825D01*
X0093233Y0157775D01*
X0092487Y0159576D01*
X0091109Y0160954D01*
X0090133Y0161358D01*
X0090133Y0166900D01*
X0090363Y0166900D01*
X0093233Y0169770D01*
X0093233Y0173830D01*
X0090363Y0176700D01*
X0086304Y0176700D01*
X0083433Y0173830D01*
X0083433Y0169770D01*
X0086304Y0166900D01*
X0086533Y0166900D01*
X0086533Y0161358D01*
X0085558Y0160954D01*
X0084179Y0159576D01*
X0083433Y0157775D01*
X0083433Y0155825D01*
X0084179Y0154024D01*
X0085558Y0152646D01*
X0084100Y0154217D02*
X0080133Y0154217D01*
X0080133Y0155415D02*
X0083603Y0155415D01*
X0083433Y0156614D02*
X0080133Y0156614D01*
X0080133Y0157812D02*
X0083449Y0157812D01*
X0083945Y0159011D02*
X0080133Y0159011D01*
X0080133Y0160209D02*
X0084813Y0160209D01*
X0086533Y0161408D02*
X0080133Y0161408D01*
X0080133Y0162606D02*
X0086533Y0162606D01*
X0086533Y0163805D02*
X0080133Y0163805D01*
X0080133Y0165003D02*
X0086533Y0165003D01*
X0086533Y0166202D02*
X0080133Y0166202D01*
X0080133Y0167401D02*
X0085803Y0167401D01*
X0084605Y0168599D02*
X0080133Y0168599D01*
X0080133Y0169798D02*
X0083433Y0169798D01*
X0083433Y0170996D02*
X0080133Y0170996D01*
X0081273Y0172195D02*
X0083433Y0172195D01*
X0083433Y0173393D02*
X0082472Y0173393D01*
X0083670Y0174592D02*
X0084195Y0174592D01*
X0084869Y0175790D02*
X0085394Y0175790D01*
X0086068Y0176989D02*
X0087145Y0176989D01*
X0089522Y0176989D02*
X0101102Y0176989D01*
X0100394Y0175790D02*
X0091273Y0175790D01*
X0092471Y0174592D02*
X0099195Y0174592D01*
X0098689Y0173393D02*
X0093233Y0173393D01*
X0093233Y0172195D02*
X0098433Y0172195D01*
X0098433Y0170996D02*
X0093233Y0170996D01*
X0093233Y0169798D02*
X0098859Y0169798D01*
X0099605Y0168599D02*
X0092062Y0168599D01*
X0090863Y0167401D02*
X0101150Y0167401D01*
X0101533Y0166202D02*
X0090133Y0166202D01*
X0090133Y0165003D02*
X0101533Y0165003D01*
X0101533Y0163805D02*
X0090133Y0163805D01*
X0090133Y0162606D02*
X0101533Y0162606D01*
X0101533Y0161408D02*
X0090133Y0161408D01*
X0091854Y0160209D02*
X0099813Y0160209D01*
X0098945Y0159011D02*
X0092721Y0159011D01*
X0093218Y0157812D02*
X0098449Y0157812D01*
X0098433Y0156614D02*
X0093233Y0156614D01*
X0093064Y0155415D02*
X0098603Y0155415D01*
X0099100Y0154217D02*
X0092567Y0154217D01*
X0091481Y0153018D02*
X0100185Y0153018D01*
X0103333Y0156800D02*
X0103333Y0171800D01*
X0099451Y0178187D02*
X0091650Y0178187D01*
X0092637Y0179386D02*
X0098615Y0179386D01*
X0107250Y0185378D02*
X0134366Y0185378D01*
X0133167Y0184180D02*
X0108069Y0184180D01*
X0108512Y0182981D02*
X0131969Y0182981D01*
X0135133Y0180584D02*
X0138533Y0180584D01*
X0138433Y0180825D02*
X0139179Y0179024D01*
X0140558Y0177646D01*
X0142359Y0176900D01*
X0144308Y0176900D01*
X0146109Y0177646D01*
X0147487Y0179024D01*
X0148233Y0180825D01*
X0148233Y0182775D01*
X0147487Y0184576D01*
X0146109Y0185954D01*
X0144308Y0186700D01*
X0142359Y0186700D01*
X0140558Y0185954D01*
X0139179Y0184576D01*
X0138433Y0182775D01*
X0138433Y0180825D01*
X0138433Y0181783D02*
X0135862Y0181783D01*
X0137060Y0182981D02*
X0138519Y0182981D01*
X0138259Y0184180D02*
X0139015Y0184180D01*
X0139457Y0185378D02*
X0139982Y0185378D01*
X0140656Y0186577D02*
X0142061Y0186577D01*
X0144606Y0186577D02*
X0163433Y0186577D01*
X0163433Y0185825D02*
X0163433Y0187775D01*
X0164179Y0189576D01*
X0165558Y0190954D01*
X0167359Y0191700D01*
X0169308Y0191700D01*
X0171109Y0190954D01*
X0172487Y0189576D01*
X0172891Y0188600D01*
X0177588Y0188600D01*
X0181533Y0192546D01*
X0182588Y0193600D01*
X0244079Y0193600D01*
X0254079Y0183600D01*
X0255133Y0182546D01*
X0255133Y0171358D01*
X0256109Y0170954D01*
X0257487Y0169576D01*
X0258233Y0167775D01*
X0258233Y0165825D01*
X0257487Y0164024D01*
X0256109Y0162646D01*
X0254308Y0161900D01*
X0252359Y0161900D01*
X0250558Y0162646D01*
X0249179Y0164024D01*
X0248433Y0165825D01*
X0248433Y0167775D01*
X0249179Y0169576D01*
X0250558Y0170954D01*
X0251533Y0171358D01*
X0251533Y0181054D01*
X0242588Y0190000D01*
X0192063Y0190000D01*
X0192487Y0189576D01*
X0192891Y0188600D01*
X0239079Y0188600D01*
X0245133Y0182546D01*
X0245133Y0171358D01*
X0246109Y0170954D01*
X0247487Y0169576D01*
X0248233Y0167775D01*
X0248233Y0165825D01*
X0247487Y0164024D01*
X0246109Y0162646D01*
X0244308Y0161900D01*
X0242359Y0161900D01*
X0240558Y0162646D01*
X0239179Y0164024D01*
X0238433Y0165825D01*
X0238433Y0167775D01*
X0239179Y0169576D01*
X0240558Y0170954D01*
X0241533Y0171358D01*
X0241533Y0174945D01*
X0240484Y0173896D01*
X0238683Y0173150D01*
X0236734Y0173150D01*
X0234933Y0173896D01*
X0233554Y0175274D01*
X0232808Y0177075D01*
X0232808Y0179025D01*
X0233554Y0180826D01*
X0234933Y0182204D01*
X0236734Y0182950D01*
X0238683Y0182950D01*
X0240313Y0182275D01*
X0237588Y0185000D01*
X0192891Y0185000D01*
X0192487Y0184024D01*
X0191109Y0182646D01*
X0190133Y0182242D01*
X0190133Y0175871D01*
X0190854Y0175573D01*
X0192106Y0174321D01*
X0192783Y0172685D01*
X0192783Y0170915D01*
X0192106Y0169279D01*
X0190854Y0168027D01*
X0189218Y0167350D01*
X0187448Y0167350D01*
X0185813Y0168027D01*
X0184561Y0169279D01*
X0183883Y0170915D01*
X0183883Y0172685D01*
X0184561Y0174321D01*
X0185813Y0175573D01*
X0186533Y0175871D01*
X0186533Y0182242D01*
X0185558Y0182646D01*
X0184179Y0184024D01*
X0183433Y0185825D01*
X0183433Y0187775D01*
X0184179Y0189576D01*
X0184604Y0190000D01*
X0184079Y0190000D01*
X0179079Y0185000D01*
X0172891Y0185000D01*
X0172487Y0184024D01*
X0171109Y0182646D01*
X0170133Y0182242D01*
X0170133Y0175871D01*
X0170854Y0175573D01*
X0172106Y0174321D01*
X0172783Y0172685D01*
X0172783Y0170915D01*
X0172106Y0169279D01*
X0170854Y0168027D01*
X0169218Y0167350D01*
X0167448Y0167350D01*
X0165813Y0168027D01*
X0164561Y0169279D01*
X0163883Y0170915D01*
X0163883Y0172685D01*
X0164561Y0174321D01*
X0165813Y0175573D01*
X0166533Y0175871D01*
X0166533Y0182242D01*
X0165558Y0182646D01*
X0164179Y0184024D01*
X0163433Y0185825D01*
X0163619Y0185378D02*
X0146685Y0185378D01*
X0147651Y0184180D02*
X0164115Y0184180D01*
X0165223Y0182981D02*
X0148148Y0182981D01*
X0148233Y0181783D02*
X0166533Y0181783D01*
X0166533Y0180584D02*
X0148133Y0180584D01*
X0147637Y0179386D02*
X0166533Y0179386D01*
X0166533Y0178187D02*
X0146650Y0178187D01*
X0145363Y0176700D02*
X0148233Y0173830D01*
X0148233Y0169770D01*
X0145363Y0166900D01*
X0145133Y0166900D01*
X0145133Y0161358D01*
X0146109Y0160954D01*
X0147487Y0159576D01*
X0148233Y0157775D01*
X0148233Y0155825D01*
X0147487Y0154024D01*
X0146109Y0152646D01*
X0144308Y0151900D01*
X0142359Y0151900D01*
X0140558Y0152646D01*
X0139179Y0154024D01*
X0138433Y0155825D01*
X0138433Y0157775D01*
X0139179Y0159576D01*
X0140558Y0160954D01*
X0141533Y0161358D01*
X0141533Y0166900D01*
X0141304Y0166900D01*
X0138433Y0169770D01*
X0138433Y0173830D01*
X0141304Y0176700D01*
X0145363Y0176700D01*
X0144522Y0176989D02*
X0166533Y0176989D01*
X0166338Y0175790D02*
X0146273Y0175790D01*
X0147471Y0174592D02*
X0164832Y0174592D01*
X0164177Y0173393D02*
X0148233Y0173393D01*
X0148233Y0172195D02*
X0163883Y0172195D01*
X0163883Y0170996D02*
X0148233Y0170996D01*
X0148233Y0169798D02*
X0164346Y0169798D01*
X0165241Y0168599D02*
X0147062Y0168599D01*
X0145863Y0167401D02*
X0167326Y0167401D01*
X0167448Y0166250D02*
X0165813Y0165573D01*
X0164561Y0164321D01*
X0163883Y0162685D01*
X0163883Y0160915D01*
X0164561Y0159279D01*
X0165813Y0158027D01*
X0167448Y0157350D01*
X0169218Y0157350D01*
X0170854Y0158027D01*
X0172106Y0159279D01*
X0172783Y0160915D01*
X0172783Y0162685D01*
X0172106Y0164321D01*
X0170854Y0165573D01*
X0169218Y0166250D01*
X0167448Y0166250D01*
X0167332Y0166202D02*
X0145133Y0166202D01*
X0145133Y0165003D02*
X0165244Y0165003D01*
X0164347Y0163805D02*
X0145133Y0163805D01*
X0145133Y0162606D02*
X0163883Y0162606D01*
X0163883Y0161408D02*
X0145133Y0161408D01*
X0146854Y0160209D02*
X0164176Y0160209D01*
X0164829Y0159011D02*
X0147721Y0159011D01*
X0148218Y0157812D02*
X0166332Y0157812D01*
X0170335Y0157812D02*
X0186332Y0157812D01*
X0185813Y0158027D02*
X0187448Y0157350D01*
X0189218Y0157350D01*
X0190854Y0158027D01*
X0192106Y0159279D01*
X0192783Y0160915D01*
X0192783Y0162685D01*
X0192106Y0164321D01*
X0190854Y0165573D01*
X0189218Y0166250D01*
X0187448Y0166250D01*
X0185813Y0165573D01*
X0184561Y0164321D01*
X0183883Y0162685D01*
X0183883Y0160915D01*
X0184561Y0159279D01*
X0185813Y0158027D01*
X0184829Y0159011D02*
X0171838Y0159011D01*
X0172491Y0160209D02*
X0184176Y0160209D01*
X0183883Y0161408D02*
X0172783Y0161408D01*
X0172783Y0162606D02*
X0183883Y0162606D01*
X0184347Y0163805D02*
X0172319Y0163805D01*
X0171423Y0165003D02*
X0185244Y0165003D01*
X0187332Y0166202D02*
X0169334Y0166202D01*
X0169340Y0167401D02*
X0187326Y0167401D01*
X0189340Y0167401D02*
X0198433Y0167401D01*
X0198433Y0167775D02*
X0198433Y0165825D01*
X0199179Y0164024D01*
X0200558Y0162646D01*
X0202359Y0161900D01*
X0204308Y0161900D01*
X0205284Y0162304D01*
X0212518Y0155070D01*
X0212518Y0152382D01*
X0211542Y0151978D01*
X0210164Y0150599D01*
X0209498Y0148993D01*
X0209487Y0149065D01*
X0209229Y0149858D01*
X0208851Y0150601D01*
X0208360Y0151276D01*
X0207770Y0151866D01*
X0207095Y0152357D01*
X0206352Y0152735D01*
X0205559Y0152993D01*
X0204735Y0153124D01*
X0204718Y0153124D01*
X0204718Y0148224D01*
X0203918Y0148224D01*
X0203918Y0153124D01*
X0203900Y0153124D01*
X0203076Y0152993D01*
X0202283Y0152735D01*
X0201540Y0152357D01*
X0200865Y0151866D01*
X0200275Y0151276D01*
X0199785Y0150601D01*
X0199406Y0149858D01*
X0199148Y0149065D01*
X0199137Y0148993D01*
X0198472Y0150599D01*
X0197093Y0151978D01*
X0195292Y0152724D01*
X0193343Y0152724D01*
X0191542Y0151978D01*
X0190164Y0150599D01*
X0189418Y0148798D01*
X0189418Y0146849D01*
X0190164Y0145048D01*
X0191542Y0143670D01*
X0193343Y0142924D01*
X0195292Y0142924D01*
X0197093Y0143670D01*
X0198472Y0145048D01*
X0199137Y0146654D01*
X0199148Y0146583D01*
X0199406Y0145789D01*
X0199785Y0145046D01*
X0200275Y0144371D01*
X0200865Y0143781D01*
X0201540Y0143291D01*
X0202283Y0142912D01*
X0203076Y0142654D01*
X0203900Y0142524D01*
X0203918Y0142524D01*
X0203918Y0147424D01*
X0204718Y0147424D01*
X0204718Y0142524D01*
X0204735Y0142524D01*
X0205559Y0142654D01*
X0206352Y0142912D01*
X0207095Y0143291D01*
X0207770Y0143781D01*
X0208360Y0144371D01*
X0208851Y0145046D01*
X0209229Y0145789D01*
X0209487Y0146583D01*
X0209498Y0146654D01*
X0210164Y0145048D01*
X0211542Y0143670D01*
X0213343Y0142924D01*
X0215292Y0142924D01*
X0217093Y0143670D01*
X0218472Y0145048D01*
X0219218Y0146849D01*
X0219218Y0148798D01*
X0218472Y0150599D01*
X0217093Y0151978D01*
X0216118Y0152382D01*
X0216118Y0156561D01*
X0215063Y0157616D01*
X0207829Y0164850D01*
X0208233Y0165825D01*
X0208233Y0167775D01*
X0207487Y0169576D01*
X0206109Y0170954D01*
X0204308Y0171700D01*
X0202359Y0171700D01*
X0200558Y0170954D01*
X0199179Y0169576D01*
X0198433Y0167775D01*
X0198775Y0168599D02*
X0191426Y0168599D01*
X0192321Y0169798D02*
X0199401Y0169798D01*
X0200659Y0170996D02*
X0192783Y0170996D01*
X0192783Y0172195D02*
X0241533Y0172195D01*
X0241533Y0173393D02*
X0239270Y0173393D01*
X0241180Y0174592D02*
X0241533Y0174592D01*
X0245133Y0174592D02*
X0251533Y0174592D01*
X0251533Y0175790D02*
X0245133Y0175790D01*
X0245133Y0176989D02*
X0251533Y0176989D01*
X0251533Y0178187D02*
X0245133Y0178187D01*
X0245133Y0179386D02*
X0251533Y0179386D01*
X0251533Y0180584D02*
X0245133Y0180584D01*
X0245133Y0181783D02*
X0250805Y0181783D01*
X0249607Y0182981D02*
X0244698Y0182981D01*
X0243499Y0184180D02*
X0248408Y0184180D01*
X0247210Y0185378D02*
X0242301Y0185378D01*
X0241102Y0186577D02*
X0246011Y0186577D01*
X0244813Y0187775D02*
X0239904Y0187775D01*
X0238333Y0186800D02*
X0243333Y0181800D01*
X0243333Y0166800D01*
X0238775Y0168599D02*
X0237892Y0168599D01*
X0238233Y0167775D02*
X0237487Y0169576D01*
X0236109Y0170954D01*
X0234308Y0171700D01*
X0232359Y0171700D01*
X0230558Y0170954D01*
X0229179Y0169576D01*
X0228433Y0167775D01*
X0228433Y0165825D01*
X0229179Y0164024D01*
X0230558Y0162646D01*
X0232359Y0161900D01*
X0234308Y0161900D01*
X0235284Y0162304D01*
X0242518Y0155070D01*
X0242518Y0152382D01*
X0241542Y0151978D01*
X0240164Y0150599D01*
X0239418Y0148798D01*
X0239418Y0146849D01*
X0240164Y0145048D01*
X0241542Y0143670D01*
X0243343Y0142924D01*
X0245292Y0142924D01*
X0247093Y0143670D01*
X0248472Y0145048D01*
X0249218Y0146849D01*
X0249218Y0148798D01*
X0248472Y0150599D01*
X0247093Y0151978D01*
X0246118Y0152382D01*
X0246118Y0156561D01*
X0245063Y0157616D01*
X0237829Y0164850D01*
X0238233Y0165825D01*
X0238233Y0167775D01*
X0238233Y0167401D02*
X0238433Y0167401D01*
X0238433Y0166202D02*
X0238233Y0166202D01*
X0237893Y0165003D02*
X0238774Y0165003D01*
X0238874Y0163805D02*
X0239399Y0163805D01*
X0240072Y0162606D02*
X0240653Y0162606D01*
X0241271Y0161408D02*
X0276180Y0161408D01*
X0275284Y0162304D02*
X0284864Y0152724D01*
X0283343Y0152724D01*
X0281542Y0151978D01*
X0280164Y0150599D01*
X0279418Y0148798D01*
X0279418Y0146849D01*
X0280164Y0145048D01*
X0281542Y0143670D01*
X0283343Y0142924D01*
X0285292Y0142924D01*
X0287093Y0143670D01*
X0288472Y0145048D01*
X0289218Y0146849D01*
X0289218Y0148370D01*
X0289418Y0148170D01*
X0289418Y0146849D01*
X0290164Y0145048D01*
X0291542Y0143670D01*
X0293343Y0142924D01*
X0295292Y0142924D01*
X0297093Y0143670D01*
X0298472Y0145048D01*
X0299218Y0146849D01*
X0299218Y0148798D01*
X0298472Y0150599D01*
X0297093Y0151978D01*
X0295292Y0152724D01*
X0293343Y0152724D01*
X0291542Y0151978D01*
X0291122Y0151557D01*
X0280030Y0162649D01*
X0280556Y0162267D01*
X0281299Y0161888D01*
X0282092Y0161630D01*
X0282916Y0161500D01*
X0282933Y0161500D01*
X0282933Y0166400D01*
X0283733Y0166400D01*
X0283733Y0161500D01*
X0283750Y0161500D01*
X0284574Y0161630D01*
X0285368Y0161888D01*
X0286111Y0162267D01*
X0286786Y0162757D01*
X0287376Y0163347D01*
X0287866Y0164022D01*
X0288245Y0164766D01*
X0288503Y0165559D01*
X0288514Y0165630D01*
X0289179Y0164024D01*
X0290558Y0162646D01*
X0292359Y0161900D01*
X0294308Y0161900D01*
X0296109Y0162646D01*
X0297487Y0164024D01*
X0298233Y0165825D01*
X0298233Y0167775D01*
X0297487Y0169576D01*
X0296109Y0170954D01*
X0294308Y0171700D01*
X0292359Y0171700D01*
X0290558Y0170954D01*
X0289179Y0169576D01*
X0288514Y0167970D01*
X0288503Y0168041D01*
X0288245Y0168834D01*
X0287866Y0169578D01*
X0287376Y0170253D01*
X0286786Y0170843D01*
X0286111Y0171333D01*
X0285368Y0171712D01*
X0284574Y0171969D01*
X0283750Y0172100D01*
X0283733Y0172100D01*
X0283733Y0167200D01*
X0282933Y0167200D01*
X0282933Y0172100D01*
X0282916Y0172100D01*
X0282092Y0171969D01*
X0281299Y0171712D01*
X0280556Y0171333D01*
X0279881Y0170843D01*
X0279291Y0170253D01*
X0278800Y0169578D01*
X0278422Y0168834D01*
X0278164Y0168041D01*
X0278153Y0167970D01*
X0277487Y0169576D01*
X0276109Y0170954D01*
X0274308Y0171700D01*
X0272359Y0171700D01*
X0270558Y0170954D01*
X0269179Y0169576D01*
X0268433Y0167775D01*
X0268433Y0165825D01*
X0269179Y0164024D01*
X0270558Y0162646D01*
X0272359Y0161900D01*
X0274308Y0161900D01*
X0275284Y0162304D01*
X0277378Y0160209D02*
X0242469Y0160209D01*
X0243668Y0159011D02*
X0278577Y0159011D01*
X0279775Y0157812D02*
X0244866Y0157812D01*
X0246065Y0156614D02*
X0280974Y0156614D01*
X0282172Y0155415D02*
X0246118Y0155415D01*
X0246118Y0154217D02*
X0283371Y0154217D01*
X0284569Y0153018D02*
X0246118Y0153018D01*
X0247251Y0151820D02*
X0251384Y0151820D01*
X0251542Y0151978D02*
X0250164Y0150599D01*
X0249418Y0148798D01*
X0249418Y0146849D01*
X0250164Y0145048D01*
X0251542Y0143670D01*
X0253343Y0142924D01*
X0255292Y0142924D01*
X0257093Y0143670D01*
X0258472Y0145048D01*
X0259218Y0146849D01*
X0259218Y0148798D01*
X0258472Y0150599D01*
X0257093Y0151978D01*
X0255292Y0152724D01*
X0253343Y0152724D01*
X0251542Y0151978D01*
X0250186Y0150621D02*
X0248449Y0150621D01*
X0248959Y0149423D02*
X0249676Y0149423D01*
X0249418Y0148224D02*
X0249218Y0148224D01*
X0249218Y0147026D02*
X0249418Y0147026D01*
X0249841Y0145827D02*
X0248794Y0145827D01*
X0248052Y0144629D02*
X0250583Y0144629D01*
X0252120Y0143430D02*
X0246515Y0143430D01*
X0242120Y0143430D02*
X0236515Y0143430D01*
X0237093Y0143670D02*
X0238472Y0145048D01*
X0239218Y0146849D01*
X0239218Y0148798D01*
X0238472Y0150599D01*
X0237093Y0151978D01*
X0236118Y0152382D01*
X0236118Y0156561D01*
X0235063Y0157616D01*
X0227829Y0164850D01*
X0228233Y0165825D01*
X0228233Y0167775D01*
X0227487Y0169576D01*
X0226109Y0170954D01*
X0224308Y0171700D01*
X0222359Y0171700D01*
X0220558Y0170954D01*
X0219179Y0169576D01*
X0218433Y0167775D01*
X0218433Y0165825D01*
X0219179Y0164024D01*
X0220558Y0162646D01*
X0222359Y0161900D01*
X0224308Y0161900D01*
X0225284Y0162304D01*
X0232518Y0155070D01*
X0232518Y0152382D01*
X0231542Y0151978D01*
X0230164Y0150599D01*
X0229418Y0148798D01*
X0229418Y0146849D01*
X0230164Y0145048D01*
X0231542Y0143670D01*
X0233343Y0142924D01*
X0235292Y0142924D01*
X0237093Y0143670D01*
X0238052Y0144629D02*
X0240583Y0144629D01*
X0239841Y0145827D02*
X0238794Y0145827D01*
X0239218Y0147026D02*
X0239418Y0147026D01*
X0239418Y0148224D02*
X0239218Y0148224D01*
X0238959Y0149423D02*
X0239676Y0149423D01*
X0240186Y0150621D02*
X0238449Y0150621D01*
X0237251Y0151820D02*
X0241384Y0151820D01*
X0242518Y0153018D02*
X0236118Y0153018D01*
X0236118Y0154217D02*
X0242518Y0154217D01*
X0242172Y0155415D02*
X0236118Y0155415D01*
X0236065Y0156614D02*
X0240974Y0156614D01*
X0239775Y0157812D02*
X0234866Y0157812D01*
X0233668Y0159011D02*
X0238577Y0159011D01*
X0237378Y0160209D02*
X0232469Y0160209D01*
X0231271Y0161408D02*
X0236180Y0161408D01*
X0230653Y0162606D02*
X0230072Y0162606D01*
X0229399Y0163805D02*
X0228874Y0163805D01*
X0228774Y0165003D02*
X0227893Y0165003D01*
X0228233Y0166202D02*
X0228433Y0166202D01*
X0228433Y0167401D02*
X0228233Y0167401D01*
X0227892Y0168599D02*
X0228775Y0168599D01*
X0229401Y0169798D02*
X0227265Y0169798D01*
X0226007Y0170996D02*
X0230659Y0170996D01*
X0229270Y0173393D02*
X0236147Y0173393D01*
X0234237Y0174592D02*
X0231180Y0174592D01*
X0231862Y0175274D02*
X0232608Y0177075D01*
X0232608Y0179025D01*
X0231862Y0180826D01*
X0230484Y0182204D01*
X0228683Y0182950D01*
X0226734Y0182950D01*
X0224933Y0182204D01*
X0223554Y0180826D01*
X0222808Y0179025D01*
X0222808Y0177075D01*
X0223554Y0175274D01*
X0224933Y0173896D01*
X0226734Y0173150D01*
X0228683Y0173150D01*
X0230484Y0173896D01*
X0231862Y0175274D01*
X0232076Y0175790D02*
X0233341Y0175790D01*
X0232844Y0176989D02*
X0232572Y0176989D01*
X0232608Y0178187D02*
X0232808Y0178187D01*
X0232958Y0179386D02*
X0232459Y0179386D01*
X0231962Y0180584D02*
X0233454Y0180584D01*
X0234511Y0181783D02*
X0230905Y0181783D01*
X0224511Y0181783D02*
X0190133Y0181783D01*
X0190133Y0180584D02*
X0223454Y0180584D01*
X0222958Y0179386D02*
X0190133Y0179386D01*
X0190133Y0178187D02*
X0222808Y0178187D01*
X0222844Y0176989D02*
X0190133Y0176989D01*
X0190329Y0175790D02*
X0223341Y0175790D01*
X0224237Y0174592D02*
X0191835Y0174592D01*
X0192490Y0173393D02*
X0226147Y0173393D01*
X0220659Y0170996D02*
X0216007Y0170996D01*
X0216109Y0170954D02*
X0214308Y0171700D01*
X0212359Y0171700D01*
X0210558Y0170954D01*
X0209179Y0169576D01*
X0208433Y0167775D01*
X0208433Y0165825D01*
X0209179Y0164024D01*
X0210558Y0162646D01*
X0212359Y0161900D01*
X0214308Y0161900D01*
X0215284Y0162304D01*
X0222518Y0155070D01*
X0222518Y0152382D01*
X0221542Y0151978D01*
X0220164Y0150599D01*
X0219418Y0148798D01*
X0219418Y0146849D01*
X0220164Y0145048D01*
X0221542Y0143670D01*
X0223343Y0142924D01*
X0225292Y0142924D01*
X0227093Y0143670D01*
X0228472Y0145048D01*
X0229218Y0146849D01*
X0229218Y0148798D01*
X0228472Y0150599D01*
X0227093Y0151978D01*
X0226118Y0152382D01*
X0226118Y0156561D01*
X0225063Y0157616D01*
X0217829Y0164850D01*
X0218233Y0165825D01*
X0218233Y0167775D01*
X0217487Y0169576D01*
X0216109Y0170954D01*
X0217265Y0169798D02*
X0219401Y0169798D01*
X0218775Y0168599D02*
X0217892Y0168599D01*
X0218233Y0167401D02*
X0218433Y0167401D01*
X0218433Y0166202D02*
X0218233Y0166202D01*
X0217893Y0165003D02*
X0218774Y0165003D01*
X0218874Y0163805D02*
X0219399Y0163805D01*
X0220072Y0162606D02*
X0220653Y0162606D01*
X0221271Y0161408D02*
X0226180Y0161408D01*
X0227378Y0160209D02*
X0222469Y0160209D01*
X0223668Y0159011D02*
X0228577Y0159011D01*
X0229775Y0157812D02*
X0224866Y0157812D01*
X0226065Y0156614D02*
X0230974Y0156614D01*
X0232172Y0155415D02*
X0226118Y0155415D01*
X0226118Y0154217D02*
X0232518Y0154217D01*
X0232518Y0153018D02*
X0226118Y0153018D01*
X0227251Y0151820D02*
X0231384Y0151820D01*
X0230186Y0150621D02*
X0228449Y0150621D01*
X0228959Y0149423D02*
X0229676Y0149423D01*
X0229418Y0148224D02*
X0229218Y0148224D01*
X0229218Y0147026D02*
X0229418Y0147026D01*
X0229841Y0145827D02*
X0228794Y0145827D01*
X0228052Y0144629D02*
X0230583Y0144629D01*
X0232120Y0143430D02*
X0226515Y0143430D01*
X0222120Y0143430D02*
X0216515Y0143430D01*
X0218052Y0144629D02*
X0220583Y0144629D01*
X0219841Y0145827D02*
X0218794Y0145827D01*
X0219218Y0147026D02*
X0219418Y0147026D01*
X0219418Y0148224D02*
X0219218Y0148224D01*
X0218959Y0149423D02*
X0219676Y0149423D01*
X0220186Y0150621D02*
X0218449Y0150621D01*
X0217251Y0151820D02*
X0221384Y0151820D01*
X0222518Y0153018D02*
X0216118Y0153018D01*
X0216118Y0154217D02*
X0222518Y0154217D01*
X0222172Y0155415D02*
X0216118Y0155415D01*
X0216065Y0156614D02*
X0220974Y0156614D01*
X0219775Y0157812D02*
X0214866Y0157812D01*
X0213668Y0159011D02*
X0218577Y0159011D01*
X0217378Y0160209D02*
X0212469Y0160209D01*
X0211271Y0161408D02*
X0216180Y0161408D01*
X0213333Y0166800D02*
X0224318Y0155816D01*
X0224318Y0147824D01*
X0234318Y0147824D02*
X0234318Y0155816D01*
X0223333Y0166800D01*
X0233333Y0166800D02*
X0244318Y0155816D01*
X0244318Y0147824D01*
X0256515Y0143430D02*
X0262120Y0143430D01*
X0261542Y0143670D02*
X0263343Y0142924D01*
X0265292Y0142924D01*
X0267093Y0143670D01*
X0268472Y0145048D01*
X0269218Y0146849D01*
X0269218Y0148798D01*
X0268472Y0150599D01*
X0267093Y0151978D01*
X0265292Y0152724D01*
X0263343Y0152724D01*
X0261542Y0151978D01*
X0260164Y0150599D01*
X0259418Y0148798D01*
X0259418Y0146849D01*
X0260164Y0145048D01*
X0261542Y0143670D01*
X0260583Y0144629D02*
X0258052Y0144629D01*
X0258794Y0145827D02*
X0259841Y0145827D01*
X0259418Y0147026D02*
X0259218Y0147026D01*
X0259218Y0148224D02*
X0259418Y0148224D01*
X0259676Y0149423D02*
X0258959Y0149423D01*
X0258449Y0150621D02*
X0260186Y0150621D01*
X0261384Y0151820D02*
X0257251Y0151820D01*
X0267251Y0151820D02*
X0271384Y0151820D01*
X0271542Y0151978D02*
X0270164Y0150599D01*
X0269418Y0148798D01*
X0269418Y0146849D01*
X0270164Y0145048D01*
X0271542Y0143670D01*
X0273343Y0142924D01*
X0275292Y0142924D01*
X0277093Y0143670D01*
X0278472Y0145048D01*
X0279218Y0146849D01*
X0279218Y0148798D01*
X0278472Y0150599D01*
X0277093Y0151978D01*
X0275292Y0152724D01*
X0273343Y0152724D01*
X0271542Y0151978D01*
X0270186Y0150621D02*
X0268449Y0150621D01*
X0268959Y0149423D02*
X0269676Y0149423D01*
X0269418Y0148224D02*
X0269218Y0148224D01*
X0269218Y0147026D02*
X0269418Y0147026D01*
X0269841Y0145827D02*
X0268794Y0145827D01*
X0268052Y0144629D02*
X0270583Y0144629D01*
X0272120Y0143430D02*
X0266515Y0143430D01*
X0276515Y0143430D02*
X0282120Y0143430D01*
X0280583Y0144629D02*
X0278052Y0144629D01*
X0278794Y0145827D02*
X0279841Y0145827D01*
X0279418Y0147026D02*
X0279218Y0147026D01*
X0279218Y0148224D02*
X0279418Y0148224D01*
X0279676Y0149423D02*
X0278959Y0149423D01*
X0278449Y0150621D02*
X0280186Y0150621D01*
X0281384Y0151820D02*
X0277251Y0151820D01*
X0283668Y0159011D02*
X0322959Y0159011D01*
X0321761Y0157812D02*
X0284866Y0157812D01*
X0286065Y0156614D02*
X0320562Y0156614D01*
X0319364Y0155415D02*
X0287263Y0155415D01*
X0288462Y0154217D02*
X0318165Y0154217D01*
X0316967Y0153018D02*
X0289661Y0153018D01*
X0290859Y0151820D02*
X0291384Y0151820D01*
X0292310Y0147824D02*
X0273333Y0166800D01*
X0268775Y0168599D02*
X0267892Y0168599D01*
X0268233Y0167775D02*
X0267487Y0169576D01*
X0266109Y0170954D01*
X0264308Y0171700D01*
X0262359Y0171700D01*
X0260558Y0170954D01*
X0259179Y0169576D01*
X0258433Y0167775D01*
X0258433Y0165825D01*
X0259179Y0164024D01*
X0260558Y0162646D01*
X0262359Y0161900D01*
X0264308Y0161900D01*
X0266109Y0162646D01*
X0267487Y0164024D01*
X0268233Y0165825D01*
X0268233Y0167775D01*
X0268233Y0167401D02*
X0268433Y0167401D01*
X0268433Y0166202D02*
X0268233Y0166202D01*
X0267893Y0165003D02*
X0268774Y0165003D01*
X0269399Y0163805D02*
X0267268Y0163805D01*
X0266014Y0162606D02*
X0270653Y0162606D01*
X0269401Y0169798D02*
X0267265Y0169798D01*
X0266007Y0170996D02*
X0270659Y0170996D01*
X0269933Y0173150D02*
X0271734Y0173896D01*
X0273112Y0175274D01*
X0273858Y0177075D01*
X0273858Y0179025D01*
X0273112Y0180826D01*
X0271734Y0182204D01*
X0269933Y0182950D01*
X0267984Y0182950D01*
X0266183Y0182204D01*
X0264804Y0180826D01*
X0264058Y0179025D01*
X0264058Y0177075D01*
X0264804Y0175274D01*
X0266183Y0173896D01*
X0267984Y0173150D01*
X0269933Y0173150D01*
X0270520Y0173393D02*
X0277397Y0173393D01*
X0277984Y0173150D02*
X0276183Y0173896D01*
X0274804Y0175274D01*
X0274058Y0177075D01*
X0274058Y0179025D01*
X0274804Y0180826D01*
X0276183Y0182204D01*
X0277984Y0182950D01*
X0279933Y0182950D01*
X0281734Y0182204D01*
X0283112Y0180826D01*
X0283858Y0179025D01*
X0283858Y0177075D01*
X0283112Y0175274D01*
X0281734Y0173896D01*
X0279933Y0173150D01*
X0277984Y0173150D01*
X0280520Y0173393D02*
X0318689Y0173393D01*
X0318433Y0172775D02*
X0319179Y0174576D01*
X0320558Y0175954D01*
X0322359Y0176700D01*
X0324308Y0176700D01*
X0326109Y0175954D01*
X0327487Y0174576D01*
X0328233Y0172775D01*
X0328233Y0170825D01*
X0327487Y0169024D01*
X0326109Y0167646D01*
X0324308Y0166900D01*
X0322359Y0166900D01*
X0320558Y0167646D01*
X0319179Y0169024D01*
X0318433Y0170825D01*
X0318433Y0172775D01*
X0318433Y0172195D02*
X0255133Y0172195D01*
X0255133Y0173393D02*
X0267397Y0173393D01*
X0265487Y0174592D02*
X0255133Y0174592D01*
X0255133Y0175790D02*
X0264591Y0175790D01*
X0264094Y0176989D02*
X0255133Y0176989D01*
X0255133Y0178187D02*
X0264058Y0178187D01*
X0264208Y0179386D02*
X0255133Y0179386D01*
X0255133Y0180584D02*
X0264704Y0180584D01*
X0265761Y0181783D02*
X0255133Y0181783D01*
X0254698Y0182981D02*
X0318519Y0182981D01*
X0318433Y0182775D02*
X0318433Y0180825D01*
X0319179Y0179024D01*
X0320558Y0177646D01*
X0322359Y0176900D01*
X0324308Y0176900D01*
X0326109Y0177646D01*
X0327487Y0179024D01*
X0328233Y0180825D01*
X0328233Y0182775D01*
X0327487Y0184576D01*
X0326109Y0185954D01*
X0324308Y0186700D01*
X0322359Y0186700D01*
X0320558Y0185954D01*
X0319179Y0184576D01*
X0318433Y0182775D01*
X0318433Y0181783D02*
X0282155Y0181783D01*
X0283212Y0180584D02*
X0318533Y0180584D01*
X0319030Y0179386D02*
X0283709Y0179386D01*
X0283858Y0178187D02*
X0320017Y0178187D01*
X0320394Y0175790D02*
X0283326Y0175790D01*
X0283822Y0176989D02*
X0322145Y0176989D01*
X0324522Y0176989D02*
X0329533Y0176989D01*
X0329533Y0178187D02*
X0326650Y0178187D01*
X0327637Y0179386D02*
X0329533Y0179386D01*
X0329533Y0180584D02*
X0328133Y0180584D01*
X0328233Y0181783D02*
X0329533Y0181783D01*
X0329533Y0182981D02*
X0328148Y0182981D01*
X0327651Y0184180D02*
X0329533Y0184180D01*
X0329533Y0185378D02*
X0326685Y0185378D01*
X0326109Y0187646D02*
X0327487Y0189024D01*
X0328233Y0190825D01*
X0328233Y0192775D01*
X0327487Y0194576D01*
X0326109Y0195954D01*
X0324308Y0196700D01*
X0322359Y0196700D01*
X0320558Y0195954D01*
X0319179Y0194576D01*
X0318433Y0192775D01*
X0318433Y0190825D01*
X0319179Y0189024D01*
X0320558Y0187646D01*
X0322359Y0186900D01*
X0324308Y0186900D01*
X0326109Y0187646D01*
X0326238Y0187775D02*
X0329533Y0187775D01*
X0329533Y0186577D02*
X0324606Y0186577D01*
X0322061Y0186577D02*
X0251102Y0186577D01*
X0249904Y0187775D02*
X0320428Y0187775D01*
X0319230Y0188974D02*
X0248705Y0188974D01*
X0247507Y0190172D02*
X0318704Y0190172D01*
X0318433Y0191371D02*
X0246308Y0191371D01*
X0245110Y0192569D02*
X0318433Y0192569D01*
X0318845Y0193768D02*
X0147822Y0193768D01*
X0148233Y0192569D02*
X0181557Y0192569D01*
X0180358Y0191371D02*
X0170103Y0191371D01*
X0171891Y0190172D02*
X0179160Y0190172D01*
X0177961Y0188974D02*
X0172737Y0188974D01*
X0172552Y0184180D02*
X0184115Y0184180D01*
X0183619Y0185378D02*
X0179457Y0185378D01*
X0180656Y0186577D02*
X0183433Y0186577D01*
X0183434Y0187775D02*
X0181854Y0187775D01*
X0183053Y0188974D02*
X0183930Y0188974D01*
X0183333Y0191800D02*
X0243333Y0191800D01*
X0253333Y0181800D01*
X0253333Y0166800D01*
X0248775Y0168599D02*
X0247892Y0168599D01*
X0248233Y0167401D02*
X0248433Y0167401D01*
X0248433Y0166202D02*
X0248233Y0166202D01*
X0247893Y0165003D02*
X0248774Y0165003D01*
X0249399Y0163805D02*
X0247268Y0163805D01*
X0246014Y0162606D02*
X0250653Y0162606D01*
X0256014Y0162606D02*
X0260653Y0162606D01*
X0259399Y0163805D02*
X0257268Y0163805D01*
X0257893Y0165003D02*
X0258774Y0165003D01*
X0258433Y0166202D02*
X0258233Y0166202D01*
X0258233Y0167401D02*
X0258433Y0167401D01*
X0258775Y0168599D02*
X0257892Y0168599D01*
X0257265Y0169798D02*
X0259401Y0169798D01*
X0260659Y0170996D02*
X0256007Y0170996D01*
X0251533Y0172195D02*
X0245133Y0172195D01*
X0245133Y0173393D02*
X0251533Y0173393D01*
X0250659Y0170996D02*
X0246007Y0170996D01*
X0247265Y0169798D02*
X0249401Y0169798D01*
X0240659Y0170996D02*
X0236007Y0170996D01*
X0237265Y0169798D02*
X0239401Y0169798D01*
X0239607Y0182981D02*
X0191444Y0182981D01*
X0192552Y0184180D02*
X0238408Y0184180D01*
X0238333Y0186800D02*
X0188333Y0186800D01*
X0188333Y0171800D01*
X0185241Y0168599D02*
X0171426Y0168599D01*
X0172321Y0169798D02*
X0184346Y0169798D01*
X0183883Y0170996D02*
X0172783Y0170996D01*
X0172783Y0172195D02*
X0183883Y0172195D01*
X0184177Y0173393D02*
X0172490Y0173393D01*
X0171835Y0174592D02*
X0184832Y0174592D01*
X0186338Y0175790D02*
X0170329Y0175790D01*
X0170133Y0176989D02*
X0186533Y0176989D01*
X0186533Y0178187D02*
X0170133Y0178187D01*
X0170133Y0179386D02*
X0186533Y0179386D01*
X0186533Y0180584D02*
X0170133Y0180584D01*
X0170133Y0181783D02*
X0186533Y0181783D01*
X0185223Y0182981D02*
X0171444Y0182981D01*
X0168333Y0186800D02*
X0178333Y0186800D01*
X0183333Y0191800D01*
X0192737Y0188974D02*
X0243614Y0188974D01*
X0252301Y0185378D02*
X0319982Y0185378D01*
X0319015Y0184180D02*
X0253499Y0184180D01*
X0272155Y0181783D02*
X0275761Y0181783D01*
X0274704Y0180584D02*
X0273212Y0180584D01*
X0273709Y0179386D02*
X0274208Y0179386D01*
X0274058Y0178187D02*
X0273858Y0178187D01*
X0273822Y0176989D02*
X0274094Y0176989D01*
X0274591Y0175790D02*
X0273326Y0175790D01*
X0272430Y0174592D02*
X0275487Y0174592D01*
X0276007Y0170996D02*
X0280092Y0170996D01*
X0278960Y0169798D02*
X0277265Y0169798D01*
X0277892Y0168599D02*
X0278345Y0168599D01*
X0282933Y0168599D02*
X0283733Y0168599D01*
X0283733Y0167401D02*
X0282933Y0167401D01*
X0282933Y0166202D02*
X0283733Y0166202D01*
X0283733Y0165003D02*
X0282933Y0165003D01*
X0282933Y0163805D02*
X0283733Y0163805D01*
X0283733Y0162606D02*
X0282933Y0162606D01*
X0281271Y0161408D02*
X0325356Y0161408D01*
X0324158Y0160209D02*
X0282469Y0160209D01*
X0280088Y0162606D02*
X0280072Y0162606D01*
X0286578Y0162606D02*
X0290653Y0162606D01*
X0289399Y0163805D02*
X0287708Y0163805D01*
X0288322Y0165003D02*
X0288774Y0165003D01*
X0288775Y0168599D02*
X0288322Y0168599D01*
X0287707Y0169798D02*
X0289401Y0169798D01*
X0290659Y0170996D02*
X0286575Y0170996D01*
X0283733Y0170996D02*
X0282933Y0170996D01*
X0282933Y0169798D02*
X0283733Y0169798D01*
X0282430Y0174592D02*
X0319195Y0174592D01*
X0318433Y0170996D02*
X0316007Y0170996D01*
X0316109Y0170954D02*
X0314308Y0171700D01*
X0312359Y0171700D01*
X0310558Y0170954D01*
X0309179Y0169576D01*
X0308433Y0167775D01*
X0308433Y0165825D01*
X0309179Y0164024D01*
X0310558Y0162646D01*
X0312359Y0161900D01*
X0314308Y0161900D01*
X0316109Y0162646D01*
X0317487Y0164024D01*
X0318233Y0165825D01*
X0318233Y0167775D01*
X0317487Y0169576D01*
X0316109Y0170954D01*
X0317265Y0169798D02*
X0318859Y0169798D01*
X0319605Y0168599D02*
X0317892Y0168599D01*
X0318233Y0167401D02*
X0321150Y0167401D01*
X0318233Y0166202D02*
X0329533Y0166202D01*
X0329533Y0167401D02*
X0325516Y0167401D01*
X0327062Y0168599D02*
X0329533Y0168599D01*
X0329533Y0169798D02*
X0327808Y0169798D01*
X0328233Y0170996D02*
X0329533Y0170996D01*
X0329533Y0172195D02*
X0328233Y0172195D01*
X0327977Y0173393D02*
X0329533Y0173393D01*
X0329533Y0174592D02*
X0327471Y0174592D01*
X0326273Y0175790D02*
X0329533Y0175790D01*
X0336118Y0175790D02*
X0336828Y0175790D01*
X0336881Y0175843D02*
X0336291Y0175253D01*
X0336118Y0175014D01*
X0336118Y0226470D01*
X0348333Y0214254D01*
X0348333Y0176275D01*
X0347558Y0175954D01*
X0346179Y0174576D01*
X0345514Y0172970D01*
X0345503Y0173041D01*
X0345245Y0173834D01*
X0344866Y0174578D01*
X0344376Y0175253D01*
X0343786Y0175843D01*
X0343111Y0176333D01*
X0342368Y0176712D01*
X0341574Y0176969D01*
X0340750Y0177100D01*
X0340733Y0177100D01*
X0340733Y0172200D01*
X0339933Y0172200D01*
X0339933Y0177100D01*
X0339916Y0177100D01*
X0339092Y0176969D01*
X0338299Y0176712D01*
X0337556Y0176333D01*
X0336881Y0175843D01*
X0336118Y0176989D02*
X0339213Y0176989D01*
X0339933Y0176989D02*
X0340733Y0176989D01*
X0341454Y0176989D02*
X0348333Y0176989D01*
X0348333Y0178187D02*
X0336118Y0178187D01*
X0336118Y0179386D02*
X0348333Y0179386D01*
X0348333Y0180584D02*
X0336118Y0180584D01*
X0336118Y0181783D02*
X0348333Y0181783D01*
X0348333Y0182981D02*
X0346328Y0182981D01*
X0346493Y0183101D02*
X0347033Y0183640D01*
X0347481Y0184258D01*
X0347828Y0184938D01*
X0348064Y0185664D01*
X0348183Y0186418D01*
X0348183Y0186711D01*
X0343422Y0186711D01*
X0343422Y0181950D01*
X0343715Y0181950D01*
X0344469Y0182069D01*
X0345195Y0182305D01*
X0345875Y0182652D01*
X0346493Y0183101D01*
X0347424Y0184180D02*
X0348333Y0184180D01*
X0348333Y0185378D02*
X0347971Y0185378D01*
X0348183Y0186577D02*
X0348333Y0186577D01*
X0348183Y0186889D02*
X0348183Y0187182D01*
X0348064Y0187936D01*
X0347828Y0188662D01*
X0347481Y0189342D01*
X0347033Y0189960D01*
X0346493Y0190499D01*
X0345875Y0190948D01*
X0345195Y0191295D01*
X0344469Y0191531D01*
X0343715Y0191650D01*
X0343422Y0191650D01*
X0343422Y0186889D01*
X0343244Y0186889D01*
X0343244Y0186711D01*
X0338483Y0186711D01*
X0338483Y0186418D01*
X0338603Y0185664D01*
X0338839Y0184938D01*
X0339185Y0184258D01*
X0339634Y0183640D01*
X0340174Y0183101D01*
X0340791Y0182652D01*
X0341472Y0182305D01*
X0342198Y0182069D01*
X0342952Y0181950D01*
X0343244Y0181950D01*
X0343244Y0186711D01*
X0343422Y0186711D01*
X0343422Y0186889D01*
X0348183Y0186889D01*
X0348089Y0187775D02*
X0348333Y0187775D01*
X0348333Y0188974D02*
X0347669Y0188974D01*
X0348333Y0190172D02*
X0346820Y0190172D01*
X0348333Y0191371D02*
X0344961Y0191371D01*
X0344748Y0192569D02*
X0348333Y0192569D01*
X0348333Y0193768D02*
X0346594Y0193768D01*
X0347106Y0194279D02*
X0347783Y0195915D01*
X0347783Y0197685D01*
X0347106Y0199321D01*
X0345854Y0200573D01*
X0344218Y0201250D01*
X0342448Y0201250D01*
X0340813Y0200573D01*
X0339561Y0199321D01*
X0338883Y0197685D01*
X0338883Y0195915D01*
X0339561Y0194279D01*
X0340813Y0193027D01*
X0342448Y0192350D01*
X0344218Y0192350D01*
X0345854Y0193027D01*
X0347106Y0194279D01*
X0347390Y0194966D02*
X0348333Y0194966D01*
X0348333Y0196165D02*
X0347783Y0196165D01*
X0347783Y0197363D02*
X0348333Y0197363D01*
X0348333Y0198562D02*
X0347420Y0198562D01*
X0346666Y0199760D02*
X0348333Y0199760D01*
X0348333Y0200959D02*
X0344921Y0200959D01*
X0341745Y0200959D02*
X0336118Y0200959D01*
X0336118Y0202157D02*
X0348333Y0202157D01*
X0348333Y0203356D02*
X0336118Y0203356D01*
X0336118Y0204554D02*
X0348333Y0204554D01*
X0348333Y0205753D02*
X0336118Y0205753D01*
X0336118Y0206951D02*
X0348333Y0206951D01*
X0348333Y0208150D02*
X0336118Y0208150D01*
X0336118Y0209348D02*
X0348333Y0209348D01*
X0348333Y0210547D02*
X0336118Y0210547D01*
X0336118Y0211745D02*
X0348333Y0211745D01*
X0348333Y0212944D02*
X0336118Y0212944D01*
X0336118Y0214142D02*
X0348333Y0214142D01*
X0347247Y0215341D02*
X0336118Y0215341D01*
X0336118Y0216539D02*
X0346048Y0216539D01*
X0344850Y0217738D02*
X0336118Y0217738D01*
X0336118Y0218937D02*
X0343651Y0218937D01*
X0342453Y0220135D02*
X0336118Y0220135D01*
X0336118Y0221334D02*
X0341254Y0221334D01*
X0340056Y0222532D02*
X0336118Y0222532D01*
X0336118Y0223731D02*
X0338857Y0223731D01*
X0337659Y0224929D02*
X0336118Y0224929D01*
X0336118Y0226128D02*
X0336460Y0226128D01*
X0334318Y0225816D02*
X0334318Y0157824D01*
X0324318Y0147824D01*
X0328794Y0145827D02*
X0329393Y0145827D01*
X0330088Y0144629D02*
X0328052Y0144629D01*
X0326515Y0143430D02*
X0331348Y0143430D01*
X0333918Y0143430D02*
X0334718Y0143430D01*
X0334718Y0144629D02*
X0333918Y0144629D01*
X0333918Y0145827D02*
X0334718Y0145827D01*
X0334718Y0147026D02*
X0333918Y0147026D01*
X0333918Y0148224D02*
X0333918Y0153124D01*
X0333900Y0153124D01*
X0333076Y0152993D01*
X0332283Y0152735D01*
X0331540Y0152357D01*
X0331014Y0151975D01*
X0336118Y0157078D01*
X0336118Y0158569D01*
X0336118Y0168586D01*
X0336291Y0168347D01*
X0336881Y0167757D01*
X0337556Y0167267D01*
X0338299Y0166888D01*
X0339092Y0166630D01*
X0339916Y0166500D01*
X0339933Y0166500D01*
X0339933Y0171400D01*
X0340733Y0171400D01*
X0340733Y0166500D01*
X0340750Y0166500D01*
X0341574Y0166630D01*
X0342368Y0166888D01*
X0343111Y0167267D01*
X0343786Y0167757D01*
X0344376Y0168347D01*
X0344866Y0169022D01*
X0345245Y0169766D01*
X0345503Y0170559D01*
X0345514Y0170630D01*
X0346179Y0169024D01*
X0347558Y0167646D01*
X0348333Y0167325D01*
X0348333Y0152724D01*
X0340121Y0152724D01*
X0339418Y0152021D01*
X0339418Y0149279D01*
X0339229Y0149858D01*
X0338851Y0150601D01*
X0338360Y0151276D01*
X0337770Y0151866D01*
X0337095Y0152357D01*
X0336352Y0152735D01*
X0335559Y0152993D01*
X0334735Y0153124D01*
X0334718Y0153124D01*
X0334718Y0148224D01*
X0333918Y0148224D01*
X0334718Y0148224D01*
X0334718Y0149423D02*
X0333918Y0149423D01*
X0333918Y0150621D02*
X0334718Y0150621D01*
X0334718Y0151820D02*
X0333918Y0151820D01*
X0333918Y0153018D02*
X0334718Y0153018D01*
X0335399Y0153018D02*
X0348333Y0153018D01*
X0348333Y0154217D02*
X0333256Y0154217D01*
X0333236Y0153018D02*
X0332058Y0153018D01*
X0334455Y0155415D02*
X0348333Y0155415D01*
X0348333Y0156614D02*
X0335653Y0156614D01*
X0336118Y0157812D02*
X0348333Y0157812D01*
X0348333Y0159011D02*
X0336118Y0159011D01*
X0336118Y0160209D02*
X0348333Y0160209D01*
X0348333Y0161408D02*
X0336118Y0161408D01*
X0336118Y0162606D02*
X0348333Y0162606D01*
X0348333Y0163805D02*
X0336118Y0163805D01*
X0336118Y0165003D02*
X0348333Y0165003D01*
X0348333Y0166202D02*
X0336118Y0166202D01*
X0336118Y0167401D02*
X0337372Y0167401D01*
X0339933Y0167401D02*
X0340733Y0167401D01*
X0340733Y0168599D02*
X0339933Y0168599D01*
X0339933Y0169798D02*
X0340733Y0169798D01*
X0340733Y0170996D02*
X0339933Y0170996D01*
X0339933Y0173393D02*
X0340733Y0173393D01*
X0340733Y0174592D02*
X0339933Y0174592D01*
X0339933Y0175790D02*
X0340733Y0175790D01*
X0343839Y0175790D02*
X0347394Y0175790D01*
X0346195Y0174592D02*
X0344856Y0174592D01*
X0345388Y0173393D02*
X0345689Y0173393D01*
X0345859Y0169798D02*
X0345255Y0169798D01*
X0344559Y0168599D02*
X0346605Y0168599D01*
X0348150Y0167401D02*
X0343295Y0167401D01*
X0332518Y0162606D02*
X0331646Y0162606D01*
X0332518Y0161408D02*
X0330447Y0161408D01*
X0329249Y0160209D02*
X0332518Y0160209D01*
X0332518Y0159011D02*
X0328050Y0159011D01*
X0326852Y0157812D02*
X0331761Y0157812D01*
X0330562Y0156614D02*
X0325653Y0156614D01*
X0324455Y0155415D02*
X0329364Y0155415D01*
X0328165Y0154217D02*
X0323256Y0154217D01*
X0322058Y0153018D02*
X0326967Y0153018D01*
X0321384Y0151820D02*
X0320859Y0151820D01*
X0320186Y0150621D02*
X0319661Y0150621D01*
X0319676Y0149423D02*
X0318959Y0149423D01*
X0319218Y0148224D02*
X0319418Y0148224D01*
X0319418Y0147026D02*
X0319218Y0147026D01*
X0318794Y0145827D02*
X0319841Y0145827D01*
X0320583Y0144629D02*
X0318052Y0144629D01*
X0316515Y0143430D02*
X0322120Y0143430D01*
X0314318Y0147824D02*
X0331333Y0164839D01*
X0331333Y0224800D01*
X0323333Y0232800D01*
X0279333Y0232800D01*
X0273333Y0226800D01*
X0268805Y0224929D02*
X0267862Y0224929D01*
X0268233Y0226128D02*
X0268433Y0226128D01*
X0268433Y0227326D02*
X0268233Y0227326D01*
X0267923Y0228525D02*
X0268744Y0228525D01*
X0268802Y0229723D02*
X0269327Y0229723D01*
X0270001Y0230922D02*
X0270525Y0230922D01*
X0271199Y0232120D02*
X0276108Y0232120D01*
X0278802Y0229723D02*
X0279327Y0229723D01*
X0278744Y0228525D02*
X0277923Y0228525D01*
X0278233Y0227326D02*
X0278433Y0227326D01*
X0278433Y0226128D02*
X0278233Y0226128D01*
X0277862Y0224929D02*
X0278805Y0224929D01*
X0279473Y0223731D02*
X0277194Y0223731D01*
X0275834Y0222532D02*
X0280833Y0222532D01*
X0285834Y0222532D02*
X0290833Y0222532D01*
X0289473Y0223731D02*
X0287194Y0223731D01*
X0287862Y0224929D02*
X0288805Y0224929D01*
X0288433Y0226128D02*
X0288233Y0226128D01*
X0288233Y0227326D02*
X0288433Y0227326D01*
X0288744Y0228525D02*
X0287923Y0228525D01*
X0287340Y0229723D02*
X0289327Y0229723D01*
X0290525Y0230922D02*
X0286141Y0230922D01*
X0280525Y0230922D02*
X0280001Y0230922D01*
X0271333Y0234800D02*
X0325333Y0234800D01*
X0334318Y0225816D01*
X0329533Y0223731D02*
X0327837Y0223731D01*
X0327487Y0224576D02*
X0326109Y0225954D01*
X0324308Y0226700D01*
X0322359Y0226700D01*
X0320558Y0225954D01*
X0319179Y0224576D01*
X0318433Y0222775D01*
X0318433Y0220825D01*
X0319179Y0219024D01*
X0320558Y0217646D01*
X0322359Y0216900D01*
X0324308Y0216900D01*
X0326109Y0217646D01*
X0327487Y0219024D01*
X0328233Y0220825D01*
X0328233Y0222775D01*
X0327487Y0224576D01*
X0327134Y0224929D02*
X0328659Y0224929D01*
X0327460Y0226128D02*
X0325690Y0226128D01*
X0326262Y0227326D02*
X0318233Y0227326D01*
X0318233Y0226128D02*
X0320977Y0226128D01*
X0319533Y0224929D02*
X0317862Y0224929D01*
X0317194Y0223731D02*
X0318829Y0223731D01*
X0318433Y0222532D02*
X0315834Y0222532D01*
X0318433Y0221334D02*
X0185412Y0221334D01*
X0184214Y0220135D02*
X0318719Y0220135D01*
X0319267Y0218937D02*
X0183015Y0218937D01*
X0181817Y0217738D02*
X0320466Y0217738D01*
X0320558Y0215954D02*
X0319179Y0214576D01*
X0318433Y0212775D01*
X0318433Y0210825D01*
X0319179Y0209024D01*
X0320558Y0207646D01*
X0322359Y0206900D01*
X0324308Y0206900D01*
X0326109Y0207646D01*
X0327487Y0209024D01*
X0328233Y0210825D01*
X0328233Y0212775D01*
X0327487Y0214576D01*
X0326109Y0215954D01*
X0324308Y0216700D01*
X0322359Y0216700D01*
X0320558Y0215954D01*
X0319945Y0215341D02*
X0179420Y0215341D01*
X0180618Y0216539D02*
X0321971Y0216539D01*
X0324695Y0216539D02*
X0329533Y0216539D01*
X0329533Y0215341D02*
X0326722Y0215341D01*
X0327667Y0214142D02*
X0329533Y0214142D01*
X0329533Y0212944D02*
X0328163Y0212944D01*
X0328233Y0211745D02*
X0329533Y0211745D01*
X0329533Y0210547D02*
X0328118Y0210547D01*
X0327622Y0209348D02*
X0329533Y0209348D01*
X0329533Y0208150D02*
X0326613Y0208150D01*
X0326109Y0205954D02*
X0324308Y0206700D01*
X0322359Y0206700D01*
X0320558Y0205954D01*
X0319179Y0204576D01*
X0318433Y0202775D01*
X0318433Y0200825D01*
X0319179Y0199024D01*
X0320558Y0197646D01*
X0322359Y0196900D01*
X0324308Y0196900D01*
X0326109Y0197646D01*
X0327487Y0199024D01*
X0328233Y0200825D01*
X0328233Y0202775D01*
X0327487Y0204576D01*
X0326109Y0205954D01*
X0326310Y0205753D02*
X0329533Y0205753D01*
X0329533Y0206951D02*
X0324432Y0206951D01*
X0322235Y0206951D02*
X0171030Y0206951D01*
X0169832Y0205753D02*
X0320357Y0205753D01*
X0319171Y0204554D02*
X0168633Y0204554D01*
X0167435Y0203356D02*
X0318674Y0203356D01*
X0318433Y0202157D02*
X0166236Y0202157D01*
X0165038Y0200959D02*
X0318433Y0200959D01*
X0318874Y0199760D02*
X0163839Y0199760D01*
X0162641Y0198562D02*
X0319642Y0198562D01*
X0321240Y0197363D02*
X0161442Y0197363D01*
X0160244Y0196165D02*
X0321067Y0196165D01*
X0319570Y0194966D02*
X0147097Y0194966D01*
X0148233Y0191371D02*
X0166564Y0191371D01*
X0164776Y0190172D02*
X0147963Y0190172D01*
X0147437Y0188974D02*
X0163930Y0188974D01*
X0163434Y0187775D02*
X0146238Y0187775D01*
X0137961Y0188974D02*
X0107437Y0188974D01*
X0106238Y0187775D02*
X0136763Y0187775D01*
X0135564Y0186577D02*
X0105633Y0186577D01*
X0103333Y0191800D02*
X0133333Y0191800D01*
X0132756Y0193768D02*
X0107822Y0193768D01*
X0107097Y0194966D02*
X0133954Y0194966D01*
X0135153Y0196165D02*
X0105600Y0196165D01*
X0105427Y0197363D02*
X0136351Y0197363D01*
X0137550Y0198562D02*
X0107025Y0198562D01*
X0107792Y0199760D02*
X0138874Y0199760D01*
X0138433Y0200959D02*
X0108233Y0200959D01*
X0108233Y0202157D02*
X0138433Y0202157D01*
X0138674Y0203356D02*
X0107993Y0203356D01*
X0107496Y0204554D02*
X0139171Y0204554D01*
X0147496Y0204554D02*
X0163542Y0204554D01*
X0162344Y0203356D02*
X0147993Y0203356D01*
X0148233Y0202157D02*
X0161145Y0202157D01*
X0159947Y0200959D02*
X0148233Y0200959D01*
X0147792Y0199760D02*
X0158748Y0199760D01*
X0164741Y0205753D02*
X0149832Y0205753D01*
X0151030Y0206951D02*
X0165939Y0206951D01*
X0167138Y0208150D02*
X0152229Y0208150D01*
X0153427Y0209348D02*
X0168336Y0209348D01*
X0169535Y0210547D02*
X0154626Y0210547D01*
X0155824Y0211745D02*
X0170733Y0211745D01*
X0171932Y0212944D02*
X0157023Y0212944D01*
X0158221Y0214142D02*
X0173130Y0214142D01*
X0174329Y0215341D02*
X0159420Y0215341D01*
X0160618Y0216539D02*
X0175527Y0216539D01*
X0176726Y0217738D02*
X0161817Y0217738D01*
X0163015Y0218937D02*
X0177924Y0218937D01*
X0179123Y0220135D02*
X0164214Y0220135D01*
X0165412Y0221334D02*
X0180321Y0221334D01*
X0181520Y0222532D02*
X0170834Y0222532D01*
X0172194Y0223731D02*
X0182718Y0223731D01*
X0190834Y0222532D02*
X0200833Y0222532D01*
X0199473Y0223731D02*
X0192194Y0223731D01*
X0192862Y0224929D02*
X0198805Y0224929D01*
X0198433Y0226128D02*
X0193233Y0226128D01*
X0193233Y0227326D02*
X0198433Y0227326D01*
X0198744Y0228525D02*
X0192923Y0228525D01*
X0192340Y0229723D02*
X0197865Y0229723D01*
X0203333Y0226800D02*
X0193333Y0236800D01*
X0192754Y0241708D02*
X0241913Y0241708D01*
X0240996Y0242238D02*
X0243721Y0240664D01*
X0246760Y0239850D01*
X0249907Y0239850D01*
X0252946Y0240664D01*
X0255671Y0242238D01*
X0257896Y0244463D01*
X0259469Y0247187D01*
X0260283Y0250227D01*
X0260283Y0253373D01*
X0259469Y0256413D01*
X0257896Y0259137D01*
X0255671Y0261362D01*
X0252946Y0262936D01*
X0249907Y0263750D01*
X0246760Y0263750D01*
X0243721Y0262936D01*
X0240996Y0261362D01*
X0238771Y0259137D01*
X0237198Y0256413D01*
X0236383Y0253373D01*
X0236383Y0250227D01*
X0237198Y0247187D01*
X0238771Y0244463D01*
X0240996Y0242238D01*
X0240327Y0242907D02*
X0194340Y0242907D01*
X0195538Y0244105D02*
X0239128Y0244105D01*
X0238285Y0245304D02*
X0196381Y0245304D01*
X0197073Y0246502D02*
X0237593Y0246502D01*
X0237060Y0247701D02*
X0197606Y0247701D01*
X0197928Y0248899D02*
X0236739Y0248899D01*
X0236418Y0250098D02*
X0198249Y0250098D01*
X0198283Y0251296D02*
X0236383Y0251296D01*
X0236383Y0252495D02*
X0198283Y0252495D01*
X0198198Y0253693D02*
X0236469Y0253693D01*
X0236790Y0254892D02*
X0197876Y0254892D01*
X0197555Y0256090D02*
X0237111Y0256090D01*
X0237704Y0257289D02*
X0196963Y0257289D01*
X0196271Y0258487D02*
X0238396Y0258487D01*
X0239319Y0259686D02*
X0195347Y0259686D01*
X0194149Y0260884D02*
X0240518Y0260884D01*
X0242244Y0262083D02*
X0192423Y0262083D01*
X0189655Y0263281D02*
X0245011Y0263281D01*
X0251655Y0263281D02*
X0311011Y0263281D01*
X0308244Y0262083D02*
X0254423Y0262083D01*
X0256149Y0260884D02*
X0306518Y0260884D01*
X0305319Y0259686D02*
X0257347Y0259686D01*
X0258271Y0258487D02*
X0304396Y0258487D01*
X0303704Y0257289D02*
X0258963Y0257289D01*
X0259555Y0256090D02*
X0303111Y0256090D01*
X0302790Y0254892D02*
X0259876Y0254892D01*
X0260198Y0253693D02*
X0302469Y0253693D01*
X0302383Y0252495D02*
X0260283Y0252495D01*
X0260283Y0251296D02*
X0302383Y0251296D01*
X0302418Y0250098D02*
X0260249Y0250098D01*
X0259928Y0248899D02*
X0302739Y0248899D01*
X0303060Y0247701D02*
X0259606Y0247701D01*
X0259073Y0246502D02*
X0303593Y0246502D01*
X0304285Y0245304D02*
X0258381Y0245304D01*
X0257538Y0244105D02*
X0305128Y0244105D01*
X0306327Y0242907D02*
X0256340Y0242907D01*
X0254754Y0241708D02*
X0307913Y0241708D01*
X0306141Y0230922D02*
X0310525Y0230922D01*
X0309327Y0229723D02*
X0307340Y0229723D01*
X0307923Y0228525D02*
X0308744Y0228525D01*
X0308433Y0227326D02*
X0308233Y0227326D01*
X0308233Y0226128D02*
X0308433Y0226128D01*
X0308805Y0224929D02*
X0307862Y0224929D01*
X0307194Y0223731D02*
X0309473Y0223731D01*
X0310833Y0222532D02*
X0305834Y0222532D01*
X0300833Y0222532D02*
X0295834Y0222532D01*
X0297194Y0223731D02*
X0299473Y0223731D01*
X0298805Y0224929D02*
X0297862Y0224929D01*
X0298233Y0226128D02*
X0298433Y0226128D01*
X0298433Y0227326D02*
X0298233Y0227326D01*
X0297923Y0228525D02*
X0298744Y0228525D01*
X0299327Y0229723D02*
X0297340Y0229723D01*
X0296141Y0230922D02*
X0300525Y0230922D01*
X0316141Y0230922D02*
X0322666Y0230922D01*
X0323865Y0229723D02*
X0317340Y0229723D01*
X0317923Y0228525D02*
X0325063Y0228525D01*
X0328233Y0222532D02*
X0329533Y0222532D01*
X0329533Y0221334D02*
X0328233Y0221334D01*
X0327947Y0220135D02*
X0329533Y0220135D01*
X0329533Y0218937D02*
X0327399Y0218937D01*
X0326201Y0217738D02*
X0329533Y0217738D01*
X0319000Y0214142D02*
X0178221Y0214142D01*
X0177023Y0212944D02*
X0318503Y0212944D01*
X0318433Y0211745D02*
X0175824Y0211745D01*
X0174626Y0210547D02*
X0318549Y0210547D01*
X0319045Y0209348D02*
X0173427Y0209348D01*
X0172229Y0208150D02*
X0320054Y0208150D01*
X0327496Y0204554D02*
X0329533Y0204554D01*
X0329533Y0203356D02*
X0327993Y0203356D01*
X0328233Y0202157D02*
X0329533Y0202157D01*
X0329533Y0200959D02*
X0328233Y0200959D01*
X0327792Y0199760D02*
X0329533Y0199760D01*
X0329533Y0198562D02*
X0327025Y0198562D01*
X0325427Y0197363D02*
X0329533Y0197363D01*
X0329533Y0196165D02*
X0325600Y0196165D01*
X0327097Y0194966D02*
X0329533Y0194966D01*
X0329533Y0193768D02*
X0327822Y0193768D01*
X0328233Y0192569D02*
X0329533Y0192569D01*
X0329533Y0191371D02*
X0328233Y0191371D01*
X0327963Y0190172D02*
X0329533Y0190172D01*
X0329533Y0188974D02*
X0327437Y0188974D01*
X0336118Y0188974D02*
X0338998Y0188974D01*
X0338839Y0188662D02*
X0338603Y0187936D01*
X0338483Y0187182D01*
X0338483Y0186889D01*
X0343244Y0186889D01*
X0343244Y0191650D01*
X0342952Y0191650D01*
X0342198Y0191531D01*
X0341472Y0191295D01*
X0340791Y0190948D01*
X0340174Y0190499D01*
X0339634Y0189960D01*
X0339185Y0189342D01*
X0338839Y0188662D01*
X0338577Y0187775D02*
X0336118Y0187775D01*
X0336118Y0186577D02*
X0338483Y0186577D01*
X0338696Y0185378D02*
X0336118Y0185378D01*
X0336118Y0184180D02*
X0339242Y0184180D01*
X0340338Y0182981D02*
X0336118Y0182981D01*
X0343244Y0182981D02*
X0343422Y0182981D01*
X0343422Y0184180D02*
X0343244Y0184180D01*
X0343244Y0185378D02*
X0343422Y0185378D01*
X0343422Y0186577D02*
X0343244Y0186577D01*
X0343244Y0187775D02*
X0343422Y0187775D01*
X0343422Y0188974D02*
X0343244Y0188974D01*
X0343244Y0190172D02*
X0343422Y0190172D01*
X0343422Y0191371D02*
X0343244Y0191371D01*
X0341706Y0191371D02*
X0336118Y0191371D01*
X0336118Y0192569D02*
X0341919Y0192569D01*
X0340072Y0193768D02*
X0336118Y0193768D01*
X0336118Y0194966D02*
X0339276Y0194966D01*
X0338883Y0196165D02*
X0336118Y0196165D01*
X0336118Y0197363D02*
X0338883Y0197363D01*
X0339246Y0198562D02*
X0336118Y0198562D01*
X0336118Y0199760D02*
X0340000Y0199760D01*
X0339847Y0190172D02*
X0336118Y0190172D01*
X0353333Y0190172D02*
X0354847Y0190172D01*
X0354634Y0189960D02*
X0354185Y0189342D01*
X0353839Y0188662D01*
X0353603Y0187936D01*
X0353483Y0187182D01*
X0353483Y0186889D01*
X0358244Y0186889D01*
X0358244Y0186711D01*
X0353483Y0186711D01*
X0353483Y0186418D01*
X0353603Y0185664D01*
X0353839Y0184938D01*
X0354185Y0184258D01*
X0354634Y0183640D01*
X0355174Y0183101D01*
X0355791Y0182652D01*
X0356472Y0182305D01*
X0357198Y0182069D01*
X0357952Y0181950D01*
X0358244Y0181950D01*
X0358244Y0186711D01*
X0358422Y0186711D01*
X0358422Y0181950D01*
X0358715Y0181950D01*
X0359469Y0182069D01*
X0360195Y0182305D01*
X0360875Y0182652D01*
X0361493Y0183101D01*
X0362033Y0183640D01*
X0362481Y0184258D01*
X0362828Y0184938D01*
X0363064Y0185664D01*
X0363183Y0186418D01*
X0363183Y0186711D01*
X0358422Y0186711D01*
X0358422Y0186889D01*
X0358244Y0186889D01*
X0358244Y0191650D01*
X0357952Y0191650D01*
X0357198Y0191531D01*
X0356472Y0191295D01*
X0355791Y0190948D01*
X0355174Y0190499D01*
X0354634Y0189960D01*
X0353998Y0188974D02*
X0353333Y0188974D01*
X0353333Y0187775D02*
X0353577Y0187775D01*
X0353483Y0186577D02*
X0353333Y0186577D01*
X0353333Y0185378D02*
X0353696Y0185378D01*
X0353333Y0184180D02*
X0354242Y0184180D01*
X0353333Y0182981D02*
X0355338Y0182981D01*
X0353333Y0181783D02*
X0400333Y0181783D01*
X0400333Y0182981D02*
X0361328Y0182981D01*
X0362424Y0184180D02*
X0400333Y0184180D01*
X0400333Y0185378D02*
X0389845Y0185378D01*
X0390009Y0185446D02*
X0391387Y0186824D01*
X0392133Y0188625D01*
X0392133Y0190575D01*
X0391387Y0192376D01*
X0390009Y0193754D01*
X0388208Y0194500D01*
X0386259Y0194500D01*
X0384458Y0193754D01*
X0383079Y0192376D01*
X0382333Y0190575D01*
X0382333Y0188625D01*
X0383079Y0186824D01*
X0384458Y0185446D01*
X0386259Y0184700D01*
X0388208Y0184700D01*
X0390009Y0185446D01*
X0391140Y0186577D02*
X0400333Y0186577D01*
X0400333Y0187775D02*
X0391781Y0187775D01*
X0392133Y0188974D02*
X0400333Y0188974D01*
X0400333Y0190172D02*
X0392133Y0190172D01*
X0391804Y0191371D02*
X0400333Y0191371D01*
X0400333Y0192569D02*
X0391194Y0192569D01*
X0389976Y0193768D02*
X0400333Y0193768D01*
X0400333Y0194966D02*
X0371233Y0194966D01*
X0371233Y0196165D02*
X0400333Y0196165D01*
X0400333Y0197363D02*
X0370316Y0197363D01*
X0369117Y0198562D02*
X0400333Y0198562D01*
X0400333Y0199760D02*
X0389802Y0199760D01*
X0390009Y0199846D02*
X0391387Y0201224D01*
X0392133Y0203025D01*
X0392133Y0204975D01*
X0391387Y0206776D01*
X0390009Y0208154D01*
X0388208Y0208900D01*
X0386259Y0208900D01*
X0384458Y0208154D01*
X0383079Y0206776D01*
X0382333Y0204975D01*
X0382333Y0203025D01*
X0383079Y0201224D01*
X0384458Y0199846D01*
X0386259Y0199100D01*
X0388208Y0199100D01*
X0390009Y0199846D01*
X0391122Y0200959D02*
X0400333Y0200959D01*
X0400333Y0202157D02*
X0391774Y0202157D01*
X0392133Y0203356D02*
X0400333Y0203356D01*
X0400333Y0204554D02*
X0392133Y0204554D01*
X0391811Y0205753D02*
X0400333Y0205753D01*
X0400333Y0206951D02*
X0391212Y0206951D01*
X0390013Y0208150D02*
X0400333Y0208150D01*
X0400333Y0209348D02*
X0358330Y0209348D01*
X0357132Y0210547D02*
X0400333Y0210547D01*
X0400333Y0211745D02*
X0355933Y0211745D01*
X0354735Y0212944D02*
X0400333Y0212944D01*
X0400333Y0214142D02*
X0353536Y0214142D01*
X0353333Y0215341D02*
X0400333Y0215341D01*
X0400333Y0216539D02*
X0353333Y0216539D01*
X0353333Y0217738D02*
X0400333Y0217738D01*
X0400333Y0218937D02*
X0353333Y0218937D01*
X0353333Y0220135D02*
X0400333Y0220135D01*
X0400333Y0221334D02*
X0353333Y0221334D01*
X0353333Y0222532D02*
X0400333Y0222532D01*
X0400333Y0223731D02*
X0353333Y0223731D01*
X0353333Y0224929D02*
X0367906Y0224929D01*
X0365976Y0226128D02*
X0353333Y0226128D01*
X0353333Y0227326D02*
X0365071Y0227326D01*
X0364575Y0228525D02*
X0353333Y0228525D01*
X0353333Y0229723D02*
X0364533Y0229723D01*
X0364677Y0230922D02*
X0353333Y0230922D01*
X0353333Y0232120D02*
X0364368Y0232120D01*
X0363169Y0233319D02*
X0353333Y0233319D01*
X0353333Y0234517D02*
X0361971Y0234517D01*
X0360772Y0235716D02*
X0353333Y0235716D01*
X0353333Y0236914D02*
X0359574Y0236914D01*
X0360233Y0238800D02*
X0369433Y0229600D01*
X0372891Y0226128D02*
X0383776Y0226128D01*
X0384458Y0225446D02*
X0383079Y0226824D01*
X0382333Y0228625D01*
X0382333Y0230575D01*
X0383079Y0232376D01*
X0384458Y0233754D01*
X0386259Y0234500D01*
X0388208Y0234500D01*
X0390009Y0233754D01*
X0391387Y0232376D01*
X0392133Y0230575D01*
X0392133Y0228625D01*
X0391387Y0226824D01*
X0390009Y0225446D01*
X0388208Y0224700D01*
X0386259Y0224700D01*
X0384458Y0225446D01*
X0385706Y0224929D02*
X0370961Y0224929D01*
X0373795Y0227326D02*
X0382871Y0227326D01*
X0382375Y0228525D02*
X0374292Y0228525D01*
X0374333Y0229723D02*
X0382333Y0229723D01*
X0382477Y0230922D02*
X0374190Y0230922D01*
X0373693Y0232120D02*
X0382973Y0232120D01*
X0384022Y0233319D02*
X0372644Y0233319D01*
X0367062Y0234517D02*
X0400333Y0234517D01*
X0400333Y0233319D02*
X0390444Y0233319D01*
X0391493Y0232120D02*
X0400333Y0232120D01*
X0400333Y0230922D02*
X0391990Y0230922D01*
X0392133Y0229723D02*
X0400333Y0229723D01*
X0400333Y0228525D02*
X0392092Y0228525D01*
X0391595Y0227326D02*
X0400333Y0227326D01*
X0400333Y0226128D02*
X0390691Y0226128D01*
X0388761Y0224929D02*
X0400333Y0224929D01*
X0400333Y0235716D02*
X0365863Y0235716D01*
X0364665Y0236914D02*
X0400333Y0236914D01*
X0400333Y0238113D02*
X0363466Y0238113D01*
X0362268Y0239311D02*
X0400333Y0239311D01*
X0400333Y0240510D02*
X0383353Y0240510D01*
X0383067Y0240372D02*
X0384317Y0240974D01*
X0385491Y0241712D01*
X0386576Y0242577D01*
X0387557Y0243558D01*
X0388421Y0244642D01*
X0389159Y0245817D01*
X0389761Y0247066D01*
X0390219Y0248376D01*
X0390528Y0249728D01*
X0390683Y0251106D01*
X0390683Y0251200D01*
X0378933Y0251200D01*
X0378933Y0239450D01*
X0379027Y0239450D01*
X0380405Y0239605D01*
X0381758Y0239914D01*
X0383067Y0240372D01*
X0385485Y0241708D02*
X0400333Y0241708D01*
X0400333Y0242907D02*
X0386906Y0242907D01*
X0387993Y0244105D02*
X0400333Y0244105D01*
X0400333Y0245304D02*
X0388837Y0245304D01*
X0389490Y0246502D02*
X0400333Y0246502D01*
X0400333Y0247701D02*
X0389983Y0247701D01*
X0390339Y0248899D02*
X0400333Y0248899D01*
X0400333Y0250098D02*
X0390570Y0250098D01*
X0390683Y0252400D02*
X0390683Y0252494D01*
X0390528Y0253872D01*
X0390219Y0255224D01*
X0389761Y0256534D01*
X0389159Y0257783D01*
X0388421Y0258958D01*
X0387557Y0260042D01*
X0386576Y0261023D01*
X0385491Y0261888D01*
X0384317Y0262626D01*
X0383067Y0263228D01*
X0381758Y0263686D01*
X0380405Y0263995D01*
X0379027Y0264150D01*
X0378933Y0264150D01*
X0378933Y0252400D01*
X0377733Y0252400D01*
X0377733Y0251200D01*
X0365983Y0251200D01*
X0365983Y0251106D01*
X0366139Y0249728D01*
X0366447Y0248376D01*
X0366905Y0247066D01*
X0367507Y0245817D01*
X0368245Y0244642D01*
X0369110Y0243558D01*
X0370091Y0242577D01*
X0371175Y0241712D01*
X0372350Y0240974D01*
X0373600Y0240372D01*
X0374909Y0239914D01*
X0376261Y0239605D01*
X0377640Y0239450D01*
X0377733Y0239450D01*
X0377733Y0251200D01*
X0378933Y0251200D01*
X0378933Y0252400D01*
X0390683Y0252400D01*
X0390683Y0252495D02*
X0400333Y0252495D01*
X0400333Y0253693D02*
X0390548Y0253693D01*
X0390295Y0254892D02*
X0399273Y0254892D01*
X0400333Y0251296D02*
X0378933Y0251296D01*
X0378933Y0250098D02*
X0377733Y0250098D01*
X0377733Y0251296D02*
X0353333Y0251296D01*
X0353333Y0250098D02*
X0366097Y0250098D01*
X0366328Y0248899D02*
X0353333Y0248899D01*
X0353333Y0247701D02*
X0366683Y0247701D01*
X0367177Y0246502D02*
X0353333Y0246502D01*
X0353333Y0245304D02*
X0367830Y0245304D01*
X0368673Y0244105D02*
X0353333Y0244105D01*
X0353333Y0242907D02*
X0369761Y0242907D01*
X0371181Y0241708D02*
X0353333Y0241708D01*
X0348333Y0241708D02*
X0320754Y0241708D01*
X0322340Y0242907D02*
X0348333Y0242907D01*
X0348333Y0244105D02*
X0323538Y0244105D01*
X0324381Y0245304D02*
X0348333Y0245304D01*
X0348333Y0246502D02*
X0325073Y0246502D01*
X0325606Y0247701D02*
X0348333Y0247701D01*
X0348333Y0248899D02*
X0325928Y0248899D01*
X0326249Y0250098D02*
X0348333Y0250098D01*
X0348333Y0251296D02*
X0326283Y0251296D01*
X0326283Y0252495D02*
X0348333Y0252495D01*
X0348333Y0253693D02*
X0326198Y0253693D01*
X0325876Y0254892D02*
X0348333Y0254892D01*
X0348333Y0256090D02*
X0325555Y0256090D01*
X0324963Y0257289D02*
X0348333Y0257289D01*
X0348333Y0258487D02*
X0324271Y0258487D01*
X0323347Y0259686D02*
X0348333Y0259686D01*
X0348333Y0260884D02*
X0322149Y0260884D01*
X0320423Y0262083D02*
X0348333Y0262083D01*
X0348333Y0263281D02*
X0317655Y0263281D01*
X0328333Y0236800D02*
X0263333Y0236800D01*
X0253333Y0226800D01*
X0248805Y0224929D02*
X0247862Y0224929D01*
X0248233Y0226128D02*
X0248433Y0226128D01*
X0248433Y0227326D02*
X0248233Y0227326D01*
X0247923Y0228525D02*
X0248744Y0228525D01*
X0248802Y0229723D02*
X0249327Y0229723D01*
X0250001Y0230922D02*
X0250525Y0230922D01*
X0251199Y0232120D02*
X0256108Y0232120D01*
X0257306Y0233319D02*
X0252398Y0233319D01*
X0253596Y0234517D02*
X0258505Y0234517D01*
X0259703Y0235716D02*
X0254795Y0235716D01*
X0255993Y0236914D02*
X0260902Y0236914D01*
X0263596Y0234517D02*
X0268505Y0234517D01*
X0267306Y0233319D02*
X0262398Y0233319D01*
X0261199Y0232120D02*
X0266108Y0232120D01*
X0260525Y0230922D02*
X0260001Y0230922D01*
X0259327Y0229723D02*
X0258802Y0229723D01*
X0258744Y0228525D02*
X0257923Y0228525D01*
X0258233Y0227326D02*
X0258433Y0227326D01*
X0258433Y0226128D02*
X0258233Y0226128D01*
X0257862Y0224929D02*
X0258805Y0224929D01*
X0259473Y0223731D02*
X0257194Y0223731D01*
X0255834Y0222532D02*
X0260833Y0222532D01*
X0263333Y0226800D02*
X0271333Y0234800D01*
X0269473Y0223731D02*
X0267194Y0223731D01*
X0265834Y0222532D02*
X0270833Y0222532D01*
X0250833Y0222532D02*
X0245834Y0222532D01*
X0247194Y0223731D02*
X0249473Y0223731D01*
X0243333Y0226800D02*
X0255333Y0238800D01*
X0360233Y0238800D01*
X0361069Y0240510D02*
X0373314Y0240510D01*
X0377733Y0240510D02*
X0378933Y0240510D01*
X0378933Y0241708D02*
X0377733Y0241708D01*
X0377733Y0242907D02*
X0378933Y0242907D01*
X0378933Y0244105D02*
X0377733Y0244105D01*
X0377733Y0245304D02*
X0378933Y0245304D01*
X0378933Y0246502D02*
X0377733Y0246502D01*
X0377733Y0247701D02*
X0378933Y0247701D01*
X0378933Y0248899D02*
X0377733Y0248899D01*
X0377733Y0252400D02*
X0365983Y0252400D01*
X0365983Y0252494D01*
X0366139Y0253872D01*
X0366447Y0255224D01*
X0366905Y0256534D01*
X0367507Y0257783D01*
X0368245Y0258958D01*
X0369110Y0260042D01*
X0370091Y0261023D01*
X0371175Y0261888D01*
X0372350Y0262626D01*
X0373600Y0263228D01*
X0374909Y0263686D01*
X0376261Y0263995D01*
X0377640Y0264150D01*
X0377733Y0264150D01*
X0377733Y0252400D01*
X0377733Y0252495D02*
X0378933Y0252495D01*
X0378933Y0253693D02*
X0377733Y0253693D01*
X0377733Y0254892D02*
X0378933Y0254892D01*
X0378933Y0256090D02*
X0377733Y0256090D01*
X0377733Y0257289D02*
X0378933Y0257289D01*
X0378933Y0258487D02*
X0377733Y0258487D01*
X0377733Y0259686D02*
X0378933Y0259686D01*
X0378933Y0260884D02*
X0377733Y0260884D01*
X0377733Y0262083D02*
X0378933Y0262083D01*
X0378933Y0263281D02*
X0377733Y0263281D01*
X0373753Y0263281D02*
X0353333Y0263281D01*
X0353333Y0262083D02*
X0371486Y0262083D01*
X0369952Y0260884D02*
X0353333Y0260884D01*
X0353333Y0259686D02*
X0368826Y0259686D01*
X0367950Y0258487D02*
X0353333Y0258487D01*
X0353333Y0257289D02*
X0367269Y0257289D01*
X0366750Y0256090D02*
X0353333Y0256090D01*
X0353333Y0254892D02*
X0366371Y0254892D01*
X0366119Y0253693D02*
X0353333Y0253693D01*
X0353333Y0252495D02*
X0365983Y0252495D01*
X0353333Y0264480D02*
X0386710Y0264480D01*
X0386317Y0265678D02*
X0353333Y0265678D01*
X0353333Y0266877D02*
X0385965Y0266877D01*
X0385613Y0268075D02*
X0353333Y0268075D01*
X0348333Y0268075D02*
X0050154Y0268075D01*
X0049802Y0266877D02*
X0348333Y0266877D01*
X0348333Y0265678D02*
X0049450Y0265678D01*
X0049056Y0264480D02*
X0348333Y0264480D01*
X0328333Y0236800D02*
X0369433Y0195700D01*
X0369433Y0189600D01*
X0364885Y0187775D02*
X0363089Y0187775D01*
X0363064Y0187936D02*
X0362828Y0188662D01*
X0362481Y0189342D01*
X0362033Y0189960D01*
X0361493Y0190499D01*
X0360875Y0190948D01*
X0360195Y0191295D01*
X0359469Y0191531D01*
X0358715Y0191650D01*
X0358422Y0191650D01*
X0358422Y0186889D01*
X0363183Y0186889D01*
X0363183Y0187182D01*
X0363064Y0187936D01*
X0362669Y0188974D02*
X0364533Y0188974D01*
X0364533Y0190172D02*
X0361820Y0190172D01*
X0359961Y0191371D02*
X0364863Y0191371D01*
X0365473Y0192569D02*
X0359748Y0192569D01*
X0359218Y0192350D02*
X0360854Y0193027D01*
X0362106Y0194279D01*
X0362783Y0195915D01*
X0362783Y0197685D01*
X0362106Y0199321D01*
X0360854Y0200573D01*
X0359218Y0201250D01*
X0357448Y0201250D01*
X0355813Y0200573D01*
X0354561Y0199321D01*
X0353883Y0197685D01*
X0353883Y0195915D01*
X0354561Y0194279D01*
X0355813Y0193027D01*
X0357448Y0192350D01*
X0359218Y0192350D01*
X0358422Y0191371D02*
X0358244Y0191371D01*
X0358244Y0190172D02*
X0358422Y0190172D01*
X0358422Y0188974D02*
X0358244Y0188974D01*
X0358244Y0187775D02*
X0358422Y0187775D01*
X0358422Y0186577D02*
X0358244Y0186577D01*
X0358244Y0185378D02*
X0358422Y0185378D01*
X0358422Y0184180D02*
X0358244Y0184180D01*
X0358244Y0182981D02*
X0358422Y0182981D01*
X0362971Y0185378D02*
X0366821Y0185378D01*
X0365527Y0186577D02*
X0363183Y0186577D01*
X0356919Y0192569D02*
X0353333Y0192569D01*
X0353333Y0191371D02*
X0356706Y0191371D01*
X0355072Y0193768D02*
X0353333Y0193768D01*
X0353333Y0194966D02*
X0354276Y0194966D01*
X0353883Y0196165D02*
X0353333Y0196165D01*
X0353333Y0197363D02*
X0353883Y0197363D01*
X0354246Y0198562D02*
X0353333Y0198562D01*
X0353333Y0199760D02*
X0355000Y0199760D01*
X0353333Y0200959D02*
X0356745Y0200959D01*
X0359921Y0200959D02*
X0361629Y0200959D01*
X0361666Y0199760D02*
X0362827Y0199760D01*
X0362420Y0198562D02*
X0364026Y0198562D01*
X0365224Y0197363D02*
X0362783Y0197363D01*
X0362783Y0196165D02*
X0366423Y0196165D01*
X0367621Y0194966D02*
X0362390Y0194966D01*
X0361594Y0193768D02*
X0366691Y0193768D01*
X0372176Y0193768D02*
X0384491Y0193768D01*
X0383273Y0192569D02*
X0373394Y0192569D01*
X0374004Y0191371D02*
X0382663Y0191371D01*
X0382333Y0190172D02*
X0374333Y0190172D01*
X0374333Y0188974D02*
X0382333Y0188974D01*
X0382685Y0187775D02*
X0373981Y0187775D01*
X0373340Y0186577D02*
X0383327Y0186577D01*
X0384621Y0185378D02*
X0372045Y0185378D01*
X0361454Y0176989D02*
X0400333Y0176989D01*
X0400333Y0178187D02*
X0353333Y0178187D01*
X0353333Y0176989D02*
X0359213Y0176989D01*
X0359933Y0176989D02*
X0360733Y0176989D01*
X0360733Y0175790D02*
X0359933Y0175790D01*
X0359933Y0174592D02*
X0360733Y0174592D01*
X0360733Y0173393D02*
X0359933Y0173393D01*
X0360733Y0172195D02*
X0400333Y0172195D01*
X0400333Y0173393D02*
X0365388Y0173393D01*
X0364856Y0174592D02*
X0400333Y0174592D01*
X0400333Y0175790D02*
X0363839Y0175790D01*
X0365572Y0170996D02*
X0400333Y0170996D01*
X0400333Y0169798D02*
X0365255Y0169798D01*
X0364559Y0168599D02*
X0367732Y0168599D01*
X0368459Y0168900D02*
X0366658Y0168154D01*
X0365279Y0166776D01*
X0364533Y0164975D01*
X0364533Y0163025D01*
X0365279Y0161224D01*
X0366658Y0159846D01*
X0368459Y0159100D01*
X0370408Y0159100D01*
X0372209Y0159846D01*
X0373587Y0161224D01*
X0374333Y0163025D01*
X0374333Y0164975D01*
X0373587Y0166776D01*
X0372209Y0168154D01*
X0370408Y0168900D01*
X0368459Y0168900D01*
X0371135Y0168599D02*
X0385532Y0168599D01*
X0386259Y0168900D02*
X0384458Y0168154D01*
X0383079Y0166776D01*
X0382333Y0164975D01*
X0382333Y0163025D01*
X0383079Y0161224D01*
X0384458Y0159846D01*
X0386259Y0159100D01*
X0388208Y0159100D01*
X0390009Y0159846D01*
X0391387Y0161224D01*
X0392133Y0163025D01*
X0392133Y0164975D01*
X0391387Y0166776D01*
X0390009Y0168154D01*
X0388208Y0168900D01*
X0386259Y0168900D01*
X0388935Y0168599D02*
X0400333Y0168599D01*
X0400333Y0167401D02*
X0390762Y0167401D01*
X0391625Y0166202D02*
X0400333Y0166202D01*
X0400333Y0165003D02*
X0392121Y0165003D01*
X0392133Y0163805D02*
X0400333Y0163805D01*
X0400333Y0162606D02*
X0391960Y0162606D01*
X0391463Y0161408D02*
X0400333Y0161408D01*
X0400333Y0160209D02*
X0390372Y0160209D01*
X0384094Y0160209D02*
X0372572Y0160209D01*
X0373663Y0161408D02*
X0383003Y0161408D01*
X0382507Y0162606D02*
X0374160Y0162606D01*
X0374333Y0163805D02*
X0382333Y0163805D01*
X0382345Y0165003D02*
X0374321Y0165003D01*
X0373825Y0166202D02*
X0382842Y0166202D01*
X0383704Y0167401D02*
X0372962Y0167401D01*
X0365904Y0167401D02*
X0363295Y0167401D01*
X0365042Y0166202D02*
X0353333Y0166202D01*
X0353333Y0165003D02*
X0364545Y0165003D01*
X0364533Y0163805D02*
X0353333Y0163805D01*
X0353333Y0162606D02*
X0364707Y0162606D01*
X0365203Y0161408D02*
X0353333Y0161408D01*
X0353333Y0160209D02*
X0366294Y0160209D01*
X0360733Y0167401D02*
X0359933Y0167401D01*
X0359933Y0168599D02*
X0360733Y0168599D01*
X0360733Y0169798D02*
X0359933Y0169798D01*
X0359933Y0170996D02*
X0360733Y0170996D01*
X0357372Y0167401D02*
X0353333Y0167401D01*
X0354062Y0168599D02*
X0356108Y0168599D01*
X0355411Y0169798D02*
X0354808Y0169798D01*
X0354977Y0173393D02*
X0355278Y0173393D01*
X0355810Y0174592D02*
X0354471Y0174592D01*
X0353333Y0175790D02*
X0356828Y0175790D01*
X0353333Y0179386D02*
X0400333Y0179386D01*
X0400333Y0180584D02*
X0353333Y0180584D01*
X0353333Y0202157D02*
X0360430Y0202157D01*
X0359232Y0203356D02*
X0353333Y0203356D01*
X0353333Y0204554D02*
X0358033Y0204554D01*
X0356835Y0205753D02*
X0353333Y0205753D01*
X0353333Y0206951D02*
X0355636Y0206951D01*
X0354438Y0208150D02*
X0353333Y0208150D01*
X0359529Y0208150D02*
X0366654Y0208150D01*
X0365455Y0206951D02*
X0360728Y0206951D01*
X0361926Y0205753D02*
X0364856Y0205753D01*
X0364533Y0204554D02*
X0363125Y0204554D01*
X0364323Y0203356D02*
X0364533Y0203356D01*
X0372002Y0199760D02*
X0384664Y0199760D01*
X0383345Y0200959D02*
X0373322Y0200959D01*
X0373974Y0202157D02*
X0382693Y0202157D01*
X0382333Y0203356D02*
X0374333Y0203356D01*
X0374333Y0204554D02*
X0382333Y0204554D01*
X0382656Y0205753D02*
X0374011Y0205753D01*
X0373412Y0206951D02*
X0383255Y0206951D01*
X0384454Y0208150D02*
X0372213Y0208150D01*
X0328952Y0165003D02*
X0317893Y0165003D01*
X0317268Y0163805D02*
X0327753Y0163805D01*
X0326555Y0162606D02*
X0316014Y0162606D01*
X0310653Y0162606D02*
X0306014Y0162606D01*
X0306109Y0162646D02*
X0307487Y0164024D01*
X0308233Y0165825D01*
X0308233Y0167775D01*
X0307487Y0169576D01*
X0306109Y0170954D01*
X0304308Y0171700D01*
X0302359Y0171700D01*
X0300558Y0170954D01*
X0299179Y0169576D01*
X0298433Y0167775D01*
X0298433Y0165825D01*
X0299179Y0164024D01*
X0300558Y0162646D01*
X0302359Y0161900D01*
X0304308Y0161900D01*
X0306109Y0162646D01*
X0307268Y0163805D02*
X0309399Y0163805D01*
X0308774Y0165003D02*
X0307893Y0165003D01*
X0308233Y0166202D02*
X0308433Y0166202D01*
X0308433Y0167401D02*
X0308233Y0167401D01*
X0307892Y0168599D02*
X0308775Y0168599D01*
X0309401Y0169798D02*
X0307265Y0169798D01*
X0306007Y0170996D02*
X0310659Y0170996D01*
X0300659Y0170996D02*
X0296007Y0170996D01*
X0297265Y0169798D02*
X0299401Y0169798D01*
X0298775Y0168599D02*
X0297892Y0168599D01*
X0298233Y0167401D02*
X0298433Y0167401D01*
X0298433Y0166202D02*
X0298233Y0166202D01*
X0297893Y0165003D02*
X0298774Y0165003D01*
X0299399Y0163805D02*
X0297268Y0163805D01*
X0296014Y0162606D02*
X0300653Y0162606D01*
X0303343Y0152724D02*
X0301542Y0151978D01*
X0300164Y0150599D01*
X0299418Y0148798D01*
X0299418Y0146849D01*
X0300164Y0145048D01*
X0301542Y0143670D01*
X0303343Y0142924D01*
X0305292Y0142924D01*
X0307093Y0143670D01*
X0308472Y0145048D01*
X0309218Y0146849D01*
X0309218Y0148798D01*
X0308472Y0150599D01*
X0307093Y0151978D01*
X0305292Y0152724D01*
X0303343Y0152724D01*
X0301384Y0151820D02*
X0297251Y0151820D01*
X0298449Y0150621D02*
X0300186Y0150621D01*
X0299676Y0149423D02*
X0298959Y0149423D01*
X0299218Y0148224D02*
X0299418Y0148224D01*
X0299418Y0147026D02*
X0299218Y0147026D01*
X0298794Y0145827D02*
X0299841Y0145827D01*
X0300583Y0144629D02*
X0298052Y0144629D01*
X0296515Y0143430D02*
X0302120Y0143430D01*
X0306515Y0143430D02*
X0312120Y0143430D01*
X0310583Y0144629D02*
X0308052Y0144629D01*
X0308794Y0145827D02*
X0309841Y0145827D01*
X0309418Y0147026D02*
X0309218Y0147026D01*
X0309218Y0148224D02*
X0309418Y0148224D01*
X0309676Y0149423D02*
X0308959Y0149423D01*
X0308449Y0150621D02*
X0310186Y0150621D01*
X0311384Y0151820D02*
X0307251Y0151820D01*
X0294318Y0147824D02*
X0292310Y0147824D01*
X0289363Y0148224D02*
X0289218Y0148224D01*
X0289218Y0147026D02*
X0289418Y0147026D01*
X0289841Y0145827D02*
X0288794Y0145827D01*
X0288052Y0144629D02*
X0290583Y0144629D01*
X0292120Y0143430D02*
X0286515Y0143430D01*
X0284218Y0121250D02*
X0282448Y0121250D01*
X0280813Y0120573D01*
X0279561Y0119321D01*
X0278883Y0117685D01*
X0278883Y0115915D01*
X0279561Y0114279D01*
X0280813Y0113027D01*
X0282448Y0112350D01*
X0284218Y0112350D01*
X0285854Y0113027D01*
X0287106Y0114279D01*
X0287783Y0115915D01*
X0287783Y0117685D01*
X0287106Y0119321D01*
X0285854Y0120573D01*
X0284218Y0121250D01*
X0285646Y0120659D02*
X0339385Y0120659D01*
X0339377Y0120629D02*
X0339222Y0119447D01*
X0347733Y0119447D01*
X0347733Y0118247D01*
X0339222Y0118247D01*
X0339377Y0117066D01*
X0339687Y0115912D01*
X0340144Y0114809D01*
X0340741Y0113774D01*
X0341468Y0112827D01*
X0342313Y0111982D01*
X0343260Y0111255D01*
X0344295Y0110658D01*
X0345398Y0110200D01*
X0346552Y0109891D01*
X0347733Y0109736D01*
X0347733Y0118247D01*
X0348933Y0118247D01*
X0348933Y0109736D01*
X0350115Y0109891D01*
X0351269Y0110200D01*
X0352372Y0110658D01*
X0353406Y0111255D01*
X0354354Y0111982D01*
X0355199Y0112827D01*
X0355926Y0113774D01*
X0356523Y0114809D01*
X0356980Y0115912D01*
X0357289Y0117066D01*
X0357445Y0118247D01*
X0348933Y0118247D01*
X0348933Y0119447D01*
X0347733Y0119447D01*
X0347733Y0127959D01*
X0346552Y0127803D01*
X0345398Y0127494D01*
X0344295Y0127037D01*
X0343260Y0126440D01*
X0342313Y0125713D01*
X0341468Y0124868D01*
X0340741Y0123920D01*
X0340144Y0122886D01*
X0339687Y0121782D01*
X0339377Y0120629D01*
X0339224Y0119460D02*
X0286966Y0119460D01*
X0287545Y0118262D02*
X0347733Y0118262D01*
X0347733Y0119460D02*
X0348933Y0119460D01*
X0348933Y0119447D02*
X0348933Y0127959D01*
X0350115Y0127803D01*
X0351269Y0127494D01*
X0352372Y0127037D01*
X0353406Y0126440D01*
X0354354Y0125713D01*
X0355199Y0124868D01*
X0355926Y0123920D01*
X0356523Y0122886D01*
X0356980Y0121782D01*
X0357289Y0120629D01*
X0357445Y0119447D01*
X0348933Y0119447D01*
X0348933Y0118262D02*
X0400333Y0118262D01*
X0400333Y0119460D02*
X0357443Y0119460D01*
X0357281Y0120659D02*
X0400333Y0120659D01*
X0400333Y0121857D02*
X0356949Y0121857D01*
X0356425Y0123056D02*
X0400333Y0123056D01*
X0400333Y0124254D02*
X0355670Y0124254D01*
X0354614Y0125453D02*
X0400333Y0125453D01*
X0400333Y0126651D02*
X0353040Y0126651D01*
X0349762Y0127850D02*
X0400333Y0127850D01*
X0400333Y0129048D02*
X0135133Y0129048D01*
X0135133Y0127850D02*
X0346905Y0127850D01*
X0347733Y0127850D02*
X0348933Y0127850D01*
X0348933Y0126651D02*
X0347733Y0126651D01*
X0347733Y0125453D02*
X0348933Y0125453D01*
X0348933Y0124254D02*
X0347733Y0124254D01*
X0347733Y0123056D02*
X0348933Y0123056D01*
X0348933Y0121857D02*
X0347733Y0121857D01*
X0347733Y0120659D02*
X0348933Y0120659D01*
X0348933Y0117063D02*
X0347733Y0117063D01*
X0347733Y0115865D02*
X0348933Y0115865D01*
X0348933Y0114666D02*
X0347733Y0114666D01*
X0347733Y0113468D02*
X0348933Y0113468D01*
X0348933Y0112269D02*
X0347733Y0112269D01*
X0347733Y0111070D02*
X0348933Y0111070D01*
X0348933Y0109872D02*
X0347733Y0109872D01*
X0346699Y0109872D02*
X0288183Y0109872D01*
X0288183Y0110261D02*
X0288074Y0110668D01*
X0287864Y0111032D01*
X0287566Y0111330D01*
X0287201Y0111541D01*
X0286794Y0111650D01*
X0283422Y0111650D01*
X0283422Y0106889D01*
X0283244Y0106889D01*
X0283244Y0106711D01*
X0278483Y0106711D01*
X0278483Y0103339D01*
X0278592Y0102932D01*
X0278803Y0102568D01*
X0279101Y0102270D01*
X0279466Y0102059D01*
X0279873Y0101950D01*
X0283244Y0101950D01*
X0283244Y0106711D01*
X0283422Y0106711D01*
X0283422Y0101950D01*
X0286794Y0101950D01*
X0287201Y0102059D01*
X0287566Y0102270D01*
X0287864Y0102568D01*
X0288074Y0102932D01*
X0288183Y0103339D01*
X0288183Y0106711D01*
X0283422Y0106711D01*
X0283422Y0106889D01*
X0288183Y0106889D01*
X0288183Y0110261D01*
X0287826Y0111070D02*
X0343579Y0111070D01*
X0342026Y0112269D02*
X0135133Y0112269D01*
X0135133Y0113468D02*
X0250373Y0113468D01*
X0250813Y0113027D02*
X0252448Y0112350D01*
X0254218Y0112350D01*
X0255854Y0113027D01*
X0257106Y0114279D01*
X0257783Y0115915D01*
X0257783Y0117685D01*
X0257106Y0119321D01*
X0255854Y0120573D01*
X0254218Y0121250D01*
X0252448Y0121250D01*
X0250813Y0120573D01*
X0249561Y0119321D01*
X0248883Y0117685D01*
X0248883Y0115915D01*
X0249561Y0114279D01*
X0250813Y0113027D01*
X0251472Y0111295D02*
X0250791Y0110948D01*
X0250174Y0110499D01*
X0249634Y0109960D01*
X0249185Y0109342D01*
X0248839Y0108662D01*
X0248603Y0107936D01*
X0248483Y0107182D01*
X0248483Y0106889D01*
X0253244Y0106889D01*
X0253244Y0106711D01*
X0248483Y0106711D01*
X0248483Y0106418D01*
X0248603Y0105664D01*
X0248839Y0104938D01*
X0249185Y0104258D01*
X0249634Y0103640D01*
X0250174Y0103101D01*
X0250791Y0102652D01*
X0251472Y0102305D01*
X0252198Y0102069D01*
X0252952Y0101950D01*
X0253244Y0101950D01*
X0253244Y0106711D01*
X0253422Y0106711D01*
X0253422Y0101950D01*
X0253715Y0101950D01*
X0254469Y0102069D01*
X0255195Y0102305D01*
X0255875Y0102652D01*
X0256493Y0103101D01*
X0257033Y0103640D01*
X0257481Y0104258D01*
X0257828Y0104938D01*
X0258064Y0105664D01*
X0258183Y0106418D01*
X0258183Y0106711D01*
X0253422Y0106711D01*
X0253422Y0106889D01*
X0253244Y0106889D01*
X0253244Y0111650D01*
X0252952Y0111650D01*
X0252198Y0111531D01*
X0251472Y0111295D01*
X0251032Y0111070D02*
X0230828Y0111070D01*
X0231109Y0110954D02*
X0229308Y0111700D01*
X0227359Y0111700D01*
X0225558Y0110954D01*
X0224179Y0109576D01*
X0223433Y0107775D01*
X0223433Y0105825D01*
X0224179Y0104024D01*
X0225558Y0102646D01*
X0227359Y0101900D01*
X0229308Y0101900D01*
X0231109Y0102646D01*
X0232487Y0104024D01*
X0233233Y0105825D01*
X0233233Y0107775D01*
X0232487Y0109576D01*
X0231109Y0110954D01*
X0232191Y0109872D02*
X0249570Y0109872D01*
X0248845Y0108673D02*
X0232861Y0108673D01*
X0233233Y0107475D02*
X0248530Y0107475D01*
X0248506Y0106276D02*
X0233233Y0106276D01*
X0232924Y0105078D02*
X0248793Y0105078D01*
X0249460Y0103879D02*
X0232342Y0103879D01*
X0231144Y0102681D02*
X0250751Y0102681D01*
X0253244Y0102681D02*
X0253422Y0102681D01*
X0253422Y0103879D02*
X0253244Y0103879D01*
X0253244Y0105078D02*
X0253422Y0105078D01*
X0253422Y0106276D02*
X0253244Y0106276D01*
X0253422Y0106889D02*
X0258183Y0106889D01*
X0258183Y0107182D01*
X0258064Y0107936D01*
X0257828Y0108662D01*
X0257481Y0109342D01*
X0257033Y0109960D01*
X0256493Y0110499D01*
X0255875Y0110948D01*
X0255195Y0111295D01*
X0254469Y0111531D01*
X0253715Y0111650D01*
X0253422Y0111650D01*
X0253422Y0106889D01*
X0253422Y0107475D02*
X0253244Y0107475D01*
X0253244Y0108673D02*
X0253422Y0108673D01*
X0253422Y0109872D02*
X0253244Y0109872D01*
X0253244Y0111070D02*
X0253422Y0111070D01*
X0255635Y0111070D02*
X0278841Y0111070D01*
X0278803Y0111032D02*
X0278592Y0110668D01*
X0278483Y0110261D01*
X0278483Y0106889D01*
X0283244Y0106889D01*
X0283244Y0111650D01*
X0279873Y0111650D01*
X0279466Y0111541D01*
X0279101Y0111330D01*
X0278803Y0111032D01*
X0278483Y0109872D02*
X0257096Y0109872D01*
X0257822Y0108673D02*
X0278483Y0108673D01*
X0278483Y0107475D02*
X0258137Y0107475D01*
X0258161Y0106276D02*
X0278483Y0106276D01*
X0278483Y0105078D02*
X0257873Y0105078D01*
X0257206Y0103879D02*
X0278483Y0103879D01*
X0278738Y0102681D02*
X0255915Y0102681D01*
X0253279Y0094291D02*
X0190133Y0094291D01*
X0190133Y0093093D02*
X0252533Y0093093D01*
X0252533Y0091894D02*
X0190133Y0091894D01*
X0190133Y0090696D02*
X0225724Y0090696D01*
X0224525Y0089497D02*
X0190133Y0089497D01*
X0190133Y0088299D02*
X0223733Y0088299D01*
X0223733Y0087100D02*
X0190133Y0087100D01*
X0190133Y0085902D02*
X0223733Y0085902D01*
X0223925Y0084703D02*
X0190827Y0084703D01*
X0191464Y0083505D02*
X0225123Y0083505D01*
X0226322Y0082306D02*
X0191783Y0082306D01*
X0188333Y0083050D02*
X0187083Y0081800D01*
X0188333Y0083050D02*
X0188333Y0106800D01*
X0192861Y0108673D02*
X0223806Y0108673D01*
X0223433Y0107475D02*
X0193233Y0107475D01*
X0193233Y0106276D02*
X0223433Y0106276D01*
X0223743Y0105078D02*
X0192924Y0105078D01*
X0192342Y0103879D02*
X0224324Y0103879D01*
X0225523Y0102681D02*
X0191144Y0102681D01*
X0190133Y0101482D02*
X0400333Y0101482D01*
X0400333Y0100284D02*
X0351397Y0100284D01*
X0351339Y0100326D02*
X0350534Y0100736D01*
X0349676Y0101015D01*
X0348933Y0101132D01*
X0348933Y0096022D01*
X0347733Y0096022D01*
X0347733Y0094822D01*
X0342623Y0094822D01*
X0342741Y0094079D01*
X0343020Y0093221D01*
X0343429Y0092417D01*
X0343960Y0091687D01*
X0344598Y0091048D01*
X0345328Y0090518D01*
X0346132Y0090108D01*
X0346991Y0089829D01*
X0347733Y0089712D01*
X0347733Y0094822D01*
X0348933Y0094822D01*
X0348933Y0089712D01*
X0349676Y0089829D01*
X0350534Y0090108D01*
X0351339Y0090518D01*
X0352069Y0091048D01*
X0352707Y0091687D01*
X0353237Y0092417D01*
X0353647Y0093221D01*
X0353926Y0094079D01*
X0354044Y0094822D01*
X0348933Y0094822D01*
X0348933Y0096022D01*
X0354044Y0096022D01*
X0353926Y0096765D01*
X0353647Y0097623D01*
X0353237Y0098427D01*
X0352707Y0099157D01*
X0352069Y0099796D01*
X0351339Y0100326D01*
X0352759Y0099085D02*
X0400333Y0099085D01*
X0400333Y0097887D02*
X0353513Y0097887D01*
X0353938Y0096688D02*
X0400333Y0096688D01*
X0400333Y0095490D02*
X0348933Y0095490D01*
X0348933Y0096688D02*
X0347733Y0096688D01*
X0347733Y0096022D02*
X0347733Y0101132D01*
X0346991Y0101015D01*
X0346132Y0100736D01*
X0345328Y0100326D01*
X0344598Y0099796D01*
X0343960Y0099157D01*
X0343429Y0098427D01*
X0343020Y0097623D01*
X0342741Y0096765D01*
X0342623Y0096022D01*
X0347733Y0096022D01*
X0347733Y0095490D02*
X0190133Y0095490D01*
X0190133Y0096688D02*
X0342729Y0096688D01*
X0343154Y0097887D02*
X0190133Y0097887D01*
X0190133Y0099085D02*
X0343907Y0099085D01*
X0345270Y0100284D02*
X0190133Y0100284D01*
X0192191Y0109872D02*
X0224476Y0109872D01*
X0225839Y0111070D02*
X0190828Y0111070D01*
X0185839Y0111070D02*
X0135828Y0111070D01*
X0137191Y0109872D02*
X0184476Y0109872D01*
X0171109Y0137646D02*
X0169308Y0136900D01*
X0167359Y0136900D01*
X0165558Y0137646D01*
X0164179Y0139024D01*
X0163433Y0140825D01*
X0163433Y0142775D01*
X0164179Y0144576D01*
X0165558Y0145954D01*
X0167359Y0146700D01*
X0169308Y0146700D01*
X0171109Y0145954D01*
X0172487Y0144576D01*
X0173233Y0142775D01*
X0173233Y0140825D01*
X0172487Y0139024D01*
X0171109Y0137646D01*
X0170606Y0137438D02*
X0348333Y0137438D01*
X0348333Y0138636D02*
X0172099Y0138636D01*
X0172823Y0139835D02*
X0348333Y0139835D01*
X0348333Y0141033D02*
X0173233Y0141033D01*
X0173233Y0142232D02*
X0348333Y0142232D01*
X0353333Y0142232D02*
X0400333Y0142232D01*
X0400333Y0143430D02*
X0353333Y0143430D01*
X0353333Y0144629D02*
X0400333Y0144629D01*
X0400333Y0145827D02*
X0353333Y0145827D01*
X0353333Y0147026D02*
X0400333Y0147026D01*
X0400333Y0148224D02*
X0353333Y0148224D01*
X0353333Y0149423D02*
X0400333Y0149423D01*
X0400333Y0150621D02*
X0353333Y0150621D01*
X0353333Y0151820D02*
X0400333Y0151820D01*
X0400333Y0153018D02*
X0353333Y0153018D01*
X0353333Y0154217D02*
X0400333Y0154217D01*
X0400333Y0155415D02*
X0353333Y0155415D01*
X0353333Y0156614D02*
X0400333Y0156614D01*
X0400333Y0157812D02*
X0353333Y0157812D01*
X0353333Y0159011D02*
X0400333Y0159011D01*
X0400333Y0141033D02*
X0353333Y0141033D01*
X0353333Y0139835D02*
X0400333Y0139835D01*
X0400333Y0138636D02*
X0353333Y0138636D01*
X0353333Y0137438D02*
X0400333Y0137438D01*
X0400333Y0136239D02*
X0353333Y0136239D01*
X0353333Y0135041D02*
X0400333Y0135041D01*
X0400333Y0133842D02*
X0353333Y0133842D01*
X0353333Y0132644D02*
X0400333Y0132644D01*
X0400333Y0131445D02*
X0135133Y0131445D01*
X0135133Y0130247D02*
X0400333Y0130247D01*
X0400333Y0117063D02*
X0357288Y0117063D01*
X0356960Y0115865D02*
X0400333Y0115865D01*
X0400333Y0114666D02*
X0356441Y0114666D01*
X0355690Y0113468D02*
X0400333Y0113468D01*
X0400333Y0112269D02*
X0354641Y0112269D01*
X0353087Y0111070D02*
X0400333Y0111070D01*
X0400333Y0109872D02*
X0349968Y0109872D01*
X0340976Y0113468D02*
X0286294Y0113468D01*
X0287266Y0114666D02*
X0340226Y0114666D01*
X0339706Y0115865D02*
X0287762Y0115865D01*
X0287783Y0117063D02*
X0339378Y0117063D01*
X0339717Y0121857D02*
X0135133Y0121857D01*
X0135133Y0120659D02*
X0251020Y0120659D01*
X0249700Y0119460D02*
X0135133Y0119460D01*
X0135133Y0118262D02*
X0249122Y0118262D01*
X0248883Y0117063D02*
X0135133Y0117063D01*
X0135133Y0115865D02*
X0248904Y0115865D01*
X0249401Y0114666D02*
X0135133Y0114666D01*
X0131533Y0114666D02*
X0105397Y0114666D01*
X0105946Y0113468D02*
X0131533Y0113468D01*
X0131533Y0115865D02*
X0104198Y0115865D01*
X0098468Y0115865D02*
X0080133Y0115865D01*
X0080133Y0117063D02*
X0131533Y0117063D01*
X0131533Y0118262D02*
X0080133Y0118262D01*
X0080133Y0119460D02*
X0131533Y0119460D01*
X0131533Y0120659D02*
X0080133Y0120659D01*
X0080133Y0121857D02*
X0131533Y0121857D01*
X0131533Y0123056D02*
X0080133Y0123056D01*
X0080133Y0124254D02*
X0131533Y0124254D01*
X0131533Y0125453D02*
X0080133Y0125453D01*
X0080133Y0126651D02*
X0131533Y0126651D01*
X0131533Y0127850D02*
X0080133Y0127850D01*
X0080133Y0129048D02*
X0131533Y0129048D01*
X0131533Y0130247D02*
X0080133Y0130247D01*
X0080133Y0131445D02*
X0131533Y0131445D01*
X0131533Y0137438D02*
X0080133Y0137438D01*
X0080133Y0138636D02*
X0131533Y0138636D01*
X0131533Y0139835D02*
X0080133Y0139835D01*
X0080133Y0141033D02*
X0131533Y0141033D01*
X0131533Y0142232D02*
X0080133Y0142232D01*
X0080133Y0143430D02*
X0131533Y0143430D01*
X0131533Y0144629D02*
X0080133Y0144629D01*
X0080133Y0145827D02*
X0131533Y0145827D01*
X0131533Y0147026D02*
X0080133Y0147026D01*
X0080133Y0148224D02*
X0131533Y0148224D01*
X0131533Y0149423D02*
X0080133Y0149423D01*
X0080133Y0150621D02*
X0131533Y0150621D01*
X0135133Y0150621D02*
X0190186Y0150621D01*
X0189676Y0149423D02*
X0135133Y0149423D01*
X0135133Y0148224D02*
X0189418Y0148224D01*
X0189418Y0147026D02*
X0135133Y0147026D01*
X0135133Y0145827D02*
X0165431Y0145827D01*
X0164232Y0144629D02*
X0135133Y0144629D01*
X0135133Y0143430D02*
X0163705Y0143430D01*
X0163433Y0142232D02*
X0135133Y0142232D01*
X0135133Y0141033D02*
X0163433Y0141033D01*
X0163844Y0139835D02*
X0135133Y0139835D01*
X0135133Y0138636D02*
X0164567Y0138636D01*
X0166060Y0137438D02*
X0135133Y0137438D01*
X0135133Y0126651D02*
X0343626Y0126651D01*
X0342053Y0125453D02*
X0135133Y0125453D01*
X0135133Y0124254D02*
X0340997Y0124254D01*
X0340242Y0123056D02*
X0135133Y0123056D01*
X0171236Y0145827D02*
X0189841Y0145827D01*
X0190583Y0144629D02*
X0172434Y0144629D01*
X0172962Y0143430D02*
X0192120Y0143430D01*
X0196515Y0143430D02*
X0201348Y0143430D01*
X0200088Y0144629D02*
X0198052Y0144629D01*
X0198794Y0145827D02*
X0199393Y0145827D01*
X0199264Y0149423D02*
X0198959Y0149423D01*
X0198449Y0150621D02*
X0199799Y0150621D01*
X0200819Y0151820D02*
X0197251Y0151820D01*
X0191384Y0151820D02*
X0135133Y0151820D01*
X0135133Y0153018D02*
X0140185Y0153018D01*
X0139100Y0154217D02*
X0135133Y0154217D01*
X0135133Y0155415D02*
X0138603Y0155415D01*
X0138433Y0156614D02*
X0135133Y0156614D01*
X0135133Y0157812D02*
X0138449Y0157812D01*
X0138945Y0159011D02*
X0135133Y0159011D01*
X0135133Y0160209D02*
X0139813Y0160209D01*
X0141533Y0161408D02*
X0135133Y0161408D01*
X0135133Y0162606D02*
X0141533Y0162606D01*
X0141533Y0163805D02*
X0135133Y0163805D01*
X0135133Y0165003D02*
X0141533Y0165003D01*
X0141533Y0166202D02*
X0135133Y0166202D01*
X0135133Y0167401D02*
X0140803Y0167401D01*
X0139605Y0168599D02*
X0135133Y0168599D01*
X0135133Y0169798D02*
X0138433Y0169798D01*
X0138433Y0170996D02*
X0135133Y0170996D01*
X0135133Y0172195D02*
X0138433Y0172195D01*
X0138433Y0173393D02*
X0135133Y0173393D01*
X0135133Y0174592D02*
X0139195Y0174592D01*
X0140394Y0175790D02*
X0135133Y0175790D01*
X0135133Y0176989D02*
X0142145Y0176989D01*
X0140017Y0178187D02*
X0135133Y0178187D01*
X0135133Y0179386D02*
X0139030Y0179386D01*
X0143333Y0171800D02*
X0143333Y0156800D01*
X0148233Y0156614D02*
X0210974Y0156614D01*
X0212172Y0155415D02*
X0148064Y0155415D01*
X0147567Y0154217D02*
X0212518Y0154217D01*
X0212518Y0153018D02*
X0205399Y0153018D01*
X0204718Y0153018D02*
X0203918Y0153018D01*
X0203236Y0153018D02*
X0146481Y0153018D01*
X0168333Y0171800D02*
X0168333Y0186800D01*
X0189334Y0166202D02*
X0198433Y0166202D01*
X0198774Y0165003D02*
X0191423Y0165003D01*
X0192319Y0163805D02*
X0199399Y0163805D01*
X0200653Y0162606D02*
X0192783Y0162606D01*
X0192783Y0161408D02*
X0206180Y0161408D01*
X0207378Y0160209D02*
X0192491Y0160209D01*
X0191838Y0159011D02*
X0208577Y0159011D01*
X0209775Y0157812D02*
X0190335Y0157812D01*
X0203918Y0151820D02*
X0204718Y0151820D01*
X0204718Y0150621D02*
X0203918Y0150621D01*
X0203918Y0149423D02*
X0204718Y0149423D01*
X0204718Y0148224D02*
X0203918Y0148224D01*
X0203918Y0147026D02*
X0204718Y0147026D01*
X0204718Y0145827D02*
X0203918Y0145827D01*
X0203918Y0144629D02*
X0204718Y0144629D01*
X0204718Y0143430D02*
X0203918Y0143430D01*
X0207288Y0143430D02*
X0212120Y0143430D01*
X0210583Y0144629D02*
X0208548Y0144629D01*
X0209242Y0145827D02*
X0209841Y0145827D01*
X0209676Y0149423D02*
X0209371Y0149423D01*
X0208836Y0150621D02*
X0210186Y0150621D01*
X0211384Y0151820D02*
X0207817Y0151820D01*
X0214318Y0155816D02*
X0214318Y0147824D01*
X0214318Y0155816D02*
X0203333Y0166800D01*
X0207892Y0168599D02*
X0208775Y0168599D01*
X0208433Y0167401D02*
X0208233Y0167401D01*
X0208233Y0166202D02*
X0208433Y0166202D01*
X0208774Y0165003D02*
X0207893Y0165003D01*
X0208874Y0163805D02*
X0209399Y0163805D01*
X0210072Y0162606D02*
X0210653Y0162606D01*
X0209401Y0169798D02*
X0207265Y0169798D01*
X0206007Y0170996D02*
X0210659Y0170996D01*
X0222359Y0221900D02*
X0224308Y0221900D01*
X0226109Y0222646D01*
X0227487Y0224024D01*
X0228233Y0225825D01*
X0228233Y0227775D01*
X0227487Y0229576D01*
X0226109Y0230954D01*
X0224308Y0231700D01*
X0222359Y0231700D01*
X0220558Y0230954D01*
X0219179Y0229576D01*
X0218433Y0227775D01*
X0218433Y0225825D01*
X0219179Y0224024D01*
X0220558Y0222646D01*
X0222359Y0221900D01*
X0220833Y0222532D02*
X0215834Y0222532D01*
X0217194Y0223731D02*
X0219473Y0223731D01*
X0218805Y0224929D02*
X0217862Y0224929D01*
X0218233Y0226128D02*
X0218433Y0226128D01*
X0218433Y0227326D02*
X0218233Y0227326D01*
X0217923Y0228525D02*
X0218744Y0228525D01*
X0219327Y0229723D02*
X0217340Y0229723D01*
X0216141Y0230922D02*
X0220525Y0230922D01*
X0226141Y0230922D02*
X0230525Y0230922D01*
X0230558Y0230954D02*
X0229179Y0229576D01*
X0228433Y0227775D01*
X0228433Y0225825D01*
X0229179Y0224024D01*
X0230558Y0222646D01*
X0232359Y0221900D01*
X0234308Y0221900D01*
X0236109Y0222646D01*
X0237487Y0224024D01*
X0238233Y0225825D01*
X0238233Y0227775D01*
X0237487Y0229576D01*
X0236109Y0230954D01*
X0234308Y0231700D01*
X0232359Y0231700D01*
X0230558Y0230954D01*
X0229327Y0229723D02*
X0227340Y0229723D01*
X0227923Y0228525D02*
X0228744Y0228525D01*
X0228433Y0227326D02*
X0228233Y0227326D01*
X0228233Y0226128D02*
X0228433Y0226128D01*
X0228805Y0224929D02*
X0227862Y0224929D01*
X0227194Y0223731D02*
X0229473Y0223731D01*
X0230833Y0222532D02*
X0225834Y0222532D01*
X0235834Y0222532D02*
X0240833Y0222532D01*
X0239473Y0223731D02*
X0237194Y0223731D01*
X0237862Y0224929D02*
X0238805Y0224929D01*
X0238433Y0226128D02*
X0238233Y0226128D01*
X0238233Y0227326D02*
X0238433Y0227326D01*
X0238744Y0228525D02*
X0237923Y0228525D01*
X0237340Y0229723D02*
X0239327Y0229723D01*
X0240525Y0230922D02*
X0236141Y0230922D01*
X0246108Y0232120D02*
X0210559Y0232120D01*
X0209360Y0233319D02*
X0247306Y0233319D01*
X0248505Y0234517D02*
X0208162Y0234517D01*
X0206963Y0235716D02*
X0249703Y0235716D01*
X0250902Y0236914D02*
X0205765Y0236914D01*
X0204566Y0238113D02*
X0252100Y0238113D01*
X0253299Y0239311D02*
X0203368Y0239311D01*
X0202169Y0240510D02*
X0244298Y0240510D01*
X0252369Y0240510D02*
X0254497Y0240510D01*
X0210833Y0222532D02*
X0205834Y0222532D01*
X0207194Y0223731D02*
X0209473Y0223731D01*
X0179913Y0241708D02*
X0128754Y0241708D01*
X0130340Y0242907D02*
X0178327Y0242907D01*
X0177128Y0244105D02*
X0131538Y0244105D01*
X0132381Y0245304D02*
X0176285Y0245304D01*
X0175593Y0246502D02*
X0133073Y0246502D01*
X0133606Y0247701D02*
X0175060Y0247701D01*
X0174739Y0248899D02*
X0133928Y0248899D01*
X0134249Y0250098D02*
X0174418Y0250098D01*
X0174383Y0251296D02*
X0134283Y0251296D01*
X0134283Y0252495D02*
X0174383Y0252495D01*
X0174469Y0253693D02*
X0134198Y0253693D01*
X0133876Y0254892D02*
X0174790Y0254892D01*
X0175111Y0256090D02*
X0133555Y0256090D01*
X0132963Y0257289D02*
X0175704Y0257289D01*
X0176396Y0258487D02*
X0132271Y0258487D01*
X0131347Y0259686D02*
X0177319Y0259686D01*
X0178518Y0260884D02*
X0130149Y0260884D01*
X0128423Y0262083D02*
X0180244Y0262083D01*
X0183011Y0263281D02*
X0125655Y0263281D01*
X0119011Y0263281D02*
X0061655Y0263281D01*
X0064423Y0262083D02*
X0116244Y0262083D01*
X0114518Y0260884D02*
X0066149Y0260884D01*
X0067347Y0259686D02*
X0113319Y0259686D01*
X0112396Y0258487D02*
X0068271Y0258487D01*
X0068963Y0257289D02*
X0111704Y0257289D01*
X0111111Y0256090D02*
X0069555Y0256090D01*
X0069876Y0254892D02*
X0110790Y0254892D01*
X0110469Y0253693D02*
X0070198Y0253693D01*
X0070283Y0252495D02*
X0110383Y0252495D01*
X0110383Y0251296D02*
X0070283Y0251296D01*
X0070249Y0250098D02*
X0110418Y0250098D01*
X0110739Y0248899D02*
X0069928Y0248899D01*
X0069606Y0247701D02*
X0111060Y0247701D01*
X0111593Y0246502D02*
X0069073Y0246502D01*
X0068381Y0245304D02*
X0112285Y0245304D01*
X0113128Y0244105D02*
X0067538Y0244105D01*
X0066340Y0242907D02*
X0114327Y0242907D01*
X0115913Y0241708D02*
X0064754Y0241708D01*
X0051913Y0241708D02*
X0035433Y0241708D01*
X0035433Y0240510D02*
X0045497Y0240510D01*
X0044299Y0239311D02*
X0035433Y0239311D01*
X0035433Y0238113D02*
X0043100Y0238113D01*
X0041902Y0236914D02*
X0035433Y0236914D01*
X0035433Y0235716D02*
X0040703Y0235716D01*
X0039505Y0234517D02*
X0035433Y0234517D01*
X0035433Y0233319D02*
X0038306Y0233319D01*
X0037108Y0232120D02*
X0035433Y0232120D01*
X0035433Y0230922D02*
X0035909Y0230922D01*
X0035433Y0242907D02*
X0050327Y0242907D01*
X0049128Y0244105D02*
X0035433Y0244105D01*
X0035433Y0245304D02*
X0048285Y0245304D01*
X0047593Y0246502D02*
X0035433Y0246502D01*
X0035433Y0247701D02*
X0047060Y0247701D01*
X0046739Y0248899D02*
X0035433Y0248899D01*
X0035433Y0250098D02*
X0046418Y0250098D01*
X0046383Y0251296D02*
X0035433Y0251296D01*
X0035433Y0252495D02*
X0046383Y0252495D01*
X0046469Y0253693D02*
X0035433Y0253693D01*
X0036494Y0254892D02*
X0046790Y0254892D01*
X0047111Y0256090D02*
X0040513Y0256090D01*
X0042709Y0257289D02*
X0047704Y0257289D01*
X0048396Y0258487D02*
X0044367Y0258487D01*
X0045624Y0259686D02*
X0049319Y0259686D01*
X0050518Y0260884D02*
X0046864Y0260884D01*
X0046840Y0260845D02*
X0046840Y0260845D01*
X0047595Y0262083D02*
X0052244Y0262083D01*
X0055011Y0263281D02*
X0048326Y0263281D01*
X0105834Y0222532D02*
X0140833Y0222532D01*
X0139473Y0223731D02*
X0107194Y0223731D01*
X0139045Y0194966D02*
X0139570Y0194966D01*
X0088333Y0191800D02*
X0058333Y0161800D01*
X0058333Y0106800D01*
X0054324Y0103879D02*
X0038133Y0103879D01*
X0038133Y0102681D02*
X0055523Y0102681D01*
X0042729Y0107475D02*
X0038133Y0107475D01*
X0038133Y0108673D02*
X0041910Y0108673D01*
X0041433Y0109872D02*
X0038133Y0109872D01*
X0038133Y0111070D02*
X0041433Y0111070D01*
X0040319Y0112269D02*
X0038133Y0112269D01*
X0038133Y0113468D02*
X0039120Y0113468D01*
X0043013Y0114666D02*
X0043270Y0114666D01*
X0040133Y0137438D02*
X0056533Y0137438D01*
X0056533Y0138636D02*
X0040133Y0138636D01*
X0040133Y0139835D02*
X0056533Y0139835D01*
X0056533Y0141033D02*
X0040133Y0141033D01*
X0040133Y0142232D02*
X0056533Y0142232D01*
X0056533Y0143430D02*
X0040133Y0143430D01*
X0040133Y0144629D02*
X0056533Y0144629D01*
X0056533Y0145827D02*
X0040133Y0145827D01*
X0040133Y0147026D02*
X0056533Y0147026D01*
X0056533Y0148224D02*
X0040133Y0148224D01*
X0040133Y0149423D02*
X0056533Y0149423D01*
X0056533Y0150621D02*
X0040133Y0150621D01*
X0040133Y0151820D02*
X0056533Y0151820D01*
X0056533Y0153018D02*
X0051481Y0153018D01*
X0052567Y0154217D02*
X0056533Y0154217D01*
X0056533Y0155415D02*
X0053064Y0155415D01*
X0053233Y0156614D02*
X0056533Y0156614D01*
X0056533Y0157812D02*
X0053218Y0157812D01*
X0052721Y0159011D02*
X0056533Y0159011D01*
X0056533Y0160209D02*
X0051854Y0160209D01*
X0050133Y0161408D02*
X0056533Y0161408D01*
X0056594Y0162606D02*
X0050133Y0162606D01*
X0050133Y0163805D02*
X0057793Y0163805D01*
X0058991Y0165003D02*
X0050133Y0165003D01*
X0050133Y0166202D02*
X0060190Y0166202D01*
X0061388Y0167401D02*
X0050516Y0167401D01*
X0052062Y0168599D02*
X0062587Y0168599D01*
X0063785Y0169798D02*
X0052808Y0169798D01*
X0053233Y0170996D02*
X0064984Y0170996D01*
X0066182Y0172195D02*
X0053233Y0172195D01*
X0052977Y0173393D02*
X0067381Y0173393D01*
X0068579Y0174592D02*
X0052471Y0174592D01*
X0051273Y0175790D02*
X0069778Y0175790D01*
X0070976Y0176989D02*
X0050565Y0176989D01*
X0052216Y0178187D02*
X0072175Y0178187D01*
X0073373Y0179386D02*
X0053051Y0179386D01*
X0053507Y0180584D02*
X0074572Y0180584D01*
X0075770Y0181783D02*
X0048733Y0181783D01*
X0047933Y0181783D02*
X0040133Y0181783D01*
X0040133Y0182981D02*
X0043154Y0182981D01*
X0043598Y0184180D02*
X0040133Y0184180D01*
X0040133Y0185378D02*
X0044416Y0185378D01*
X0046034Y0186577D02*
X0040133Y0186577D01*
X0040133Y0187775D02*
X0045428Y0187775D01*
X0044230Y0188974D02*
X0040133Y0188974D01*
X0040133Y0190172D02*
X0043704Y0190172D01*
X0043433Y0191371D02*
X0040133Y0191371D01*
X0040133Y0192569D02*
X0043433Y0192569D01*
X0051238Y0187775D02*
X0081763Y0187775D01*
X0080564Y0186577D02*
X0050633Y0186577D01*
X0052250Y0185378D02*
X0079366Y0185378D01*
X0078167Y0184180D02*
X0053069Y0184180D01*
X0053512Y0182981D02*
X0076969Y0182981D01*
X0079663Y0180584D02*
X0083533Y0180584D01*
X0083433Y0181783D02*
X0080862Y0181783D01*
X0082060Y0182981D02*
X0083519Y0182981D01*
X0083259Y0184180D02*
X0084015Y0184180D01*
X0084457Y0185378D02*
X0084982Y0185378D01*
X0085656Y0186577D02*
X0087061Y0186577D01*
X0082961Y0188974D02*
X0052437Y0188974D01*
X0043160Y0180584D02*
X0040133Y0180584D01*
X0040133Y0179386D02*
X0043615Y0179386D01*
X0044451Y0178187D02*
X0040133Y0178187D01*
X0040133Y0176989D02*
X0046102Y0176989D01*
X0045394Y0175790D02*
X0040133Y0175790D01*
X0040133Y0174592D02*
X0044195Y0174592D01*
X0043689Y0173393D02*
X0040133Y0173393D01*
X0040133Y0172195D02*
X0043433Y0172195D01*
X0043433Y0170996D02*
X0040133Y0170996D01*
X0040133Y0169798D02*
X0043859Y0169798D01*
X0044605Y0168599D02*
X0040133Y0168599D01*
X0040133Y0167401D02*
X0046150Y0167401D01*
X0046533Y0166202D02*
X0040133Y0166202D01*
X0040133Y0165003D02*
X0046533Y0165003D01*
X0046533Y0163805D02*
X0040133Y0163805D01*
X0040133Y0162606D02*
X0046533Y0162606D01*
X0046533Y0161408D02*
X0040133Y0161408D01*
X0040133Y0160209D02*
X0044813Y0160209D01*
X0043945Y0159011D02*
X0040133Y0159011D01*
X0040133Y0157812D02*
X0043449Y0157812D01*
X0043433Y0156614D02*
X0040133Y0156614D01*
X0040133Y0155415D02*
X0043603Y0155415D01*
X0044100Y0154217D02*
X0040133Y0154217D01*
X0040133Y0153018D02*
X0045185Y0153018D01*
X0048333Y0156800D02*
X0048333Y0171800D01*
X0060487Y0161408D02*
X0076533Y0161408D01*
X0076533Y0162606D02*
X0061685Y0162606D01*
X0062884Y0163805D02*
X0076533Y0163805D01*
X0076533Y0165003D02*
X0064082Y0165003D01*
X0065281Y0166202D02*
X0076533Y0166202D01*
X0076533Y0167401D02*
X0066479Y0167401D01*
X0067678Y0168599D02*
X0076533Y0168599D01*
X0076533Y0169798D02*
X0068876Y0169798D01*
X0070075Y0170996D02*
X0076533Y0170996D01*
X0076533Y0172195D02*
X0071273Y0172195D01*
X0072472Y0173393D02*
X0077381Y0173393D01*
X0078579Y0174592D02*
X0073670Y0174592D01*
X0074869Y0175790D02*
X0079778Y0175790D01*
X0080976Y0176989D02*
X0076068Y0176989D01*
X0077266Y0178187D02*
X0082175Y0178187D01*
X0083373Y0179386D02*
X0078465Y0179386D01*
X0078333Y0171800D02*
X0078333Y0106800D01*
X0080828Y0111070D02*
X0096433Y0111070D01*
X0096433Y0112269D02*
X0080133Y0112269D01*
X0080133Y0113468D02*
X0096720Y0113468D01*
X0097270Y0114666D02*
X0080133Y0114666D01*
X0076533Y0137438D02*
X0060133Y0137438D01*
X0060133Y0138636D02*
X0076533Y0138636D01*
X0076533Y0139835D02*
X0060133Y0139835D01*
X0060133Y0141033D02*
X0076533Y0141033D01*
X0076533Y0142232D02*
X0060133Y0142232D01*
X0060133Y0143430D02*
X0076533Y0143430D01*
X0076533Y0144629D02*
X0060133Y0144629D01*
X0060133Y0145827D02*
X0076533Y0145827D01*
X0076533Y0147026D02*
X0060133Y0147026D01*
X0060133Y0148224D02*
X0076533Y0148224D01*
X0076533Y0149423D02*
X0060133Y0149423D01*
X0060133Y0150621D02*
X0076533Y0150621D01*
X0076533Y0151820D02*
X0060133Y0151820D01*
X0060133Y0153018D02*
X0076533Y0153018D01*
X0076533Y0154217D02*
X0060133Y0154217D01*
X0060133Y0155415D02*
X0076533Y0155415D01*
X0076533Y0156614D02*
X0060133Y0156614D01*
X0060133Y0157812D02*
X0076533Y0157812D01*
X0076533Y0159011D02*
X0060133Y0159011D01*
X0060133Y0160209D02*
X0076533Y0160209D01*
X0088333Y0156800D02*
X0088333Y0171800D01*
X0088333Y0181800D02*
X0078333Y0171800D01*
X0082520Y0089497D02*
X0093485Y0089497D01*
X0092287Y0088299D02*
X0083016Y0088299D01*
X0083233Y0087100D02*
X0091088Y0087100D01*
X0089889Y0085902D02*
X0083233Y0085902D01*
X0082769Y0084703D02*
X0088691Y0084703D01*
X0087492Y0083505D02*
X0081968Y0083505D01*
X0080289Y0082306D02*
X0086294Y0082306D01*
X0092584Y0083505D02*
X0109699Y0083505D01*
X0108898Y0084703D02*
X0093782Y0084703D01*
X0094981Y0085902D02*
X0108433Y0085902D01*
X0108433Y0087100D02*
X0096179Y0087100D01*
X0097378Y0088299D02*
X0108650Y0088299D01*
X0109147Y0089497D02*
X0098576Y0089497D01*
X0099775Y0090696D02*
X0110299Y0090696D01*
X0098133Y0055939D02*
X0131649Y0055939D01*
X0132847Y0054740D02*
X0098133Y0054740D01*
X0098133Y0053542D02*
X0134046Y0053542D01*
X0135244Y0052343D02*
X0098133Y0052343D01*
X0098133Y0051145D02*
X0099956Y0051145D01*
X0098821Y0049946D02*
X0098133Y0049946D01*
X0098133Y0048748D02*
X0098183Y0048748D01*
X0098133Y0043954D02*
X0098611Y0043954D01*
X0098133Y0042755D02*
X0099600Y0042755D01*
X0099122Y0041557D02*
X0101672Y0041557D01*
X0102949Y0041557D02*
X0103718Y0041557D01*
X0103718Y0042755D02*
X0102949Y0042755D01*
X0102949Y0043954D02*
X0103718Y0043954D01*
X0103718Y0045152D02*
X0102949Y0045152D01*
X0048718Y0045152D02*
X0047949Y0045152D01*
X0047949Y0043954D02*
X0048718Y0043954D01*
X0048718Y0042755D02*
X0047949Y0042755D01*
X0047949Y0041557D02*
X0048718Y0041557D01*
X0046672Y0041557D02*
X0044122Y0041557D01*
X0044600Y0042755D02*
X0043133Y0042755D01*
X0043133Y0043954D02*
X0043611Y0043954D01*
X0043183Y0048748D02*
X0043133Y0048748D01*
X0043133Y0049946D02*
X0043821Y0049946D01*
X0043133Y0051145D02*
X0044956Y0051145D01*
X0158333Y0061800D02*
X0187083Y0061800D01*
X0183901Y0058336D02*
X0161799Y0058336D01*
X0162699Y0059534D02*
X0182934Y0059534D01*
X0183043Y0064329D02*
X0162590Y0064329D01*
X0161536Y0065527D02*
X0184164Y0065527D01*
X0191232Y0059534D02*
X0224562Y0059534D01*
X0223733Y0058336D02*
X0190266Y0058336D01*
X0186480Y0049946D02*
X0218934Y0049946D01*
X0217736Y0048748D02*
X0187343Y0048748D01*
X0186780Y0043954D02*
X0251533Y0043954D01*
X0251533Y0045152D02*
X0219231Y0045152D01*
X0220430Y0046351D02*
X0251533Y0046351D01*
X0251533Y0047549D02*
X0221628Y0047549D01*
X0222827Y0048748D02*
X0251533Y0048748D01*
X0251533Y0049946D02*
X0224025Y0049946D01*
X0225224Y0051145D02*
X0251533Y0051145D01*
X0251533Y0052343D02*
X0250382Y0052343D01*
X0246285Y0052343D02*
X0240382Y0052343D01*
X0241581Y0053542D02*
X0245086Y0053542D01*
X0243887Y0054740D02*
X0242779Y0054740D01*
X0242933Y0055939D02*
X0243733Y0055939D01*
X0243733Y0057137D02*
X0242933Y0057137D01*
X0242933Y0058336D02*
X0243733Y0058336D01*
X0244562Y0059534D02*
X0242104Y0059534D01*
X0240906Y0060733D02*
X0245761Y0060733D01*
X0250906Y0060733D02*
X0251533Y0060733D01*
X0236285Y0052343D02*
X0230382Y0052343D01*
X0221109Y0040954D02*
X0219308Y0041700D01*
X0217359Y0041700D01*
X0215558Y0040954D01*
X0214179Y0039576D01*
X0213433Y0037775D01*
X0213433Y0035825D01*
X0214179Y0034024D01*
X0215558Y0032646D01*
X0217359Y0031900D01*
X0219308Y0031900D01*
X0221109Y0032646D01*
X0222487Y0034024D01*
X0223233Y0035825D01*
X0223233Y0037775D01*
X0222487Y0039576D01*
X0221109Y0040954D01*
X0221705Y0040358D02*
X0251533Y0040358D01*
X0251533Y0039160D02*
X0222660Y0039160D01*
X0223156Y0037961D02*
X0251533Y0037961D01*
X0251533Y0036763D02*
X0223233Y0036763D01*
X0223125Y0035564D02*
X0251533Y0035564D01*
X0251533Y0034366D02*
X0222629Y0034366D01*
X0221630Y0033167D02*
X0251533Y0033167D01*
X0251533Y0031969D02*
X0219474Y0031969D01*
X0217193Y0031969D02*
X0202783Y0031969D01*
X0202584Y0033167D02*
X0215036Y0033167D01*
X0214038Y0034366D02*
X0202061Y0034366D01*
X0200862Y0035564D02*
X0213541Y0035564D01*
X0213433Y0036763D02*
X0161133Y0036763D01*
X0161133Y0037961D02*
X0213511Y0037961D01*
X0214007Y0039160D02*
X0161133Y0039160D01*
X0161133Y0040358D02*
X0214962Y0040358D01*
X0217013Y0041557D02*
X0161133Y0041557D01*
X0161133Y0035564D02*
X0170804Y0035564D01*
X0169606Y0034366D02*
X0161133Y0034366D01*
X0161133Y0033167D02*
X0169083Y0033167D01*
X0168883Y0031969D02*
X0161133Y0031969D01*
X0175862Y0035564D02*
X0195804Y0035564D01*
X0194606Y0034366D02*
X0177061Y0034366D01*
X0177584Y0033167D02*
X0194083Y0033167D01*
X0193883Y0031969D02*
X0177783Y0031969D01*
X0185197Y0042755D02*
X0251533Y0042755D01*
X0251533Y0041557D02*
X0219654Y0041557D01*
X0254333Y0076800D02*
X0254333Y0092800D01*
X0298333Y0092800D01*
X0298333Y0078600D01*
X0272588Y0078600D01*
X0271533Y0077546D01*
X0271533Y0076800D01*
X0254333Y0076800D01*
X0254333Y0077512D02*
X0271533Y0077512D01*
X0273333Y0076314D02*
X0363333Y0076314D01*
X0363333Y0075115D02*
X0273333Y0075115D01*
X0273333Y0073917D02*
X0363333Y0073917D01*
X0363333Y0072718D02*
X0273333Y0072718D01*
X0273333Y0071520D02*
X0363333Y0071520D01*
X0363333Y0070321D02*
X0273333Y0070321D01*
X0273333Y0069123D02*
X0363333Y0069123D01*
X0365133Y0069123D02*
X0400333Y0069123D01*
X0400333Y0070321D02*
X0365133Y0070321D01*
X0365133Y0071520D02*
X0400333Y0071520D01*
X0400333Y0072718D02*
X0365133Y0072718D01*
X0365133Y0073917D02*
X0400333Y0073917D01*
X0400333Y0075115D02*
X0365133Y0075115D01*
X0365133Y0076314D02*
X0400333Y0076314D01*
X0400333Y0077512D02*
X0365133Y0077512D01*
X0365133Y0067924D02*
X0400333Y0067924D01*
X0400333Y0066726D02*
X0365133Y0066726D01*
X0365133Y0065527D02*
X0400333Y0065527D01*
X0400333Y0064329D02*
X0365133Y0064329D01*
X0365133Y0063130D02*
X0400333Y0063130D01*
X0400333Y0061932D02*
X0365133Y0061932D01*
X0365133Y0060733D02*
X0400333Y0060733D01*
X0400333Y0059534D02*
X0365133Y0059534D01*
X0365133Y0058336D02*
X0400333Y0058336D01*
X0400333Y0057137D02*
X0365133Y0057137D01*
X0365133Y0055939D02*
X0400333Y0055939D01*
X0400333Y0054740D02*
X0365133Y0054740D01*
X0365133Y0053542D02*
X0400333Y0053542D01*
X0400333Y0052343D02*
X0365133Y0052343D01*
X0365133Y0051145D02*
X0400333Y0051145D01*
X0400333Y0049946D02*
X0365133Y0049946D01*
X0365133Y0048748D02*
X0400333Y0048748D01*
X0400333Y0047549D02*
X0365133Y0047549D01*
X0365133Y0046351D02*
X0400333Y0046351D01*
X0400333Y0045152D02*
X0365133Y0045152D01*
X0365133Y0043954D02*
X0400333Y0043954D01*
X0400333Y0042755D02*
X0365133Y0042755D01*
X0365133Y0041557D02*
X0400333Y0041557D01*
X0400333Y0040358D02*
X0365133Y0040358D01*
X0365133Y0039160D02*
X0400333Y0039160D01*
X0400333Y0037961D02*
X0365133Y0037961D01*
X0365133Y0036763D02*
X0400333Y0036763D01*
X0400333Y0035564D02*
X0365133Y0035564D01*
X0365133Y0034366D02*
X0400333Y0034366D01*
X0400333Y0033167D02*
X0365133Y0033167D01*
X0365133Y0031969D02*
X0400333Y0031969D01*
X0400333Y0030770D02*
X0365133Y0030770D01*
X0365133Y0029572D02*
X0400333Y0029572D01*
X0398216Y0028373D02*
X0365133Y0028373D01*
X0365133Y0027175D02*
X0394863Y0027175D01*
X0392787Y0025976D02*
X0365133Y0025976D01*
X0365133Y0024778D02*
X0391228Y0024778D01*
X0390029Y0023579D02*
X0365133Y0023579D01*
X0365133Y0022381D02*
X0388831Y0022381D01*
X0388105Y0021182D02*
X0365133Y0021182D01*
X0365133Y0019984D02*
X0387413Y0019984D01*
X0386721Y0018785D02*
X0365133Y0018785D01*
X0365133Y0017587D02*
X0386281Y0017587D01*
X0385959Y0016388D02*
X0365133Y0016388D01*
X0365133Y0015190D02*
X0385638Y0015190D01*
X0385333Y0013991D02*
X0365133Y0013991D01*
X0363333Y0013991D02*
X0303333Y0013991D01*
X0303333Y0015190D02*
X0363333Y0015190D01*
X0363333Y0016388D02*
X0303333Y0016388D01*
X0303333Y0017587D02*
X0363333Y0017587D01*
X0363333Y0018785D02*
X0303333Y0018785D01*
X0303333Y0019984D02*
X0363333Y0019984D01*
X0363333Y0021182D02*
X0303333Y0021182D01*
X0303333Y0022381D02*
X0363333Y0022381D01*
X0363333Y0023579D02*
X0303333Y0023579D01*
X0303333Y0024778D02*
X0363333Y0024778D01*
X0363333Y0025976D02*
X0303333Y0025976D01*
X0303333Y0027175D02*
X0363333Y0027175D01*
X0363333Y0028373D02*
X0303333Y0028373D01*
X0303333Y0029572D02*
X0363333Y0029572D01*
X0363333Y0030770D02*
X0303333Y0030770D01*
X0303333Y0031969D02*
X0363333Y0031969D01*
X0363333Y0033167D02*
X0303333Y0033167D01*
X0303333Y0034366D02*
X0363333Y0034366D01*
X0363333Y0035564D02*
X0303333Y0035564D01*
X0303333Y0036763D02*
X0363333Y0036763D01*
X0363333Y0037961D02*
X0303333Y0037961D01*
X0303333Y0039160D02*
X0363333Y0039160D01*
X0363333Y0040358D02*
X0303333Y0040358D01*
X0303333Y0041557D02*
X0363333Y0041557D01*
X0363333Y0042755D02*
X0303333Y0042755D01*
X0303333Y0043954D02*
X0363333Y0043954D01*
X0363333Y0045152D02*
X0303333Y0045152D01*
X0303333Y0046351D02*
X0363333Y0046351D01*
X0363333Y0047549D02*
X0303333Y0047549D01*
X0303333Y0048748D02*
X0363333Y0048748D01*
X0363333Y0049946D02*
X0303333Y0049946D01*
X0303333Y0051145D02*
X0363333Y0051145D01*
X0363333Y0052343D02*
X0303333Y0052343D01*
X0303333Y0053542D02*
X0363333Y0053542D01*
X0363333Y0054740D02*
X0303333Y0054740D01*
X0303333Y0055939D02*
X0363333Y0055939D01*
X0363333Y0057137D02*
X0303333Y0057137D01*
X0303333Y0058336D02*
X0363333Y0058336D01*
X0363333Y0059534D02*
X0303333Y0059534D01*
X0303333Y0060733D02*
X0363333Y0060733D01*
X0363333Y0061932D02*
X0303333Y0061932D01*
X0303333Y0063130D02*
X0363333Y0063130D01*
X0351583Y0090696D02*
X0400333Y0090696D01*
X0400333Y0091894D02*
X0352858Y0091894D01*
X0353582Y0093093D02*
X0400333Y0093093D01*
X0400333Y0094291D02*
X0353960Y0094291D01*
X0348933Y0094291D02*
X0347733Y0094291D01*
X0347733Y0093093D02*
X0348933Y0093093D01*
X0348933Y0091894D02*
X0347733Y0091894D01*
X0347733Y0090696D02*
X0348933Y0090696D01*
X0345083Y0090696D02*
X0300133Y0090696D01*
X0300133Y0091894D02*
X0343809Y0091894D01*
X0343085Y0093093D02*
X0300133Y0093093D01*
X0299388Y0094291D02*
X0342707Y0094291D01*
X0347733Y0097887D02*
X0348933Y0097887D01*
X0348933Y0099085D02*
X0347733Y0099085D01*
X0347733Y0100284D02*
X0348933Y0100284D01*
X0300133Y0089497D02*
X0400333Y0089497D01*
X0400333Y0088299D02*
X0300133Y0088299D01*
X0300133Y0087100D02*
X0400333Y0087100D01*
X0400333Y0085902D02*
X0300133Y0085902D01*
X0300133Y0084703D02*
X0400333Y0084703D01*
X0400333Y0083505D02*
X0300133Y0083505D01*
X0300133Y0082306D02*
X0400333Y0082306D01*
X0400333Y0081108D02*
X0300133Y0081108D01*
X0300133Y0079909D02*
X0400333Y0079909D01*
X0400333Y0078711D02*
X0300133Y0078711D01*
X0298333Y0078711D02*
X0254333Y0078711D01*
X0254333Y0079909D02*
X0298333Y0079909D01*
X0298333Y0081108D02*
X0254333Y0081108D01*
X0254333Y0082306D02*
X0298333Y0082306D01*
X0298333Y0083505D02*
X0254333Y0083505D01*
X0254333Y0084703D02*
X0298333Y0084703D01*
X0298333Y0085902D02*
X0254333Y0085902D01*
X0254333Y0087100D02*
X0298333Y0087100D01*
X0298333Y0088299D02*
X0254333Y0088299D01*
X0254333Y0089497D02*
X0298333Y0089497D01*
X0298333Y0090696D02*
X0254333Y0090696D01*
X0254333Y0091894D02*
X0298333Y0091894D01*
X0287929Y0102681D02*
X0400333Y0102681D01*
X0400333Y0103879D02*
X0288183Y0103879D01*
X0288183Y0105078D02*
X0400333Y0105078D01*
X0400333Y0106276D02*
X0288183Y0106276D01*
X0288183Y0107475D02*
X0400333Y0107475D01*
X0400333Y0108673D02*
X0288183Y0108673D01*
X0283422Y0108673D02*
X0283244Y0108673D01*
X0283244Y0107475D02*
X0283422Y0107475D01*
X0283422Y0106276D02*
X0283244Y0106276D01*
X0283244Y0105078D02*
X0283422Y0105078D01*
X0283422Y0103879D02*
X0283244Y0103879D01*
X0283244Y0102681D02*
X0283422Y0102681D01*
X0283422Y0109872D02*
X0283244Y0109872D01*
X0283244Y0111070D02*
X0283422Y0111070D01*
X0280373Y0113468D02*
X0256294Y0113468D01*
X0257266Y0114666D02*
X0279401Y0114666D01*
X0278904Y0115865D02*
X0257762Y0115865D01*
X0257783Y0117063D02*
X0278883Y0117063D01*
X0279122Y0118262D02*
X0257545Y0118262D01*
X0256966Y0119460D02*
X0279700Y0119460D01*
X0281020Y0120659D02*
X0255646Y0120659D01*
X0252533Y0090696D02*
X0251509Y0090696D01*
X0248533Y0090696D02*
X0248133Y0090696D01*
X0248133Y0089497D02*
X0248533Y0089497D01*
X0248533Y0088299D02*
X0248133Y0088299D01*
X0248133Y0087100D02*
X0248533Y0087100D01*
X0248533Y0085902D02*
X0248133Y0085902D01*
X0248133Y0084703D02*
X0248533Y0084703D01*
X0248533Y0083505D02*
X0248133Y0083505D01*
X0248133Y0082306D02*
X0248533Y0082306D01*
X0250911Y0082306D02*
X0252533Y0082306D01*
X0252533Y0083505D02*
X0252109Y0083505D01*
X0245756Y0082306D02*
X0240345Y0082306D01*
X0241543Y0083505D02*
X0244558Y0083505D01*
X0243359Y0084703D02*
X0242742Y0084703D01*
X0242933Y0085902D02*
X0243333Y0085902D01*
X0243333Y0087100D02*
X0242933Y0087100D01*
X0242933Y0088299D02*
X0243333Y0088299D01*
X0243960Y0089497D02*
X0242141Y0089497D01*
X0240943Y0090696D02*
X0245158Y0090696D01*
X0235724Y0090696D02*
X0230943Y0090696D01*
X0232141Y0089497D02*
X0234525Y0089497D01*
X0233733Y0088299D02*
X0232933Y0088299D01*
X0232933Y0087100D02*
X0233733Y0087100D01*
X0233733Y0085902D02*
X0232933Y0085902D01*
X0232742Y0084703D02*
X0233408Y0084703D01*
X0337288Y0143430D02*
X0339614Y0143430D01*
X0339418Y0144629D02*
X0338548Y0144629D01*
X0339242Y0145827D02*
X0339418Y0145827D01*
X0339371Y0149423D02*
X0339418Y0149423D01*
X0339418Y0150621D02*
X0338836Y0150621D01*
X0339418Y0151820D02*
X0337817Y0151820D01*
X0389916Y0256090D02*
X0395253Y0256090D01*
X0393058Y0257289D02*
X0389397Y0257289D01*
X0388717Y0258487D02*
X0391400Y0258487D01*
X0390142Y0259686D02*
X0387841Y0259686D01*
X0388902Y0260884D02*
X0386714Y0260884D01*
X0388172Y0262083D02*
X0385181Y0262083D01*
X0387441Y0263281D02*
X0382914Y0263281D01*
D23*
X0168333Y0081800D02*
X0143333Y0106800D01*
X0133333Y0106800D01*
X0113333Y0106800D02*
X0133333Y0086800D01*
X0150333Y0069800D01*
X0150333Y0054800D01*
X0158333Y0046800D01*
X0158333Y0021800D01*
X0078333Y0086800D02*
X0058333Y0106800D01*
D24*
X0158333Y0021800D02*
X0173333Y0021800D01*
X0223333Y0071800D02*
X0238333Y0086800D01*
M02*
