G75*
%MOIN*%
%OFA0B0*%
%FSLAX25Y25*%
%IPPOS*%
%LPD*%
%AMOC8*
5,1,8,0,0,1.08239X$1,22.5*
%
%ADD10C,0.00600*%
%ADD11C,0.00300*%
%ADD12C,0.00400*%
%ADD13R,0.10000X0.20000*%
%ADD14C,0.01200*%
%ADD15C,0.00500*%
%ADD16C,0.00800*%
%ADD17C,0.01000*%
%ADD18R,0.02000X0.02000*%
%ADD19R,0.04000X0.40000*%
D10*
X0128633Y0297100D02*
X0131836Y0297100D01*
X0132904Y0298168D01*
X0132904Y0302438D01*
X0131836Y0303505D01*
X0128633Y0303505D01*
X0128633Y0297100D01*
X0135079Y0298168D02*
X0136146Y0297100D01*
X0138282Y0297100D01*
X0139349Y0299235D02*
X0135079Y0299235D01*
X0135079Y0298168D02*
X0135079Y0300303D01*
X0136146Y0301370D01*
X0138282Y0301370D01*
X0139349Y0300303D01*
X0139349Y0299235D01*
X0141524Y0300303D02*
X0142592Y0301370D01*
X0145795Y0301370D01*
X0147970Y0301370D02*
X0149037Y0301370D01*
X0149037Y0297100D01*
X0147970Y0297100D02*
X0150105Y0297100D01*
X0152267Y0298168D02*
X0153334Y0297100D01*
X0156537Y0297100D01*
X0156537Y0296032D02*
X0156537Y0301370D01*
X0153334Y0301370D01*
X0152267Y0300303D01*
X0152267Y0298168D01*
X0154402Y0294965D02*
X0155470Y0294965D01*
X0156537Y0296032D01*
X0158712Y0297100D02*
X0158712Y0301370D01*
X0161915Y0301370D01*
X0162983Y0300303D01*
X0162983Y0297100D01*
X0165158Y0298168D02*
X0165158Y0300303D01*
X0166225Y0301370D01*
X0168361Y0301370D01*
X0169428Y0300303D01*
X0169428Y0299235D01*
X0165158Y0299235D01*
X0165158Y0298168D02*
X0166225Y0297100D01*
X0168361Y0297100D01*
X0171603Y0298168D02*
X0171603Y0300303D01*
X0172671Y0301370D01*
X0175874Y0301370D01*
X0175874Y0303505D02*
X0175874Y0297100D01*
X0172671Y0297100D01*
X0171603Y0298168D01*
X0169560Y0307100D02*
X0171695Y0311370D01*
X0173870Y0310303D02*
X0174938Y0311370D01*
X0177073Y0311370D01*
X0178141Y0310303D01*
X0178141Y0309235D01*
X0173870Y0309235D01*
X0173870Y0308168D02*
X0173870Y0310303D01*
X0173870Y0308168D02*
X0174938Y0307100D01*
X0177073Y0307100D01*
X0180316Y0308168D02*
X0181383Y0307100D01*
X0184586Y0307100D01*
X0186761Y0308168D02*
X0187829Y0307100D01*
X0189964Y0307100D01*
X0191032Y0308168D01*
X0191032Y0310303D01*
X0189964Y0311370D01*
X0187829Y0311370D01*
X0186761Y0310303D01*
X0186761Y0308168D01*
X0184586Y0311370D02*
X0181383Y0311370D01*
X0180316Y0310303D01*
X0180316Y0308168D01*
X0184494Y0303505D02*
X0184494Y0297100D01*
X0187697Y0297100D01*
X0188765Y0298168D01*
X0188765Y0300303D01*
X0187697Y0301370D01*
X0184494Y0301370D01*
X0190940Y0301370D02*
X0190940Y0298168D01*
X0192007Y0297100D01*
X0195210Y0297100D01*
X0195210Y0296032D02*
X0194143Y0294965D01*
X0193075Y0294965D01*
X0195210Y0296032D02*
X0195210Y0301370D01*
X0197385Y0301370D02*
X0197385Y0300303D01*
X0198453Y0300303D01*
X0198453Y0301370D01*
X0197385Y0301370D01*
X0197385Y0298168D02*
X0197385Y0297100D01*
X0198453Y0297100D01*
X0198453Y0298168D01*
X0197385Y0298168D01*
X0197477Y0307100D02*
X0197477Y0310303D01*
X0196410Y0311370D01*
X0195342Y0310303D01*
X0195342Y0307100D01*
X0193207Y0307100D02*
X0193207Y0311370D01*
X0194274Y0311370D01*
X0195342Y0310303D01*
X0199652Y0311370D02*
X0199652Y0307100D01*
X0201787Y0307100D02*
X0201787Y0310303D01*
X0202855Y0311370D01*
X0203923Y0310303D01*
X0203923Y0307100D01*
X0206098Y0308168D02*
X0207165Y0307100D01*
X0209301Y0307100D01*
X0210368Y0308168D01*
X0210368Y0310303D01*
X0209301Y0311370D01*
X0207165Y0311370D01*
X0206098Y0310303D01*
X0206098Y0308168D01*
X0201787Y0310303D02*
X0200720Y0311370D01*
X0199652Y0311370D01*
X0200214Y0317100D02*
X0199147Y0318168D01*
X0199147Y0320303D01*
X0200214Y0321370D01*
X0202349Y0321370D01*
X0203417Y0320303D01*
X0203417Y0318168D01*
X0202349Y0317100D01*
X0200214Y0317100D01*
X0196972Y0317100D02*
X0196972Y0320303D01*
X0195904Y0321370D01*
X0194836Y0320303D01*
X0194836Y0317100D01*
X0192701Y0317100D02*
X0192701Y0321370D01*
X0193769Y0321370D01*
X0194836Y0320303D01*
X0190526Y0320303D02*
X0190526Y0317100D01*
X0188391Y0317100D02*
X0188391Y0320303D01*
X0189458Y0321370D01*
X0190526Y0320303D01*
X0188391Y0320303D02*
X0187323Y0321370D01*
X0186256Y0321370D01*
X0186256Y0317100D01*
X0184081Y0318168D02*
X0184081Y0320303D01*
X0183013Y0321370D01*
X0180878Y0321370D01*
X0179810Y0320303D01*
X0179810Y0318168D01*
X0180878Y0317100D01*
X0183013Y0317100D01*
X0184081Y0318168D01*
X0177635Y0318168D02*
X0176567Y0317100D01*
X0174432Y0317100D01*
X0173365Y0318168D01*
X0173365Y0322438D01*
X0174432Y0323505D01*
X0176567Y0323505D01*
X0177635Y0322438D01*
X0164744Y0320303D02*
X0164744Y0319235D01*
X0160474Y0319235D01*
X0160474Y0318168D02*
X0160474Y0320303D01*
X0161541Y0321370D01*
X0163676Y0321370D01*
X0164744Y0320303D01*
X0163676Y0317100D02*
X0161541Y0317100D01*
X0160474Y0318168D01*
X0158299Y0321370D02*
X0156163Y0317100D01*
X0154028Y0321370D01*
X0150799Y0321370D02*
X0150799Y0317100D01*
X0151866Y0317100D02*
X0149731Y0317100D01*
X0147569Y0317100D02*
X0146502Y0318168D01*
X0146502Y0322438D01*
X0147569Y0321370D02*
X0145434Y0321370D01*
X0143259Y0320303D02*
X0142191Y0321370D01*
X0140056Y0321370D01*
X0140056Y0319235D02*
X0143259Y0319235D01*
X0143259Y0320303D02*
X0143259Y0317100D01*
X0140056Y0317100D01*
X0138989Y0318168D01*
X0140056Y0319235D01*
X0136814Y0319235D02*
X0132543Y0319235D01*
X0132543Y0318168D02*
X0132543Y0320303D01*
X0133611Y0321370D01*
X0135746Y0321370D01*
X0136814Y0320303D01*
X0136814Y0319235D01*
X0135746Y0317100D02*
X0133611Y0317100D01*
X0132543Y0318168D01*
X0130375Y0321370D02*
X0129307Y0321370D01*
X0127172Y0319235D01*
X0127172Y0317100D02*
X0127172Y0321370D01*
X0124997Y0322438D02*
X0123929Y0323505D01*
X0121794Y0323505D01*
X0120727Y0322438D01*
X0120727Y0318168D01*
X0121794Y0317100D01*
X0123929Y0317100D01*
X0124997Y0318168D01*
X0125502Y0313505D02*
X0121232Y0307100D01*
X0119077Y0307100D02*
X0119077Y0308168D01*
X0118009Y0308168D01*
X0118009Y0307100D01*
X0119077Y0307100D01*
X0119077Y0310303D02*
X0118009Y0310303D01*
X0118009Y0311370D01*
X0119077Y0311370D01*
X0119077Y0310303D01*
X0115834Y0311370D02*
X0112631Y0311370D01*
X0111564Y0310303D01*
X0112631Y0309235D01*
X0114767Y0309235D01*
X0115834Y0308168D01*
X0114767Y0307100D01*
X0111564Y0307100D01*
X0109389Y0308168D02*
X0108321Y0307100D01*
X0105118Y0307100D01*
X0105118Y0304965D02*
X0105118Y0311370D01*
X0108321Y0311370D01*
X0109389Y0310303D01*
X0109389Y0308168D01*
X0102956Y0307100D02*
X0101889Y0308168D01*
X0101889Y0312438D01*
X0102956Y0311370D02*
X0100821Y0311370D01*
X0098659Y0311370D02*
X0096524Y0311370D01*
X0097592Y0312438D02*
X0097592Y0308168D01*
X0098659Y0307100D01*
X0094349Y0307100D02*
X0094349Y0310303D01*
X0093282Y0311370D01*
X0091146Y0311370D01*
X0090079Y0310303D01*
X0090079Y0313505D02*
X0090079Y0307100D01*
X0085276Y0317100D02*
X0085276Y0321370D01*
X0085276Y0319235D02*
X0087411Y0321370D01*
X0088479Y0321370D01*
X0083101Y0320303D02*
X0083101Y0319235D01*
X0078831Y0319235D01*
X0078831Y0318168D02*
X0078831Y0320303D01*
X0079898Y0321370D01*
X0082034Y0321370D01*
X0083101Y0320303D01*
X0082034Y0317100D02*
X0079898Y0317100D01*
X0078831Y0318168D01*
X0076656Y0317100D02*
X0073453Y0317100D01*
X0072385Y0318168D01*
X0072385Y0320303D01*
X0073453Y0321370D01*
X0076656Y0321370D01*
X0076656Y0323505D02*
X0076656Y0317100D01*
X0070210Y0317100D02*
X0070210Y0320303D01*
X0069143Y0321370D01*
X0065940Y0321370D01*
X0065940Y0317100D01*
X0063765Y0317100D02*
X0063765Y0321370D01*
X0059494Y0321370D02*
X0059494Y0318168D01*
X0060562Y0317100D01*
X0063765Y0317100D01*
X0050874Y0317100D02*
X0047671Y0317100D01*
X0046603Y0318168D01*
X0046603Y0320303D01*
X0047671Y0321370D01*
X0050874Y0321370D01*
X0050874Y0323505D02*
X0050874Y0317100D01*
X0044428Y0319235D02*
X0040158Y0319235D01*
X0040158Y0318168D02*
X0040158Y0320303D01*
X0041225Y0321370D01*
X0043361Y0321370D01*
X0044428Y0320303D01*
X0044428Y0319235D01*
X0043361Y0317100D02*
X0041225Y0317100D01*
X0040158Y0318168D01*
X0037983Y0318168D02*
X0036915Y0317100D01*
X0033712Y0317100D01*
X0031537Y0317100D02*
X0028334Y0317100D01*
X0027267Y0318168D01*
X0028334Y0319235D01*
X0031537Y0319235D01*
X0031537Y0320303D02*
X0031537Y0317100D01*
X0031537Y0320303D02*
X0030470Y0321370D01*
X0028334Y0321370D01*
X0025092Y0320303D02*
X0025092Y0319235D01*
X0020821Y0319235D01*
X0020821Y0318168D02*
X0020821Y0320303D01*
X0021889Y0321370D01*
X0024024Y0321370D01*
X0025092Y0320303D01*
X0024024Y0317100D02*
X0021889Y0317100D01*
X0020821Y0318168D01*
X0018659Y0317100D02*
X0016524Y0317100D01*
X0017592Y0317100D02*
X0017592Y0323505D01*
X0016524Y0323505D01*
X0014349Y0320303D02*
X0013282Y0321370D01*
X0011146Y0321370D01*
X0010079Y0320303D01*
X0010079Y0318168D01*
X0011146Y0317100D01*
X0013282Y0317100D01*
X0014349Y0319235D02*
X0010079Y0319235D01*
X0007904Y0320303D02*
X0007904Y0322438D01*
X0006836Y0323505D01*
X0003633Y0323505D01*
X0003633Y0317100D01*
X0003633Y0319235D02*
X0006836Y0319235D01*
X0007904Y0320303D01*
X0005768Y0319235D02*
X0007904Y0317100D01*
X0014349Y0319235D02*
X0014349Y0320303D01*
X0033712Y0320303D02*
X0034780Y0321370D01*
X0037983Y0321370D01*
X0036915Y0319235D02*
X0034780Y0319235D01*
X0033712Y0320303D01*
X0036915Y0319235D02*
X0037983Y0318168D01*
X0097093Y0321370D02*
X0099228Y0321370D01*
X0098161Y0322438D02*
X0098161Y0318168D01*
X0099228Y0317100D01*
X0101390Y0317100D02*
X0101390Y0323505D01*
X0102458Y0321370D02*
X0104593Y0321370D01*
X0105660Y0320303D01*
X0105660Y0317100D01*
X0107836Y0318168D02*
X0107836Y0320303D01*
X0108903Y0321370D01*
X0111038Y0321370D01*
X0112106Y0320303D01*
X0112106Y0319235D01*
X0107836Y0319235D01*
X0107836Y0318168D02*
X0108903Y0317100D01*
X0111038Y0317100D01*
X0102458Y0321370D02*
X0101390Y0320303D01*
X0127678Y0307100D02*
X0131948Y0313505D01*
X0134123Y0310303D02*
X0134123Y0308168D01*
X0135191Y0307100D01*
X0138393Y0307100D01*
X0140569Y0307100D02*
X0140569Y0311370D01*
X0140569Y0309235D02*
X0142704Y0311370D01*
X0143771Y0311370D01*
X0145940Y0310303D02*
X0147007Y0311370D01*
X0149143Y0311370D01*
X0150210Y0310303D01*
X0150210Y0309235D01*
X0145940Y0309235D01*
X0145940Y0308168D02*
X0145940Y0310303D01*
X0145940Y0308168D02*
X0147007Y0307100D01*
X0149143Y0307100D01*
X0149037Y0304573D02*
X0149037Y0303505D01*
X0153453Y0307100D02*
X0152385Y0308168D01*
X0153453Y0309235D01*
X0156656Y0309235D01*
X0156656Y0310303D02*
X0156656Y0307100D01*
X0153453Y0307100D01*
X0156656Y0310303D02*
X0155588Y0311370D01*
X0153453Y0311370D01*
X0158831Y0311370D02*
X0160966Y0311370D01*
X0159898Y0312438D02*
X0159898Y0308168D01*
X0160966Y0307100D01*
X0163128Y0307100D02*
X0165263Y0307100D01*
X0164195Y0307100D02*
X0164195Y0311370D01*
X0163128Y0311370D01*
X0164195Y0313505D02*
X0164195Y0314573D01*
X0167425Y0311370D02*
X0169560Y0307100D01*
X0150799Y0321370D02*
X0149731Y0321370D01*
X0150799Y0323505D02*
X0150799Y0324573D01*
X0138393Y0311370D02*
X0135191Y0311370D01*
X0134123Y0310303D01*
X0141524Y0300303D02*
X0142592Y0299235D01*
X0144727Y0299235D01*
X0145795Y0298168D01*
X0144727Y0297100D01*
X0141524Y0297100D01*
X0205592Y0317100D02*
X0205592Y0321370D01*
X0208795Y0321370D01*
X0209863Y0320303D01*
X0209863Y0317100D01*
X0212038Y0317100D02*
X0215240Y0317100D01*
X0216308Y0318168D01*
X0215240Y0319235D01*
X0213105Y0319235D01*
X0212038Y0320303D01*
X0213105Y0321370D01*
X0216308Y0321370D01*
X0224929Y0321370D02*
X0224929Y0317100D01*
X0224929Y0320303D02*
X0229199Y0320303D01*
X0229199Y0321370D02*
X0227064Y0323505D01*
X0224929Y0321370D01*
X0229199Y0321370D02*
X0229199Y0317100D01*
X0232442Y0318168D02*
X0233509Y0317100D01*
X0232442Y0318168D02*
X0232442Y0322438D01*
X0233509Y0321370D02*
X0231374Y0321370D01*
X0235671Y0321370D02*
X0237806Y0321370D01*
X0236739Y0322438D02*
X0236739Y0318168D01*
X0237806Y0317100D01*
X0239968Y0317100D02*
X0239968Y0321370D01*
X0239968Y0319235D02*
X0242103Y0321370D01*
X0243171Y0321370D01*
X0245339Y0321370D02*
X0246407Y0321370D01*
X0246407Y0317100D01*
X0245339Y0317100D02*
X0247475Y0317100D01*
X0249636Y0317100D02*
X0252839Y0317100D01*
X0253907Y0318168D01*
X0253907Y0320303D01*
X0252839Y0321370D01*
X0249636Y0321370D01*
X0249636Y0323505D02*
X0249636Y0317100D01*
X0251190Y0313505D02*
X0246919Y0307100D01*
X0244744Y0307100D02*
X0241541Y0307100D01*
X0240474Y0308168D01*
X0240474Y0310303D01*
X0241541Y0311370D01*
X0244744Y0311370D01*
X0244744Y0306032D01*
X0243676Y0304965D01*
X0242609Y0304965D01*
X0238305Y0311370D02*
X0237238Y0311370D01*
X0235103Y0309235D01*
X0235103Y0307100D02*
X0235103Y0311370D01*
X0232927Y0310303D02*
X0231860Y0311370D01*
X0229725Y0311370D01*
X0228657Y0310303D01*
X0228657Y0308168D01*
X0229725Y0307100D01*
X0231860Y0307100D01*
X0232927Y0308168D01*
X0232927Y0310303D01*
X0226502Y0308168D02*
X0226502Y0307100D01*
X0225434Y0307100D01*
X0225434Y0308168D01*
X0226502Y0308168D01*
X0223259Y0308168D02*
X0222191Y0307100D01*
X0218989Y0307100D01*
X0216814Y0307100D02*
X0216814Y0310303D01*
X0215746Y0311370D01*
X0212543Y0311370D01*
X0212543Y0307100D01*
X0218989Y0310303D02*
X0220056Y0311370D01*
X0223259Y0311370D01*
X0222191Y0309235D02*
X0220056Y0309235D01*
X0218989Y0310303D01*
X0222191Y0309235D02*
X0223259Y0308168D01*
X0246407Y0323505D02*
X0246407Y0324573D01*
X0256082Y0321370D02*
X0256082Y0318168D01*
X0257150Y0317100D01*
X0260352Y0317100D01*
X0260352Y0321370D01*
X0262527Y0321370D02*
X0264663Y0321370D01*
X0263595Y0322438D02*
X0263595Y0318168D01*
X0264663Y0317100D01*
X0266824Y0317100D02*
X0268960Y0317100D01*
X0267892Y0317100D02*
X0267892Y0321370D01*
X0266824Y0321370D01*
X0267892Y0323505D02*
X0267892Y0324573D01*
X0271121Y0320303D02*
X0272189Y0321370D01*
X0274324Y0321370D01*
X0275392Y0320303D01*
X0275392Y0318168D01*
X0274324Y0317100D01*
X0272189Y0317100D01*
X0271121Y0318168D01*
X0271121Y0320303D01*
X0277567Y0321370D02*
X0277567Y0317100D01*
X0281837Y0317100D02*
X0281837Y0320303D01*
X0280770Y0321370D01*
X0277567Y0321370D01*
X0278052Y0311370D02*
X0274850Y0311370D01*
X0274850Y0307100D01*
X0272675Y0309235D02*
X0268404Y0309235D01*
X0268404Y0308168D02*
X0268404Y0310303D01*
X0269472Y0311370D01*
X0271607Y0311370D01*
X0272675Y0310303D01*
X0272675Y0309235D01*
X0271607Y0307100D02*
X0269472Y0307100D01*
X0268404Y0308168D01*
X0266229Y0307100D02*
X0263026Y0307100D01*
X0261959Y0308168D01*
X0261959Y0310303D01*
X0263026Y0311370D01*
X0266229Y0311370D01*
X0258729Y0311370D02*
X0258729Y0307100D01*
X0257662Y0307100D02*
X0259797Y0307100D01*
X0255500Y0307100D02*
X0253365Y0307100D01*
X0254432Y0307100D02*
X0254432Y0313505D01*
X0253365Y0313505D01*
X0257662Y0311370D02*
X0258729Y0311370D01*
X0258729Y0313505D02*
X0258729Y0314573D01*
X0278052Y0311370D02*
X0279120Y0310303D01*
X0279120Y0307100D01*
X0281295Y0307100D02*
X0284498Y0307100D01*
X0285566Y0308168D01*
X0284498Y0309235D01*
X0282363Y0309235D01*
X0281295Y0310303D01*
X0282363Y0311370D01*
X0285566Y0311370D01*
X0287741Y0310303D02*
X0288808Y0311370D01*
X0290943Y0311370D01*
X0292011Y0310303D01*
X0292011Y0309235D01*
X0287741Y0309235D01*
X0287741Y0308168D02*
X0287741Y0310303D01*
X0287741Y0308168D02*
X0288808Y0307100D01*
X0290943Y0307100D01*
X0294186Y0307100D02*
X0297389Y0307100D01*
X0298457Y0308168D01*
X0297389Y0309235D01*
X0295254Y0309235D01*
X0294186Y0310303D01*
X0295254Y0311370D01*
X0298457Y0311370D01*
X0300632Y0307100D02*
X0304902Y0313505D01*
X0307077Y0313505D02*
X0307077Y0307100D01*
X0310280Y0307100D01*
X0311348Y0308168D01*
X0311348Y0310303D01*
X0310280Y0311370D01*
X0307077Y0311370D01*
X0307619Y0317100D02*
X0304417Y0317100D01*
X0303349Y0318168D01*
X0304417Y0319235D01*
X0307619Y0319235D01*
X0307619Y0320303D02*
X0307619Y0317100D01*
X0309794Y0317100D02*
X0309794Y0321370D01*
X0309794Y0319235D02*
X0311930Y0321370D01*
X0312997Y0321370D01*
X0315166Y0320303D02*
X0316233Y0321370D01*
X0318368Y0321370D01*
X0319436Y0320303D01*
X0319436Y0319235D01*
X0315166Y0319235D01*
X0315166Y0318168D02*
X0315166Y0320303D01*
X0315166Y0318168D02*
X0316233Y0317100D01*
X0318368Y0317100D01*
X0321611Y0320303D02*
X0325881Y0320303D01*
X0328057Y0320303D02*
X0332327Y0320303D01*
X0332327Y0321370D02*
X0330192Y0323505D01*
X0328057Y0321370D01*
X0328057Y0317100D01*
X0332327Y0317100D02*
X0332327Y0321370D01*
X0334502Y0323505D02*
X0335570Y0323505D01*
X0335570Y0317100D01*
X0336637Y0317100D02*
X0334502Y0317100D01*
X0338799Y0317100D02*
X0340934Y0317100D01*
X0339867Y0317100D02*
X0339867Y0321370D01*
X0338799Y0321370D01*
X0339867Y0323505D02*
X0339867Y0324573D01*
X0343096Y0323505D02*
X0343096Y0317100D01*
X0343096Y0319235D02*
X0346299Y0321370D01*
X0348467Y0320303D02*
X0349535Y0321370D01*
X0351670Y0321370D01*
X0352738Y0320303D01*
X0352738Y0319235D01*
X0348467Y0319235D01*
X0348467Y0318168D02*
X0348467Y0320303D01*
X0348467Y0318168D02*
X0349535Y0317100D01*
X0351670Y0317100D01*
X0348953Y0313505D02*
X0345750Y0310303D01*
X0350021Y0310303D01*
X0352196Y0308168D02*
X0353263Y0308168D01*
X0353263Y0307100D01*
X0352196Y0307100D01*
X0352196Y0308168D01*
X0355418Y0308168D02*
X0356486Y0307100D01*
X0358621Y0307100D01*
X0359689Y0308168D01*
X0359689Y0312438D01*
X0355418Y0308168D01*
X0355418Y0312438D01*
X0356486Y0313505D01*
X0358621Y0313505D01*
X0359689Y0312438D01*
X0364561Y0317100D02*
X0364561Y0323505D01*
X0361358Y0320303D01*
X0365629Y0320303D01*
X0367804Y0318168D02*
X0368871Y0318168D01*
X0368871Y0317100D01*
X0367804Y0317100D01*
X0367804Y0318168D01*
X0371027Y0318168D02*
X0372094Y0317100D01*
X0374229Y0317100D01*
X0375297Y0318168D01*
X0375297Y0322438D01*
X0371027Y0318168D01*
X0371027Y0322438D01*
X0372094Y0323505D01*
X0374229Y0323505D01*
X0375297Y0322438D01*
X0383918Y0323505D02*
X0383918Y0317100D01*
X0388188Y0317100D01*
X0390363Y0317100D02*
X0392498Y0317100D01*
X0391431Y0317100D02*
X0391431Y0321370D01*
X0390363Y0321370D01*
X0391431Y0323505D02*
X0391431Y0324573D01*
X0394660Y0320303D02*
X0395728Y0321370D01*
X0398930Y0321370D01*
X0401106Y0320303D02*
X0402173Y0321370D01*
X0404308Y0321370D01*
X0405376Y0320303D01*
X0405376Y0319235D01*
X0401106Y0319235D01*
X0401106Y0318168D02*
X0401106Y0320303D01*
X0401106Y0318168D02*
X0402173Y0317100D01*
X0404308Y0317100D01*
X0407551Y0317100D02*
X0407551Y0321370D01*
X0410754Y0321370D01*
X0411821Y0320303D01*
X0411821Y0317100D01*
X0413997Y0317100D02*
X0417199Y0317100D01*
X0418267Y0318168D01*
X0417199Y0319235D01*
X0415064Y0319235D01*
X0413997Y0320303D01*
X0415064Y0321370D01*
X0418267Y0321370D01*
X0420442Y0320303D02*
X0421510Y0321370D01*
X0423645Y0321370D01*
X0424712Y0320303D01*
X0424712Y0319235D01*
X0420442Y0319235D01*
X0420442Y0318168D02*
X0420442Y0320303D01*
X0420442Y0318168D02*
X0421510Y0317100D01*
X0423645Y0317100D01*
X0398930Y0317100D02*
X0395728Y0317100D01*
X0394660Y0318168D01*
X0394660Y0320303D01*
X0366134Y0313505D02*
X0361864Y0307100D01*
X0348953Y0307100D02*
X0348953Y0313505D01*
X0346299Y0317100D02*
X0343096Y0319235D01*
X0343575Y0313505D02*
X0339305Y0307100D01*
X0337130Y0307100D02*
X0333927Y0307100D01*
X0332859Y0308168D01*
X0333927Y0309235D01*
X0337130Y0309235D01*
X0337130Y0310303D02*
X0337130Y0307100D01*
X0337130Y0310303D02*
X0336062Y0311370D01*
X0333927Y0311370D01*
X0330684Y0311370D02*
X0327481Y0311370D01*
X0326414Y0310303D01*
X0327481Y0309235D01*
X0329616Y0309235D01*
X0330684Y0308168D01*
X0329616Y0307100D01*
X0326414Y0307100D01*
X0324239Y0310303D02*
X0319968Y0310303D01*
X0317793Y0311370D02*
X0317793Y0306032D01*
X0316725Y0304965D01*
X0315658Y0304965D01*
X0314590Y0307100D02*
X0317793Y0307100D01*
X0314590Y0307100D02*
X0313523Y0308168D01*
X0313523Y0311370D01*
X0307619Y0320303D02*
X0306552Y0321370D01*
X0304417Y0321370D01*
X0301174Y0320303D02*
X0301174Y0317100D01*
X0301174Y0320303D02*
X0300106Y0321370D01*
X0297971Y0321370D01*
X0296903Y0320303D01*
X0294728Y0319235D02*
X0294728Y0318168D01*
X0293661Y0317100D01*
X0291526Y0317100D01*
X0290458Y0318168D01*
X0291526Y0320303D02*
X0293661Y0320303D01*
X0294728Y0319235D01*
X0296903Y0317100D02*
X0296903Y0323505D01*
X0294728Y0322438D02*
X0293661Y0323505D01*
X0291526Y0323505D01*
X0290458Y0322438D01*
X0290458Y0321370D01*
X0291526Y0320303D01*
X0394697Y0166792D02*
X0394697Y0165958D01*
X0396365Y0164290D01*
X0398033Y0164290D02*
X0394697Y0164290D01*
X0395531Y0162469D02*
X0394697Y0161635D01*
X0394697Y0159967D01*
X0395531Y0159133D01*
X0397199Y0159133D01*
X0398033Y0159967D01*
X0398033Y0161635D01*
X0396365Y0162469D02*
X0396365Y0159133D01*
X0394697Y0157364D02*
X0394697Y0155696D01*
X0393863Y0156530D02*
X0397199Y0156530D01*
X0398033Y0157364D01*
X0396365Y0153875D02*
X0396365Y0150539D01*
X0395531Y0150539D02*
X0394697Y0151373D01*
X0394697Y0153041D01*
X0395531Y0153875D01*
X0396365Y0153875D01*
X0398033Y0153041D02*
X0398033Y0151373D01*
X0397199Y0150539D01*
X0395531Y0150539D01*
X0395531Y0148719D02*
X0394697Y0147885D01*
X0395531Y0147051D01*
X0398033Y0147051D01*
X0398033Y0148719D02*
X0395531Y0148719D01*
X0395531Y0147051D02*
X0394697Y0146217D01*
X0394697Y0145383D01*
X0398033Y0145383D01*
X0395531Y0143563D02*
X0395531Y0140226D01*
X0394697Y0138406D02*
X0398867Y0138406D01*
X0399701Y0137572D01*
X0399701Y0136738D01*
X0398033Y0135904D02*
X0398033Y0138406D01*
X0398033Y0135904D02*
X0397199Y0135070D01*
X0395531Y0135070D01*
X0394697Y0135904D01*
X0394697Y0138406D01*
X0395531Y0133250D02*
X0394697Y0132416D01*
X0394697Y0129914D01*
X0398033Y0129914D01*
X0398033Y0128144D02*
X0398033Y0126476D01*
X0398033Y0127310D02*
X0394697Y0127310D01*
X0394697Y0126476D01*
X0394697Y0124706D02*
X0394697Y0123038D01*
X0393863Y0123872D02*
X0397199Y0123872D01*
X0398033Y0124706D01*
X0398033Y0121269D02*
X0398033Y0119601D01*
X0398033Y0120435D02*
X0394697Y0120435D01*
X0394697Y0119601D01*
X0394697Y0117781D02*
X0394697Y0115278D01*
X0395531Y0114444D01*
X0396365Y0115278D01*
X0396365Y0116947D01*
X0397199Y0117781D01*
X0398033Y0116947D01*
X0398033Y0114444D01*
X0395531Y0112624D02*
X0395531Y0109288D01*
X0398033Y0107518D02*
X0398033Y0105850D01*
X0398033Y0106684D02*
X0393029Y0106684D01*
X0393029Y0105850D01*
X0393029Y0103247D02*
X0398033Y0103247D01*
X0398033Y0102413D02*
X0398033Y0104081D01*
X0396365Y0100593D02*
X0396365Y0097256D01*
X0395531Y0097256D02*
X0394697Y0098090D01*
X0394697Y0099759D01*
X0395531Y0100593D01*
X0396365Y0100593D01*
X0398033Y0099759D02*
X0398033Y0098090D01*
X0397199Y0097256D01*
X0395531Y0097256D01*
X0394697Y0095436D02*
X0397199Y0095436D01*
X0398033Y0094602D01*
X0397199Y0093768D01*
X0398033Y0092934D01*
X0397199Y0092100D01*
X0394697Y0092100D01*
X0393029Y0102413D02*
X0393029Y0103247D01*
X0393029Y0120435D02*
X0392195Y0120435D01*
X0392195Y0127310D02*
X0393029Y0127310D01*
X0395531Y0133250D02*
X0398033Y0133250D01*
X0396365Y0162469D02*
X0395531Y0162469D01*
D11*
X0050574Y0021250D02*
X0050090Y0021734D01*
X0050090Y0023669D01*
X0050574Y0024152D01*
X0051542Y0024152D01*
X0052025Y0023669D01*
X0052025Y0021734D01*
X0051542Y0021250D01*
X0050574Y0021250D01*
X0051058Y0022217D02*
X0052025Y0021250D01*
X0053037Y0021250D02*
X0054972Y0023185D01*
X0054972Y0023669D01*
X0054488Y0024152D01*
X0053521Y0024152D01*
X0053037Y0023669D01*
X0053037Y0021250D02*
X0054972Y0021250D01*
X0074090Y0037250D02*
X0075542Y0037250D01*
X0076025Y0037734D01*
X0076025Y0039669D01*
X0075542Y0040152D01*
X0074090Y0040152D01*
X0074090Y0037250D01*
X0077037Y0037250D02*
X0078972Y0039185D01*
X0078972Y0039669D01*
X0078488Y0040152D01*
X0077521Y0040152D01*
X0077037Y0039669D01*
X0077037Y0037250D02*
X0078972Y0037250D01*
X0079042Y0057750D02*
X0079525Y0058234D01*
X0079525Y0060652D01*
X0080537Y0059201D02*
X0082472Y0059201D01*
X0081988Y0057750D02*
X0081988Y0060652D01*
X0080537Y0059201D01*
X0079042Y0057750D02*
X0078074Y0057750D01*
X0077590Y0058234D01*
X0077590Y0060652D01*
X0047883Y0091110D02*
X0047883Y0093045D01*
X0047883Y0092078D02*
X0044981Y0092078D01*
X0045948Y0091110D01*
X0045465Y0094057D02*
X0044981Y0094541D01*
X0044981Y0095508D01*
X0045465Y0095992D01*
X0047400Y0094057D01*
X0047883Y0094541D01*
X0047883Y0095508D01*
X0047400Y0095992D01*
X0045465Y0095992D01*
X0044981Y0097003D02*
X0047883Y0097003D01*
X0046916Y0097003D02*
X0044981Y0098938D01*
X0046432Y0097487D02*
X0047883Y0098938D01*
X0047400Y0094057D02*
X0045465Y0094057D01*
X0039883Y0097557D02*
X0036981Y0097557D01*
X0036981Y0099008D01*
X0037465Y0099492D01*
X0038432Y0099492D01*
X0038916Y0099008D01*
X0038916Y0097557D01*
X0038916Y0098524D02*
X0039883Y0099492D01*
X0038432Y0100503D02*
X0038432Y0102438D01*
X0036981Y0101955D02*
X0038432Y0100503D01*
X0039883Y0101955D02*
X0036981Y0101955D01*
X0074644Y0123750D02*
X0076579Y0123750D01*
X0077590Y0124234D02*
X0077590Y0126169D01*
X0078074Y0126652D01*
X0079042Y0126652D01*
X0079525Y0126169D01*
X0080537Y0126169D02*
X0081021Y0126652D01*
X0081988Y0126652D01*
X0082472Y0126169D01*
X0082472Y0125685D01*
X0080537Y0123750D01*
X0082472Y0123750D01*
X0079525Y0124234D02*
X0079042Y0123750D01*
X0078074Y0123750D01*
X0077590Y0124234D01*
X0075611Y0125201D02*
X0074644Y0125201D01*
X0074644Y0126652D02*
X0074644Y0123750D01*
X0074644Y0126652D02*
X0076579Y0126652D01*
X0077025Y0146250D02*
X0076058Y0147217D01*
X0076542Y0147217D02*
X0075090Y0147217D01*
X0075090Y0146250D02*
X0075090Y0149152D01*
X0076542Y0149152D01*
X0077025Y0148669D01*
X0077025Y0147701D01*
X0076542Y0147217D01*
X0078037Y0146734D02*
X0078521Y0146250D01*
X0079488Y0146250D01*
X0079972Y0146734D01*
X0079972Y0147217D01*
X0079488Y0147701D01*
X0078037Y0147701D01*
X0078037Y0146734D01*
X0078037Y0147701D02*
X0079004Y0148669D01*
X0079972Y0149152D01*
X0076472Y0155250D02*
X0075021Y0156701D01*
X0074537Y0156217D02*
X0076472Y0158152D01*
X0074537Y0158152D02*
X0074537Y0155250D01*
X0073525Y0155734D02*
X0073042Y0155250D01*
X0072074Y0155250D01*
X0071590Y0155734D01*
X0073525Y0157669D01*
X0073525Y0155734D01*
X0071590Y0155734D02*
X0071590Y0157669D01*
X0072074Y0158152D01*
X0073042Y0158152D01*
X0073525Y0157669D01*
X0070579Y0157669D02*
X0070579Y0155734D01*
X0070095Y0155250D01*
X0069128Y0155250D01*
X0068644Y0155734D01*
X0070579Y0157669D01*
X0070095Y0158152D01*
X0069128Y0158152D01*
X0068644Y0157669D01*
X0068644Y0155734D01*
X0067632Y0155250D02*
X0065697Y0155250D01*
X0066665Y0155250D02*
X0066665Y0158152D01*
X0065697Y0157185D01*
X0082590Y0163234D02*
X0083074Y0162750D01*
X0084042Y0162750D01*
X0084525Y0163234D01*
X0084525Y0165652D01*
X0085537Y0164201D02*
X0086988Y0164201D01*
X0087472Y0163717D01*
X0087472Y0163234D01*
X0086988Y0162750D01*
X0086021Y0162750D01*
X0085537Y0163234D01*
X0085537Y0164201D01*
X0086504Y0165169D01*
X0087472Y0165652D01*
X0082590Y0165652D02*
X0082590Y0163234D01*
X0119224Y0157669D02*
X0119708Y0158152D01*
X0120675Y0158152D01*
X0121159Y0157669D01*
X0121159Y0157185D01*
X0119224Y0155250D01*
X0121159Y0155250D01*
X0122171Y0155250D02*
X0122654Y0155250D01*
X0122654Y0155734D01*
X0122171Y0155734D01*
X0122171Y0155250D01*
X0123644Y0155734D02*
X0125579Y0157669D01*
X0125579Y0155734D01*
X0125095Y0155250D01*
X0124128Y0155250D01*
X0123644Y0155734D01*
X0123644Y0157669D01*
X0124128Y0158152D01*
X0125095Y0158152D01*
X0125579Y0157669D01*
X0126590Y0158152D02*
X0126590Y0156701D01*
X0127558Y0157185D01*
X0128042Y0157185D01*
X0128525Y0156701D01*
X0128525Y0155734D01*
X0128042Y0155250D01*
X0127074Y0155250D01*
X0126590Y0155734D01*
X0126590Y0158152D02*
X0128525Y0158152D01*
X0129537Y0158152D02*
X0129537Y0155250D01*
X0129537Y0156217D02*
X0131472Y0158152D01*
X0130021Y0156701D02*
X0131472Y0155250D01*
X0131542Y0149152D02*
X0132025Y0148669D01*
X0132025Y0147701D01*
X0131542Y0147217D01*
X0130090Y0147217D01*
X0130090Y0146250D02*
X0130090Y0149152D01*
X0131542Y0149152D01*
X0133037Y0149152D02*
X0133037Y0147701D01*
X0134004Y0148185D01*
X0134488Y0148185D01*
X0134972Y0147701D01*
X0134972Y0146734D01*
X0134488Y0146250D01*
X0133521Y0146250D01*
X0133037Y0146734D01*
X0132025Y0146250D02*
X0131058Y0147217D01*
X0133037Y0149152D02*
X0134972Y0149152D01*
X0138074Y0162750D02*
X0139042Y0162750D01*
X0139525Y0163234D01*
X0139525Y0165652D01*
X0140537Y0165652D02*
X0140537Y0164201D01*
X0141504Y0164685D01*
X0141988Y0164685D01*
X0142472Y0164201D01*
X0142472Y0163234D01*
X0141988Y0162750D01*
X0141021Y0162750D01*
X0140537Y0163234D01*
X0140537Y0165652D02*
X0142472Y0165652D01*
X0137590Y0165652D02*
X0137590Y0163234D01*
X0138074Y0162750D01*
X0160481Y0164060D02*
X0161448Y0163093D01*
X0160481Y0164060D02*
X0163383Y0164060D01*
X0163383Y0163093D02*
X0163383Y0165028D01*
X0162900Y0166039D02*
X0163383Y0166523D01*
X0163383Y0167974D01*
X0161448Y0167974D01*
X0161932Y0168986D02*
X0161932Y0169953D01*
X0160965Y0169469D02*
X0160481Y0169953D01*
X0160965Y0169469D02*
X0163383Y0169469D01*
X0162900Y0166039D02*
X0161448Y0166039D01*
X0162900Y0162103D02*
X0163383Y0162103D01*
X0163383Y0161619D01*
X0162900Y0161619D01*
X0162900Y0162103D01*
X0162900Y0160608D02*
X0163383Y0160124D01*
X0163383Y0159157D01*
X0162900Y0158673D01*
X0160965Y0160608D01*
X0162900Y0160608D01*
X0162900Y0158673D02*
X0160965Y0158673D01*
X0160481Y0159157D01*
X0160481Y0160124D01*
X0160965Y0160608D01*
X0173481Y0161594D02*
X0173965Y0161110D01*
X0175900Y0161110D01*
X0176383Y0161594D01*
X0176383Y0162562D01*
X0175900Y0163045D01*
X0176383Y0164057D02*
X0176383Y0165992D01*
X0176383Y0165024D02*
X0173481Y0165024D01*
X0174448Y0164057D01*
X0173965Y0163045D02*
X0173481Y0162562D01*
X0173481Y0161594D01*
X0180481Y0160124D02*
X0180965Y0160608D01*
X0182900Y0158673D01*
X0183383Y0159157D01*
X0183383Y0160124D01*
X0182900Y0160608D01*
X0180965Y0160608D01*
X0180481Y0160124D02*
X0180481Y0159157D01*
X0180965Y0158673D01*
X0182900Y0158673D01*
X0182900Y0161619D02*
X0182900Y0162103D01*
X0183383Y0162103D01*
X0183383Y0161619D01*
X0182900Y0161619D01*
X0183383Y0163093D02*
X0183383Y0165028D01*
X0183383Y0164060D02*
X0180481Y0164060D01*
X0181448Y0163093D01*
X0181448Y0166039D02*
X0182900Y0166039D01*
X0183383Y0166523D01*
X0183383Y0167974D01*
X0181448Y0167974D01*
X0181932Y0168986D02*
X0181932Y0169953D01*
X0180965Y0169469D02*
X0180481Y0169953D01*
X0180965Y0169469D02*
X0183383Y0169469D01*
X0176383Y0168455D02*
X0176383Y0167487D01*
X0175900Y0167003D01*
X0173965Y0168938D01*
X0175900Y0168938D01*
X0176383Y0168455D01*
X0175900Y0167003D02*
X0173965Y0167003D01*
X0173481Y0167487D01*
X0173481Y0168455D01*
X0173965Y0168938D01*
X0193481Y0168455D02*
X0193481Y0167487D01*
X0193965Y0167003D01*
X0194448Y0167003D01*
X0194932Y0167487D01*
X0194932Y0168938D01*
X0193965Y0168938D02*
X0193481Y0168455D01*
X0193965Y0168938D02*
X0195900Y0168938D01*
X0196383Y0168455D01*
X0196383Y0167487D01*
X0195900Y0167003D01*
X0195900Y0165992D02*
X0196383Y0165508D01*
X0196383Y0164541D01*
X0195900Y0164057D01*
X0193965Y0164057D01*
X0193481Y0164541D01*
X0193481Y0165508D01*
X0193965Y0165992D01*
X0189400Y0202691D02*
X0189883Y0203174D01*
X0189883Y0204142D01*
X0189400Y0204626D01*
X0188916Y0204626D01*
X0188432Y0204142D01*
X0188432Y0203658D01*
X0188432Y0204142D02*
X0187948Y0204626D01*
X0187465Y0204626D01*
X0186981Y0204142D01*
X0186981Y0203174D01*
X0187465Y0202691D01*
X0187948Y0205637D02*
X0186981Y0206605D01*
X0189883Y0206605D01*
X0189883Y0207572D02*
X0189883Y0205637D01*
X0189883Y0208584D02*
X0189883Y0209067D01*
X0189400Y0209067D01*
X0189400Y0208584D01*
X0189883Y0208584D01*
X0189400Y0210057D02*
X0188432Y0210057D01*
X0188432Y0211508D01*
X0188916Y0211992D01*
X0189400Y0211992D01*
X0189883Y0211508D01*
X0189883Y0210541D01*
X0189400Y0210057D01*
X0188432Y0210057D02*
X0187465Y0211024D01*
X0186981Y0211992D01*
X0186981Y0213003D02*
X0189883Y0213003D01*
X0188916Y0213003D02*
X0186981Y0214938D01*
X0188432Y0213487D02*
X0189883Y0214938D01*
X0181883Y0214524D02*
X0178981Y0214524D01*
X0179948Y0213557D01*
X0179465Y0212545D02*
X0180432Y0212545D01*
X0180916Y0212062D01*
X0180916Y0210610D01*
X0181883Y0210610D02*
X0178981Y0210610D01*
X0178981Y0212062D01*
X0179465Y0212545D01*
X0180916Y0211578D02*
X0181883Y0212545D01*
X0181883Y0213557D02*
X0181883Y0215492D01*
X0181400Y0216503D02*
X0179465Y0218438D01*
X0181400Y0218438D01*
X0181883Y0217955D01*
X0181883Y0216987D01*
X0181400Y0216503D01*
X0179465Y0216503D01*
X0178981Y0216987D01*
X0178981Y0217955D01*
X0179465Y0218438D01*
X0169883Y0214938D02*
X0168432Y0213487D01*
X0168916Y0213003D02*
X0166981Y0214938D01*
X0166981Y0213003D02*
X0169883Y0213003D01*
X0169400Y0211992D02*
X0168916Y0211992D01*
X0168432Y0211508D01*
X0168432Y0210057D01*
X0169400Y0210057D01*
X0169883Y0210541D01*
X0169883Y0211508D01*
X0169400Y0211992D01*
X0167465Y0211024D02*
X0168432Y0210057D01*
X0167465Y0211024D02*
X0166981Y0211992D01*
X0169400Y0209067D02*
X0169883Y0209067D01*
X0169883Y0208584D01*
X0169400Y0208584D01*
X0169400Y0209067D01*
X0169883Y0207572D02*
X0169883Y0205637D01*
X0169883Y0206605D02*
X0166981Y0206605D01*
X0167948Y0205637D01*
X0167948Y0204626D02*
X0168432Y0204142D01*
X0168916Y0204626D01*
X0169400Y0204626D01*
X0169883Y0204142D01*
X0169883Y0203174D01*
X0169400Y0202691D01*
X0168432Y0203658D02*
X0168432Y0204142D01*
X0167948Y0204626D02*
X0167465Y0204626D01*
X0166981Y0204142D01*
X0166981Y0203174D01*
X0167465Y0202691D01*
X0161883Y0210610D02*
X0158981Y0210610D01*
X0158981Y0212062D01*
X0159465Y0212545D01*
X0160432Y0212545D01*
X0160916Y0212062D01*
X0160916Y0210610D01*
X0160916Y0211578D02*
X0161883Y0212545D01*
X0161883Y0213557D02*
X0161883Y0215492D01*
X0161883Y0214524D02*
X0158981Y0214524D01*
X0159948Y0213557D01*
X0159948Y0216503D02*
X0158981Y0217471D01*
X0161883Y0217471D01*
X0161883Y0218438D02*
X0161883Y0216503D01*
X0142472Y0211169D02*
X0142472Y0210685D01*
X0141988Y0210201D01*
X0142472Y0209717D01*
X0142472Y0209234D01*
X0141988Y0208750D01*
X0141021Y0208750D01*
X0140537Y0209234D01*
X0139525Y0208750D02*
X0137590Y0208750D01*
X0139525Y0210685D01*
X0139525Y0211169D01*
X0139042Y0211652D01*
X0138074Y0211652D01*
X0137590Y0211169D01*
X0136579Y0211652D02*
X0135611Y0211169D01*
X0134644Y0210201D01*
X0136095Y0210201D01*
X0136579Y0209717D01*
X0136579Y0209234D01*
X0136095Y0208750D01*
X0135128Y0208750D01*
X0134644Y0209234D01*
X0134644Y0210201D01*
X0133632Y0209234D02*
X0133632Y0211169D01*
X0133148Y0211652D01*
X0131697Y0211652D01*
X0131697Y0208750D01*
X0133148Y0208750D01*
X0133632Y0209234D01*
X0130686Y0208750D02*
X0130686Y0210685D01*
X0129718Y0211652D01*
X0128751Y0210685D01*
X0128751Y0208750D01*
X0128751Y0210201D02*
X0130686Y0210201D01*
X0140537Y0211169D02*
X0141021Y0211652D01*
X0141988Y0211652D01*
X0142472Y0211169D01*
X0141988Y0210201D02*
X0141504Y0210201D01*
X0122311Y0225450D02*
X0120860Y0226901D01*
X0120376Y0226417D02*
X0122311Y0228352D01*
X0120376Y0228352D02*
X0120376Y0225450D01*
X0119365Y0225934D02*
X0118881Y0225450D01*
X0117914Y0225450D01*
X0117430Y0225934D01*
X0119365Y0227869D01*
X0119365Y0225934D01*
X0119365Y0227869D02*
X0118881Y0228352D01*
X0117914Y0228352D01*
X0117430Y0227869D01*
X0117430Y0225934D01*
X0116418Y0225450D02*
X0114483Y0225450D01*
X0115451Y0225450D02*
X0115451Y0228352D01*
X0114483Y0227385D01*
X0113930Y0234450D02*
X0115865Y0236385D01*
X0115865Y0236869D01*
X0115381Y0237352D01*
X0114414Y0237352D01*
X0113930Y0236869D01*
X0112918Y0236869D02*
X0112918Y0235901D01*
X0112435Y0235417D01*
X0110983Y0235417D01*
X0110983Y0234450D02*
X0110983Y0237352D01*
X0112435Y0237352D01*
X0112918Y0236869D01*
X0111951Y0235417D02*
X0112918Y0234450D01*
X0113930Y0234450D02*
X0115865Y0234450D01*
X0087472Y0211169D02*
X0087472Y0210685D01*
X0086988Y0210201D01*
X0087472Y0209717D01*
X0087472Y0209234D01*
X0086988Y0208750D01*
X0086021Y0208750D01*
X0085537Y0209234D01*
X0084525Y0208750D02*
X0082590Y0208750D01*
X0084525Y0210685D01*
X0084525Y0211169D01*
X0084042Y0211652D01*
X0083074Y0211652D01*
X0082590Y0211169D01*
X0081579Y0211652D02*
X0080611Y0211169D01*
X0079644Y0210201D01*
X0081095Y0210201D01*
X0081579Y0209717D01*
X0081579Y0209234D01*
X0081095Y0208750D01*
X0080128Y0208750D01*
X0079644Y0209234D01*
X0079644Y0210201D01*
X0078632Y0209234D02*
X0078632Y0211169D01*
X0078148Y0211652D01*
X0076697Y0211652D01*
X0076697Y0208750D01*
X0078148Y0208750D01*
X0078632Y0209234D01*
X0075686Y0208750D02*
X0075686Y0210685D01*
X0074718Y0211652D01*
X0073751Y0210685D01*
X0073751Y0208750D01*
X0073751Y0210201D02*
X0075686Y0210201D01*
X0085537Y0211169D02*
X0086021Y0211652D01*
X0086988Y0211652D01*
X0087472Y0211169D01*
X0086988Y0210201D02*
X0086504Y0210201D01*
X0067311Y0225450D02*
X0065860Y0226901D01*
X0065376Y0226417D02*
X0067311Y0228352D01*
X0065376Y0228352D02*
X0065376Y0225450D01*
X0064365Y0225934D02*
X0063881Y0225450D01*
X0062914Y0225450D01*
X0062430Y0225934D01*
X0064365Y0227869D01*
X0064365Y0225934D01*
X0064365Y0227869D02*
X0063881Y0228352D01*
X0062914Y0228352D01*
X0062430Y0227869D01*
X0062430Y0225934D01*
X0061418Y0225450D02*
X0059483Y0225450D01*
X0060451Y0225450D02*
X0060451Y0228352D01*
X0059483Y0227385D01*
X0059897Y0234450D02*
X0059897Y0237352D01*
X0058930Y0236385D01*
X0057918Y0236869D02*
X0057918Y0235901D01*
X0057435Y0235417D01*
X0055983Y0235417D01*
X0055983Y0234450D02*
X0055983Y0237352D01*
X0057435Y0237352D01*
X0057918Y0236869D01*
X0056951Y0235417D02*
X0057918Y0234450D01*
X0058930Y0234450D02*
X0060865Y0234450D01*
X0129644Y0126652D02*
X0129644Y0123750D01*
X0131579Y0123750D01*
X0132590Y0124234D02*
X0133074Y0123750D01*
X0134042Y0123750D01*
X0134525Y0124234D01*
X0135537Y0123750D02*
X0137472Y0125685D01*
X0137472Y0126169D01*
X0136988Y0126652D01*
X0136021Y0126652D01*
X0135537Y0126169D01*
X0134525Y0126169D02*
X0134042Y0126652D01*
X0133074Y0126652D01*
X0132590Y0126169D01*
X0132590Y0124234D01*
X0130611Y0125201D02*
X0129644Y0125201D01*
X0129644Y0126652D02*
X0131579Y0126652D01*
X0135537Y0123750D02*
X0137472Y0123750D01*
X0166781Y0109187D02*
X0167265Y0109671D01*
X0169200Y0107736D01*
X0169683Y0108220D01*
X0169683Y0109187D01*
X0169200Y0109671D01*
X0167265Y0109671D01*
X0166781Y0109187D02*
X0166781Y0108220D01*
X0167265Y0107736D01*
X0169200Y0107736D01*
X0169200Y0106725D02*
X0169683Y0106241D01*
X0169683Y0105273D01*
X0169200Y0104790D01*
X0168232Y0104790D02*
X0167748Y0105757D01*
X0167748Y0106241D01*
X0168232Y0106725D01*
X0169200Y0106725D01*
X0168232Y0104790D02*
X0166781Y0104790D01*
X0166781Y0106725D01*
X0167265Y0103778D02*
X0169200Y0101843D01*
X0169683Y0102327D01*
X0169683Y0103294D01*
X0169200Y0103778D01*
X0167265Y0103778D01*
X0166781Y0103294D01*
X0166781Y0102327D01*
X0167265Y0101843D01*
X0169200Y0101843D01*
X0169683Y0100831D02*
X0168716Y0099864D01*
X0168716Y0100348D02*
X0168716Y0098897D01*
X0169683Y0098897D02*
X0166781Y0098897D01*
X0166781Y0100348D01*
X0167265Y0100831D01*
X0168232Y0100831D01*
X0168716Y0100348D01*
X0169200Y0097885D02*
X0167265Y0097885D01*
X0169200Y0095950D01*
X0169683Y0096434D01*
X0169683Y0097401D01*
X0169200Y0097885D01*
X0169200Y0095950D02*
X0167265Y0095950D01*
X0166781Y0096434D01*
X0166781Y0097401D01*
X0167265Y0097885D01*
X0155683Y0092397D02*
X0155200Y0092397D01*
X0153265Y0094331D01*
X0152781Y0094331D01*
X0152781Y0092397D01*
X0153265Y0091385D02*
X0154232Y0091385D01*
X0154716Y0090901D01*
X0154716Y0089450D01*
X0155683Y0089450D02*
X0152781Y0089450D01*
X0152781Y0090901D01*
X0153265Y0091385D01*
X0154716Y0090417D02*
X0155683Y0091385D01*
X0190983Y0094852D02*
X0192918Y0094852D01*
X0191951Y0094852D02*
X0191951Y0091950D01*
X0193930Y0091950D02*
X0193930Y0094852D01*
X0194897Y0093885D01*
X0195865Y0094852D01*
X0195865Y0091950D01*
X0196876Y0091950D02*
X0198811Y0091950D01*
X0197844Y0091950D02*
X0197844Y0094852D01*
X0196876Y0093885D01*
X0199483Y0105450D02*
X0201418Y0105450D01*
X0200451Y0105450D02*
X0200451Y0108352D01*
X0199483Y0107385D01*
X0202430Y0107869D02*
X0202914Y0108352D01*
X0203881Y0108352D01*
X0204365Y0107869D01*
X0202430Y0105934D01*
X0202914Y0105450D01*
X0203881Y0105450D01*
X0204365Y0105934D01*
X0204365Y0107869D01*
X0205376Y0108352D02*
X0205376Y0105450D01*
X0205376Y0106417D02*
X0207311Y0108352D01*
X0205860Y0106901D02*
X0207311Y0105450D01*
X0202430Y0105934D02*
X0202430Y0107869D01*
X0200381Y0114450D02*
X0199414Y0114450D01*
X0198930Y0114934D01*
X0198930Y0115417D01*
X0199414Y0115901D01*
X0200381Y0115901D01*
X0200865Y0115417D01*
X0200865Y0114934D01*
X0200381Y0114450D01*
X0200381Y0115901D02*
X0200865Y0116385D01*
X0200865Y0116869D01*
X0200381Y0117352D01*
X0199414Y0117352D01*
X0198930Y0116869D01*
X0198930Y0116385D01*
X0199414Y0115901D01*
X0197918Y0115901D02*
X0197435Y0115417D01*
X0195983Y0115417D01*
X0195983Y0114450D02*
X0195983Y0117352D01*
X0197435Y0117352D01*
X0197918Y0116869D01*
X0197918Y0115901D01*
X0196951Y0115417D02*
X0197918Y0114450D01*
X0245281Y0113348D02*
X0245281Y0112380D01*
X0245765Y0111897D01*
X0245765Y0110885D02*
X0245281Y0110401D01*
X0245281Y0109434D01*
X0245765Y0108950D01*
X0247700Y0108950D01*
X0248183Y0109434D01*
X0248183Y0110401D01*
X0247700Y0110885D01*
X0248183Y0111897D02*
X0246248Y0113831D01*
X0245765Y0113831D01*
X0245281Y0113348D01*
X0248183Y0113831D02*
X0248183Y0111897D01*
X0258281Y0113337D02*
X0261183Y0113337D01*
X0261183Y0112370D02*
X0261183Y0114305D01*
X0260700Y0115316D02*
X0261183Y0115800D01*
X0261183Y0117251D01*
X0259248Y0117251D01*
X0259732Y0118263D02*
X0259732Y0119230D01*
X0258765Y0118747D02*
X0258281Y0119230D01*
X0258765Y0118747D02*
X0261183Y0118747D01*
X0260700Y0115316D02*
X0259248Y0115316D01*
X0258281Y0113337D02*
X0259248Y0112370D01*
X0260700Y0111380D02*
X0261183Y0111380D01*
X0261183Y0110897D01*
X0260700Y0110897D01*
X0260700Y0111380D01*
X0260700Y0109885D02*
X0261183Y0109401D01*
X0261183Y0108434D01*
X0260700Y0107950D01*
X0258765Y0109885D01*
X0260700Y0109885D01*
X0260700Y0107950D02*
X0258765Y0107950D01*
X0258281Y0108434D01*
X0258281Y0109401D01*
X0258765Y0109885D01*
X0265481Y0113685D02*
X0268383Y0113685D01*
X0268383Y0114652D02*
X0268383Y0112717D01*
X0266448Y0112717D02*
X0265481Y0113685D01*
X0265965Y0115664D02*
X0265481Y0116148D01*
X0265481Y0117115D01*
X0265965Y0117599D01*
X0267900Y0115664D01*
X0268383Y0116148D01*
X0268383Y0117115D01*
X0267900Y0117599D01*
X0265965Y0117599D01*
X0265965Y0118610D02*
X0265481Y0119094D01*
X0265481Y0120062D01*
X0265965Y0120545D01*
X0267900Y0118610D01*
X0268383Y0119094D01*
X0268383Y0120062D01*
X0267900Y0120545D01*
X0265965Y0120545D01*
X0266448Y0121557D02*
X0267900Y0121557D01*
X0268383Y0122041D01*
X0268383Y0123492D01*
X0266448Y0123492D01*
X0266932Y0124503D02*
X0266932Y0125471D01*
X0265481Y0126438D02*
X0265481Y0124503D01*
X0268383Y0124503D01*
X0267900Y0118610D02*
X0265965Y0118610D01*
X0265965Y0115664D02*
X0267900Y0115664D01*
X0289981Y0112971D02*
X0292883Y0112971D01*
X0292883Y0113938D02*
X0292883Y0112003D01*
X0292400Y0110992D02*
X0292883Y0110508D01*
X0292883Y0109541D01*
X0292400Y0109057D01*
X0290465Y0109057D01*
X0289981Y0109541D01*
X0289981Y0110508D01*
X0290465Y0110992D01*
X0290948Y0112003D02*
X0289981Y0112971D01*
X0299883Y0091938D02*
X0299883Y0090003D01*
X0299883Y0090971D02*
X0296981Y0090971D01*
X0297948Y0090003D01*
X0296981Y0088992D02*
X0296981Y0087057D01*
X0296981Y0088024D02*
X0299883Y0088024D01*
X0308481Y0085938D02*
X0311383Y0085938D01*
X0309932Y0085938D02*
X0309932Y0084003D01*
X0309448Y0082992D02*
X0311383Y0082992D01*
X0311383Y0081541D01*
X0310900Y0081057D01*
X0309448Y0081057D01*
X0308965Y0080045D02*
X0310900Y0078110D01*
X0311383Y0078110D01*
X0311383Y0076615D02*
X0308481Y0076615D01*
X0309932Y0075164D01*
X0309932Y0077099D01*
X0308481Y0078110D02*
X0308481Y0080045D01*
X0308965Y0080045D01*
X0308481Y0084003D02*
X0311383Y0084003D01*
X0328481Y0084003D02*
X0331383Y0084003D01*
X0331383Y0082992D02*
X0329448Y0082992D01*
X0329932Y0084003D02*
X0329932Y0085938D01*
X0328481Y0085938D02*
X0331383Y0085938D01*
X0331383Y0082992D02*
X0331383Y0081541D01*
X0330900Y0081057D01*
X0329448Y0081057D01*
X0329448Y0080045D02*
X0328965Y0080045D01*
X0328481Y0079562D01*
X0328481Y0078594D01*
X0328965Y0078110D01*
X0328965Y0077099D02*
X0328481Y0076615D01*
X0328481Y0075648D01*
X0328965Y0075164D01*
X0328965Y0077099D02*
X0329448Y0077099D01*
X0331383Y0075164D01*
X0331383Y0077099D01*
X0331383Y0078110D02*
X0329448Y0080045D01*
X0331383Y0080045D02*
X0331383Y0078110D01*
X0363481Y0081057D02*
X0366383Y0081057D01*
X0366383Y0082992D01*
X0366383Y0084003D02*
X0366383Y0085938D01*
X0366383Y0084971D02*
X0363481Y0084971D01*
X0364448Y0084003D01*
X0383481Y0084487D02*
X0383965Y0084003D01*
X0383481Y0084487D02*
X0383481Y0085455D01*
X0383965Y0085938D01*
X0384448Y0085938D01*
X0386383Y0084003D01*
X0386383Y0085938D01*
X0386383Y0082992D02*
X0386383Y0081057D01*
X0383481Y0081057D01*
X0386732Y0105950D02*
X0386248Y0106434D01*
X0386248Y0107885D01*
X0385281Y0107885D02*
X0388183Y0107885D01*
X0388183Y0106434D01*
X0387700Y0105950D01*
X0386732Y0105950D01*
X0387700Y0108897D02*
X0387216Y0109380D01*
X0387216Y0110831D01*
X0386732Y0110831D02*
X0388183Y0110831D01*
X0388183Y0109380D01*
X0387700Y0108897D01*
X0386248Y0109380D02*
X0386248Y0110348D01*
X0386732Y0110831D01*
X0386248Y0111843D02*
X0386248Y0113294D01*
X0386732Y0113778D01*
X0388183Y0113778D01*
X0387700Y0114790D02*
X0386248Y0114790D01*
X0387700Y0114790D02*
X0388183Y0115273D01*
X0387700Y0115757D01*
X0388183Y0116241D01*
X0387700Y0116725D01*
X0386248Y0116725D01*
X0386248Y0118220D02*
X0386248Y0119187D01*
X0386732Y0119671D01*
X0388183Y0119671D01*
X0388183Y0118220D01*
X0387700Y0117736D01*
X0387216Y0118220D01*
X0387216Y0119671D01*
X0386732Y0120683D02*
X0386248Y0121166D01*
X0386248Y0122134D01*
X0386732Y0122618D01*
X0388183Y0122618D01*
X0388183Y0123629D02*
X0388183Y0124597D01*
X0388183Y0124113D02*
X0385281Y0124113D01*
X0385281Y0123629D01*
X0385281Y0120683D02*
X0388183Y0120683D01*
X0388183Y0125593D02*
X0388183Y0126077D01*
X0387700Y0126077D01*
X0387700Y0125593D01*
X0388183Y0125593D01*
X0387700Y0127067D02*
X0388183Y0127550D01*
X0388183Y0129002D01*
X0388667Y0129002D02*
X0386248Y0129002D01*
X0386248Y0127550D01*
X0386732Y0127067D01*
X0387700Y0127067D01*
X0389151Y0128034D02*
X0389151Y0128518D01*
X0388667Y0129002D01*
X0388183Y0130013D02*
X0388183Y0130981D01*
X0388183Y0130497D02*
X0386248Y0130497D01*
X0386248Y0130013D01*
X0385281Y0130497D02*
X0384797Y0130497D01*
X0386248Y0131978D02*
X0386248Y0132945D01*
X0385765Y0132461D02*
X0387700Y0132461D01*
X0388183Y0132945D01*
X0388183Y0133942D02*
X0385281Y0133942D01*
X0386248Y0134426D02*
X0386732Y0133942D01*
X0386248Y0134426D02*
X0386248Y0135393D01*
X0386732Y0135877D01*
X0388183Y0135877D01*
X0387700Y0136888D02*
X0388183Y0137372D01*
X0388183Y0138823D01*
X0386248Y0138823D01*
X0386248Y0139835D02*
X0386248Y0141286D01*
X0386732Y0141770D01*
X0387700Y0141770D01*
X0388183Y0141286D01*
X0388183Y0139835D01*
X0385281Y0139835D01*
X0386248Y0136888D02*
X0387700Y0136888D01*
X0387700Y0142781D02*
X0387700Y0143265D01*
X0388183Y0143265D01*
X0388183Y0142781D01*
X0387700Y0142781D01*
X0388183Y0144255D02*
X0388183Y0145222D01*
X0388183Y0144738D02*
X0386248Y0144738D01*
X0386248Y0144255D01*
X0385281Y0144738D02*
X0384797Y0144738D01*
X0386732Y0146219D02*
X0387700Y0146219D01*
X0388183Y0146703D01*
X0388183Y0147670D01*
X0387700Y0148154D01*
X0386732Y0148154D01*
X0386248Y0147670D01*
X0386248Y0146703D01*
X0386732Y0146219D01*
X0388183Y0149166D02*
X0385281Y0151101D01*
X0361772Y0161550D02*
X0359837Y0161550D01*
X0361772Y0163485D01*
X0361772Y0163969D01*
X0361288Y0164452D01*
X0360321Y0164452D01*
X0359837Y0163969D01*
X0358825Y0164452D02*
X0357858Y0164452D01*
X0358342Y0164452D02*
X0358342Y0162034D01*
X0357858Y0161550D01*
X0357374Y0161550D01*
X0356890Y0162034D01*
X0352700Y0183950D02*
X0350765Y0183950D01*
X0350281Y0184434D01*
X0350281Y0185401D01*
X0350765Y0185885D01*
X0350765Y0186897D02*
X0351248Y0186897D01*
X0351732Y0187380D01*
X0351732Y0188348D01*
X0352216Y0188831D01*
X0352700Y0188831D01*
X0353183Y0188348D01*
X0353183Y0187380D01*
X0352700Y0186897D01*
X0352216Y0186897D01*
X0351732Y0187380D01*
X0351732Y0188348D02*
X0351248Y0188831D01*
X0350765Y0188831D01*
X0350281Y0188348D01*
X0350281Y0187380D01*
X0350765Y0186897D01*
X0352700Y0185885D02*
X0353183Y0185401D01*
X0353183Y0184434D01*
X0352700Y0183950D01*
X0351183Y0191950D02*
X0351183Y0193885D01*
X0351183Y0192917D02*
X0348281Y0192917D01*
X0349248Y0191950D01*
X0348765Y0194897D02*
X0348281Y0195380D01*
X0348281Y0196348D01*
X0348765Y0196831D01*
X0350700Y0194897D01*
X0351183Y0195380D01*
X0351183Y0196348D01*
X0350700Y0196831D01*
X0348765Y0196831D01*
X0349248Y0197843D02*
X0350700Y0197843D01*
X0351183Y0198327D01*
X0351183Y0199778D01*
X0349248Y0199778D01*
X0349732Y0200790D02*
X0349732Y0201757D01*
X0348281Y0200790D02*
X0348281Y0202725D01*
X0348281Y0200790D02*
X0351183Y0200790D01*
X0350700Y0194897D02*
X0348765Y0194897D01*
X0338183Y0186897D02*
X0337700Y0186897D01*
X0335765Y0188831D01*
X0335281Y0188831D01*
X0335281Y0186897D01*
X0335765Y0185885D02*
X0335281Y0185401D01*
X0335281Y0184434D01*
X0335765Y0183950D01*
X0337700Y0183950D01*
X0338183Y0184434D01*
X0338183Y0185401D01*
X0337700Y0185885D01*
X0363281Y0192917D02*
X0366183Y0192917D01*
X0366183Y0191950D02*
X0366183Y0193885D01*
X0365700Y0194897D02*
X0363765Y0196831D01*
X0365700Y0196831D01*
X0366183Y0196348D01*
X0366183Y0195380D01*
X0365700Y0194897D01*
X0363765Y0194897D01*
X0363281Y0195380D01*
X0363281Y0196348D01*
X0363765Y0196831D01*
X0364248Y0197843D02*
X0365700Y0197843D01*
X0366183Y0198327D01*
X0366183Y0199778D01*
X0364248Y0199778D01*
X0364732Y0200790D02*
X0364732Y0201757D01*
X0363281Y0200790D02*
X0363281Y0202725D01*
X0363281Y0200790D02*
X0366183Y0200790D01*
X0363281Y0192917D02*
X0364248Y0191950D01*
X0332900Y0226057D02*
X0330481Y0226057D01*
X0330481Y0227992D02*
X0332900Y0227992D01*
X0333383Y0227508D01*
X0333383Y0226541D01*
X0332900Y0226057D01*
X0333383Y0229003D02*
X0331448Y0230938D01*
X0330965Y0230938D01*
X0330481Y0230455D01*
X0330481Y0229487D01*
X0330965Y0229003D01*
X0333383Y0229003D02*
X0333383Y0230938D01*
X0366732Y0132180D02*
X0366732Y0130245D01*
X0366248Y0126287D02*
X0368183Y0125319D01*
X0366248Y0124352D01*
X0366732Y0123340D02*
X0367216Y0123340D01*
X0367216Y0121405D01*
X0367700Y0121405D02*
X0366732Y0121405D01*
X0366248Y0121889D01*
X0366248Y0122857D01*
X0366732Y0123340D01*
X0368183Y0122857D02*
X0368183Y0121889D01*
X0367700Y0121405D01*
X0366248Y0120401D02*
X0366248Y0119917D01*
X0367216Y0118950D01*
X0368183Y0118950D02*
X0366248Y0118950D01*
X0358183Y0122917D02*
X0356248Y0123885D01*
X0355765Y0124897D02*
X0355281Y0125380D01*
X0355281Y0126348D01*
X0355765Y0126831D01*
X0356248Y0126831D01*
X0358183Y0124897D01*
X0358183Y0126831D01*
X0358183Y0122917D02*
X0356248Y0121950D01*
X0376248Y0119327D02*
X0376732Y0119327D01*
X0376732Y0118843D01*
X0376248Y0118843D01*
X0376248Y0119327D01*
X0377700Y0119327D02*
X0378183Y0119327D01*
X0378183Y0118843D01*
X0377700Y0118843D01*
X0377700Y0119327D01*
X0378183Y0117831D02*
X0376732Y0117831D01*
X0376248Y0117348D01*
X0376248Y0115897D01*
X0378183Y0115897D01*
X0377700Y0114885D02*
X0377216Y0114401D01*
X0377216Y0113434D01*
X0376732Y0112950D01*
X0376248Y0113434D01*
X0376248Y0114885D01*
X0377700Y0114885D02*
X0378183Y0114401D01*
X0378183Y0112950D01*
X0386248Y0111843D02*
X0388183Y0111843D01*
X0307488Y0031152D02*
X0307972Y0030669D01*
X0307972Y0030185D01*
X0307488Y0029701D01*
X0307972Y0029217D01*
X0307972Y0028734D01*
X0307488Y0028250D01*
X0306521Y0028250D01*
X0306037Y0028734D01*
X0305025Y0028734D02*
X0305025Y0030669D01*
X0304542Y0031152D01*
X0303090Y0031152D01*
X0303090Y0028250D01*
X0304542Y0028250D01*
X0305025Y0028734D01*
X0306037Y0030669D02*
X0306521Y0031152D01*
X0307488Y0031152D01*
X0307488Y0029701D02*
X0307004Y0029701D01*
X0263972Y0024152D02*
X0262037Y0024152D01*
X0262037Y0021250D01*
X0263972Y0021250D01*
X0263004Y0022701D02*
X0262037Y0022701D01*
X0261025Y0022217D02*
X0261025Y0021734D01*
X0260542Y0021250D01*
X0259574Y0021250D01*
X0259090Y0021734D01*
X0259574Y0022701D02*
X0260542Y0022701D01*
X0261025Y0022217D01*
X0261025Y0023669D02*
X0260542Y0024152D01*
X0259574Y0024152D01*
X0259090Y0023669D01*
X0259090Y0023185D01*
X0259574Y0022701D01*
X0258079Y0021250D02*
X0258079Y0024152D01*
X0256144Y0024152D02*
X0256144Y0021250D01*
X0255132Y0021250D02*
X0253197Y0021250D01*
X0253197Y0024152D01*
X0255132Y0024152D01*
X0256144Y0024152D02*
X0258079Y0021250D01*
X0254165Y0022701D02*
X0253197Y0022701D01*
X0252186Y0022217D02*
X0252186Y0021734D01*
X0251702Y0021250D01*
X0250734Y0021250D01*
X0250251Y0021734D01*
X0250734Y0022701D02*
X0251702Y0022701D01*
X0252186Y0022217D01*
X0252186Y0023669D02*
X0251702Y0024152D01*
X0250734Y0024152D01*
X0250251Y0023669D01*
X0250251Y0023185D01*
X0250734Y0022701D01*
X0249239Y0022701D02*
X0249239Y0023669D01*
X0248755Y0024152D01*
X0247304Y0024152D01*
X0247304Y0021250D01*
X0247304Y0022217D02*
X0248755Y0022217D01*
X0249239Y0022701D01*
X0248272Y0022217D02*
X0249239Y0021250D01*
X0250234Y0035250D02*
X0249751Y0035734D01*
X0251686Y0037669D01*
X0251686Y0035734D01*
X0251202Y0035250D01*
X0250234Y0035250D01*
X0249751Y0035734D02*
X0249751Y0037669D01*
X0250234Y0038152D01*
X0251202Y0038152D01*
X0251686Y0037669D01*
X0252697Y0038152D02*
X0254148Y0038152D01*
X0254632Y0037669D01*
X0254632Y0036701D01*
X0254148Y0036217D01*
X0252697Y0036217D01*
X0252697Y0035250D02*
X0252697Y0038152D01*
X0253665Y0036217D02*
X0254632Y0035250D01*
X0255644Y0035734D02*
X0257579Y0037669D01*
X0257579Y0035734D01*
X0257095Y0035250D01*
X0256128Y0035250D01*
X0255644Y0035734D01*
X0255644Y0037669D01*
X0256128Y0038152D01*
X0257095Y0038152D01*
X0257579Y0037669D01*
X0258590Y0038152D02*
X0258590Y0036701D01*
X0259558Y0037185D01*
X0260042Y0037185D01*
X0260525Y0036701D01*
X0260525Y0035734D01*
X0260042Y0035250D01*
X0259074Y0035250D01*
X0258590Y0035734D01*
X0258590Y0038152D02*
X0260525Y0038152D01*
X0261537Y0037669D02*
X0262021Y0038152D01*
X0262988Y0038152D01*
X0263472Y0037669D01*
X0261537Y0035734D01*
X0262021Y0035250D01*
X0262988Y0035250D01*
X0263472Y0035734D01*
X0263472Y0037669D01*
X0261537Y0037669D02*
X0261537Y0035734D01*
X0215383Y0028503D02*
X0214900Y0028503D01*
X0212965Y0030438D01*
X0212481Y0030438D01*
X0212481Y0028503D01*
X0213448Y0027492D02*
X0215383Y0027492D01*
X0215383Y0026041D01*
X0214900Y0025557D01*
X0213448Y0025557D01*
X0213932Y0024545D02*
X0213932Y0022610D01*
X0212481Y0024062D01*
X0215383Y0024062D01*
X0207883Y0024541D02*
X0207883Y0025508D01*
X0207400Y0025992D01*
X0206432Y0027003D02*
X0204981Y0028455D01*
X0207883Y0028455D01*
X0206432Y0028938D02*
X0206432Y0027003D01*
X0205465Y0025992D02*
X0204981Y0025508D01*
X0204981Y0024541D01*
X0205465Y0024057D01*
X0207400Y0024057D01*
X0207883Y0024541D01*
X0181183Y0024401D02*
X0181183Y0023434D01*
X0180700Y0022950D01*
X0178765Y0024885D01*
X0180700Y0024885D01*
X0181183Y0024401D01*
X0181183Y0025897D02*
X0181183Y0026380D01*
X0180700Y0026380D01*
X0180700Y0025897D01*
X0181183Y0025897D01*
X0181183Y0027370D02*
X0181183Y0029305D01*
X0181183Y0028337D02*
X0178281Y0028337D01*
X0179248Y0027370D01*
X0178765Y0024885D02*
X0178281Y0024401D01*
X0178281Y0023434D01*
X0178765Y0022950D01*
X0180700Y0022950D01*
X0180700Y0030316D02*
X0179248Y0030316D01*
X0180700Y0030316D02*
X0181183Y0030800D01*
X0181183Y0032251D01*
X0179248Y0032251D01*
X0179732Y0033263D02*
X0179732Y0034230D01*
X0178765Y0033747D02*
X0178281Y0034230D01*
X0178765Y0033747D02*
X0181183Y0033747D01*
X0175472Y0039234D02*
X0175472Y0039717D01*
X0174988Y0040201D01*
X0174504Y0040201D01*
X0174988Y0040201D02*
X0175472Y0040685D01*
X0175472Y0041169D01*
X0174988Y0041652D01*
X0174021Y0041652D01*
X0173537Y0041169D01*
X0172525Y0041169D02*
X0172042Y0041652D01*
X0171074Y0041652D01*
X0170590Y0041169D01*
X0170590Y0039234D01*
X0171074Y0038750D01*
X0172042Y0038750D01*
X0172525Y0039234D01*
X0173537Y0039234D02*
X0174021Y0038750D01*
X0174988Y0038750D01*
X0175472Y0039234D01*
X0167700Y0028831D02*
X0167216Y0028831D01*
X0166732Y0028348D01*
X0166732Y0026897D01*
X0167700Y0026897D01*
X0168183Y0027380D01*
X0168183Y0028348D01*
X0167700Y0028831D01*
X0166732Y0026897D02*
X0165765Y0027864D01*
X0165281Y0028831D01*
X0165765Y0025885D02*
X0165281Y0025401D01*
X0165281Y0024434D01*
X0165765Y0023950D01*
X0167700Y0023950D01*
X0168183Y0024434D01*
X0168183Y0025401D01*
X0167700Y0025885D01*
X0159683Y0032950D02*
X0159683Y0034885D01*
X0159683Y0033917D02*
X0156781Y0033917D01*
X0157748Y0032950D01*
X0156781Y0035897D02*
X0157748Y0036864D01*
X0156781Y0037831D01*
X0159683Y0037831D01*
X0159683Y0035897D02*
X0156781Y0035897D01*
X0150683Y0033848D02*
X0150200Y0034331D01*
X0148265Y0034331D01*
X0147781Y0033848D01*
X0147781Y0032880D01*
X0148265Y0032397D01*
X0148748Y0032397D01*
X0149232Y0032880D01*
X0149232Y0034331D01*
X0150683Y0033848D02*
X0150683Y0032880D01*
X0150200Y0032397D01*
X0150683Y0031385D02*
X0149716Y0030417D01*
X0149716Y0030901D02*
X0149716Y0029450D01*
X0150683Y0029450D02*
X0147781Y0029450D01*
X0147781Y0030901D01*
X0148265Y0031385D01*
X0149232Y0031385D01*
X0149716Y0030901D01*
X0133972Y0037250D02*
X0132037Y0037250D01*
X0133004Y0037250D02*
X0133004Y0040152D01*
X0132037Y0039185D01*
X0131025Y0039669D02*
X0131025Y0037734D01*
X0130542Y0037250D01*
X0129090Y0037250D01*
X0129090Y0040152D01*
X0130542Y0040152D01*
X0131025Y0039669D01*
X0133074Y0057750D02*
X0134042Y0057750D01*
X0134525Y0058234D01*
X0134525Y0060652D01*
X0135537Y0060169D02*
X0136021Y0060652D01*
X0136988Y0060652D01*
X0137472Y0060169D01*
X0137472Y0059685D01*
X0136988Y0059201D01*
X0137472Y0058717D01*
X0137472Y0058234D01*
X0136988Y0057750D01*
X0136021Y0057750D01*
X0135537Y0058234D01*
X0136504Y0059201D02*
X0136988Y0059201D01*
X0133074Y0057750D02*
X0132590Y0058234D01*
X0132590Y0060652D01*
X0165206Y0054169D02*
X0165206Y0052234D01*
X0167141Y0054169D01*
X0167141Y0052234D01*
X0166657Y0051750D01*
X0165690Y0051750D01*
X0165206Y0052234D01*
X0165206Y0054169D02*
X0165690Y0054652D01*
X0166657Y0054652D01*
X0167141Y0054169D01*
X0168153Y0052234D02*
X0168636Y0052234D01*
X0168636Y0051750D01*
X0168153Y0051750D01*
X0168153Y0052234D01*
X0169626Y0051750D02*
X0171561Y0051750D01*
X0170593Y0051750D02*
X0170593Y0054652D01*
X0169626Y0053685D01*
X0172572Y0053685D02*
X0172572Y0052234D01*
X0173056Y0051750D01*
X0174507Y0051750D01*
X0174507Y0053685D01*
X0175519Y0053201D02*
X0176486Y0053201D01*
X0176003Y0054169D02*
X0176486Y0054652D01*
X0176003Y0054169D02*
X0176003Y0051750D01*
X0235358Y0071250D02*
X0235358Y0074152D01*
X0236325Y0073185D01*
X0237293Y0074152D01*
X0237293Y0071250D01*
X0238304Y0071250D02*
X0238304Y0073185D01*
X0239272Y0074152D01*
X0240239Y0073185D01*
X0240239Y0071250D01*
X0241251Y0071250D02*
X0243186Y0074152D01*
X0244197Y0073185D02*
X0245165Y0074152D01*
X0245165Y0071250D01*
X0246132Y0071250D02*
X0244197Y0071250D01*
X0243186Y0071250D02*
X0241251Y0074152D01*
X0240239Y0072701D02*
X0238304Y0072701D01*
X0247144Y0071734D02*
X0247144Y0071250D01*
X0247144Y0071734D02*
X0249079Y0073669D01*
X0249079Y0074152D01*
X0247144Y0074152D01*
X0250090Y0074152D02*
X0252025Y0074152D01*
X0252025Y0073669D01*
X0250090Y0071734D01*
X0250090Y0071250D01*
X0253037Y0071250D02*
X0254972Y0071250D01*
X0254004Y0071250D02*
X0254004Y0074152D01*
X0253037Y0073185D01*
X0265981Y0076057D02*
X0268400Y0076057D01*
X0268883Y0076541D01*
X0268883Y0077508D01*
X0268400Y0077992D01*
X0265981Y0077992D01*
X0265981Y0079003D02*
X0265981Y0080938D01*
X0266465Y0080938D01*
X0268400Y0079003D01*
X0268883Y0079003D01*
X0109004Y0024152D02*
X0109004Y0021250D01*
X0108037Y0021250D02*
X0109972Y0021250D01*
X0108037Y0023185D02*
X0109004Y0024152D01*
X0107025Y0023669D02*
X0107025Y0021734D01*
X0106542Y0021250D01*
X0105574Y0021250D01*
X0105090Y0021734D01*
X0105090Y0023669D01*
X0105574Y0024152D01*
X0106542Y0024152D01*
X0107025Y0023669D01*
X0106058Y0022217D02*
X0107025Y0021250D01*
X0102883Y0092110D02*
X0102883Y0094045D01*
X0102883Y0093078D02*
X0099981Y0093078D01*
X0100948Y0092110D01*
X0100465Y0095057D02*
X0099981Y0095541D01*
X0099981Y0096508D01*
X0100465Y0096992D01*
X0102400Y0095057D01*
X0102883Y0095541D01*
X0102883Y0096508D01*
X0102400Y0096992D01*
X0100465Y0096992D01*
X0099981Y0098003D02*
X0102883Y0098003D01*
X0101916Y0098003D02*
X0099981Y0099938D01*
X0101432Y0098487D02*
X0102883Y0099938D01*
X0102400Y0095057D02*
X0100465Y0095057D01*
X0094883Y0098557D02*
X0091981Y0098557D01*
X0091981Y0100008D01*
X0092465Y0100492D01*
X0093432Y0100492D01*
X0093916Y0100008D01*
X0093916Y0098557D01*
X0093916Y0099524D02*
X0094883Y0100492D01*
X0094400Y0101503D02*
X0094883Y0101987D01*
X0094883Y0102955D01*
X0094400Y0103438D01*
X0093916Y0103438D01*
X0093432Y0102955D01*
X0093432Y0102471D01*
X0093432Y0102955D02*
X0092948Y0103438D01*
X0092465Y0103438D01*
X0091981Y0102955D01*
X0091981Y0101987D01*
X0092465Y0101503D01*
D12*
X0120051Y0265000D02*
X0121252Y0266201D01*
X0121252Y0268603D01*
X0122533Y0267402D02*
X0123734Y0268603D01*
X0123734Y0265000D01*
X0122533Y0265000D02*
X0124935Y0265000D01*
X0120051Y0265000D02*
X0118850Y0266201D01*
X0118850Y0268603D01*
X0060935Y0268003D02*
X0060335Y0268603D01*
X0059134Y0268603D01*
X0058533Y0268003D01*
X0057252Y0268603D02*
X0057252Y0266201D01*
X0056051Y0265000D01*
X0054850Y0266201D01*
X0054850Y0268603D01*
X0058533Y0265000D02*
X0060935Y0267402D01*
X0060935Y0268003D01*
X0060935Y0265000D02*
X0058533Y0265000D01*
X0183464Y0265000D02*
X0184665Y0265000D01*
X0184065Y0265000D02*
X0184065Y0268603D01*
X0184665Y0268603D02*
X0183464Y0268603D01*
X0185919Y0268003D02*
X0186520Y0268603D01*
X0187721Y0268603D01*
X0188322Y0268003D01*
X0188322Y0267402D01*
X0185919Y0265000D01*
X0188322Y0265000D01*
X0245464Y0265000D02*
X0246665Y0265000D01*
X0246065Y0265000D02*
X0246065Y0268603D01*
X0246665Y0268603D02*
X0245464Y0268603D01*
X0247919Y0267402D02*
X0249120Y0268603D01*
X0249120Y0265000D01*
X0247919Y0265000D02*
X0250322Y0265000D01*
X0309009Y0265601D02*
X0309609Y0265000D01*
X0310810Y0265000D01*
X0311411Y0265601D01*
X0311411Y0266802D01*
X0310210Y0266802D01*
X0311411Y0268003D02*
X0310810Y0268603D01*
X0309609Y0268603D01*
X0309009Y0268003D01*
X0309009Y0265601D01*
X0312692Y0265000D02*
X0312692Y0268603D01*
X0315094Y0265000D01*
X0315094Y0268603D01*
X0316375Y0268603D02*
X0318176Y0268603D01*
X0318777Y0268003D01*
X0318777Y0265601D01*
X0318176Y0265000D01*
X0316375Y0265000D01*
X0316375Y0268603D01*
X0371167Y0268603D02*
X0371167Y0265000D01*
X0372969Y0265000D01*
X0373569Y0265601D01*
X0373569Y0266201D01*
X0372969Y0266802D01*
X0371167Y0266802D01*
X0371167Y0268603D02*
X0372969Y0268603D01*
X0373569Y0268003D01*
X0373569Y0267402D01*
X0372969Y0266802D01*
X0374850Y0266802D02*
X0377252Y0266802D01*
X0377252Y0267402D02*
X0377252Y0265000D01*
X0374850Y0265000D02*
X0374850Y0267402D01*
X0376051Y0268603D01*
X0377252Y0267402D01*
X0378533Y0268603D02*
X0380935Y0268603D01*
X0379734Y0268603D02*
X0379734Y0265000D01*
X0383417Y0265000D02*
X0383417Y0268603D01*
X0382216Y0268603D02*
X0384619Y0268603D01*
D13*
X0377333Y0131800D03*
D14*
X0300302Y0071800D02*
X0300316Y0072979D01*
X0300360Y0074157D01*
X0300432Y0075333D01*
X0300533Y0076508D01*
X0300663Y0077680D01*
X0300822Y0078848D01*
X0301009Y0080011D01*
X0301225Y0081170D01*
X0301469Y0082324D01*
X0301741Y0083471D01*
X0302042Y0084610D01*
X0302370Y0085743D01*
X0302726Y0086866D01*
X0303110Y0087981D01*
X0303520Y0089086D01*
X0303958Y0090181D01*
X0304423Y0091264D01*
X0304913Y0092336D01*
X0305431Y0093395D01*
X0305973Y0094442D01*
X0306542Y0095474D01*
X0307135Y0096493D01*
X0307754Y0097496D01*
X0308397Y0098485D01*
X0309064Y0099457D01*
X0309754Y0100412D01*
X0310468Y0101350D01*
X0311205Y0102271D01*
X0311964Y0103173D01*
X0312744Y0104056D01*
X0313547Y0104919D01*
X0314370Y0105763D01*
X0315214Y0106586D01*
X0316077Y0107389D01*
X0316960Y0108169D01*
X0317862Y0108928D01*
X0318783Y0109665D01*
X0319721Y0110379D01*
X0320676Y0111069D01*
X0321648Y0111736D01*
X0322637Y0112379D01*
X0323640Y0112998D01*
X0324659Y0113591D01*
X0325691Y0114160D01*
X0326738Y0114702D01*
X0327797Y0115220D01*
X0328869Y0115710D01*
X0329952Y0116175D01*
X0331047Y0116613D01*
X0332152Y0117023D01*
X0333267Y0117407D01*
X0334390Y0117763D01*
X0335523Y0118091D01*
X0336662Y0118392D01*
X0337809Y0118664D01*
X0338963Y0118908D01*
X0340122Y0119124D01*
X0341285Y0119311D01*
X0342453Y0119470D01*
X0343625Y0119600D01*
X0344800Y0119701D01*
X0345976Y0119773D01*
X0347154Y0119817D01*
X0348333Y0119831D01*
X0349512Y0119817D01*
X0350690Y0119773D01*
X0351866Y0119701D01*
X0353041Y0119600D01*
X0354213Y0119470D01*
X0355381Y0119311D01*
X0356544Y0119124D01*
X0357703Y0118908D01*
X0358857Y0118664D01*
X0360004Y0118392D01*
X0361143Y0118091D01*
X0362276Y0117763D01*
X0363399Y0117407D01*
X0364514Y0117023D01*
X0365619Y0116613D01*
X0366714Y0116175D01*
X0367797Y0115710D01*
X0368869Y0115220D01*
X0369928Y0114702D01*
X0370975Y0114160D01*
X0372007Y0113591D01*
X0373026Y0112998D01*
X0374029Y0112379D01*
X0375018Y0111736D01*
X0375990Y0111069D01*
X0376945Y0110379D01*
X0377883Y0109665D01*
X0378804Y0108928D01*
X0379706Y0108169D01*
X0380589Y0107389D01*
X0381452Y0106586D01*
X0382296Y0105763D01*
X0383119Y0104919D01*
X0383922Y0104056D01*
X0384702Y0103173D01*
X0385461Y0102271D01*
X0386198Y0101350D01*
X0386912Y0100412D01*
X0387602Y0099457D01*
X0388269Y0098485D01*
X0388912Y0097496D01*
X0389531Y0096493D01*
X0390124Y0095474D01*
X0390693Y0094442D01*
X0391235Y0093395D01*
X0391753Y0092336D01*
X0392243Y0091264D01*
X0392708Y0090181D01*
X0393146Y0089086D01*
X0393556Y0087981D01*
X0393940Y0086866D01*
X0394296Y0085743D01*
X0394624Y0084610D01*
X0394925Y0083471D01*
X0395197Y0082324D01*
X0395441Y0081170D01*
X0395657Y0080011D01*
X0395844Y0078848D01*
X0396003Y0077680D01*
X0396133Y0076508D01*
X0396234Y0075333D01*
X0396306Y0074157D01*
X0396350Y0072979D01*
X0396364Y0071800D01*
X0396350Y0070621D01*
X0396306Y0069443D01*
X0396234Y0068267D01*
X0396133Y0067092D01*
X0396003Y0065920D01*
X0395844Y0064752D01*
X0395657Y0063589D01*
X0395441Y0062430D01*
X0395197Y0061276D01*
X0394925Y0060129D01*
X0394624Y0058990D01*
X0394296Y0057857D01*
X0393940Y0056734D01*
X0393556Y0055619D01*
X0393146Y0054514D01*
X0392708Y0053419D01*
X0392243Y0052336D01*
X0391753Y0051264D01*
X0391235Y0050205D01*
X0390693Y0049158D01*
X0390124Y0048126D01*
X0389531Y0047107D01*
X0388912Y0046104D01*
X0388269Y0045115D01*
X0387602Y0044143D01*
X0386912Y0043188D01*
X0386198Y0042250D01*
X0385461Y0041329D01*
X0384702Y0040427D01*
X0383922Y0039544D01*
X0383119Y0038681D01*
X0382296Y0037837D01*
X0381452Y0037014D01*
X0380589Y0036211D01*
X0379706Y0035431D01*
X0378804Y0034672D01*
X0377883Y0033935D01*
X0376945Y0033221D01*
X0375990Y0032531D01*
X0375018Y0031864D01*
X0374029Y0031221D01*
X0373026Y0030602D01*
X0372007Y0030009D01*
X0370975Y0029440D01*
X0369928Y0028898D01*
X0368869Y0028380D01*
X0367797Y0027890D01*
X0366714Y0027425D01*
X0365619Y0026987D01*
X0364514Y0026577D01*
X0363399Y0026193D01*
X0362276Y0025837D01*
X0361143Y0025509D01*
X0360004Y0025208D01*
X0358857Y0024936D01*
X0357703Y0024692D01*
X0356544Y0024476D01*
X0355381Y0024289D01*
X0354213Y0024130D01*
X0353041Y0024000D01*
X0351866Y0023899D01*
X0350690Y0023827D01*
X0349512Y0023783D01*
X0348333Y0023769D01*
X0347154Y0023783D01*
X0345976Y0023827D01*
X0344800Y0023899D01*
X0343625Y0024000D01*
X0342453Y0024130D01*
X0341285Y0024289D01*
X0340122Y0024476D01*
X0338963Y0024692D01*
X0337809Y0024936D01*
X0336662Y0025208D01*
X0335523Y0025509D01*
X0334390Y0025837D01*
X0333267Y0026193D01*
X0332152Y0026577D01*
X0331047Y0026987D01*
X0329952Y0027425D01*
X0328869Y0027890D01*
X0327797Y0028380D01*
X0326738Y0028898D01*
X0325691Y0029440D01*
X0324659Y0030009D01*
X0323640Y0030602D01*
X0322637Y0031221D01*
X0321648Y0031864D01*
X0320676Y0032531D01*
X0319721Y0033221D01*
X0318783Y0033935D01*
X0317862Y0034672D01*
X0316960Y0035431D01*
X0316077Y0036211D01*
X0315214Y0037014D01*
X0314370Y0037837D01*
X0313547Y0038681D01*
X0312744Y0039544D01*
X0311964Y0040427D01*
X0311205Y0041329D01*
X0310468Y0042250D01*
X0309754Y0043188D01*
X0309064Y0044143D01*
X0308397Y0045115D01*
X0307754Y0046104D01*
X0307135Y0047107D01*
X0306542Y0048126D01*
X0305973Y0049158D01*
X0305431Y0050205D01*
X0304913Y0051264D01*
X0304423Y0052336D01*
X0303958Y0053419D01*
X0303520Y0054514D01*
X0303110Y0055619D01*
X0302726Y0056734D01*
X0302370Y0057857D01*
X0302042Y0058990D01*
X0301741Y0060129D01*
X0301469Y0061276D01*
X0301225Y0062430D01*
X0301009Y0063589D01*
X0300822Y0064752D01*
X0300663Y0065920D01*
X0300533Y0067092D01*
X0300432Y0068267D01*
X0300360Y0069443D01*
X0300316Y0070621D01*
X0300302Y0071800D01*
X0319199Y0071800D02*
X0319208Y0072515D01*
X0319234Y0073230D01*
X0319278Y0073943D01*
X0319339Y0074656D01*
X0319418Y0075366D01*
X0319514Y0076075D01*
X0319628Y0076781D01*
X0319759Y0077484D01*
X0319907Y0078183D01*
X0320072Y0078879D01*
X0320254Y0079570D01*
X0320454Y0080257D01*
X0320669Y0080939D01*
X0320902Y0081615D01*
X0321151Y0082285D01*
X0321417Y0082949D01*
X0321698Y0083606D01*
X0321996Y0084256D01*
X0322310Y0084899D01*
X0322639Y0085534D01*
X0322984Y0086160D01*
X0323344Y0086778D01*
X0323719Y0087387D01*
X0324109Y0087986D01*
X0324513Y0088576D01*
X0324932Y0089155D01*
X0325365Y0089724D01*
X0325812Y0090282D01*
X0326272Y0090830D01*
X0326746Y0091365D01*
X0327233Y0091889D01*
X0327732Y0092401D01*
X0328244Y0092900D01*
X0328768Y0093387D01*
X0329303Y0093861D01*
X0329851Y0094321D01*
X0330409Y0094768D01*
X0330978Y0095201D01*
X0331557Y0095620D01*
X0332147Y0096024D01*
X0332746Y0096414D01*
X0333355Y0096789D01*
X0333973Y0097149D01*
X0334599Y0097494D01*
X0335234Y0097823D01*
X0335877Y0098137D01*
X0336527Y0098435D01*
X0337184Y0098716D01*
X0337848Y0098982D01*
X0338518Y0099231D01*
X0339194Y0099464D01*
X0339876Y0099679D01*
X0340563Y0099879D01*
X0341254Y0100061D01*
X0341950Y0100226D01*
X0342649Y0100374D01*
X0343352Y0100505D01*
X0344058Y0100619D01*
X0344767Y0100715D01*
X0345477Y0100794D01*
X0346190Y0100855D01*
X0346903Y0100899D01*
X0347618Y0100925D01*
X0348333Y0100934D01*
X0349048Y0100925D01*
X0349763Y0100899D01*
X0350476Y0100855D01*
X0351189Y0100794D01*
X0351899Y0100715D01*
X0352608Y0100619D01*
X0353314Y0100505D01*
X0354017Y0100374D01*
X0354716Y0100226D01*
X0355412Y0100061D01*
X0356103Y0099879D01*
X0356790Y0099679D01*
X0357472Y0099464D01*
X0358148Y0099231D01*
X0358818Y0098982D01*
X0359482Y0098716D01*
X0360139Y0098435D01*
X0360789Y0098137D01*
X0361432Y0097823D01*
X0362067Y0097494D01*
X0362693Y0097149D01*
X0363311Y0096789D01*
X0363920Y0096414D01*
X0364519Y0096024D01*
X0365109Y0095620D01*
X0365688Y0095201D01*
X0366257Y0094768D01*
X0366815Y0094321D01*
X0367363Y0093861D01*
X0367898Y0093387D01*
X0368422Y0092900D01*
X0368934Y0092401D01*
X0369433Y0091889D01*
X0369920Y0091365D01*
X0370394Y0090830D01*
X0370854Y0090282D01*
X0371301Y0089724D01*
X0371734Y0089155D01*
X0372153Y0088576D01*
X0372557Y0087986D01*
X0372947Y0087387D01*
X0373322Y0086778D01*
X0373682Y0086160D01*
X0374027Y0085534D01*
X0374356Y0084899D01*
X0374670Y0084256D01*
X0374968Y0083606D01*
X0375249Y0082949D01*
X0375515Y0082285D01*
X0375764Y0081615D01*
X0375997Y0080939D01*
X0376212Y0080257D01*
X0376412Y0079570D01*
X0376594Y0078879D01*
X0376759Y0078183D01*
X0376907Y0077484D01*
X0377038Y0076781D01*
X0377152Y0076075D01*
X0377248Y0075366D01*
X0377327Y0074656D01*
X0377388Y0073943D01*
X0377432Y0073230D01*
X0377458Y0072515D01*
X0377467Y0071800D01*
X0377458Y0071085D01*
X0377432Y0070370D01*
X0377388Y0069657D01*
X0377327Y0068944D01*
X0377248Y0068234D01*
X0377152Y0067525D01*
X0377038Y0066819D01*
X0376907Y0066116D01*
X0376759Y0065417D01*
X0376594Y0064721D01*
X0376412Y0064030D01*
X0376212Y0063343D01*
X0375997Y0062661D01*
X0375764Y0061985D01*
X0375515Y0061315D01*
X0375249Y0060651D01*
X0374968Y0059994D01*
X0374670Y0059344D01*
X0374356Y0058701D01*
X0374027Y0058066D01*
X0373682Y0057440D01*
X0373322Y0056822D01*
X0372947Y0056213D01*
X0372557Y0055614D01*
X0372153Y0055024D01*
X0371734Y0054445D01*
X0371301Y0053876D01*
X0370854Y0053318D01*
X0370394Y0052770D01*
X0369920Y0052235D01*
X0369433Y0051711D01*
X0368934Y0051199D01*
X0368422Y0050700D01*
X0367898Y0050213D01*
X0367363Y0049739D01*
X0366815Y0049279D01*
X0366257Y0048832D01*
X0365688Y0048399D01*
X0365109Y0047980D01*
X0364519Y0047576D01*
X0363920Y0047186D01*
X0363311Y0046811D01*
X0362693Y0046451D01*
X0362067Y0046106D01*
X0361432Y0045777D01*
X0360789Y0045463D01*
X0360139Y0045165D01*
X0359482Y0044884D01*
X0358818Y0044618D01*
X0358148Y0044369D01*
X0357472Y0044136D01*
X0356790Y0043921D01*
X0356103Y0043721D01*
X0355412Y0043539D01*
X0354716Y0043374D01*
X0354017Y0043226D01*
X0353314Y0043095D01*
X0352608Y0042981D01*
X0351899Y0042885D01*
X0351189Y0042806D01*
X0350476Y0042745D01*
X0349763Y0042701D01*
X0349048Y0042675D01*
X0348333Y0042666D01*
X0347618Y0042675D01*
X0346903Y0042701D01*
X0346190Y0042745D01*
X0345477Y0042806D01*
X0344767Y0042885D01*
X0344058Y0042981D01*
X0343352Y0043095D01*
X0342649Y0043226D01*
X0341950Y0043374D01*
X0341254Y0043539D01*
X0340563Y0043721D01*
X0339876Y0043921D01*
X0339194Y0044136D01*
X0338518Y0044369D01*
X0337848Y0044618D01*
X0337184Y0044884D01*
X0336527Y0045165D01*
X0335877Y0045463D01*
X0335234Y0045777D01*
X0334599Y0046106D01*
X0333973Y0046451D01*
X0333355Y0046811D01*
X0332746Y0047186D01*
X0332147Y0047576D01*
X0331557Y0047980D01*
X0330978Y0048399D01*
X0330409Y0048832D01*
X0329851Y0049279D01*
X0329303Y0049739D01*
X0328768Y0050213D01*
X0328244Y0050700D01*
X0327732Y0051199D01*
X0327233Y0051711D01*
X0326746Y0052235D01*
X0326272Y0052770D01*
X0325812Y0053318D01*
X0325365Y0053876D01*
X0324932Y0054445D01*
X0324513Y0055024D01*
X0324109Y0055614D01*
X0323719Y0056213D01*
X0323344Y0056822D01*
X0322984Y0057440D01*
X0322639Y0058066D01*
X0322310Y0058701D01*
X0321996Y0059344D01*
X0321698Y0059994D01*
X0321417Y0060651D01*
X0321151Y0061315D01*
X0320902Y0061985D01*
X0320669Y0062661D01*
X0320454Y0063343D01*
X0320254Y0064030D01*
X0320072Y0064721D01*
X0319907Y0065417D01*
X0319759Y0066116D01*
X0319628Y0066819D01*
X0319514Y0067525D01*
X0319418Y0068234D01*
X0319339Y0068944D01*
X0319278Y0069657D01*
X0319234Y0070370D01*
X0319208Y0071085D01*
X0319199Y0071800D01*
X0143333Y0166800D02*
X0143333Y0206800D01*
X0103333Y0206800D01*
X0103333Y0166800D01*
X0143333Y0166800D01*
X0138333Y0121800D02*
X0108333Y0121800D01*
X0108333Y0061800D01*
X0138333Y0061800D01*
X0138333Y0121800D01*
X0083333Y0121800D02*
X0083333Y0061800D01*
X0053333Y0061800D01*
X0053333Y0121800D01*
X0083333Y0121800D01*
X0088333Y0166800D02*
X0048333Y0166800D01*
X0048333Y0206800D01*
X0088333Y0206800D01*
X0088333Y0166800D01*
D15*
X0179583Y0090550D02*
X0217083Y0090550D01*
X0217083Y0053050D01*
X0179583Y0053050D01*
X0179583Y0090550D01*
X0185333Y0071800D02*
X0185337Y0072119D01*
X0185349Y0072438D01*
X0185368Y0072756D01*
X0185396Y0073074D01*
X0185431Y0073391D01*
X0185474Y0073707D01*
X0185524Y0074023D01*
X0185583Y0074336D01*
X0185649Y0074648D01*
X0185723Y0074959D01*
X0185804Y0075267D01*
X0185893Y0075574D01*
X0185989Y0075878D01*
X0186093Y0076180D01*
X0186204Y0076479D01*
X0186323Y0076775D01*
X0186448Y0077068D01*
X0186581Y0077358D01*
X0186721Y0077645D01*
X0186868Y0077928D01*
X0187022Y0078208D01*
X0187183Y0078483D01*
X0187350Y0078755D01*
X0187524Y0079022D01*
X0187704Y0079286D01*
X0187891Y0079544D01*
X0188084Y0079798D01*
X0188284Y0080047D01*
X0188489Y0080291D01*
X0188701Y0080530D01*
X0188918Y0080764D01*
X0189141Y0080992D01*
X0189369Y0081215D01*
X0189603Y0081432D01*
X0189842Y0081644D01*
X0190086Y0081849D01*
X0190335Y0082049D01*
X0190589Y0082242D01*
X0190847Y0082429D01*
X0191111Y0082609D01*
X0191378Y0082783D01*
X0191650Y0082950D01*
X0191925Y0083111D01*
X0192205Y0083265D01*
X0192488Y0083412D01*
X0192775Y0083552D01*
X0193065Y0083685D01*
X0193358Y0083810D01*
X0193654Y0083929D01*
X0193953Y0084040D01*
X0194255Y0084144D01*
X0194559Y0084240D01*
X0194866Y0084329D01*
X0195174Y0084410D01*
X0195485Y0084484D01*
X0195797Y0084550D01*
X0196110Y0084609D01*
X0196426Y0084659D01*
X0196742Y0084702D01*
X0197059Y0084737D01*
X0197377Y0084765D01*
X0197695Y0084784D01*
X0198014Y0084796D01*
X0198333Y0084800D01*
X0198652Y0084796D01*
X0198971Y0084784D01*
X0199289Y0084765D01*
X0199607Y0084737D01*
X0199924Y0084702D01*
X0200240Y0084659D01*
X0200556Y0084609D01*
X0200869Y0084550D01*
X0201181Y0084484D01*
X0201492Y0084410D01*
X0201800Y0084329D01*
X0202107Y0084240D01*
X0202411Y0084144D01*
X0202713Y0084040D01*
X0203012Y0083929D01*
X0203308Y0083810D01*
X0203601Y0083685D01*
X0203891Y0083552D01*
X0204178Y0083412D01*
X0204461Y0083265D01*
X0204741Y0083111D01*
X0205016Y0082950D01*
X0205288Y0082783D01*
X0205555Y0082609D01*
X0205819Y0082429D01*
X0206077Y0082242D01*
X0206331Y0082049D01*
X0206580Y0081849D01*
X0206824Y0081644D01*
X0207063Y0081432D01*
X0207297Y0081215D01*
X0207525Y0080992D01*
X0207748Y0080764D01*
X0207965Y0080530D01*
X0208177Y0080291D01*
X0208382Y0080047D01*
X0208582Y0079798D01*
X0208775Y0079544D01*
X0208962Y0079286D01*
X0209142Y0079022D01*
X0209316Y0078755D01*
X0209483Y0078483D01*
X0209644Y0078208D01*
X0209798Y0077928D01*
X0209945Y0077645D01*
X0210085Y0077358D01*
X0210218Y0077068D01*
X0210343Y0076775D01*
X0210462Y0076479D01*
X0210573Y0076180D01*
X0210677Y0075878D01*
X0210773Y0075574D01*
X0210862Y0075267D01*
X0210943Y0074959D01*
X0211017Y0074648D01*
X0211083Y0074336D01*
X0211142Y0074023D01*
X0211192Y0073707D01*
X0211235Y0073391D01*
X0211270Y0073074D01*
X0211298Y0072756D01*
X0211317Y0072438D01*
X0211329Y0072119D01*
X0211333Y0071800D01*
X0211329Y0071481D01*
X0211317Y0071162D01*
X0211298Y0070844D01*
X0211270Y0070526D01*
X0211235Y0070209D01*
X0211192Y0069893D01*
X0211142Y0069577D01*
X0211083Y0069264D01*
X0211017Y0068952D01*
X0210943Y0068641D01*
X0210862Y0068333D01*
X0210773Y0068026D01*
X0210677Y0067722D01*
X0210573Y0067420D01*
X0210462Y0067121D01*
X0210343Y0066825D01*
X0210218Y0066532D01*
X0210085Y0066242D01*
X0209945Y0065955D01*
X0209798Y0065672D01*
X0209644Y0065392D01*
X0209483Y0065117D01*
X0209316Y0064845D01*
X0209142Y0064578D01*
X0208962Y0064314D01*
X0208775Y0064056D01*
X0208582Y0063802D01*
X0208382Y0063553D01*
X0208177Y0063309D01*
X0207965Y0063070D01*
X0207748Y0062836D01*
X0207525Y0062608D01*
X0207297Y0062385D01*
X0207063Y0062168D01*
X0206824Y0061956D01*
X0206580Y0061751D01*
X0206331Y0061551D01*
X0206077Y0061358D01*
X0205819Y0061171D01*
X0205555Y0060991D01*
X0205288Y0060817D01*
X0205016Y0060650D01*
X0204741Y0060489D01*
X0204461Y0060335D01*
X0204178Y0060188D01*
X0203891Y0060048D01*
X0203601Y0059915D01*
X0203308Y0059790D01*
X0203012Y0059671D01*
X0202713Y0059560D01*
X0202411Y0059456D01*
X0202107Y0059360D01*
X0201800Y0059271D01*
X0201492Y0059190D01*
X0201181Y0059116D01*
X0200869Y0059050D01*
X0200556Y0058991D01*
X0200240Y0058941D01*
X0199924Y0058898D01*
X0199607Y0058863D01*
X0199289Y0058835D01*
X0198971Y0058816D01*
X0198652Y0058804D01*
X0198333Y0058800D01*
X0198014Y0058804D01*
X0197695Y0058816D01*
X0197377Y0058835D01*
X0197059Y0058863D01*
X0196742Y0058898D01*
X0196426Y0058941D01*
X0196110Y0058991D01*
X0195797Y0059050D01*
X0195485Y0059116D01*
X0195174Y0059190D01*
X0194866Y0059271D01*
X0194559Y0059360D01*
X0194255Y0059456D01*
X0193953Y0059560D01*
X0193654Y0059671D01*
X0193358Y0059790D01*
X0193065Y0059915D01*
X0192775Y0060048D01*
X0192488Y0060188D01*
X0192205Y0060335D01*
X0191925Y0060489D01*
X0191650Y0060650D01*
X0191378Y0060817D01*
X0191111Y0060991D01*
X0190847Y0061171D01*
X0190589Y0061358D01*
X0190335Y0061551D01*
X0190086Y0061751D01*
X0189842Y0061956D01*
X0189603Y0062168D01*
X0189369Y0062385D01*
X0189141Y0062608D01*
X0188918Y0062836D01*
X0188701Y0063070D01*
X0188489Y0063309D01*
X0188284Y0063553D01*
X0188084Y0063802D01*
X0187891Y0064056D01*
X0187704Y0064314D01*
X0187524Y0064578D01*
X0187350Y0064845D01*
X0187183Y0065117D01*
X0187022Y0065392D01*
X0186868Y0065672D01*
X0186721Y0065955D01*
X0186581Y0066242D01*
X0186448Y0066532D01*
X0186323Y0066825D01*
X0186204Y0067121D01*
X0186093Y0067420D01*
X0185989Y0067722D01*
X0185893Y0068026D01*
X0185804Y0068333D01*
X0185723Y0068641D01*
X0185649Y0068952D01*
X0185583Y0069264D01*
X0185524Y0069577D01*
X0185474Y0069893D01*
X0185431Y0070209D01*
X0185396Y0070526D01*
X0185368Y0070844D01*
X0185349Y0071162D01*
X0185337Y0071481D01*
X0185333Y0071800D01*
X0198333Y0161800D02*
X0328333Y0161800D01*
X0328333Y0231800D01*
X0198333Y0231800D01*
X0198333Y0161800D01*
X0175153Y0251800D02*
X0175156Y0252074D01*
X0175166Y0252349D01*
X0175183Y0252622D01*
X0175207Y0252896D01*
X0175237Y0253169D01*
X0175274Y0253440D01*
X0175318Y0253711D01*
X0175368Y0253981D01*
X0175425Y0254250D01*
X0175488Y0254517D01*
X0175558Y0254782D01*
X0175634Y0255045D01*
X0175717Y0255307D01*
X0175807Y0255566D01*
X0175902Y0255824D01*
X0176004Y0256078D01*
X0176112Y0256331D01*
X0176226Y0256580D01*
X0176347Y0256827D01*
X0176473Y0257070D01*
X0176605Y0257311D01*
X0176744Y0257548D01*
X0176888Y0257781D01*
X0177037Y0258011D01*
X0177192Y0258238D01*
X0177353Y0258460D01*
X0177519Y0258678D01*
X0177691Y0258893D01*
X0177867Y0259102D01*
X0178049Y0259308D01*
X0178236Y0259509D01*
X0178428Y0259705D01*
X0178624Y0259897D01*
X0178825Y0260084D01*
X0179031Y0260266D01*
X0179240Y0260442D01*
X0179455Y0260614D01*
X0179673Y0260780D01*
X0179895Y0260941D01*
X0180122Y0261096D01*
X0180352Y0261245D01*
X0180585Y0261389D01*
X0180822Y0261528D01*
X0181063Y0261660D01*
X0181306Y0261786D01*
X0181553Y0261907D01*
X0181802Y0262021D01*
X0182055Y0262129D01*
X0182309Y0262231D01*
X0182567Y0262326D01*
X0182826Y0262416D01*
X0183088Y0262499D01*
X0183351Y0262575D01*
X0183616Y0262645D01*
X0183883Y0262708D01*
X0184152Y0262765D01*
X0184422Y0262815D01*
X0184693Y0262859D01*
X0184964Y0262896D01*
X0185237Y0262926D01*
X0185511Y0262950D01*
X0185784Y0262967D01*
X0186059Y0262977D01*
X0186333Y0262980D01*
X0186607Y0262977D01*
X0186882Y0262967D01*
X0187155Y0262950D01*
X0187429Y0262926D01*
X0187702Y0262896D01*
X0187973Y0262859D01*
X0188244Y0262815D01*
X0188514Y0262765D01*
X0188783Y0262708D01*
X0189050Y0262645D01*
X0189315Y0262575D01*
X0189578Y0262499D01*
X0189840Y0262416D01*
X0190099Y0262326D01*
X0190357Y0262231D01*
X0190611Y0262129D01*
X0190864Y0262021D01*
X0191113Y0261907D01*
X0191360Y0261786D01*
X0191603Y0261660D01*
X0191844Y0261528D01*
X0192081Y0261389D01*
X0192314Y0261245D01*
X0192544Y0261096D01*
X0192771Y0260941D01*
X0192993Y0260780D01*
X0193211Y0260614D01*
X0193426Y0260442D01*
X0193635Y0260266D01*
X0193841Y0260084D01*
X0194042Y0259897D01*
X0194238Y0259705D01*
X0194430Y0259509D01*
X0194617Y0259308D01*
X0194799Y0259102D01*
X0194975Y0258893D01*
X0195147Y0258678D01*
X0195313Y0258460D01*
X0195474Y0258238D01*
X0195629Y0258011D01*
X0195778Y0257781D01*
X0195922Y0257548D01*
X0196061Y0257311D01*
X0196193Y0257070D01*
X0196319Y0256827D01*
X0196440Y0256580D01*
X0196554Y0256331D01*
X0196662Y0256078D01*
X0196764Y0255824D01*
X0196859Y0255566D01*
X0196949Y0255307D01*
X0197032Y0255045D01*
X0197108Y0254782D01*
X0197178Y0254517D01*
X0197241Y0254250D01*
X0197298Y0253981D01*
X0197348Y0253711D01*
X0197392Y0253440D01*
X0197429Y0253169D01*
X0197459Y0252896D01*
X0197483Y0252622D01*
X0197500Y0252349D01*
X0197510Y0252074D01*
X0197513Y0251800D01*
X0197510Y0251526D01*
X0197500Y0251251D01*
X0197483Y0250978D01*
X0197459Y0250704D01*
X0197429Y0250431D01*
X0197392Y0250160D01*
X0197348Y0249889D01*
X0197298Y0249619D01*
X0197241Y0249350D01*
X0197178Y0249083D01*
X0197108Y0248818D01*
X0197032Y0248555D01*
X0196949Y0248293D01*
X0196859Y0248034D01*
X0196764Y0247776D01*
X0196662Y0247522D01*
X0196554Y0247269D01*
X0196440Y0247020D01*
X0196319Y0246773D01*
X0196193Y0246530D01*
X0196061Y0246289D01*
X0195922Y0246052D01*
X0195778Y0245819D01*
X0195629Y0245589D01*
X0195474Y0245362D01*
X0195313Y0245140D01*
X0195147Y0244922D01*
X0194975Y0244707D01*
X0194799Y0244498D01*
X0194617Y0244292D01*
X0194430Y0244091D01*
X0194238Y0243895D01*
X0194042Y0243703D01*
X0193841Y0243516D01*
X0193635Y0243334D01*
X0193426Y0243158D01*
X0193211Y0242986D01*
X0192993Y0242820D01*
X0192771Y0242659D01*
X0192544Y0242504D01*
X0192314Y0242355D01*
X0192081Y0242211D01*
X0191844Y0242072D01*
X0191603Y0241940D01*
X0191360Y0241814D01*
X0191113Y0241693D01*
X0190864Y0241579D01*
X0190611Y0241471D01*
X0190357Y0241369D01*
X0190099Y0241274D01*
X0189840Y0241184D01*
X0189578Y0241101D01*
X0189315Y0241025D01*
X0189050Y0240955D01*
X0188783Y0240892D01*
X0188514Y0240835D01*
X0188244Y0240785D01*
X0187973Y0240741D01*
X0187702Y0240704D01*
X0187429Y0240674D01*
X0187155Y0240650D01*
X0186882Y0240633D01*
X0186607Y0240623D01*
X0186333Y0240620D01*
X0186059Y0240623D01*
X0185784Y0240633D01*
X0185511Y0240650D01*
X0185237Y0240674D01*
X0184964Y0240704D01*
X0184693Y0240741D01*
X0184422Y0240785D01*
X0184152Y0240835D01*
X0183883Y0240892D01*
X0183616Y0240955D01*
X0183351Y0241025D01*
X0183088Y0241101D01*
X0182826Y0241184D01*
X0182567Y0241274D01*
X0182309Y0241369D01*
X0182055Y0241471D01*
X0181802Y0241579D01*
X0181553Y0241693D01*
X0181306Y0241814D01*
X0181063Y0241940D01*
X0180822Y0242072D01*
X0180585Y0242211D01*
X0180352Y0242355D01*
X0180122Y0242504D01*
X0179895Y0242659D01*
X0179673Y0242820D01*
X0179455Y0242986D01*
X0179240Y0243158D01*
X0179031Y0243334D01*
X0178825Y0243516D01*
X0178624Y0243703D01*
X0178428Y0243895D01*
X0178236Y0244091D01*
X0178049Y0244292D01*
X0177867Y0244498D01*
X0177691Y0244707D01*
X0177519Y0244922D01*
X0177353Y0245140D01*
X0177192Y0245362D01*
X0177037Y0245589D01*
X0176888Y0245819D01*
X0176744Y0246052D01*
X0176605Y0246289D01*
X0176473Y0246530D01*
X0176347Y0246773D01*
X0176226Y0247020D01*
X0176112Y0247269D01*
X0176004Y0247522D01*
X0175902Y0247776D01*
X0175807Y0248034D01*
X0175717Y0248293D01*
X0175634Y0248555D01*
X0175558Y0248818D01*
X0175488Y0249083D01*
X0175425Y0249350D01*
X0175368Y0249619D01*
X0175318Y0249889D01*
X0175274Y0250160D01*
X0175237Y0250431D01*
X0175207Y0250704D01*
X0175183Y0250978D01*
X0175166Y0251251D01*
X0175156Y0251526D01*
X0175153Y0251800D01*
X0111153Y0251800D02*
X0111156Y0252074D01*
X0111166Y0252349D01*
X0111183Y0252622D01*
X0111207Y0252896D01*
X0111237Y0253169D01*
X0111274Y0253440D01*
X0111318Y0253711D01*
X0111368Y0253981D01*
X0111425Y0254250D01*
X0111488Y0254517D01*
X0111558Y0254782D01*
X0111634Y0255045D01*
X0111717Y0255307D01*
X0111807Y0255566D01*
X0111902Y0255824D01*
X0112004Y0256078D01*
X0112112Y0256331D01*
X0112226Y0256580D01*
X0112347Y0256827D01*
X0112473Y0257070D01*
X0112605Y0257311D01*
X0112744Y0257548D01*
X0112888Y0257781D01*
X0113037Y0258011D01*
X0113192Y0258238D01*
X0113353Y0258460D01*
X0113519Y0258678D01*
X0113691Y0258893D01*
X0113867Y0259102D01*
X0114049Y0259308D01*
X0114236Y0259509D01*
X0114428Y0259705D01*
X0114624Y0259897D01*
X0114825Y0260084D01*
X0115031Y0260266D01*
X0115240Y0260442D01*
X0115455Y0260614D01*
X0115673Y0260780D01*
X0115895Y0260941D01*
X0116122Y0261096D01*
X0116352Y0261245D01*
X0116585Y0261389D01*
X0116822Y0261528D01*
X0117063Y0261660D01*
X0117306Y0261786D01*
X0117553Y0261907D01*
X0117802Y0262021D01*
X0118055Y0262129D01*
X0118309Y0262231D01*
X0118567Y0262326D01*
X0118826Y0262416D01*
X0119088Y0262499D01*
X0119351Y0262575D01*
X0119616Y0262645D01*
X0119883Y0262708D01*
X0120152Y0262765D01*
X0120422Y0262815D01*
X0120693Y0262859D01*
X0120964Y0262896D01*
X0121237Y0262926D01*
X0121511Y0262950D01*
X0121784Y0262967D01*
X0122059Y0262977D01*
X0122333Y0262980D01*
X0122607Y0262977D01*
X0122882Y0262967D01*
X0123155Y0262950D01*
X0123429Y0262926D01*
X0123702Y0262896D01*
X0123973Y0262859D01*
X0124244Y0262815D01*
X0124514Y0262765D01*
X0124783Y0262708D01*
X0125050Y0262645D01*
X0125315Y0262575D01*
X0125578Y0262499D01*
X0125840Y0262416D01*
X0126099Y0262326D01*
X0126357Y0262231D01*
X0126611Y0262129D01*
X0126864Y0262021D01*
X0127113Y0261907D01*
X0127360Y0261786D01*
X0127603Y0261660D01*
X0127844Y0261528D01*
X0128081Y0261389D01*
X0128314Y0261245D01*
X0128544Y0261096D01*
X0128771Y0260941D01*
X0128993Y0260780D01*
X0129211Y0260614D01*
X0129426Y0260442D01*
X0129635Y0260266D01*
X0129841Y0260084D01*
X0130042Y0259897D01*
X0130238Y0259705D01*
X0130430Y0259509D01*
X0130617Y0259308D01*
X0130799Y0259102D01*
X0130975Y0258893D01*
X0131147Y0258678D01*
X0131313Y0258460D01*
X0131474Y0258238D01*
X0131629Y0258011D01*
X0131778Y0257781D01*
X0131922Y0257548D01*
X0132061Y0257311D01*
X0132193Y0257070D01*
X0132319Y0256827D01*
X0132440Y0256580D01*
X0132554Y0256331D01*
X0132662Y0256078D01*
X0132764Y0255824D01*
X0132859Y0255566D01*
X0132949Y0255307D01*
X0133032Y0255045D01*
X0133108Y0254782D01*
X0133178Y0254517D01*
X0133241Y0254250D01*
X0133298Y0253981D01*
X0133348Y0253711D01*
X0133392Y0253440D01*
X0133429Y0253169D01*
X0133459Y0252896D01*
X0133483Y0252622D01*
X0133500Y0252349D01*
X0133510Y0252074D01*
X0133513Y0251800D01*
X0133510Y0251526D01*
X0133500Y0251251D01*
X0133483Y0250978D01*
X0133459Y0250704D01*
X0133429Y0250431D01*
X0133392Y0250160D01*
X0133348Y0249889D01*
X0133298Y0249619D01*
X0133241Y0249350D01*
X0133178Y0249083D01*
X0133108Y0248818D01*
X0133032Y0248555D01*
X0132949Y0248293D01*
X0132859Y0248034D01*
X0132764Y0247776D01*
X0132662Y0247522D01*
X0132554Y0247269D01*
X0132440Y0247020D01*
X0132319Y0246773D01*
X0132193Y0246530D01*
X0132061Y0246289D01*
X0131922Y0246052D01*
X0131778Y0245819D01*
X0131629Y0245589D01*
X0131474Y0245362D01*
X0131313Y0245140D01*
X0131147Y0244922D01*
X0130975Y0244707D01*
X0130799Y0244498D01*
X0130617Y0244292D01*
X0130430Y0244091D01*
X0130238Y0243895D01*
X0130042Y0243703D01*
X0129841Y0243516D01*
X0129635Y0243334D01*
X0129426Y0243158D01*
X0129211Y0242986D01*
X0128993Y0242820D01*
X0128771Y0242659D01*
X0128544Y0242504D01*
X0128314Y0242355D01*
X0128081Y0242211D01*
X0127844Y0242072D01*
X0127603Y0241940D01*
X0127360Y0241814D01*
X0127113Y0241693D01*
X0126864Y0241579D01*
X0126611Y0241471D01*
X0126357Y0241369D01*
X0126099Y0241274D01*
X0125840Y0241184D01*
X0125578Y0241101D01*
X0125315Y0241025D01*
X0125050Y0240955D01*
X0124783Y0240892D01*
X0124514Y0240835D01*
X0124244Y0240785D01*
X0123973Y0240741D01*
X0123702Y0240704D01*
X0123429Y0240674D01*
X0123155Y0240650D01*
X0122882Y0240633D01*
X0122607Y0240623D01*
X0122333Y0240620D01*
X0122059Y0240623D01*
X0121784Y0240633D01*
X0121511Y0240650D01*
X0121237Y0240674D01*
X0120964Y0240704D01*
X0120693Y0240741D01*
X0120422Y0240785D01*
X0120152Y0240835D01*
X0119883Y0240892D01*
X0119616Y0240955D01*
X0119351Y0241025D01*
X0119088Y0241101D01*
X0118826Y0241184D01*
X0118567Y0241274D01*
X0118309Y0241369D01*
X0118055Y0241471D01*
X0117802Y0241579D01*
X0117553Y0241693D01*
X0117306Y0241814D01*
X0117063Y0241940D01*
X0116822Y0242072D01*
X0116585Y0242211D01*
X0116352Y0242355D01*
X0116122Y0242504D01*
X0115895Y0242659D01*
X0115673Y0242820D01*
X0115455Y0242986D01*
X0115240Y0243158D01*
X0115031Y0243334D01*
X0114825Y0243516D01*
X0114624Y0243703D01*
X0114428Y0243895D01*
X0114236Y0244091D01*
X0114049Y0244292D01*
X0113867Y0244498D01*
X0113691Y0244707D01*
X0113519Y0244922D01*
X0113353Y0245140D01*
X0113192Y0245362D01*
X0113037Y0245589D01*
X0112888Y0245819D01*
X0112744Y0246052D01*
X0112605Y0246289D01*
X0112473Y0246530D01*
X0112347Y0246773D01*
X0112226Y0247020D01*
X0112112Y0247269D01*
X0112004Y0247522D01*
X0111902Y0247776D01*
X0111807Y0248034D01*
X0111717Y0248293D01*
X0111634Y0248555D01*
X0111558Y0248818D01*
X0111488Y0249083D01*
X0111425Y0249350D01*
X0111368Y0249619D01*
X0111318Y0249889D01*
X0111274Y0250160D01*
X0111237Y0250431D01*
X0111207Y0250704D01*
X0111183Y0250978D01*
X0111166Y0251251D01*
X0111156Y0251526D01*
X0111153Y0251800D01*
X0047153Y0251800D02*
X0047156Y0252074D01*
X0047166Y0252349D01*
X0047183Y0252622D01*
X0047207Y0252896D01*
X0047237Y0253169D01*
X0047274Y0253440D01*
X0047318Y0253711D01*
X0047368Y0253981D01*
X0047425Y0254250D01*
X0047488Y0254517D01*
X0047558Y0254782D01*
X0047634Y0255045D01*
X0047717Y0255307D01*
X0047807Y0255566D01*
X0047902Y0255824D01*
X0048004Y0256078D01*
X0048112Y0256331D01*
X0048226Y0256580D01*
X0048347Y0256827D01*
X0048473Y0257070D01*
X0048605Y0257311D01*
X0048744Y0257548D01*
X0048888Y0257781D01*
X0049037Y0258011D01*
X0049192Y0258238D01*
X0049353Y0258460D01*
X0049519Y0258678D01*
X0049691Y0258893D01*
X0049867Y0259102D01*
X0050049Y0259308D01*
X0050236Y0259509D01*
X0050428Y0259705D01*
X0050624Y0259897D01*
X0050825Y0260084D01*
X0051031Y0260266D01*
X0051240Y0260442D01*
X0051455Y0260614D01*
X0051673Y0260780D01*
X0051895Y0260941D01*
X0052122Y0261096D01*
X0052352Y0261245D01*
X0052585Y0261389D01*
X0052822Y0261528D01*
X0053063Y0261660D01*
X0053306Y0261786D01*
X0053553Y0261907D01*
X0053802Y0262021D01*
X0054055Y0262129D01*
X0054309Y0262231D01*
X0054567Y0262326D01*
X0054826Y0262416D01*
X0055088Y0262499D01*
X0055351Y0262575D01*
X0055616Y0262645D01*
X0055883Y0262708D01*
X0056152Y0262765D01*
X0056422Y0262815D01*
X0056693Y0262859D01*
X0056964Y0262896D01*
X0057237Y0262926D01*
X0057511Y0262950D01*
X0057784Y0262967D01*
X0058059Y0262977D01*
X0058333Y0262980D01*
X0058607Y0262977D01*
X0058882Y0262967D01*
X0059155Y0262950D01*
X0059429Y0262926D01*
X0059702Y0262896D01*
X0059973Y0262859D01*
X0060244Y0262815D01*
X0060514Y0262765D01*
X0060783Y0262708D01*
X0061050Y0262645D01*
X0061315Y0262575D01*
X0061578Y0262499D01*
X0061840Y0262416D01*
X0062099Y0262326D01*
X0062357Y0262231D01*
X0062611Y0262129D01*
X0062864Y0262021D01*
X0063113Y0261907D01*
X0063360Y0261786D01*
X0063603Y0261660D01*
X0063844Y0261528D01*
X0064081Y0261389D01*
X0064314Y0261245D01*
X0064544Y0261096D01*
X0064771Y0260941D01*
X0064993Y0260780D01*
X0065211Y0260614D01*
X0065426Y0260442D01*
X0065635Y0260266D01*
X0065841Y0260084D01*
X0066042Y0259897D01*
X0066238Y0259705D01*
X0066430Y0259509D01*
X0066617Y0259308D01*
X0066799Y0259102D01*
X0066975Y0258893D01*
X0067147Y0258678D01*
X0067313Y0258460D01*
X0067474Y0258238D01*
X0067629Y0258011D01*
X0067778Y0257781D01*
X0067922Y0257548D01*
X0068061Y0257311D01*
X0068193Y0257070D01*
X0068319Y0256827D01*
X0068440Y0256580D01*
X0068554Y0256331D01*
X0068662Y0256078D01*
X0068764Y0255824D01*
X0068859Y0255566D01*
X0068949Y0255307D01*
X0069032Y0255045D01*
X0069108Y0254782D01*
X0069178Y0254517D01*
X0069241Y0254250D01*
X0069298Y0253981D01*
X0069348Y0253711D01*
X0069392Y0253440D01*
X0069429Y0253169D01*
X0069459Y0252896D01*
X0069483Y0252622D01*
X0069500Y0252349D01*
X0069510Y0252074D01*
X0069513Y0251800D01*
X0069510Y0251526D01*
X0069500Y0251251D01*
X0069483Y0250978D01*
X0069459Y0250704D01*
X0069429Y0250431D01*
X0069392Y0250160D01*
X0069348Y0249889D01*
X0069298Y0249619D01*
X0069241Y0249350D01*
X0069178Y0249083D01*
X0069108Y0248818D01*
X0069032Y0248555D01*
X0068949Y0248293D01*
X0068859Y0248034D01*
X0068764Y0247776D01*
X0068662Y0247522D01*
X0068554Y0247269D01*
X0068440Y0247020D01*
X0068319Y0246773D01*
X0068193Y0246530D01*
X0068061Y0246289D01*
X0067922Y0246052D01*
X0067778Y0245819D01*
X0067629Y0245589D01*
X0067474Y0245362D01*
X0067313Y0245140D01*
X0067147Y0244922D01*
X0066975Y0244707D01*
X0066799Y0244498D01*
X0066617Y0244292D01*
X0066430Y0244091D01*
X0066238Y0243895D01*
X0066042Y0243703D01*
X0065841Y0243516D01*
X0065635Y0243334D01*
X0065426Y0243158D01*
X0065211Y0242986D01*
X0064993Y0242820D01*
X0064771Y0242659D01*
X0064544Y0242504D01*
X0064314Y0242355D01*
X0064081Y0242211D01*
X0063844Y0242072D01*
X0063603Y0241940D01*
X0063360Y0241814D01*
X0063113Y0241693D01*
X0062864Y0241579D01*
X0062611Y0241471D01*
X0062357Y0241369D01*
X0062099Y0241274D01*
X0061840Y0241184D01*
X0061578Y0241101D01*
X0061315Y0241025D01*
X0061050Y0240955D01*
X0060783Y0240892D01*
X0060514Y0240835D01*
X0060244Y0240785D01*
X0059973Y0240741D01*
X0059702Y0240704D01*
X0059429Y0240674D01*
X0059155Y0240650D01*
X0058882Y0240633D01*
X0058607Y0240623D01*
X0058333Y0240620D01*
X0058059Y0240623D01*
X0057784Y0240633D01*
X0057511Y0240650D01*
X0057237Y0240674D01*
X0056964Y0240704D01*
X0056693Y0240741D01*
X0056422Y0240785D01*
X0056152Y0240835D01*
X0055883Y0240892D01*
X0055616Y0240955D01*
X0055351Y0241025D01*
X0055088Y0241101D01*
X0054826Y0241184D01*
X0054567Y0241274D01*
X0054309Y0241369D01*
X0054055Y0241471D01*
X0053802Y0241579D01*
X0053553Y0241693D01*
X0053306Y0241814D01*
X0053063Y0241940D01*
X0052822Y0242072D01*
X0052585Y0242211D01*
X0052352Y0242355D01*
X0052122Y0242504D01*
X0051895Y0242659D01*
X0051673Y0242820D01*
X0051455Y0242986D01*
X0051240Y0243158D01*
X0051031Y0243334D01*
X0050825Y0243516D01*
X0050624Y0243703D01*
X0050428Y0243895D01*
X0050236Y0244091D01*
X0050049Y0244292D01*
X0049867Y0244498D01*
X0049691Y0244707D01*
X0049519Y0244922D01*
X0049353Y0245140D01*
X0049192Y0245362D01*
X0049037Y0245589D01*
X0048888Y0245819D01*
X0048744Y0246052D01*
X0048605Y0246289D01*
X0048473Y0246530D01*
X0048347Y0246773D01*
X0048226Y0247020D01*
X0048112Y0247269D01*
X0048004Y0247522D01*
X0047902Y0247776D01*
X0047807Y0248034D01*
X0047717Y0248293D01*
X0047634Y0248555D01*
X0047558Y0248818D01*
X0047488Y0249083D01*
X0047425Y0249350D01*
X0047368Y0249619D01*
X0047318Y0249889D01*
X0047274Y0250160D01*
X0047237Y0250431D01*
X0047207Y0250704D01*
X0047183Y0250978D01*
X0047166Y0251251D01*
X0047156Y0251526D01*
X0047153Y0251800D01*
X0237153Y0251800D02*
X0237156Y0252074D01*
X0237166Y0252349D01*
X0237183Y0252622D01*
X0237207Y0252896D01*
X0237237Y0253169D01*
X0237274Y0253440D01*
X0237318Y0253711D01*
X0237368Y0253981D01*
X0237425Y0254250D01*
X0237488Y0254517D01*
X0237558Y0254782D01*
X0237634Y0255045D01*
X0237717Y0255307D01*
X0237807Y0255566D01*
X0237902Y0255824D01*
X0238004Y0256078D01*
X0238112Y0256331D01*
X0238226Y0256580D01*
X0238347Y0256827D01*
X0238473Y0257070D01*
X0238605Y0257311D01*
X0238744Y0257548D01*
X0238888Y0257781D01*
X0239037Y0258011D01*
X0239192Y0258238D01*
X0239353Y0258460D01*
X0239519Y0258678D01*
X0239691Y0258893D01*
X0239867Y0259102D01*
X0240049Y0259308D01*
X0240236Y0259509D01*
X0240428Y0259705D01*
X0240624Y0259897D01*
X0240825Y0260084D01*
X0241031Y0260266D01*
X0241240Y0260442D01*
X0241455Y0260614D01*
X0241673Y0260780D01*
X0241895Y0260941D01*
X0242122Y0261096D01*
X0242352Y0261245D01*
X0242585Y0261389D01*
X0242822Y0261528D01*
X0243063Y0261660D01*
X0243306Y0261786D01*
X0243553Y0261907D01*
X0243802Y0262021D01*
X0244055Y0262129D01*
X0244309Y0262231D01*
X0244567Y0262326D01*
X0244826Y0262416D01*
X0245088Y0262499D01*
X0245351Y0262575D01*
X0245616Y0262645D01*
X0245883Y0262708D01*
X0246152Y0262765D01*
X0246422Y0262815D01*
X0246693Y0262859D01*
X0246964Y0262896D01*
X0247237Y0262926D01*
X0247511Y0262950D01*
X0247784Y0262967D01*
X0248059Y0262977D01*
X0248333Y0262980D01*
X0248607Y0262977D01*
X0248882Y0262967D01*
X0249155Y0262950D01*
X0249429Y0262926D01*
X0249702Y0262896D01*
X0249973Y0262859D01*
X0250244Y0262815D01*
X0250514Y0262765D01*
X0250783Y0262708D01*
X0251050Y0262645D01*
X0251315Y0262575D01*
X0251578Y0262499D01*
X0251840Y0262416D01*
X0252099Y0262326D01*
X0252357Y0262231D01*
X0252611Y0262129D01*
X0252864Y0262021D01*
X0253113Y0261907D01*
X0253360Y0261786D01*
X0253603Y0261660D01*
X0253844Y0261528D01*
X0254081Y0261389D01*
X0254314Y0261245D01*
X0254544Y0261096D01*
X0254771Y0260941D01*
X0254993Y0260780D01*
X0255211Y0260614D01*
X0255426Y0260442D01*
X0255635Y0260266D01*
X0255841Y0260084D01*
X0256042Y0259897D01*
X0256238Y0259705D01*
X0256430Y0259509D01*
X0256617Y0259308D01*
X0256799Y0259102D01*
X0256975Y0258893D01*
X0257147Y0258678D01*
X0257313Y0258460D01*
X0257474Y0258238D01*
X0257629Y0258011D01*
X0257778Y0257781D01*
X0257922Y0257548D01*
X0258061Y0257311D01*
X0258193Y0257070D01*
X0258319Y0256827D01*
X0258440Y0256580D01*
X0258554Y0256331D01*
X0258662Y0256078D01*
X0258764Y0255824D01*
X0258859Y0255566D01*
X0258949Y0255307D01*
X0259032Y0255045D01*
X0259108Y0254782D01*
X0259178Y0254517D01*
X0259241Y0254250D01*
X0259298Y0253981D01*
X0259348Y0253711D01*
X0259392Y0253440D01*
X0259429Y0253169D01*
X0259459Y0252896D01*
X0259483Y0252622D01*
X0259500Y0252349D01*
X0259510Y0252074D01*
X0259513Y0251800D01*
X0259510Y0251526D01*
X0259500Y0251251D01*
X0259483Y0250978D01*
X0259459Y0250704D01*
X0259429Y0250431D01*
X0259392Y0250160D01*
X0259348Y0249889D01*
X0259298Y0249619D01*
X0259241Y0249350D01*
X0259178Y0249083D01*
X0259108Y0248818D01*
X0259032Y0248555D01*
X0258949Y0248293D01*
X0258859Y0248034D01*
X0258764Y0247776D01*
X0258662Y0247522D01*
X0258554Y0247269D01*
X0258440Y0247020D01*
X0258319Y0246773D01*
X0258193Y0246530D01*
X0258061Y0246289D01*
X0257922Y0246052D01*
X0257778Y0245819D01*
X0257629Y0245589D01*
X0257474Y0245362D01*
X0257313Y0245140D01*
X0257147Y0244922D01*
X0256975Y0244707D01*
X0256799Y0244498D01*
X0256617Y0244292D01*
X0256430Y0244091D01*
X0256238Y0243895D01*
X0256042Y0243703D01*
X0255841Y0243516D01*
X0255635Y0243334D01*
X0255426Y0243158D01*
X0255211Y0242986D01*
X0254993Y0242820D01*
X0254771Y0242659D01*
X0254544Y0242504D01*
X0254314Y0242355D01*
X0254081Y0242211D01*
X0253844Y0242072D01*
X0253603Y0241940D01*
X0253360Y0241814D01*
X0253113Y0241693D01*
X0252864Y0241579D01*
X0252611Y0241471D01*
X0252357Y0241369D01*
X0252099Y0241274D01*
X0251840Y0241184D01*
X0251578Y0241101D01*
X0251315Y0241025D01*
X0251050Y0240955D01*
X0250783Y0240892D01*
X0250514Y0240835D01*
X0250244Y0240785D01*
X0249973Y0240741D01*
X0249702Y0240704D01*
X0249429Y0240674D01*
X0249155Y0240650D01*
X0248882Y0240633D01*
X0248607Y0240623D01*
X0248333Y0240620D01*
X0248059Y0240623D01*
X0247784Y0240633D01*
X0247511Y0240650D01*
X0247237Y0240674D01*
X0246964Y0240704D01*
X0246693Y0240741D01*
X0246422Y0240785D01*
X0246152Y0240835D01*
X0245883Y0240892D01*
X0245616Y0240955D01*
X0245351Y0241025D01*
X0245088Y0241101D01*
X0244826Y0241184D01*
X0244567Y0241274D01*
X0244309Y0241369D01*
X0244055Y0241471D01*
X0243802Y0241579D01*
X0243553Y0241693D01*
X0243306Y0241814D01*
X0243063Y0241940D01*
X0242822Y0242072D01*
X0242585Y0242211D01*
X0242352Y0242355D01*
X0242122Y0242504D01*
X0241895Y0242659D01*
X0241673Y0242820D01*
X0241455Y0242986D01*
X0241240Y0243158D01*
X0241031Y0243334D01*
X0240825Y0243516D01*
X0240624Y0243703D01*
X0240428Y0243895D01*
X0240236Y0244091D01*
X0240049Y0244292D01*
X0239867Y0244498D01*
X0239691Y0244707D01*
X0239519Y0244922D01*
X0239353Y0245140D01*
X0239192Y0245362D01*
X0239037Y0245589D01*
X0238888Y0245819D01*
X0238744Y0246052D01*
X0238605Y0246289D01*
X0238473Y0246530D01*
X0238347Y0246773D01*
X0238226Y0247020D01*
X0238112Y0247269D01*
X0238004Y0247522D01*
X0237902Y0247776D01*
X0237807Y0248034D01*
X0237717Y0248293D01*
X0237634Y0248555D01*
X0237558Y0248818D01*
X0237488Y0249083D01*
X0237425Y0249350D01*
X0237368Y0249619D01*
X0237318Y0249889D01*
X0237274Y0250160D01*
X0237237Y0250431D01*
X0237207Y0250704D01*
X0237183Y0250978D01*
X0237166Y0251251D01*
X0237156Y0251526D01*
X0237153Y0251800D01*
X0303153Y0251800D02*
X0303156Y0252074D01*
X0303166Y0252349D01*
X0303183Y0252622D01*
X0303207Y0252896D01*
X0303237Y0253169D01*
X0303274Y0253440D01*
X0303318Y0253711D01*
X0303368Y0253981D01*
X0303425Y0254250D01*
X0303488Y0254517D01*
X0303558Y0254782D01*
X0303634Y0255045D01*
X0303717Y0255307D01*
X0303807Y0255566D01*
X0303902Y0255824D01*
X0304004Y0256078D01*
X0304112Y0256331D01*
X0304226Y0256580D01*
X0304347Y0256827D01*
X0304473Y0257070D01*
X0304605Y0257311D01*
X0304744Y0257548D01*
X0304888Y0257781D01*
X0305037Y0258011D01*
X0305192Y0258238D01*
X0305353Y0258460D01*
X0305519Y0258678D01*
X0305691Y0258893D01*
X0305867Y0259102D01*
X0306049Y0259308D01*
X0306236Y0259509D01*
X0306428Y0259705D01*
X0306624Y0259897D01*
X0306825Y0260084D01*
X0307031Y0260266D01*
X0307240Y0260442D01*
X0307455Y0260614D01*
X0307673Y0260780D01*
X0307895Y0260941D01*
X0308122Y0261096D01*
X0308352Y0261245D01*
X0308585Y0261389D01*
X0308822Y0261528D01*
X0309063Y0261660D01*
X0309306Y0261786D01*
X0309553Y0261907D01*
X0309802Y0262021D01*
X0310055Y0262129D01*
X0310309Y0262231D01*
X0310567Y0262326D01*
X0310826Y0262416D01*
X0311088Y0262499D01*
X0311351Y0262575D01*
X0311616Y0262645D01*
X0311883Y0262708D01*
X0312152Y0262765D01*
X0312422Y0262815D01*
X0312693Y0262859D01*
X0312964Y0262896D01*
X0313237Y0262926D01*
X0313511Y0262950D01*
X0313784Y0262967D01*
X0314059Y0262977D01*
X0314333Y0262980D01*
X0314607Y0262977D01*
X0314882Y0262967D01*
X0315155Y0262950D01*
X0315429Y0262926D01*
X0315702Y0262896D01*
X0315973Y0262859D01*
X0316244Y0262815D01*
X0316514Y0262765D01*
X0316783Y0262708D01*
X0317050Y0262645D01*
X0317315Y0262575D01*
X0317578Y0262499D01*
X0317840Y0262416D01*
X0318099Y0262326D01*
X0318357Y0262231D01*
X0318611Y0262129D01*
X0318864Y0262021D01*
X0319113Y0261907D01*
X0319360Y0261786D01*
X0319603Y0261660D01*
X0319844Y0261528D01*
X0320081Y0261389D01*
X0320314Y0261245D01*
X0320544Y0261096D01*
X0320771Y0260941D01*
X0320993Y0260780D01*
X0321211Y0260614D01*
X0321426Y0260442D01*
X0321635Y0260266D01*
X0321841Y0260084D01*
X0322042Y0259897D01*
X0322238Y0259705D01*
X0322430Y0259509D01*
X0322617Y0259308D01*
X0322799Y0259102D01*
X0322975Y0258893D01*
X0323147Y0258678D01*
X0323313Y0258460D01*
X0323474Y0258238D01*
X0323629Y0258011D01*
X0323778Y0257781D01*
X0323922Y0257548D01*
X0324061Y0257311D01*
X0324193Y0257070D01*
X0324319Y0256827D01*
X0324440Y0256580D01*
X0324554Y0256331D01*
X0324662Y0256078D01*
X0324764Y0255824D01*
X0324859Y0255566D01*
X0324949Y0255307D01*
X0325032Y0255045D01*
X0325108Y0254782D01*
X0325178Y0254517D01*
X0325241Y0254250D01*
X0325298Y0253981D01*
X0325348Y0253711D01*
X0325392Y0253440D01*
X0325429Y0253169D01*
X0325459Y0252896D01*
X0325483Y0252622D01*
X0325500Y0252349D01*
X0325510Y0252074D01*
X0325513Y0251800D01*
X0325510Y0251526D01*
X0325500Y0251251D01*
X0325483Y0250978D01*
X0325459Y0250704D01*
X0325429Y0250431D01*
X0325392Y0250160D01*
X0325348Y0249889D01*
X0325298Y0249619D01*
X0325241Y0249350D01*
X0325178Y0249083D01*
X0325108Y0248818D01*
X0325032Y0248555D01*
X0324949Y0248293D01*
X0324859Y0248034D01*
X0324764Y0247776D01*
X0324662Y0247522D01*
X0324554Y0247269D01*
X0324440Y0247020D01*
X0324319Y0246773D01*
X0324193Y0246530D01*
X0324061Y0246289D01*
X0323922Y0246052D01*
X0323778Y0245819D01*
X0323629Y0245589D01*
X0323474Y0245362D01*
X0323313Y0245140D01*
X0323147Y0244922D01*
X0322975Y0244707D01*
X0322799Y0244498D01*
X0322617Y0244292D01*
X0322430Y0244091D01*
X0322238Y0243895D01*
X0322042Y0243703D01*
X0321841Y0243516D01*
X0321635Y0243334D01*
X0321426Y0243158D01*
X0321211Y0242986D01*
X0320993Y0242820D01*
X0320771Y0242659D01*
X0320544Y0242504D01*
X0320314Y0242355D01*
X0320081Y0242211D01*
X0319844Y0242072D01*
X0319603Y0241940D01*
X0319360Y0241814D01*
X0319113Y0241693D01*
X0318864Y0241579D01*
X0318611Y0241471D01*
X0318357Y0241369D01*
X0318099Y0241274D01*
X0317840Y0241184D01*
X0317578Y0241101D01*
X0317315Y0241025D01*
X0317050Y0240955D01*
X0316783Y0240892D01*
X0316514Y0240835D01*
X0316244Y0240785D01*
X0315973Y0240741D01*
X0315702Y0240704D01*
X0315429Y0240674D01*
X0315155Y0240650D01*
X0314882Y0240633D01*
X0314607Y0240623D01*
X0314333Y0240620D01*
X0314059Y0240623D01*
X0313784Y0240633D01*
X0313511Y0240650D01*
X0313237Y0240674D01*
X0312964Y0240704D01*
X0312693Y0240741D01*
X0312422Y0240785D01*
X0312152Y0240835D01*
X0311883Y0240892D01*
X0311616Y0240955D01*
X0311351Y0241025D01*
X0311088Y0241101D01*
X0310826Y0241184D01*
X0310567Y0241274D01*
X0310309Y0241369D01*
X0310055Y0241471D01*
X0309802Y0241579D01*
X0309553Y0241693D01*
X0309306Y0241814D01*
X0309063Y0241940D01*
X0308822Y0242072D01*
X0308585Y0242211D01*
X0308352Y0242355D01*
X0308122Y0242504D01*
X0307895Y0242659D01*
X0307673Y0242820D01*
X0307455Y0242986D01*
X0307240Y0243158D01*
X0307031Y0243334D01*
X0306825Y0243516D01*
X0306624Y0243703D01*
X0306428Y0243895D01*
X0306236Y0244091D01*
X0306049Y0244292D01*
X0305867Y0244498D01*
X0305691Y0244707D01*
X0305519Y0244922D01*
X0305353Y0245140D01*
X0305192Y0245362D01*
X0305037Y0245589D01*
X0304888Y0245819D01*
X0304744Y0246052D01*
X0304605Y0246289D01*
X0304473Y0246530D01*
X0304347Y0246773D01*
X0304226Y0247020D01*
X0304112Y0247269D01*
X0304004Y0247522D01*
X0303902Y0247776D01*
X0303807Y0248034D01*
X0303717Y0248293D01*
X0303634Y0248555D01*
X0303558Y0248818D01*
X0303488Y0249083D01*
X0303425Y0249350D01*
X0303368Y0249619D01*
X0303318Y0249889D01*
X0303274Y0250160D01*
X0303237Y0250431D01*
X0303207Y0250704D01*
X0303183Y0250978D01*
X0303166Y0251251D01*
X0303156Y0251526D01*
X0303153Y0251800D01*
X0367153Y0251800D02*
X0367156Y0252074D01*
X0367166Y0252349D01*
X0367183Y0252622D01*
X0367207Y0252896D01*
X0367237Y0253169D01*
X0367274Y0253440D01*
X0367318Y0253711D01*
X0367368Y0253981D01*
X0367425Y0254250D01*
X0367488Y0254517D01*
X0367558Y0254782D01*
X0367634Y0255045D01*
X0367717Y0255307D01*
X0367807Y0255566D01*
X0367902Y0255824D01*
X0368004Y0256078D01*
X0368112Y0256331D01*
X0368226Y0256580D01*
X0368347Y0256827D01*
X0368473Y0257070D01*
X0368605Y0257311D01*
X0368744Y0257548D01*
X0368888Y0257781D01*
X0369037Y0258011D01*
X0369192Y0258238D01*
X0369353Y0258460D01*
X0369519Y0258678D01*
X0369691Y0258893D01*
X0369867Y0259102D01*
X0370049Y0259308D01*
X0370236Y0259509D01*
X0370428Y0259705D01*
X0370624Y0259897D01*
X0370825Y0260084D01*
X0371031Y0260266D01*
X0371240Y0260442D01*
X0371455Y0260614D01*
X0371673Y0260780D01*
X0371895Y0260941D01*
X0372122Y0261096D01*
X0372352Y0261245D01*
X0372585Y0261389D01*
X0372822Y0261528D01*
X0373063Y0261660D01*
X0373306Y0261786D01*
X0373553Y0261907D01*
X0373802Y0262021D01*
X0374055Y0262129D01*
X0374309Y0262231D01*
X0374567Y0262326D01*
X0374826Y0262416D01*
X0375088Y0262499D01*
X0375351Y0262575D01*
X0375616Y0262645D01*
X0375883Y0262708D01*
X0376152Y0262765D01*
X0376422Y0262815D01*
X0376693Y0262859D01*
X0376964Y0262896D01*
X0377237Y0262926D01*
X0377511Y0262950D01*
X0377784Y0262967D01*
X0378059Y0262977D01*
X0378333Y0262980D01*
X0378607Y0262977D01*
X0378882Y0262967D01*
X0379155Y0262950D01*
X0379429Y0262926D01*
X0379702Y0262896D01*
X0379973Y0262859D01*
X0380244Y0262815D01*
X0380514Y0262765D01*
X0380783Y0262708D01*
X0381050Y0262645D01*
X0381315Y0262575D01*
X0381578Y0262499D01*
X0381840Y0262416D01*
X0382099Y0262326D01*
X0382357Y0262231D01*
X0382611Y0262129D01*
X0382864Y0262021D01*
X0383113Y0261907D01*
X0383360Y0261786D01*
X0383603Y0261660D01*
X0383844Y0261528D01*
X0384081Y0261389D01*
X0384314Y0261245D01*
X0384544Y0261096D01*
X0384771Y0260941D01*
X0384993Y0260780D01*
X0385211Y0260614D01*
X0385426Y0260442D01*
X0385635Y0260266D01*
X0385841Y0260084D01*
X0386042Y0259897D01*
X0386238Y0259705D01*
X0386430Y0259509D01*
X0386617Y0259308D01*
X0386799Y0259102D01*
X0386975Y0258893D01*
X0387147Y0258678D01*
X0387313Y0258460D01*
X0387474Y0258238D01*
X0387629Y0258011D01*
X0387778Y0257781D01*
X0387922Y0257548D01*
X0388061Y0257311D01*
X0388193Y0257070D01*
X0388319Y0256827D01*
X0388440Y0256580D01*
X0388554Y0256331D01*
X0388662Y0256078D01*
X0388764Y0255824D01*
X0388859Y0255566D01*
X0388949Y0255307D01*
X0389032Y0255045D01*
X0389108Y0254782D01*
X0389178Y0254517D01*
X0389241Y0254250D01*
X0389298Y0253981D01*
X0389348Y0253711D01*
X0389392Y0253440D01*
X0389429Y0253169D01*
X0389459Y0252896D01*
X0389483Y0252622D01*
X0389500Y0252349D01*
X0389510Y0252074D01*
X0389513Y0251800D01*
X0389510Y0251526D01*
X0389500Y0251251D01*
X0389483Y0250978D01*
X0389459Y0250704D01*
X0389429Y0250431D01*
X0389392Y0250160D01*
X0389348Y0249889D01*
X0389298Y0249619D01*
X0389241Y0249350D01*
X0389178Y0249083D01*
X0389108Y0248818D01*
X0389032Y0248555D01*
X0388949Y0248293D01*
X0388859Y0248034D01*
X0388764Y0247776D01*
X0388662Y0247522D01*
X0388554Y0247269D01*
X0388440Y0247020D01*
X0388319Y0246773D01*
X0388193Y0246530D01*
X0388061Y0246289D01*
X0387922Y0246052D01*
X0387778Y0245819D01*
X0387629Y0245589D01*
X0387474Y0245362D01*
X0387313Y0245140D01*
X0387147Y0244922D01*
X0386975Y0244707D01*
X0386799Y0244498D01*
X0386617Y0244292D01*
X0386430Y0244091D01*
X0386238Y0243895D01*
X0386042Y0243703D01*
X0385841Y0243516D01*
X0385635Y0243334D01*
X0385426Y0243158D01*
X0385211Y0242986D01*
X0384993Y0242820D01*
X0384771Y0242659D01*
X0384544Y0242504D01*
X0384314Y0242355D01*
X0384081Y0242211D01*
X0383844Y0242072D01*
X0383603Y0241940D01*
X0383360Y0241814D01*
X0383113Y0241693D01*
X0382864Y0241579D01*
X0382611Y0241471D01*
X0382357Y0241369D01*
X0382099Y0241274D01*
X0381840Y0241184D01*
X0381578Y0241101D01*
X0381315Y0241025D01*
X0381050Y0240955D01*
X0380783Y0240892D01*
X0380514Y0240835D01*
X0380244Y0240785D01*
X0379973Y0240741D01*
X0379702Y0240704D01*
X0379429Y0240674D01*
X0379155Y0240650D01*
X0378882Y0240633D01*
X0378607Y0240623D01*
X0378333Y0240620D01*
X0378059Y0240623D01*
X0377784Y0240633D01*
X0377511Y0240650D01*
X0377237Y0240674D01*
X0376964Y0240704D01*
X0376693Y0240741D01*
X0376422Y0240785D01*
X0376152Y0240835D01*
X0375883Y0240892D01*
X0375616Y0240955D01*
X0375351Y0241025D01*
X0375088Y0241101D01*
X0374826Y0241184D01*
X0374567Y0241274D01*
X0374309Y0241369D01*
X0374055Y0241471D01*
X0373802Y0241579D01*
X0373553Y0241693D01*
X0373306Y0241814D01*
X0373063Y0241940D01*
X0372822Y0242072D01*
X0372585Y0242211D01*
X0372352Y0242355D01*
X0372122Y0242504D01*
X0371895Y0242659D01*
X0371673Y0242820D01*
X0371455Y0242986D01*
X0371240Y0243158D01*
X0371031Y0243334D01*
X0370825Y0243516D01*
X0370624Y0243703D01*
X0370428Y0243895D01*
X0370236Y0244091D01*
X0370049Y0244292D01*
X0369867Y0244498D01*
X0369691Y0244707D01*
X0369519Y0244922D01*
X0369353Y0245140D01*
X0369192Y0245362D01*
X0369037Y0245589D01*
X0368888Y0245819D01*
X0368744Y0246052D01*
X0368605Y0246289D01*
X0368473Y0246530D01*
X0368347Y0246773D01*
X0368226Y0247020D01*
X0368112Y0247269D01*
X0368004Y0247522D01*
X0367902Y0247776D01*
X0367807Y0248034D01*
X0367717Y0248293D01*
X0367634Y0248555D01*
X0367558Y0248818D01*
X0367488Y0249083D01*
X0367425Y0249350D01*
X0367368Y0249619D01*
X0367318Y0249889D01*
X0367274Y0250160D01*
X0367237Y0250431D01*
X0367207Y0250704D01*
X0367183Y0250978D01*
X0367166Y0251251D01*
X0367156Y0251526D01*
X0367153Y0251800D01*
D16*
X0360833Y0191800D02*
X0355833Y0191800D01*
X0345833Y0191800D02*
X0340833Y0191800D01*
X0342833Y0176800D02*
X0337833Y0176800D01*
X0335333Y0174300D01*
X0335333Y0169300D01*
X0337833Y0166800D01*
X0342833Y0166800D01*
X0345333Y0169300D01*
X0347833Y0166800D01*
X0352833Y0166800D01*
X0355333Y0169300D01*
X0357833Y0166800D01*
X0362833Y0166800D01*
X0365333Y0169300D01*
X0365333Y0174300D01*
X0362833Y0176800D01*
X0357833Y0176800D01*
X0355333Y0174300D01*
X0352833Y0176800D01*
X0347833Y0176800D01*
X0345333Y0174300D01*
X0342833Y0176800D01*
X0288333Y0119300D02*
X0288333Y0114300D01*
X0270538Y0111800D02*
X0270542Y0112114D01*
X0270553Y0112428D01*
X0270573Y0112741D01*
X0270600Y0113054D01*
X0270634Y0113366D01*
X0270676Y0113677D01*
X0270726Y0113987D01*
X0270784Y0114296D01*
X0270849Y0114603D01*
X0270921Y0114909D01*
X0271001Y0115213D01*
X0271089Y0115514D01*
X0271184Y0115814D01*
X0271286Y0116111D01*
X0271395Y0116405D01*
X0271512Y0116696D01*
X0271636Y0116985D01*
X0271766Y0117271D01*
X0271904Y0117553D01*
X0272049Y0117832D01*
X0272200Y0118107D01*
X0272358Y0118378D01*
X0272523Y0118645D01*
X0272694Y0118909D01*
X0272872Y0119167D01*
X0273056Y0119422D01*
X0273246Y0119672D01*
X0273442Y0119917D01*
X0273645Y0120157D01*
X0273853Y0120393D01*
X0274066Y0120623D01*
X0274286Y0120847D01*
X0274510Y0121067D01*
X0274740Y0121280D01*
X0274976Y0121488D01*
X0275216Y0121691D01*
X0275461Y0121887D01*
X0275711Y0122077D01*
X0275966Y0122261D01*
X0276224Y0122439D01*
X0276488Y0122610D01*
X0276755Y0122775D01*
X0277026Y0122933D01*
X0277301Y0123084D01*
X0277580Y0123229D01*
X0277862Y0123367D01*
X0278148Y0123497D01*
X0278437Y0123621D01*
X0278728Y0123738D01*
X0279022Y0123847D01*
X0279319Y0123949D01*
X0279619Y0124044D01*
X0279920Y0124132D01*
X0280224Y0124212D01*
X0280530Y0124284D01*
X0280837Y0124349D01*
X0281146Y0124407D01*
X0281456Y0124457D01*
X0281767Y0124499D01*
X0282079Y0124533D01*
X0282392Y0124560D01*
X0282705Y0124580D01*
X0283019Y0124591D01*
X0283333Y0124595D01*
X0283647Y0124591D01*
X0283961Y0124580D01*
X0284274Y0124560D01*
X0284587Y0124533D01*
X0284899Y0124499D01*
X0285210Y0124457D01*
X0285520Y0124407D01*
X0285829Y0124349D01*
X0286136Y0124284D01*
X0286442Y0124212D01*
X0286746Y0124132D01*
X0287047Y0124044D01*
X0287347Y0123949D01*
X0287644Y0123847D01*
X0287938Y0123738D01*
X0288229Y0123621D01*
X0288518Y0123497D01*
X0288804Y0123367D01*
X0289086Y0123229D01*
X0289365Y0123084D01*
X0289640Y0122933D01*
X0289911Y0122775D01*
X0290178Y0122610D01*
X0290442Y0122439D01*
X0290700Y0122261D01*
X0290955Y0122077D01*
X0291205Y0121887D01*
X0291450Y0121691D01*
X0291690Y0121488D01*
X0291926Y0121280D01*
X0292156Y0121067D01*
X0292380Y0120847D01*
X0292600Y0120623D01*
X0292813Y0120393D01*
X0293021Y0120157D01*
X0293224Y0119917D01*
X0293420Y0119672D01*
X0293610Y0119422D01*
X0293794Y0119167D01*
X0293972Y0118909D01*
X0294143Y0118645D01*
X0294308Y0118378D01*
X0294466Y0118107D01*
X0294617Y0117832D01*
X0294762Y0117553D01*
X0294900Y0117271D01*
X0295030Y0116985D01*
X0295154Y0116696D01*
X0295271Y0116405D01*
X0295380Y0116111D01*
X0295482Y0115814D01*
X0295577Y0115514D01*
X0295665Y0115213D01*
X0295745Y0114909D01*
X0295817Y0114603D01*
X0295882Y0114296D01*
X0295940Y0113987D01*
X0295990Y0113677D01*
X0296032Y0113366D01*
X0296066Y0113054D01*
X0296093Y0112741D01*
X0296113Y0112428D01*
X0296124Y0112114D01*
X0296128Y0111800D01*
X0296124Y0111486D01*
X0296113Y0111172D01*
X0296093Y0110859D01*
X0296066Y0110546D01*
X0296032Y0110234D01*
X0295990Y0109923D01*
X0295940Y0109613D01*
X0295882Y0109304D01*
X0295817Y0108997D01*
X0295745Y0108691D01*
X0295665Y0108387D01*
X0295577Y0108086D01*
X0295482Y0107786D01*
X0295380Y0107489D01*
X0295271Y0107195D01*
X0295154Y0106904D01*
X0295030Y0106615D01*
X0294900Y0106329D01*
X0294762Y0106047D01*
X0294617Y0105768D01*
X0294466Y0105493D01*
X0294308Y0105222D01*
X0294143Y0104955D01*
X0293972Y0104691D01*
X0293794Y0104433D01*
X0293610Y0104178D01*
X0293420Y0103928D01*
X0293224Y0103683D01*
X0293021Y0103443D01*
X0292813Y0103207D01*
X0292600Y0102977D01*
X0292380Y0102753D01*
X0292156Y0102533D01*
X0291926Y0102320D01*
X0291690Y0102112D01*
X0291450Y0101909D01*
X0291205Y0101713D01*
X0290955Y0101523D01*
X0290700Y0101339D01*
X0290442Y0101161D01*
X0290178Y0100990D01*
X0289911Y0100825D01*
X0289640Y0100667D01*
X0289365Y0100516D01*
X0289086Y0100371D01*
X0288804Y0100233D01*
X0288518Y0100103D01*
X0288229Y0099979D01*
X0287938Y0099862D01*
X0287644Y0099753D01*
X0287347Y0099651D01*
X0287047Y0099556D01*
X0286746Y0099468D01*
X0286442Y0099388D01*
X0286136Y0099316D01*
X0285829Y0099251D01*
X0285520Y0099193D01*
X0285210Y0099143D01*
X0284899Y0099101D01*
X0284587Y0099067D01*
X0284274Y0099040D01*
X0283961Y0099020D01*
X0283647Y0099009D01*
X0283333Y0099005D01*
X0283019Y0099009D01*
X0282705Y0099020D01*
X0282392Y0099040D01*
X0282079Y0099067D01*
X0281767Y0099101D01*
X0281456Y0099143D01*
X0281146Y0099193D01*
X0280837Y0099251D01*
X0280530Y0099316D01*
X0280224Y0099388D01*
X0279920Y0099468D01*
X0279619Y0099556D01*
X0279319Y0099651D01*
X0279022Y0099753D01*
X0278728Y0099862D01*
X0278437Y0099979D01*
X0278148Y0100103D01*
X0277862Y0100233D01*
X0277580Y0100371D01*
X0277301Y0100516D01*
X0277026Y0100667D01*
X0276755Y0100825D01*
X0276488Y0100990D01*
X0276224Y0101161D01*
X0275966Y0101339D01*
X0275711Y0101523D01*
X0275461Y0101713D01*
X0275216Y0101909D01*
X0274976Y0102112D01*
X0274740Y0102320D01*
X0274510Y0102533D01*
X0274286Y0102753D01*
X0274066Y0102977D01*
X0273853Y0103207D01*
X0273645Y0103443D01*
X0273442Y0103683D01*
X0273246Y0103928D01*
X0273056Y0104178D01*
X0272872Y0104433D01*
X0272694Y0104691D01*
X0272523Y0104955D01*
X0272358Y0105222D01*
X0272200Y0105493D01*
X0272049Y0105768D01*
X0271904Y0106047D01*
X0271766Y0106329D01*
X0271636Y0106615D01*
X0271512Y0106904D01*
X0271395Y0107195D01*
X0271286Y0107489D01*
X0271184Y0107786D01*
X0271089Y0108086D01*
X0271001Y0108387D01*
X0270921Y0108691D01*
X0270849Y0108997D01*
X0270784Y0109304D01*
X0270726Y0109613D01*
X0270676Y0109923D01*
X0270634Y0110234D01*
X0270600Y0110546D01*
X0270573Y0110859D01*
X0270553Y0111172D01*
X0270542Y0111486D01*
X0270538Y0111800D01*
X0255833Y0111800D02*
X0250833Y0111800D01*
X0220735Y0111524D02*
X0220735Y0102076D01*
X0195932Y0102076D01*
X0195932Y0111524D01*
X0220735Y0111524D01*
X0223333Y0081800D02*
X0263333Y0081800D01*
X0263333Y0077800D01*
X0263333Y0075800D01*
X0263333Y0077800D02*
X0263333Y0061800D01*
X0223333Y0061800D01*
X0223333Y0081800D01*
X0177192Y0089162D02*
X0177192Y0134438D01*
X0159475Y0134438D01*
X0159475Y0089162D01*
X0177192Y0089162D01*
X0163058Y0054202D02*
X0153609Y0054202D01*
X0153609Y0029398D01*
X0163058Y0029398D01*
X0163058Y0054202D01*
X0178333Y0049300D02*
X0178333Y0044300D01*
X0175833Y0026800D02*
X0170833Y0026800D01*
X0185538Y0026800D02*
X0185542Y0027114D01*
X0185553Y0027428D01*
X0185573Y0027741D01*
X0185600Y0028054D01*
X0185634Y0028366D01*
X0185676Y0028677D01*
X0185726Y0028987D01*
X0185784Y0029296D01*
X0185849Y0029603D01*
X0185921Y0029909D01*
X0186001Y0030213D01*
X0186089Y0030514D01*
X0186184Y0030814D01*
X0186286Y0031111D01*
X0186395Y0031405D01*
X0186512Y0031696D01*
X0186636Y0031985D01*
X0186766Y0032271D01*
X0186904Y0032553D01*
X0187049Y0032832D01*
X0187200Y0033107D01*
X0187358Y0033378D01*
X0187523Y0033645D01*
X0187694Y0033909D01*
X0187872Y0034167D01*
X0188056Y0034422D01*
X0188246Y0034672D01*
X0188442Y0034917D01*
X0188645Y0035157D01*
X0188853Y0035393D01*
X0189066Y0035623D01*
X0189286Y0035847D01*
X0189510Y0036067D01*
X0189740Y0036280D01*
X0189976Y0036488D01*
X0190216Y0036691D01*
X0190461Y0036887D01*
X0190711Y0037077D01*
X0190966Y0037261D01*
X0191224Y0037439D01*
X0191488Y0037610D01*
X0191755Y0037775D01*
X0192026Y0037933D01*
X0192301Y0038084D01*
X0192580Y0038229D01*
X0192862Y0038367D01*
X0193148Y0038497D01*
X0193437Y0038621D01*
X0193728Y0038738D01*
X0194022Y0038847D01*
X0194319Y0038949D01*
X0194619Y0039044D01*
X0194920Y0039132D01*
X0195224Y0039212D01*
X0195530Y0039284D01*
X0195837Y0039349D01*
X0196146Y0039407D01*
X0196456Y0039457D01*
X0196767Y0039499D01*
X0197079Y0039533D01*
X0197392Y0039560D01*
X0197705Y0039580D01*
X0198019Y0039591D01*
X0198333Y0039595D01*
X0198647Y0039591D01*
X0198961Y0039580D01*
X0199274Y0039560D01*
X0199587Y0039533D01*
X0199899Y0039499D01*
X0200210Y0039457D01*
X0200520Y0039407D01*
X0200829Y0039349D01*
X0201136Y0039284D01*
X0201442Y0039212D01*
X0201746Y0039132D01*
X0202047Y0039044D01*
X0202347Y0038949D01*
X0202644Y0038847D01*
X0202938Y0038738D01*
X0203229Y0038621D01*
X0203518Y0038497D01*
X0203804Y0038367D01*
X0204086Y0038229D01*
X0204365Y0038084D01*
X0204640Y0037933D01*
X0204911Y0037775D01*
X0205178Y0037610D01*
X0205442Y0037439D01*
X0205700Y0037261D01*
X0205955Y0037077D01*
X0206205Y0036887D01*
X0206450Y0036691D01*
X0206690Y0036488D01*
X0206926Y0036280D01*
X0207156Y0036067D01*
X0207380Y0035847D01*
X0207600Y0035623D01*
X0207813Y0035393D01*
X0208021Y0035157D01*
X0208224Y0034917D01*
X0208420Y0034672D01*
X0208610Y0034422D01*
X0208794Y0034167D01*
X0208972Y0033909D01*
X0209143Y0033645D01*
X0209308Y0033378D01*
X0209466Y0033107D01*
X0209617Y0032832D01*
X0209762Y0032553D01*
X0209900Y0032271D01*
X0210030Y0031985D01*
X0210154Y0031696D01*
X0210271Y0031405D01*
X0210380Y0031111D01*
X0210482Y0030814D01*
X0210577Y0030514D01*
X0210665Y0030213D01*
X0210745Y0029909D01*
X0210817Y0029603D01*
X0210882Y0029296D01*
X0210940Y0028987D01*
X0210990Y0028677D01*
X0211032Y0028366D01*
X0211066Y0028054D01*
X0211093Y0027741D01*
X0211113Y0027428D01*
X0211124Y0027114D01*
X0211128Y0026800D01*
X0211124Y0026486D01*
X0211113Y0026172D01*
X0211093Y0025859D01*
X0211066Y0025546D01*
X0211032Y0025234D01*
X0210990Y0024923D01*
X0210940Y0024613D01*
X0210882Y0024304D01*
X0210817Y0023997D01*
X0210745Y0023691D01*
X0210665Y0023387D01*
X0210577Y0023086D01*
X0210482Y0022786D01*
X0210380Y0022489D01*
X0210271Y0022195D01*
X0210154Y0021904D01*
X0210030Y0021615D01*
X0209900Y0021329D01*
X0209762Y0021047D01*
X0209617Y0020768D01*
X0209466Y0020493D01*
X0209308Y0020222D01*
X0209143Y0019955D01*
X0208972Y0019691D01*
X0208794Y0019433D01*
X0208610Y0019178D01*
X0208420Y0018928D01*
X0208224Y0018683D01*
X0208021Y0018443D01*
X0207813Y0018207D01*
X0207600Y0017977D01*
X0207380Y0017753D01*
X0207156Y0017533D01*
X0206926Y0017320D01*
X0206690Y0017112D01*
X0206450Y0016909D01*
X0206205Y0016713D01*
X0205955Y0016523D01*
X0205700Y0016339D01*
X0205442Y0016161D01*
X0205178Y0015990D01*
X0204911Y0015825D01*
X0204640Y0015667D01*
X0204365Y0015516D01*
X0204086Y0015371D01*
X0203804Y0015233D01*
X0203518Y0015103D01*
X0203229Y0014979D01*
X0202938Y0014862D01*
X0202644Y0014753D01*
X0202347Y0014651D01*
X0202047Y0014556D01*
X0201746Y0014468D01*
X0201442Y0014388D01*
X0201136Y0014316D01*
X0200829Y0014251D01*
X0200520Y0014193D01*
X0200210Y0014143D01*
X0199899Y0014101D01*
X0199587Y0014067D01*
X0199274Y0014040D01*
X0198961Y0014020D01*
X0198647Y0014009D01*
X0198333Y0014005D01*
X0198019Y0014009D01*
X0197705Y0014020D01*
X0197392Y0014040D01*
X0197079Y0014067D01*
X0196767Y0014101D01*
X0196456Y0014143D01*
X0196146Y0014193D01*
X0195837Y0014251D01*
X0195530Y0014316D01*
X0195224Y0014388D01*
X0194920Y0014468D01*
X0194619Y0014556D01*
X0194319Y0014651D01*
X0194022Y0014753D01*
X0193728Y0014862D01*
X0193437Y0014979D01*
X0193148Y0015103D01*
X0192862Y0015233D01*
X0192580Y0015371D01*
X0192301Y0015516D01*
X0192026Y0015667D01*
X0191755Y0015825D01*
X0191488Y0015990D01*
X0191224Y0016161D01*
X0190966Y0016339D01*
X0190711Y0016523D01*
X0190461Y0016713D01*
X0190216Y0016909D01*
X0189976Y0017112D01*
X0189740Y0017320D01*
X0189510Y0017533D01*
X0189286Y0017753D01*
X0189066Y0017977D01*
X0188853Y0018207D01*
X0188645Y0018443D01*
X0188442Y0018683D01*
X0188246Y0018928D01*
X0188056Y0019178D01*
X0187872Y0019433D01*
X0187694Y0019691D01*
X0187523Y0019955D01*
X0187358Y0020222D01*
X0187200Y0020493D01*
X0187049Y0020768D01*
X0186904Y0021047D01*
X0186766Y0021329D01*
X0186636Y0021615D01*
X0186512Y0021904D01*
X0186395Y0022195D01*
X0186286Y0022489D01*
X0186184Y0022786D01*
X0186089Y0023086D01*
X0186001Y0023387D01*
X0185921Y0023691D01*
X0185849Y0023997D01*
X0185784Y0024304D01*
X0185726Y0024613D01*
X0185676Y0024923D01*
X0185634Y0025234D01*
X0185600Y0025546D01*
X0185573Y0025859D01*
X0185553Y0026172D01*
X0185542Y0026486D01*
X0185538Y0026800D01*
X0203333Y0029300D02*
X0203333Y0034300D01*
X0225696Y0027942D02*
X0225696Y0045658D01*
X0270971Y0045658D01*
X0270971Y0027942D01*
X0225696Y0027942D01*
X0278333Y0055300D02*
X0278333Y0056800D01*
X0278333Y0055300D02*
X0278332Y0055185D01*
X0278335Y0055070D01*
X0278342Y0054955D01*
X0278353Y0054840D01*
X0278368Y0054726D01*
X0278386Y0054612D01*
X0278408Y0054499D01*
X0278434Y0054386D01*
X0278464Y0054275D01*
X0278498Y0054165D01*
X0278535Y0054055D01*
X0278576Y0053948D01*
X0278621Y0053841D01*
X0278669Y0053737D01*
X0278721Y0053633D01*
X0278776Y0053532D01*
X0278835Y0053433D01*
X0278896Y0053335D01*
X0278962Y0053240D01*
X0279030Y0053147D01*
X0279101Y0053057D01*
X0279176Y0052969D01*
X0279253Y0052883D01*
X0279333Y0052800D01*
X0279416Y0052720D01*
X0279502Y0052643D01*
X0279590Y0052568D01*
X0279680Y0052497D01*
X0279773Y0052429D01*
X0279868Y0052363D01*
X0279966Y0052302D01*
X0280065Y0052243D01*
X0280166Y0052188D01*
X0280270Y0052136D01*
X0280374Y0052088D01*
X0280481Y0052043D01*
X0280588Y0052002D01*
X0280698Y0051965D01*
X0280808Y0051931D01*
X0280919Y0051901D01*
X0281032Y0051875D01*
X0281145Y0051853D01*
X0281259Y0051835D01*
X0281373Y0051820D01*
X0281488Y0051809D01*
X0281603Y0051802D01*
X0281718Y0051799D01*
X0281833Y0051800D01*
X0291333Y0051800D01*
X0295333Y0051800D01*
X0295333Y0091800D01*
X0291333Y0091800D01*
X0291333Y0051800D01*
X0278333Y0086800D02*
X0278333Y0088300D01*
X0278332Y0088415D01*
X0278335Y0088530D01*
X0278342Y0088645D01*
X0278353Y0088760D01*
X0278368Y0088874D01*
X0278386Y0088988D01*
X0278408Y0089101D01*
X0278434Y0089214D01*
X0278464Y0089325D01*
X0278498Y0089435D01*
X0278535Y0089545D01*
X0278576Y0089652D01*
X0278621Y0089759D01*
X0278669Y0089863D01*
X0278721Y0089967D01*
X0278776Y0090068D01*
X0278835Y0090167D01*
X0278896Y0090265D01*
X0278962Y0090360D01*
X0279030Y0090453D01*
X0279101Y0090543D01*
X0279176Y0090631D01*
X0279253Y0090717D01*
X0279333Y0090800D01*
X0279416Y0090880D01*
X0279502Y0090957D01*
X0279590Y0091032D01*
X0279680Y0091103D01*
X0279773Y0091171D01*
X0279868Y0091237D01*
X0279966Y0091298D01*
X0280065Y0091357D01*
X0280166Y0091412D01*
X0280270Y0091464D01*
X0280374Y0091512D01*
X0280481Y0091557D01*
X0280588Y0091598D01*
X0280698Y0091635D01*
X0280808Y0091669D01*
X0280919Y0091699D01*
X0281032Y0091725D01*
X0281145Y0091747D01*
X0281259Y0091765D01*
X0281373Y0091780D01*
X0281488Y0091791D01*
X0281603Y0091798D01*
X0281718Y0091801D01*
X0281833Y0091800D01*
X0291333Y0091800D01*
X0190833Y0166800D02*
X0185833Y0166800D01*
X0170833Y0166800D02*
X0165833Y0166800D01*
X0135735Y0161524D02*
X0135735Y0152076D01*
X0110932Y0152076D01*
X0110932Y0161524D01*
X0135735Y0161524D01*
X0163609Y0194398D02*
X0163609Y0219202D01*
X0173058Y0219202D01*
X0173058Y0194398D01*
X0163609Y0194398D01*
X0183609Y0194398D02*
X0183609Y0219202D01*
X0193058Y0219202D01*
X0193058Y0194398D01*
X0183609Y0194398D01*
X0135735Y0222076D02*
X0135735Y0231524D01*
X0110932Y0231524D01*
X0110932Y0222076D01*
X0135735Y0222076D01*
X0080735Y0222076D02*
X0055932Y0222076D01*
X0055932Y0231524D01*
X0080735Y0231524D01*
X0080735Y0222076D01*
X0080735Y0161524D02*
X0055932Y0161524D01*
X0055932Y0152076D01*
X0080735Y0152076D01*
X0080735Y0161524D01*
X0096609Y0104202D02*
X0096609Y0079398D01*
X0106058Y0079398D01*
X0106058Y0104202D01*
X0096609Y0104202D01*
X0051058Y0103202D02*
X0051058Y0078398D01*
X0041609Y0078398D01*
X0041609Y0103202D01*
X0051058Y0103202D01*
X0060087Y0033300D02*
X0076579Y0033300D01*
X0077206Y0027800D02*
X0078786Y0027800D01*
X0069460Y0027800D02*
X0067206Y0027800D01*
X0060087Y0033300D02*
X0059932Y0033098D01*
X0059782Y0032893D01*
X0059636Y0032684D01*
X0059496Y0032471D01*
X0059361Y0032255D01*
X0059232Y0032036D01*
X0059108Y0031814D01*
X0058989Y0031589D01*
X0058876Y0031361D01*
X0058768Y0031131D01*
X0058666Y0030898D01*
X0058569Y0030662D01*
X0058478Y0030424D01*
X0058393Y0030185D01*
X0058314Y0029943D01*
X0058241Y0029699D01*
X0058174Y0029454D01*
X0058112Y0029207D01*
X0058057Y0028958D01*
X0058008Y0028708D01*
X0057965Y0028458D01*
X0057928Y0028206D01*
X0057897Y0027953D01*
X0057872Y0027700D01*
X0057853Y0027446D01*
X0057840Y0027192D01*
X0057834Y0026938D01*
X0057834Y0026683D01*
X0057840Y0026429D01*
X0057852Y0026174D01*
X0057870Y0025921D01*
X0057894Y0025667D01*
X0057925Y0025415D01*
X0057961Y0025163D01*
X0058004Y0024912D01*
X0058053Y0024662D01*
X0058108Y0024414D01*
X0058169Y0024167D01*
X0058235Y0023921D01*
X0058308Y0023677D01*
X0058387Y0023435D01*
X0058471Y0023195D01*
X0058562Y0022957D01*
X0058658Y0022721D01*
X0058759Y0022488D01*
X0058867Y0022257D01*
X0058979Y0022029D01*
X0059098Y0021804D01*
X0059222Y0021582D01*
X0059351Y0021362D01*
X0059485Y0021146D01*
X0059625Y0020933D01*
X0059770Y0020724D01*
X0059919Y0020518D01*
X0060074Y0020316D01*
X0060234Y0020118D01*
X0060398Y0019924D01*
X0060567Y0019733D01*
X0060740Y0019547D01*
X0060918Y0019365D01*
X0061101Y0019188D01*
X0061287Y0019015D01*
X0061478Y0018846D01*
X0061673Y0018682D01*
X0061872Y0018523D01*
X0062074Y0018369D01*
X0062280Y0018220D01*
X0062490Y0018076D01*
X0062703Y0017937D01*
X0062920Y0017803D01*
X0063139Y0017674D01*
X0063362Y0017551D01*
X0063588Y0017434D01*
X0063816Y0017321D01*
X0064047Y0017215D01*
X0064281Y0017114D01*
X0064517Y0017018D01*
X0064755Y0016929D01*
X0064995Y0016845D01*
X0065237Y0016767D01*
X0071429Y0016767D02*
X0071671Y0016845D01*
X0071911Y0016928D01*
X0072149Y0017018D01*
X0072385Y0017113D01*
X0072619Y0017215D01*
X0072850Y0017321D01*
X0073078Y0017433D01*
X0073304Y0017551D01*
X0073527Y0017674D01*
X0073746Y0017803D01*
X0073963Y0017937D01*
X0074176Y0018076D01*
X0074386Y0018220D01*
X0074592Y0018369D01*
X0074794Y0018523D01*
X0074993Y0018682D01*
X0075188Y0018846D01*
X0075378Y0019015D01*
X0075565Y0019188D01*
X0075747Y0019365D01*
X0075925Y0019547D01*
X0076099Y0019733D01*
X0076268Y0019924D01*
X0076432Y0020118D01*
X0076592Y0020316D01*
X0076747Y0020518D01*
X0076896Y0020724D01*
X0077041Y0020933D01*
X0077181Y0021146D01*
X0077315Y0021362D01*
X0077444Y0021581D01*
X0077568Y0021804D01*
X0077686Y0022029D01*
X0077799Y0022257D01*
X0077907Y0022488D01*
X0078008Y0022721D01*
X0078104Y0022957D01*
X0078195Y0023195D01*
X0078279Y0023435D01*
X0078358Y0023677D01*
X0078431Y0023921D01*
X0078497Y0024166D01*
X0078558Y0024413D01*
X0078613Y0024662D01*
X0078662Y0024912D01*
X0078705Y0025163D01*
X0078741Y0025414D01*
X0078772Y0025667D01*
X0078796Y0025920D01*
X0078814Y0026174D01*
X0078826Y0026428D01*
X0078832Y0026683D01*
X0078832Y0026937D01*
X0078826Y0027192D01*
X0078813Y0027446D01*
X0078794Y0027700D01*
X0078769Y0027953D01*
X0078738Y0028206D01*
X0078701Y0028457D01*
X0078658Y0028708D01*
X0078609Y0028958D01*
X0078554Y0029206D01*
X0078492Y0029453D01*
X0078425Y0029699D01*
X0078352Y0029942D01*
X0078273Y0030184D01*
X0078188Y0030424D01*
X0078097Y0030662D01*
X0078000Y0030898D01*
X0077898Y0031131D01*
X0077791Y0031361D01*
X0077677Y0031589D01*
X0077558Y0031814D01*
X0077434Y0032036D01*
X0077305Y0032255D01*
X0077170Y0032471D01*
X0077030Y0032684D01*
X0076885Y0032893D01*
X0076734Y0033098D01*
X0076579Y0033300D01*
X0059460Y0027800D02*
X0057881Y0027800D01*
X0112881Y0027800D02*
X0114460Y0027800D01*
X0115087Y0033300D02*
X0131579Y0033300D01*
X0132206Y0027800D02*
X0133786Y0027800D01*
X0124460Y0027800D02*
X0122206Y0027800D01*
X0115087Y0033300D02*
X0114932Y0033098D01*
X0114782Y0032893D01*
X0114636Y0032684D01*
X0114496Y0032471D01*
X0114361Y0032255D01*
X0114232Y0032036D01*
X0114108Y0031814D01*
X0113989Y0031589D01*
X0113876Y0031361D01*
X0113768Y0031131D01*
X0113666Y0030898D01*
X0113569Y0030662D01*
X0113478Y0030424D01*
X0113393Y0030185D01*
X0113314Y0029943D01*
X0113241Y0029699D01*
X0113174Y0029454D01*
X0113112Y0029207D01*
X0113057Y0028958D01*
X0113008Y0028708D01*
X0112965Y0028458D01*
X0112928Y0028206D01*
X0112897Y0027953D01*
X0112872Y0027700D01*
X0112853Y0027446D01*
X0112840Y0027192D01*
X0112834Y0026938D01*
X0112834Y0026683D01*
X0112840Y0026429D01*
X0112852Y0026174D01*
X0112870Y0025921D01*
X0112894Y0025667D01*
X0112925Y0025415D01*
X0112961Y0025163D01*
X0113004Y0024912D01*
X0113053Y0024662D01*
X0113108Y0024414D01*
X0113169Y0024167D01*
X0113235Y0023921D01*
X0113308Y0023677D01*
X0113387Y0023435D01*
X0113471Y0023195D01*
X0113562Y0022957D01*
X0113658Y0022721D01*
X0113759Y0022488D01*
X0113867Y0022257D01*
X0113979Y0022029D01*
X0114098Y0021804D01*
X0114222Y0021582D01*
X0114351Y0021362D01*
X0114485Y0021146D01*
X0114625Y0020933D01*
X0114770Y0020724D01*
X0114919Y0020518D01*
X0115074Y0020316D01*
X0115234Y0020118D01*
X0115398Y0019924D01*
X0115567Y0019733D01*
X0115740Y0019547D01*
X0115918Y0019365D01*
X0116101Y0019188D01*
X0116287Y0019015D01*
X0116478Y0018846D01*
X0116673Y0018682D01*
X0116872Y0018523D01*
X0117074Y0018369D01*
X0117280Y0018220D01*
X0117490Y0018076D01*
X0117703Y0017937D01*
X0117920Y0017803D01*
X0118139Y0017674D01*
X0118362Y0017551D01*
X0118588Y0017434D01*
X0118816Y0017321D01*
X0119047Y0017215D01*
X0119281Y0017114D01*
X0119517Y0017018D01*
X0119755Y0016929D01*
X0119995Y0016845D01*
X0120237Y0016767D01*
X0126429Y0016767D02*
X0126671Y0016845D01*
X0126911Y0016928D01*
X0127149Y0017018D01*
X0127385Y0017113D01*
X0127619Y0017215D01*
X0127850Y0017321D01*
X0128078Y0017433D01*
X0128304Y0017551D01*
X0128527Y0017674D01*
X0128746Y0017803D01*
X0128963Y0017937D01*
X0129176Y0018076D01*
X0129386Y0018220D01*
X0129592Y0018369D01*
X0129794Y0018523D01*
X0129993Y0018682D01*
X0130188Y0018846D01*
X0130378Y0019015D01*
X0130565Y0019188D01*
X0130747Y0019365D01*
X0130925Y0019547D01*
X0131099Y0019733D01*
X0131268Y0019924D01*
X0131432Y0020118D01*
X0131592Y0020316D01*
X0131747Y0020518D01*
X0131896Y0020724D01*
X0132041Y0020933D01*
X0132181Y0021146D01*
X0132315Y0021362D01*
X0132444Y0021581D01*
X0132568Y0021804D01*
X0132686Y0022029D01*
X0132799Y0022257D01*
X0132907Y0022488D01*
X0133008Y0022721D01*
X0133104Y0022957D01*
X0133195Y0023195D01*
X0133279Y0023435D01*
X0133358Y0023677D01*
X0133431Y0023921D01*
X0133497Y0024166D01*
X0133558Y0024413D01*
X0133613Y0024662D01*
X0133662Y0024912D01*
X0133705Y0025163D01*
X0133741Y0025414D01*
X0133772Y0025667D01*
X0133796Y0025920D01*
X0133814Y0026174D01*
X0133826Y0026428D01*
X0133832Y0026683D01*
X0133832Y0026937D01*
X0133826Y0027192D01*
X0133813Y0027446D01*
X0133794Y0027700D01*
X0133769Y0027953D01*
X0133738Y0028206D01*
X0133701Y0028457D01*
X0133658Y0028708D01*
X0133609Y0028958D01*
X0133554Y0029206D01*
X0133492Y0029453D01*
X0133425Y0029699D01*
X0133352Y0029942D01*
X0133273Y0030184D01*
X0133188Y0030424D01*
X0133097Y0030662D01*
X0133000Y0030898D01*
X0132898Y0031131D01*
X0132791Y0031361D01*
X0132677Y0031589D01*
X0132558Y0031814D01*
X0132434Y0032036D01*
X0132305Y0032255D01*
X0132170Y0032471D01*
X0132030Y0032684D01*
X0131885Y0032893D01*
X0131734Y0033098D01*
X0131579Y0033300D01*
D17*
X0135833Y0041800D02*
X0135833Y0046800D01*
X0138333Y0046800D01*
X0135833Y0046800D02*
X0135833Y0051800D01*
X0115833Y0051800D01*
X0115833Y0041800D01*
X0135833Y0041800D01*
X0115833Y0041800D02*
X0110833Y0041800D01*
X0110833Y0046800D01*
X0108333Y0046800D01*
X0110833Y0046800D02*
X0110833Y0051800D01*
X0115833Y0051800D01*
X0083333Y0046800D02*
X0080833Y0046800D01*
X0080833Y0051800D01*
X0060833Y0051800D01*
X0060833Y0041800D01*
X0080833Y0041800D01*
X0080833Y0046800D01*
X0060833Y0041800D02*
X0055833Y0041800D01*
X0055833Y0046800D01*
X0053333Y0046800D01*
X0055833Y0046800D02*
X0055833Y0051800D01*
X0060833Y0051800D01*
X0255505Y0076800D02*
X0255507Y0076906D01*
X0255513Y0077011D01*
X0255523Y0077117D01*
X0255537Y0077221D01*
X0255554Y0077326D01*
X0255576Y0077429D01*
X0255601Y0077532D01*
X0255631Y0077634D01*
X0255664Y0077734D01*
X0255700Y0077833D01*
X0255741Y0077931D01*
X0255785Y0078027D01*
X0255833Y0078121D01*
X0255884Y0078214D01*
X0255938Y0078305D01*
X0255996Y0078393D01*
X0256058Y0078479D01*
X0256122Y0078563D01*
X0256189Y0078645D01*
X0256260Y0078724D01*
X0256333Y0078800D01*
X0256409Y0078873D01*
X0256488Y0078944D01*
X0256570Y0079011D01*
X0256654Y0079075D01*
X0256740Y0079137D01*
X0256828Y0079195D01*
X0256919Y0079249D01*
X0257012Y0079300D01*
X0257106Y0079348D01*
X0257202Y0079392D01*
X0257300Y0079433D01*
X0257399Y0079469D01*
X0257499Y0079502D01*
X0257601Y0079532D01*
X0257704Y0079557D01*
X0257807Y0079579D01*
X0257912Y0079596D01*
X0258016Y0079610D01*
X0258122Y0079620D01*
X0258227Y0079626D01*
X0258333Y0079628D01*
X0258439Y0079626D01*
X0258544Y0079620D01*
X0258650Y0079610D01*
X0258754Y0079596D01*
X0258859Y0079579D01*
X0258962Y0079557D01*
X0259065Y0079532D01*
X0259167Y0079502D01*
X0259267Y0079469D01*
X0259366Y0079433D01*
X0259464Y0079392D01*
X0259560Y0079348D01*
X0259654Y0079300D01*
X0259747Y0079249D01*
X0259838Y0079195D01*
X0259926Y0079137D01*
X0260012Y0079075D01*
X0260096Y0079011D01*
X0260178Y0078944D01*
X0260257Y0078873D01*
X0260333Y0078800D01*
X0260406Y0078724D01*
X0260477Y0078645D01*
X0260544Y0078563D01*
X0260608Y0078479D01*
X0260670Y0078393D01*
X0260728Y0078305D01*
X0260782Y0078214D01*
X0260833Y0078121D01*
X0260881Y0078027D01*
X0260925Y0077931D01*
X0260966Y0077833D01*
X0261002Y0077734D01*
X0261035Y0077634D01*
X0261065Y0077532D01*
X0261090Y0077429D01*
X0261112Y0077326D01*
X0261129Y0077221D01*
X0261143Y0077117D01*
X0261153Y0077011D01*
X0261159Y0076906D01*
X0261161Y0076800D01*
X0261159Y0076694D01*
X0261153Y0076589D01*
X0261143Y0076483D01*
X0261129Y0076379D01*
X0261112Y0076274D01*
X0261090Y0076171D01*
X0261065Y0076068D01*
X0261035Y0075966D01*
X0261002Y0075866D01*
X0260966Y0075767D01*
X0260925Y0075669D01*
X0260881Y0075573D01*
X0260833Y0075479D01*
X0260782Y0075386D01*
X0260728Y0075295D01*
X0260670Y0075207D01*
X0260608Y0075121D01*
X0260544Y0075037D01*
X0260477Y0074955D01*
X0260406Y0074876D01*
X0260333Y0074800D01*
X0260257Y0074727D01*
X0260178Y0074656D01*
X0260096Y0074589D01*
X0260012Y0074525D01*
X0259926Y0074463D01*
X0259838Y0074405D01*
X0259747Y0074351D01*
X0259654Y0074300D01*
X0259560Y0074252D01*
X0259464Y0074208D01*
X0259366Y0074167D01*
X0259267Y0074131D01*
X0259167Y0074098D01*
X0259065Y0074068D01*
X0258962Y0074043D01*
X0258859Y0074021D01*
X0258754Y0074004D01*
X0258650Y0073990D01*
X0258544Y0073980D01*
X0258439Y0073974D01*
X0258333Y0073972D01*
X0258227Y0073974D01*
X0258122Y0073980D01*
X0258016Y0073990D01*
X0257912Y0074004D01*
X0257807Y0074021D01*
X0257704Y0074043D01*
X0257601Y0074068D01*
X0257499Y0074098D01*
X0257399Y0074131D01*
X0257300Y0074167D01*
X0257202Y0074208D01*
X0257106Y0074252D01*
X0257012Y0074300D01*
X0256919Y0074351D01*
X0256828Y0074405D01*
X0256740Y0074463D01*
X0256654Y0074525D01*
X0256570Y0074589D01*
X0256488Y0074656D01*
X0256409Y0074727D01*
X0256333Y0074800D01*
X0256260Y0074876D01*
X0256189Y0074955D01*
X0256122Y0075037D01*
X0256058Y0075121D01*
X0255996Y0075207D01*
X0255938Y0075295D01*
X0255884Y0075386D01*
X0255833Y0075479D01*
X0255785Y0075573D01*
X0255741Y0075669D01*
X0255700Y0075767D01*
X0255664Y0075866D01*
X0255631Y0075966D01*
X0255601Y0076068D01*
X0255576Y0076171D01*
X0255554Y0076274D01*
X0255537Y0076379D01*
X0255523Y0076483D01*
X0255513Y0076589D01*
X0255507Y0076694D01*
X0255505Y0076800D01*
X0285833Y0026800D02*
X0285833Y0021800D01*
X0283333Y0021800D01*
X0285833Y0021800D02*
X0285833Y0016800D01*
X0290833Y0016800D01*
X0290833Y0026800D01*
X0285833Y0026800D01*
X0290833Y0026800D02*
X0310833Y0026800D01*
X0310833Y0021800D01*
X0313333Y0021800D01*
X0310833Y0021800D02*
X0310833Y0016800D01*
X0290833Y0016800D01*
D18*
X0340333Y0171800D03*
X0350333Y0171800D03*
X0360333Y0171800D03*
D19*
X0293333Y0071800D03*
M02*
