G75*
%MOIN*%
%OFA0B0*%
%FSLAX25Y25*%
%IPPOS*%
%LPD*%
%AMOC8*
5,1,8,0,0,1.08239X$1,22.5*
%
%ADD10C,0.07400*%
%ADD11OC8,0.07400*%
%ADD12C,0.07800*%
%ADD13C,0.06500*%
%ADD14R,0.07400X0.07400*%
%ADD15C,0.21500*%
%ADD16R,0.06500X0.06500*%
%ADD17C,0.06000*%
%ADD18OC8,0.06800*%
%ADD19C,0.07000*%
%ADD20C,0.08268*%
%ADD21C,0.15024*%
%ADD22C,0.01600*%
%ADD23C,0.03200*%
%ADD24C,0.01200*%
D10*
X0063333Y0026800D03*
X0068333Y0019300D03*
X0073333Y0026800D03*
X0118333Y0026800D03*
X0128333Y0026800D03*
X0123333Y0019300D03*
X0158333Y0021800D03*
X0158333Y0061800D03*
X0133333Y0066800D03*
X0113333Y0066800D03*
X0101333Y0071800D03*
X0113333Y0086800D03*
X0113333Y0096800D03*
X0113333Y0106800D03*
X0101333Y0111800D03*
X0078333Y0106800D03*
X0078333Y0096800D03*
X0078333Y0086800D03*
X0058333Y0086800D03*
X0058333Y0096800D03*
X0058333Y0106800D03*
X0046333Y0110800D03*
X0046333Y0070800D03*
X0058333Y0066800D03*
X0078333Y0066800D03*
X0133333Y0086800D03*
X0133333Y0096800D03*
X0133333Y0106800D03*
X0168333Y0081800D03*
X0188333Y0106800D03*
X0228333Y0106800D03*
X0224318Y0147824D03*
X0234318Y0147824D03*
X0244318Y0147824D03*
X0254318Y0147824D03*
X0264318Y0147824D03*
X0274318Y0147824D03*
X0284318Y0147824D03*
X0294318Y0147824D03*
X0304318Y0147824D03*
X0314318Y0147824D03*
X0324318Y0147824D03*
X0334318Y0147824D03*
X0313333Y0166800D03*
X0303333Y0166800D03*
X0293333Y0166800D03*
X0283333Y0166800D03*
X0273333Y0166800D03*
X0263333Y0166800D03*
X0253333Y0166800D03*
X0243333Y0166800D03*
X0233333Y0166800D03*
X0223333Y0166800D03*
X0213333Y0166800D03*
X0203333Y0166800D03*
X0204318Y0147824D03*
X0214318Y0147824D03*
X0194318Y0147824D03*
X0168333Y0141800D03*
X0143333Y0156800D03*
X0143333Y0181800D03*
X0143333Y0191800D03*
X0143333Y0201800D03*
X0168333Y0186800D03*
X0188333Y0186800D03*
X0227708Y0178050D03*
X0237708Y0178050D03*
X0268958Y0178050D03*
X0278958Y0178050D03*
X0323333Y0181800D03*
X0323333Y0171800D03*
X0340333Y0171800D03*
X0350333Y0171800D03*
X0360333Y0171800D03*
X0369433Y0164000D03*
X0387233Y0164000D03*
X0387233Y0189600D03*
X0387233Y0204000D03*
X0369433Y0204000D03*
X0369433Y0189600D03*
X0323333Y0191800D03*
X0323333Y0201800D03*
X0323333Y0211800D03*
X0323333Y0221800D03*
X0313333Y0226800D03*
X0303333Y0226800D03*
X0293333Y0226800D03*
X0283333Y0226800D03*
X0273333Y0226800D03*
X0263333Y0226800D03*
X0253333Y0226800D03*
X0243333Y0226800D03*
X0233333Y0226800D03*
X0223333Y0226800D03*
X0213333Y0226800D03*
X0203333Y0226800D03*
X0188333Y0226800D03*
X0168333Y0226800D03*
X0143333Y0226800D03*
X0103333Y0226800D03*
X0088333Y0226800D03*
X0088333Y0201800D03*
X0088333Y0191800D03*
X0088333Y0181800D03*
X0103333Y0181800D03*
X0103333Y0171800D03*
X0103333Y0156800D03*
X0088333Y0156800D03*
X0048333Y0156800D03*
X0048333Y0171800D03*
X0048333Y0181800D03*
X0048333Y0191800D03*
X0048333Y0201800D03*
X0048333Y0226800D03*
X0103333Y0201800D03*
X0103333Y0191800D03*
X0218333Y0036800D03*
X0278333Y0036800D03*
X0369433Y0229600D03*
X0387233Y0229600D03*
D11*
X0143333Y0171800D03*
X0088333Y0171800D03*
D12*
X0088333Y0046800D03*
X0103333Y0046800D03*
X0143333Y0046800D03*
X0048333Y0046800D03*
X0278333Y0021800D03*
X0318333Y0021800D03*
D13*
X0253333Y0106800D03*
X0253333Y0116800D03*
X0283333Y0116800D03*
X0343333Y0186800D03*
X0343333Y0196800D03*
X0358333Y0196800D03*
X0358333Y0186800D03*
X0188333Y0171800D03*
X0188333Y0161800D03*
X0168333Y0161800D03*
X0168333Y0171800D03*
X0173333Y0046800D03*
X0183333Y0046800D03*
X0173333Y0031800D03*
X0173333Y0021800D03*
X0198333Y0031800D03*
D14*
X0344318Y0147824D03*
D15*
X0314333Y0251800D03*
X0378333Y0251800D03*
X0248333Y0251800D03*
X0186333Y0251800D03*
X0122333Y0251800D03*
X0058333Y0251800D03*
D16*
X0283333Y0106800D03*
X0198333Y0021800D03*
D17*
X0280333Y0061800D02*
X0286333Y0061800D01*
X0286333Y0071800D02*
X0280333Y0071800D01*
X0280333Y0081800D02*
X0286333Y0081800D01*
D18*
X0258333Y0086800D03*
X0248333Y0086800D03*
X0238333Y0086800D03*
X0228333Y0086800D03*
X0228333Y0056800D03*
X0238333Y0056800D03*
X0248333Y0056800D03*
X0258333Y0056800D03*
D19*
X0187083Y0061800D03*
X0187083Y0071800D03*
X0187083Y0081800D03*
D20*
X0348333Y0095422D03*
X0348333Y0048178D03*
D21*
X0348333Y0024753D03*
X0348333Y0118847D03*
D22*
X0035633Y0029094D02*
X0035633Y0254477D01*
X0039848Y0255499D01*
X0043766Y0257639D01*
X0046998Y0260719D01*
X0049321Y0264530D01*
X0050575Y0268800D01*
X0385191Y0268800D01*
X0386445Y0264530D01*
X0388769Y0260719D01*
X0388769Y0260719D01*
X0392000Y0257639D01*
X0395918Y0255499D01*
X0400133Y0254477D01*
X0400133Y0029094D01*
X0395756Y0027921D01*
X0395756Y0027921D01*
X0391811Y0025643D01*
X0388590Y0022422D01*
X0386312Y0018478D01*
X0385139Y0014100D01*
X0050627Y0014100D01*
X0049454Y0018478D01*
X0047177Y0022422D01*
X0047177Y0022422D01*
X0043956Y0025643D01*
X0043956Y0025643D01*
X0040011Y0027921D01*
X0035633Y0029094D01*
X0035633Y0029179D02*
X0058373Y0029179D01*
X0058236Y0028911D02*
X0057969Y0028088D01*
X0057833Y0027233D01*
X0057833Y0026800D01*
X0057833Y0026367D01*
X0057969Y0025512D01*
X0058236Y0024689D01*
X0058629Y0023917D01*
X0059138Y0023217D01*
X0059750Y0022605D01*
X0060451Y0022096D01*
X0061222Y0021703D01*
X0062045Y0021435D01*
X0062900Y0021300D01*
X0063333Y0021300D01*
X0063333Y0026800D01*
X0063333Y0026800D01*
X0057833Y0026800D01*
X0063333Y0026800D01*
X0063333Y0032300D01*
X0062900Y0032300D01*
X0062045Y0032165D01*
X0061222Y0031897D01*
X0060451Y0031504D01*
X0059750Y0030995D01*
X0059138Y0030383D01*
X0058629Y0029683D01*
X0058236Y0028911D01*
X0057888Y0027581D02*
X0040600Y0027581D01*
X0043369Y0025982D02*
X0057894Y0025982D01*
X0058392Y0024384D02*
X0045216Y0024384D01*
X0046814Y0022785D02*
X0059570Y0022785D01*
X0063333Y0022785D02*
X0063333Y0022785D01*
X0063333Y0021300D02*
X0063642Y0021300D01*
X0063233Y0020314D01*
X0063233Y0018286D01*
X0064010Y0016411D01*
X0065444Y0014976D01*
X0067319Y0014200D01*
X0069348Y0014200D01*
X0071222Y0014976D01*
X0072657Y0016411D01*
X0073433Y0018286D01*
X0073433Y0020314D01*
X0072859Y0021700D01*
X0074348Y0021700D01*
X0076222Y0022476D01*
X0077657Y0023911D01*
X0078433Y0025786D01*
X0078433Y0027814D01*
X0077657Y0029689D01*
X0076222Y0031124D01*
X0074348Y0031900D01*
X0072319Y0031900D01*
X0070444Y0031124D01*
X0069010Y0029689D01*
X0068543Y0028563D01*
X0068430Y0028911D01*
X0068037Y0029683D01*
X0067528Y0030383D01*
X0066916Y0030995D01*
X0066216Y0031504D01*
X0065445Y0031897D01*
X0064621Y0032165D01*
X0063766Y0032300D01*
X0063333Y0032300D01*
X0063333Y0026800D01*
X0063333Y0026800D01*
X0063333Y0026800D01*
X0063333Y0021300D01*
X0063595Y0021187D02*
X0047890Y0021187D01*
X0048813Y0019588D02*
X0063233Y0019588D01*
X0063356Y0017990D02*
X0049585Y0017990D01*
X0049454Y0018478D02*
X0049454Y0018478D01*
X0050013Y0016391D02*
X0064030Y0016391D01*
X0065888Y0014793D02*
X0050442Y0014793D01*
X0063333Y0024384D02*
X0063333Y0024384D01*
X0063333Y0025982D02*
X0063333Y0025982D01*
X0063333Y0027581D02*
X0063333Y0027581D01*
X0063333Y0029179D02*
X0063333Y0029179D01*
X0063333Y0030778D02*
X0063333Y0030778D01*
X0059533Y0030778D02*
X0035633Y0030778D01*
X0035633Y0032376D02*
X0168312Y0032376D01*
X0168283Y0032197D02*
X0168283Y0031800D01*
X0168283Y0031403D01*
X0168408Y0030617D01*
X0168653Y0029861D01*
X0169014Y0029153D01*
X0169481Y0028510D01*
X0170043Y0027948D01*
X0170687Y0027481D01*
X0171395Y0027120D01*
X0172151Y0026874D01*
X0172936Y0026750D01*
X0173333Y0026750D01*
X0173333Y0031800D01*
X0173333Y0031800D01*
X0168283Y0031800D01*
X0173333Y0031800D01*
X0173333Y0036850D01*
X0172936Y0036850D01*
X0172151Y0036726D01*
X0171395Y0036480D01*
X0170687Y0036119D01*
X0170043Y0035652D01*
X0169481Y0035090D01*
X0169014Y0034447D01*
X0168653Y0033739D01*
X0168408Y0032983D01*
X0168283Y0032197D01*
X0168382Y0030778D02*
X0131568Y0030778D01*
X0131222Y0031124D02*
X0129348Y0031900D01*
X0127319Y0031900D01*
X0125444Y0031124D01*
X0124010Y0029689D01*
X0123543Y0028563D01*
X0123430Y0028911D01*
X0123037Y0029683D01*
X0122528Y0030383D01*
X0121916Y0030995D01*
X0121216Y0031504D01*
X0120445Y0031897D01*
X0119621Y0032165D01*
X0118766Y0032300D01*
X0118333Y0032300D01*
X0117900Y0032300D01*
X0117045Y0032165D01*
X0116222Y0031897D01*
X0115451Y0031504D01*
X0114750Y0030995D01*
X0114138Y0030383D01*
X0113629Y0029683D01*
X0113236Y0028911D01*
X0112969Y0028088D01*
X0112833Y0027233D01*
X0112833Y0026800D01*
X0112833Y0026367D01*
X0112969Y0025512D01*
X0113236Y0024689D01*
X0113629Y0023917D01*
X0114138Y0023217D01*
X0114750Y0022605D01*
X0115451Y0022096D01*
X0116222Y0021703D01*
X0117045Y0021435D01*
X0117900Y0021300D01*
X0118333Y0021300D01*
X0118333Y0026800D01*
X0118333Y0026800D01*
X0112833Y0026800D01*
X0118333Y0026800D01*
X0118333Y0032300D01*
X0118333Y0026800D01*
X0118333Y0026800D01*
X0118333Y0026800D01*
X0118333Y0021300D01*
X0118642Y0021300D01*
X0118233Y0020314D01*
X0118233Y0018286D01*
X0119010Y0016411D01*
X0120444Y0014976D01*
X0122319Y0014200D01*
X0124348Y0014200D01*
X0126222Y0014976D01*
X0127657Y0016411D01*
X0128433Y0018286D01*
X0128433Y0020314D01*
X0127859Y0021700D01*
X0129348Y0021700D01*
X0131222Y0022476D01*
X0132657Y0023911D01*
X0133433Y0025786D01*
X0133433Y0027814D01*
X0132657Y0029689D01*
X0131222Y0031124D01*
X0132868Y0029179D02*
X0169001Y0029179D01*
X0170549Y0027581D02*
X0133433Y0027581D01*
X0133433Y0025982D02*
X0155303Y0025982D01*
X0155444Y0026124D02*
X0154010Y0024689D01*
X0153233Y0022814D01*
X0153233Y0020786D01*
X0154010Y0018911D01*
X0155444Y0017476D01*
X0157319Y0016700D01*
X0159348Y0016700D01*
X0161222Y0017476D01*
X0162657Y0018911D01*
X0163433Y0020786D01*
X0163433Y0022814D01*
X0162657Y0024689D01*
X0161222Y0026124D01*
X0159348Y0026900D01*
X0157319Y0026900D01*
X0155444Y0026124D01*
X0153883Y0024384D02*
X0132853Y0024384D01*
X0131531Y0022785D02*
X0153233Y0022785D01*
X0153233Y0021187D02*
X0128072Y0021187D01*
X0128433Y0019588D02*
X0153729Y0019588D01*
X0154931Y0017990D02*
X0128311Y0017990D01*
X0127637Y0016391D02*
X0345233Y0016391D01*
X0346561Y0015841D02*
X0350106Y0015841D01*
X0353381Y0017198D01*
X0355888Y0019705D01*
X0357245Y0022980D01*
X0357245Y0026525D01*
X0355888Y0029801D01*
X0353381Y0032308D01*
X0350106Y0033665D01*
X0346561Y0033665D01*
X0343285Y0032308D01*
X0340778Y0029801D01*
X0339422Y0026525D01*
X0339422Y0022980D01*
X0340778Y0019705D01*
X0343285Y0017198D01*
X0346561Y0015841D01*
X0342493Y0017990D02*
X0322018Y0017990D01*
X0321336Y0017307D02*
X0322826Y0018798D01*
X0323633Y0020746D01*
X0323633Y0022854D01*
X0322826Y0024802D01*
X0321336Y0026293D01*
X0319388Y0027100D01*
X0317279Y0027100D01*
X0315331Y0026293D01*
X0313840Y0024802D01*
X0313033Y0022854D01*
X0313033Y0020746D01*
X0313840Y0018798D01*
X0315331Y0017307D01*
X0317279Y0016500D01*
X0319388Y0016500D01*
X0321336Y0017307D01*
X0323154Y0019588D02*
X0340895Y0019588D01*
X0340164Y0021187D02*
X0323633Y0021187D01*
X0323633Y0022785D02*
X0339502Y0022785D01*
X0339422Y0024384D02*
X0323000Y0024384D01*
X0321647Y0025982D02*
X0339422Y0025982D01*
X0339859Y0027581D02*
X0201117Y0027581D01*
X0200980Y0027481D02*
X0201623Y0027948D01*
X0202185Y0028510D01*
X0202652Y0029153D01*
X0203013Y0029861D01*
X0203259Y0030617D01*
X0203383Y0031403D01*
X0203383Y0031800D01*
X0203383Y0032197D01*
X0203259Y0032983D01*
X0203013Y0033739D01*
X0202652Y0034447D01*
X0202185Y0035090D01*
X0201623Y0035652D01*
X0200980Y0036119D01*
X0200272Y0036480D01*
X0199516Y0036726D01*
X0198731Y0036850D01*
X0198333Y0036850D01*
X0197936Y0036850D01*
X0197151Y0036726D01*
X0196395Y0036480D01*
X0195687Y0036119D01*
X0195043Y0035652D01*
X0194481Y0035090D01*
X0194014Y0034447D01*
X0193653Y0033739D01*
X0193408Y0032983D01*
X0193283Y0032197D01*
X0193283Y0031800D01*
X0193283Y0031403D01*
X0193408Y0030617D01*
X0193653Y0029861D01*
X0194014Y0029153D01*
X0194481Y0028510D01*
X0195043Y0027948D01*
X0195687Y0027481D01*
X0196395Y0027120D01*
X0197151Y0026874D01*
X0197936Y0026750D01*
X0198333Y0026750D01*
X0198333Y0031800D01*
X0198333Y0031800D01*
X0193283Y0031800D01*
X0198333Y0031800D01*
X0198333Y0036850D01*
X0198333Y0031800D01*
X0198333Y0031800D01*
X0198333Y0031800D01*
X0198333Y0026750D01*
X0198731Y0026750D01*
X0199516Y0026874D01*
X0200272Y0027120D01*
X0200980Y0027481D01*
X0202163Y0026450D02*
X0202983Y0025630D01*
X0202983Y0017970D01*
X0202163Y0017150D01*
X0194503Y0017150D01*
X0193683Y0017970D01*
X0193683Y0025630D01*
X0194503Y0026450D01*
X0202163Y0026450D01*
X0202631Y0025982D02*
X0275020Y0025982D01*
X0275331Y0026293D02*
X0273840Y0024802D01*
X0273033Y0022854D01*
X0273033Y0020746D01*
X0273840Y0018798D01*
X0275331Y0017307D01*
X0277279Y0016500D01*
X0279388Y0016500D01*
X0281336Y0017307D01*
X0282826Y0018798D01*
X0283633Y0020746D01*
X0283633Y0022854D01*
X0282826Y0024802D01*
X0281336Y0026293D01*
X0279388Y0027100D01*
X0277279Y0027100D01*
X0275331Y0026293D01*
X0273667Y0024384D02*
X0202983Y0024384D01*
X0202983Y0022785D02*
X0273033Y0022785D01*
X0273033Y0021187D02*
X0202983Y0021187D01*
X0202983Y0019588D02*
X0273513Y0019588D01*
X0274648Y0017990D02*
X0202983Y0017990D01*
X0193683Y0017990D02*
X0176099Y0017990D01*
X0175967Y0017858D02*
X0177275Y0019166D01*
X0177983Y0020875D01*
X0177983Y0022725D01*
X0177275Y0024434D01*
X0175967Y0025742D01*
X0174258Y0026450D01*
X0172408Y0026450D01*
X0170699Y0025742D01*
X0169391Y0024434D01*
X0168683Y0022725D01*
X0168683Y0020875D01*
X0169391Y0019166D01*
X0170699Y0017858D01*
X0172408Y0017150D01*
X0174258Y0017150D01*
X0175967Y0017858D01*
X0177450Y0019588D02*
X0193683Y0019588D01*
X0193683Y0021187D02*
X0177983Y0021187D01*
X0177958Y0022785D02*
X0193683Y0022785D01*
X0193683Y0024384D02*
X0177296Y0024384D01*
X0175388Y0025982D02*
X0194036Y0025982D01*
X0195549Y0027581D02*
X0176117Y0027581D01*
X0175980Y0027481D02*
X0176623Y0027948D01*
X0177185Y0028510D01*
X0177652Y0029153D01*
X0178013Y0029861D01*
X0178259Y0030617D01*
X0178383Y0031403D01*
X0178383Y0031800D01*
X0178383Y0032197D01*
X0178259Y0032983D01*
X0178013Y0033739D01*
X0177652Y0034447D01*
X0177185Y0035090D01*
X0176623Y0035652D01*
X0175980Y0036119D01*
X0175272Y0036480D01*
X0174516Y0036726D01*
X0173731Y0036850D01*
X0173333Y0036850D01*
X0173333Y0031800D01*
X0173333Y0031800D01*
X0173333Y0031800D01*
X0173333Y0026750D01*
X0173731Y0026750D01*
X0174516Y0026874D01*
X0175272Y0027120D01*
X0175980Y0027481D01*
X0177666Y0029179D02*
X0194001Y0029179D01*
X0193382Y0030778D02*
X0178284Y0030778D01*
X0178383Y0031800D02*
X0173333Y0031800D01*
X0178383Y0031800D01*
X0178355Y0032376D02*
X0193312Y0032376D01*
X0193774Y0033975D02*
X0177893Y0033975D01*
X0176702Y0035573D02*
X0194965Y0035573D01*
X0198333Y0035573D02*
X0198333Y0035573D01*
X0198333Y0033975D02*
X0198333Y0033975D01*
X0198333Y0032376D02*
X0198333Y0032376D01*
X0198333Y0031800D02*
X0203383Y0031800D01*
X0198333Y0031800D01*
X0198333Y0031800D01*
X0198333Y0030778D02*
X0198333Y0030778D01*
X0198333Y0029179D02*
X0198333Y0029179D01*
X0198333Y0027581D02*
X0198333Y0027581D01*
X0202666Y0029179D02*
X0340521Y0029179D01*
X0341755Y0030778D02*
X0203284Y0030778D01*
X0203355Y0032376D02*
X0215065Y0032376D01*
X0214750Y0032605D02*
X0215451Y0032096D01*
X0216222Y0031703D01*
X0217045Y0031435D01*
X0217900Y0031300D01*
X0217952Y0031300D01*
X0217952Y0036419D01*
X0212833Y0036419D01*
X0212833Y0036367D01*
X0212969Y0035512D01*
X0213236Y0034689D01*
X0213629Y0033917D01*
X0214138Y0033217D01*
X0214750Y0032605D01*
X0213600Y0033975D02*
X0202893Y0033975D01*
X0201702Y0035573D02*
X0212959Y0035573D01*
X0212833Y0037181D02*
X0217952Y0037181D01*
X0217952Y0036419D01*
X0218714Y0036419D01*
X0218714Y0031300D01*
X0218766Y0031300D01*
X0219621Y0031435D01*
X0220445Y0031703D01*
X0221216Y0032096D01*
X0221916Y0032605D01*
X0222528Y0033217D01*
X0223037Y0033917D01*
X0223430Y0034689D01*
X0223698Y0035512D01*
X0223833Y0036367D01*
X0223833Y0036419D01*
X0218715Y0036419D01*
X0218715Y0037181D01*
X0223833Y0037181D01*
X0223833Y0037233D01*
X0223698Y0038088D01*
X0223430Y0038911D01*
X0223037Y0039683D01*
X0222528Y0040383D01*
X0221916Y0040995D01*
X0221216Y0041504D01*
X0220445Y0041897D01*
X0219621Y0042165D01*
X0218766Y0042300D01*
X0218714Y0042300D01*
X0218714Y0037181D01*
X0217952Y0037181D01*
X0217952Y0042300D01*
X0217900Y0042300D01*
X0217045Y0042165D01*
X0216222Y0041897D01*
X0215451Y0041504D01*
X0214750Y0040995D01*
X0214138Y0040383D01*
X0213629Y0039683D01*
X0213236Y0038911D01*
X0212969Y0038088D01*
X0212833Y0037233D01*
X0212833Y0037181D01*
X0213190Y0038770D02*
X0035633Y0038770D01*
X0035633Y0037172D02*
X0217952Y0037172D01*
X0218715Y0037172D02*
X0273233Y0037172D01*
X0273233Y0037814D02*
X0273233Y0035786D01*
X0274010Y0033911D01*
X0275444Y0032476D01*
X0277319Y0031700D01*
X0279348Y0031700D01*
X0281222Y0032476D01*
X0282657Y0033911D01*
X0283433Y0035786D01*
X0283433Y0037814D01*
X0282657Y0039689D01*
X0281222Y0041124D01*
X0279348Y0041900D01*
X0277319Y0041900D01*
X0275444Y0041124D01*
X0274010Y0039689D01*
X0273233Y0037814D01*
X0273629Y0038770D02*
X0223476Y0038770D01*
X0222539Y0040369D02*
X0274690Y0040369D01*
X0273321Y0035573D02*
X0223708Y0035573D01*
X0223067Y0033975D02*
X0273983Y0033975D01*
X0275686Y0032376D02*
X0221602Y0032376D01*
X0218714Y0032376D02*
X0217952Y0032376D01*
X0217952Y0033975D02*
X0218714Y0033975D01*
X0218714Y0035573D02*
X0217952Y0035573D01*
X0217952Y0038770D02*
X0218714Y0038770D01*
X0218714Y0040369D02*
X0217952Y0040369D01*
X0217952Y0041967D02*
X0218714Y0041967D01*
X0220228Y0041967D02*
X0400133Y0041967D01*
X0400133Y0040369D02*
X0281977Y0040369D01*
X0283037Y0038770D02*
X0400133Y0038770D01*
X0400133Y0037172D02*
X0283433Y0037172D01*
X0283345Y0035573D02*
X0400133Y0035573D01*
X0400133Y0033975D02*
X0282683Y0033975D01*
X0280980Y0032376D02*
X0343450Y0032376D01*
X0353216Y0032376D02*
X0400133Y0032376D01*
X0400133Y0030778D02*
X0354912Y0030778D01*
X0356146Y0029179D02*
X0400133Y0029179D01*
X0395166Y0027581D02*
X0356808Y0027581D01*
X0357245Y0025982D02*
X0392398Y0025982D01*
X0391811Y0025643D02*
X0391811Y0025643D01*
X0390551Y0024384D02*
X0357245Y0024384D01*
X0357164Y0022785D02*
X0388953Y0022785D01*
X0388590Y0022422D02*
X0388590Y0022422D01*
X0387876Y0021187D02*
X0356502Y0021187D01*
X0355772Y0019588D02*
X0386953Y0019588D01*
X0386312Y0018478D02*
X0386312Y0018478D01*
X0386182Y0017990D02*
X0354173Y0017990D01*
X0351434Y0016391D02*
X0385753Y0016391D01*
X0385325Y0014793D02*
X0125778Y0014793D01*
X0120888Y0014793D02*
X0070778Y0014793D01*
X0072637Y0016391D02*
X0119030Y0016391D01*
X0118356Y0017990D02*
X0073311Y0017990D01*
X0073433Y0019588D02*
X0118233Y0019588D01*
X0118595Y0021187D02*
X0073072Y0021187D01*
X0076531Y0022785D02*
X0114570Y0022785D01*
X0113392Y0024384D02*
X0077853Y0024384D01*
X0078433Y0025982D02*
X0112894Y0025982D01*
X0112888Y0027581D02*
X0078433Y0027581D01*
X0077868Y0029179D02*
X0113373Y0029179D01*
X0114533Y0030778D02*
X0076568Y0030778D01*
X0070099Y0030778D02*
X0067134Y0030778D01*
X0068294Y0029179D02*
X0068799Y0029179D01*
X0083840Y0043798D02*
X0085331Y0042307D01*
X0087279Y0041500D01*
X0089388Y0041500D01*
X0091336Y0042307D01*
X0092826Y0043798D01*
X0093633Y0045746D01*
X0093633Y0047854D01*
X0092826Y0049802D01*
X0091336Y0051293D01*
X0089388Y0052100D01*
X0087279Y0052100D01*
X0085331Y0051293D01*
X0083840Y0049802D01*
X0083033Y0047854D01*
X0083033Y0045746D01*
X0083840Y0043798D01*
X0084072Y0043566D02*
X0052594Y0043566D01*
X0052826Y0043798D02*
X0053633Y0045746D01*
X0053633Y0047854D01*
X0052826Y0049802D01*
X0051336Y0051293D01*
X0049388Y0052100D01*
X0047279Y0052100D01*
X0045331Y0051293D01*
X0043840Y0049802D01*
X0043033Y0047854D01*
X0043033Y0045746D01*
X0043840Y0043798D01*
X0045331Y0042307D01*
X0047279Y0041500D01*
X0049388Y0041500D01*
X0051336Y0042307D01*
X0052826Y0043798D01*
X0053392Y0045164D02*
X0083274Y0045164D01*
X0083033Y0046763D02*
X0053633Y0046763D01*
X0053423Y0048361D02*
X0083243Y0048361D01*
X0083998Y0049960D02*
X0052669Y0049960D01*
X0050695Y0051558D02*
X0085971Y0051558D01*
X0090695Y0051558D02*
X0100971Y0051558D01*
X0100331Y0051293D02*
X0098840Y0049802D01*
X0098033Y0047854D01*
X0098033Y0045746D01*
X0098840Y0043798D01*
X0100331Y0042307D01*
X0102279Y0041500D01*
X0104388Y0041500D01*
X0106336Y0042307D01*
X0107826Y0043798D01*
X0108633Y0045746D01*
X0108633Y0047854D01*
X0107826Y0049802D01*
X0106336Y0051293D01*
X0104388Y0052100D01*
X0102279Y0052100D01*
X0100331Y0051293D01*
X0098998Y0049960D02*
X0092669Y0049960D01*
X0093423Y0048361D02*
X0098243Y0048361D01*
X0098033Y0046763D02*
X0093633Y0046763D01*
X0093392Y0045164D02*
X0098274Y0045164D01*
X0099072Y0043566D02*
X0092594Y0043566D01*
X0090516Y0041967D02*
X0101151Y0041967D01*
X0105516Y0041967D02*
X0141151Y0041967D01*
X0140331Y0042307D02*
X0142279Y0041500D01*
X0144388Y0041500D01*
X0146336Y0042307D01*
X0147826Y0043798D01*
X0148633Y0045746D01*
X0148633Y0047854D01*
X0147826Y0049802D01*
X0146336Y0051293D01*
X0144388Y0052100D01*
X0142279Y0052100D01*
X0140331Y0051293D01*
X0138840Y0049802D01*
X0138033Y0047854D01*
X0138033Y0045746D01*
X0138840Y0043798D01*
X0140331Y0042307D01*
X0139072Y0043566D02*
X0107594Y0043566D01*
X0108392Y0045164D02*
X0138274Y0045164D01*
X0138033Y0046763D02*
X0108633Y0046763D01*
X0108423Y0048361D02*
X0138243Y0048361D01*
X0138998Y0049960D02*
X0107669Y0049960D01*
X0105695Y0051558D02*
X0140971Y0051558D01*
X0145695Y0051558D02*
X0171636Y0051558D01*
X0171395Y0051480D02*
X0170687Y0051119D01*
X0170043Y0050652D01*
X0169481Y0050090D01*
X0169014Y0049447D01*
X0168653Y0048739D01*
X0168408Y0047983D01*
X0168283Y0047197D01*
X0168283Y0046800D01*
X0168283Y0046403D01*
X0168408Y0045617D01*
X0168653Y0044861D01*
X0169014Y0044153D01*
X0169481Y0043510D01*
X0170043Y0042948D01*
X0170687Y0042481D01*
X0171395Y0042120D01*
X0172151Y0041874D01*
X0172936Y0041750D01*
X0173333Y0041750D01*
X0173333Y0046800D01*
X0173333Y0046800D01*
X0168283Y0046800D01*
X0173333Y0046800D01*
X0173333Y0046800D01*
X0173333Y0051850D01*
X0172936Y0051850D01*
X0172151Y0051726D01*
X0171395Y0051480D01*
X0173333Y0051558D02*
X0173333Y0051558D01*
X0173333Y0051850D02*
X0173731Y0051850D01*
X0174516Y0051726D01*
X0175272Y0051480D01*
X0175980Y0051119D01*
X0176623Y0050652D01*
X0177185Y0050090D01*
X0177652Y0049447D01*
X0178013Y0048739D01*
X0178259Y0047983D01*
X0178383Y0047197D01*
X0178383Y0046800D01*
X0173333Y0046800D01*
X0173333Y0046800D01*
X0173333Y0041750D01*
X0173731Y0041750D01*
X0174516Y0041874D01*
X0175272Y0042120D01*
X0175980Y0042481D01*
X0176623Y0042948D01*
X0177185Y0043510D01*
X0177652Y0044153D01*
X0178013Y0044861D01*
X0178259Y0045617D01*
X0178383Y0046403D01*
X0178383Y0046800D01*
X0173333Y0046800D01*
X0173333Y0051850D01*
X0175031Y0051558D02*
X0343888Y0051558D01*
X0343642Y0051313D02*
X0342799Y0049279D01*
X0342799Y0047077D01*
X0343642Y0045043D01*
X0345199Y0043487D01*
X0347233Y0042644D01*
X0349434Y0042644D01*
X0351468Y0043487D01*
X0353025Y0045043D01*
X0353867Y0047077D01*
X0353867Y0049279D01*
X0353025Y0051313D01*
X0351468Y0052869D01*
X0349434Y0053712D01*
X0347233Y0053712D01*
X0345199Y0052869D01*
X0343642Y0051313D01*
X0343082Y0049960D02*
X0186750Y0049960D01*
X0187275Y0049434D02*
X0185967Y0050742D01*
X0184258Y0051450D01*
X0182408Y0051450D01*
X0180699Y0050742D01*
X0179391Y0049434D01*
X0178683Y0047725D01*
X0178683Y0045875D01*
X0179391Y0044166D01*
X0180699Y0042858D01*
X0182408Y0042150D01*
X0184258Y0042150D01*
X0185967Y0042858D01*
X0187275Y0044166D01*
X0187983Y0045875D01*
X0187983Y0047725D01*
X0187275Y0049434D01*
X0187720Y0048361D02*
X0342799Y0048361D01*
X0342930Y0046763D02*
X0187983Y0046763D01*
X0187689Y0045164D02*
X0343592Y0045164D01*
X0345120Y0043566D02*
X0186675Y0043566D01*
X0179991Y0043566D02*
X0177226Y0043566D01*
X0178112Y0045164D02*
X0178978Y0045164D01*
X0178683Y0046763D02*
X0178383Y0046763D01*
X0178136Y0048361D02*
X0178947Y0048361D01*
X0179917Y0049960D02*
X0177280Y0049960D01*
X0173333Y0049960D02*
X0173333Y0049960D01*
X0173333Y0048361D02*
X0173333Y0048361D01*
X0173333Y0046800D02*
X0173333Y0046800D01*
X0173333Y0046763D02*
X0173333Y0046763D01*
X0173333Y0045164D02*
X0173333Y0045164D01*
X0173333Y0043566D02*
X0173333Y0043566D01*
X0173333Y0041967D02*
X0173333Y0041967D01*
X0171865Y0041967D02*
X0145516Y0041967D01*
X0147594Y0043566D02*
X0169441Y0043566D01*
X0168555Y0045164D02*
X0148392Y0045164D01*
X0148633Y0046763D02*
X0168283Y0046763D01*
X0168531Y0048361D02*
X0148423Y0048361D01*
X0147669Y0049960D02*
X0169387Y0049960D01*
X0161698Y0057952D02*
X0184001Y0057952D01*
X0184308Y0057646D02*
X0186109Y0056900D01*
X0188058Y0056900D01*
X0189859Y0057646D01*
X0191237Y0059024D01*
X0191983Y0060825D01*
X0191983Y0062775D01*
X0191237Y0064576D01*
X0189859Y0065954D01*
X0188058Y0066700D01*
X0186109Y0066700D01*
X0184308Y0065954D01*
X0182929Y0064576D01*
X0182183Y0062775D01*
X0182183Y0060825D01*
X0182929Y0059024D01*
X0184308Y0057646D01*
X0182711Y0059551D02*
X0162922Y0059551D01*
X0162657Y0058911D02*
X0163433Y0060786D01*
X0163433Y0062814D01*
X0162657Y0064689D01*
X0161222Y0066124D01*
X0159348Y0066900D01*
X0157319Y0066900D01*
X0155444Y0066124D01*
X0154010Y0064689D01*
X0153233Y0062814D01*
X0153233Y0060786D01*
X0154010Y0058911D01*
X0155444Y0057476D01*
X0157319Y0056700D01*
X0159348Y0056700D01*
X0161222Y0057476D01*
X0162657Y0058911D01*
X0163433Y0061149D02*
X0182183Y0061149D01*
X0182183Y0062748D02*
X0163433Y0062748D01*
X0162799Y0064346D02*
X0182834Y0064346D01*
X0184299Y0065945D02*
X0161401Y0065945D01*
X0155266Y0065945D02*
X0138433Y0065945D01*
X0138433Y0065786D02*
X0137657Y0063911D01*
X0136222Y0062476D01*
X0134348Y0061700D01*
X0132319Y0061700D01*
X0130444Y0062476D01*
X0129010Y0063911D01*
X0128233Y0065786D01*
X0128233Y0067814D01*
X0129010Y0069689D01*
X0130444Y0071124D01*
X0132319Y0071900D01*
X0134348Y0071900D01*
X0136222Y0071124D01*
X0137657Y0069689D01*
X0138433Y0067814D01*
X0138433Y0065786D01*
X0137837Y0064346D02*
X0153868Y0064346D01*
X0153233Y0062748D02*
X0136494Y0062748D01*
X0138433Y0067543D02*
X0184555Y0067543D01*
X0184308Y0067646D02*
X0186109Y0066900D01*
X0188058Y0066900D01*
X0189859Y0067646D01*
X0191237Y0069024D01*
X0191983Y0070825D01*
X0191983Y0072775D01*
X0191237Y0074576D01*
X0189859Y0075954D01*
X0188058Y0076700D01*
X0186109Y0076700D01*
X0184308Y0075954D01*
X0182929Y0074576D01*
X0182183Y0072775D01*
X0182183Y0070825D01*
X0182929Y0069024D01*
X0184308Y0067646D01*
X0182881Y0069142D02*
X0137883Y0069142D01*
X0136605Y0070740D02*
X0182218Y0070740D01*
X0182183Y0072339D02*
X0106433Y0072339D01*
X0106433Y0072814D02*
X0105657Y0074689D01*
X0104222Y0076124D01*
X0102348Y0076900D01*
X0100319Y0076900D01*
X0098444Y0076124D01*
X0097010Y0074689D01*
X0096233Y0072814D01*
X0096233Y0070786D01*
X0097010Y0068911D01*
X0098444Y0067476D01*
X0100319Y0066700D01*
X0102348Y0066700D01*
X0104222Y0067476D01*
X0105657Y0068911D01*
X0106433Y0070786D01*
X0106433Y0072814D01*
X0105968Y0073937D02*
X0182665Y0073937D01*
X0183890Y0075536D02*
X0104810Y0075536D01*
X0106415Y0070740D02*
X0110061Y0070740D01*
X0110444Y0071124D02*
X0109010Y0069689D01*
X0108233Y0067814D01*
X0108233Y0065786D01*
X0109010Y0063911D01*
X0110444Y0062476D01*
X0112319Y0061700D01*
X0114348Y0061700D01*
X0116222Y0062476D01*
X0117657Y0063911D01*
X0118433Y0065786D01*
X0118433Y0067814D01*
X0117657Y0069689D01*
X0116222Y0071124D01*
X0114348Y0071900D01*
X0112319Y0071900D01*
X0110444Y0071124D01*
X0108783Y0069142D02*
X0105753Y0069142D01*
X0104289Y0067543D02*
X0108233Y0067543D01*
X0108233Y0065945D02*
X0083433Y0065945D01*
X0083433Y0065786D02*
X0082657Y0063911D01*
X0081222Y0062476D01*
X0079348Y0061700D01*
X0077319Y0061700D01*
X0075444Y0062476D01*
X0074010Y0063911D01*
X0073233Y0065786D01*
X0073233Y0067814D01*
X0074010Y0069689D01*
X0075444Y0071124D01*
X0077319Y0071900D01*
X0079348Y0071900D01*
X0081222Y0071124D01*
X0082657Y0069689D01*
X0083433Y0067814D01*
X0083433Y0065786D01*
X0082837Y0064346D02*
X0108829Y0064346D01*
X0110173Y0062748D02*
X0081494Y0062748D01*
X0083433Y0067543D02*
X0098377Y0067543D01*
X0096914Y0069142D02*
X0082883Y0069142D01*
X0081605Y0070740D02*
X0096252Y0070740D01*
X0096233Y0072339D02*
X0051216Y0072339D01*
X0051433Y0071814D02*
X0050657Y0073689D01*
X0049222Y0075124D01*
X0047348Y0075900D01*
X0045319Y0075900D01*
X0043444Y0075124D01*
X0042010Y0073689D01*
X0041233Y0071814D01*
X0041233Y0069786D01*
X0042010Y0067911D01*
X0043444Y0066476D01*
X0045319Y0065700D01*
X0047348Y0065700D01*
X0049222Y0066476D01*
X0050657Y0067911D01*
X0051433Y0069786D01*
X0051433Y0071814D01*
X0051433Y0070740D02*
X0055061Y0070740D01*
X0055444Y0071124D02*
X0054010Y0069689D01*
X0053233Y0067814D01*
X0053233Y0065786D01*
X0054010Y0063911D01*
X0055444Y0062476D01*
X0057319Y0061700D01*
X0059348Y0061700D01*
X0061222Y0062476D01*
X0062657Y0063911D01*
X0063433Y0065786D01*
X0063433Y0067814D01*
X0062657Y0069689D01*
X0061222Y0071124D01*
X0059348Y0071900D01*
X0057319Y0071900D01*
X0055444Y0071124D01*
X0053783Y0069142D02*
X0051167Y0069142D01*
X0050289Y0067543D02*
X0053233Y0067543D01*
X0053233Y0065945D02*
X0047939Y0065945D01*
X0044728Y0065945D02*
X0035633Y0065945D01*
X0035633Y0067543D02*
X0042377Y0067543D01*
X0041500Y0069142D02*
X0035633Y0069142D01*
X0035633Y0070740D02*
X0041233Y0070740D01*
X0041451Y0072339D02*
X0035633Y0072339D01*
X0035633Y0073937D02*
X0042258Y0073937D01*
X0044440Y0075536D02*
X0035633Y0075536D01*
X0035633Y0077134D02*
X0166270Y0077134D01*
X0165444Y0077476D02*
X0167319Y0076700D01*
X0169348Y0076700D01*
X0171222Y0077476D01*
X0172657Y0078911D01*
X0173433Y0080786D01*
X0173433Y0082814D01*
X0172657Y0084689D01*
X0171222Y0086124D01*
X0169348Y0086900D01*
X0167319Y0086900D01*
X0165444Y0086124D01*
X0164010Y0084689D01*
X0163233Y0082814D01*
X0163233Y0080786D01*
X0164010Y0078911D01*
X0165444Y0077476D01*
X0164188Y0078733D02*
X0035633Y0078733D01*
X0035633Y0080332D02*
X0163421Y0080332D01*
X0163233Y0081930D02*
X0134903Y0081930D01*
X0134348Y0081700D02*
X0136222Y0082476D01*
X0137657Y0083911D01*
X0138433Y0085786D01*
X0138433Y0087814D01*
X0137657Y0089689D01*
X0136222Y0091124D01*
X0134589Y0091800D01*
X0136222Y0092476D01*
X0137657Y0093911D01*
X0138433Y0095786D01*
X0138433Y0097657D01*
X0155033Y0114257D01*
X0155877Y0115101D01*
X0156333Y0116203D01*
X0156333Y0201557D01*
X0183688Y0228912D01*
X0183233Y0227814D01*
X0183233Y0225786D01*
X0184010Y0223911D01*
X0185444Y0222476D01*
X0187319Y0221700D01*
X0189348Y0221700D01*
X0191222Y0222476D01*
X0192657Y0223911D01*
X0193433Y0225786D01*
X0193433Y0227814D01*
X0192657Y0229689D01*
X0191222Y0231124D01*
X0189348Y0231900D01*
X0187319Y0231900D01*
X0186221Y0231445D01*
X0187576Y0232800D01*
X0232930Y0232800D01*
X0234033Y0233257D01*
X0242129Y0241353D01*
X0243644Y0240478D01*
X0246734Y0239650D01*
X0249933Y0239650D01*
X0253023Y0240478D01*
X0255794Y0242078D01*
X0258056Y0244340D01*
X0259655Y0247110D01*
X0260483Y0250200D01*
X0260483Y0253400D01*
X0259655Y0256490D01*
X0258056Y0259260D01*
X0255794Y0261522D01*
X0253023Y0263122D01*
X0249933Y0263950D01*
X0246734Y0263950D01*
X0243644Y0263122D01*
X0240873Y0261522D01*
X0238611Y0259260D01*
X0237011Y0256490D01*
X0236183Y0253400D01*
X0236183Y0250200D01*
X0237011Y0247110D01*
X0237886Y0245595D01*
X0231091Y0238800D01*
X0185737Y0238800D01*
X0184634Y0238343D01*
X0183790Y0237499D01*
X0173433Y0227143D01*
X0173433Y0227814D01*
X0172657Y0229689D01*
X0171222Y0231124D01*
X0169348Y0231900D01*
X0167319Y0231900D01*
X0165444Y0231124D01*
X0164010Y0229689D01*
X0163233Y0227814D01*
X0163233Y0225786D01*
X0164010Y0223911D01*
X0165444Y0222476D01*
X0167319Y0221700D01*
X0167991Y0221700D01*
X0151634Y0205343D01*
X0150790Y0204499D01*
X0150333Y0203397D01*
X0150333Y0118043D01*
X0138433Y0106143D01*
X0138433Y0107814D01*
X0137657Y0109689D01*
X0136222Y0111124D01*
X0134348Y0111900D01*
X0132319Y0111900D01*
X0130444Y0111124D01*
X0129010Y0109689D01*
X0128233Y0107814D01*
X0128233Y0105943D01*
X0118433Y0096143D01*
X0118433Y0097657D01*
X0125877Y0105101D01*
X0126333Y0106203D01*
X0126333Y0226557D01*
X0132576Y0232800D01*
X0170930Y0232800D01*
X0172033Y0233257D01*
X0180129Y0241353D01*
X0181644Y0240478D01*
X0184734Y0239650D01*
X0187933Y0239650D01*
X0191023Y0240478D01*
X0193794Y0242078D01*
X0196056Y0244340D01*
X0197655Y0247110D01*
X0198483Y0250200D01*
X0198483Y0253400D01*
X0197655Y0256490D01*
X0196056Y0259260D01*
X0193794Y0261522D01*
X0191023Y0263122D01*
X0187933Y0263950D01*
X0184734Y0263950D01*
X0181644Y0263122D01*
X0178873Y0261522D01*
X0176611Y0259260D01*
X0175011Y0256490D01*
X0174183Y0253400D01*
X0174183Y0250200D01*
X0175011Y0247110D01*
X0175886Y0245595D01*
X0169091Y0238800D01*
X0130737Y0238800D01*
X0129634Y0238343D01*
X0128790Y0237499D01*
X0120790Y0229499D01*
X0120333Y0228397D01*
X0120333Y0108043D01*
X0118433Y0106143D01*
X0118433Y0107814D01*
X0117657Y0109689D01*
X0116222Y0111124D01*
X0114348Y0111900D01*
X0112319Y0111900D01*
X0110444Y0111124D01*
X0109010Y0109689D01*
X0108233Y0107814D01*
X0108233Y0105786D01*
X0109010Y0103911D01*
X0110444Y0102476D01*
X0112077Y0101800D01*
X0110444Y0101124D01*
X0109010Y0099689D01*
X0108233Y0097814D01*
X0108233Y0095786D01*
X0109010Y0093911D01*
X0110444Y0092476D01*
X0112077Y0091800D01*
X0110444Y0091124D01*
X0109010Y0089689D01*
X0108233Y0087814D01*
X0108233Y0085786D01*
X0109010Y0083911D01*
X0110444Y0082476D01*
X0112319Y0081700D01*
X0114348Y0081700D01*
X0116222Y0082476D01*
X0117657Y0083911D01*
X0118433Y0085786D01*
X0118433Y0087657D01*
X0128233Y0097457D01*
X0128233Y0095786D01*
X0129010Y0093911D01*
X0130444Y0092476D01*
X0132077Y0091800D01*
X0130444Y0091124D01*
X0129010Y0089689D01*
X0128233Y0087814D01*
X0128233Y0085786D01*
X0129010Y0083911D01*
X0130444Y0082476D01*
X0132319Y0081700D01*
X0134348Y0081700D01*
X0131764Y0081930D02*
X0114903Y0081930D01*
X0117274Y0083529D02*
X0129392Y0083529D01*
X0128506Y0085127D02*
X0118161Y0085127D01*
X0118433Y0086726D02*
X0128233Y0086726D01*
X0128444Y0088324D02*
X0119100Y0088324D01*
X0120699Y0089923D02*
X0129243Y0089923D01*
X0131404Y0091521D02*
X0122297Y0091521D01*
X0123896Y0093120D02*
X0129801Y0093120D01*
X0128675Y0094718D02*
X0125494Y0094718D01*
X0127093Y0096317D02*
X0128233Y0096317D01*
X0123403Y0101112D02*
X0121888Y0101112D01*
X0121804Y0099514D02*
X0120290Y0099514D01*
X0120206Y0097915D02*
X0118691Y0097915D01*
X0118607Y0096317D02*
X0118433Y0096317D01*
X0123487Y0102711D02*
X0125001Y0102711D01*
X0125085Y0104309D02*
X0126600Y0104309D01*
X0126211Y0105908D02*
X0128198Y0105908D01*
X0128233Y0107506D02*
X0126333Y0107506D01*
X0126333Y0109105D02*
X0128768Y0109105D01*
X0130024Y0110703D02*
X0126333Y0110703D01*
X0126333Y0112302D02*
X0144592Y0112302D01*
X0142994Y0110703D02*
X0136643Y0110703D01*
X0137899Y0109105D02*
X0141395Y0109105D01*
X0139797Y0107506D02*
X0138433Y0107506D01*
X0143487Y0102711D02*
X0185210Y0102711D01*
X0185444Y0102476D02*
X0187319Y0101700D01*
X0189348Y0101700D01*
X0191222Y0102476D01*
X0192657Y0103911D01*
X0193433Y0105786D01*
X0193433Y0107814D01*
X0192657Y0109689D01*
X0191222Y0111124D01*
X0189348Y0111900D01*
X0187319Y0111900D01*
X0185444Y0111124D01*
X0184010Y0109689D01*
X0183233Y0107814D01*
X0183233Y0105786D01*
X0184010Y0103911D01*
X0185444Y0102476D01*
X0183845Y0104309D02*
X0145085Y0104309D01*
X0146684Y0105908D02*
X0183233Y0105908D01*
X0183233Y0107506D02*
X0148282Y0107506D01*
X0149881Y0109105D02*
X0183768Y0109105D01*
X0185024Y0110703D02*
X0151479Y0110703D01*
X0153078Y0112302D02*
X0241333Y0112302D01*
X0241333Y0113900D02*
X0154676Y0113900D01*
X0156042Y0115499D02*
X0241333Y0115499D01*
X0241333Y0117097D02*
X0156333Y0117097D01*
X0156333Y0118696D02*
X0241333Y0118696D01*
X0241333Y0120294D02*
X0156333Y0120294D01*
X0156333Y0121893D02*
X0241333Y0121893D01*
X0241333Y0122628D02*
X0241333Y0102628D01*
X0230305Y0091600D01*
X0226345Y0091600D01*
X0223533Y0088788D01*
X0223533Y0084812D01*
X0226345Y0082000D01*
X0230322Y0082000D01*
X0233133Y0084812D01*
X0233133Y0088772D01*
X0245333Y0100972D01*
X0245333Y0120972D01*
X0261333Y0136972D01*
X0261333Y0143595D01*
X0261429Y0143500D01*
X0263303Y0142724D01*
X0265332Y0142724D01*
X0267206Y0143500D01*
X0268641Y0144935D01*
X0269318Y0146568D01*
X0269994Y0144935D01*
X0271429Y0143500D01*
X0273303Y0142724D01*
X0275332Y0142724D01*
X0277206Y0143500D01*
X0278641Y0144935D01*
X0279318Y0146568D01*
X0279994Y0144935D01*
X0281429Y0143500D01*
X0283303Y0142724D01*
X0285332Y0142724D01*
X0287206Y0143500D01*
X0288641Y0144935D01*
X0289318Y0146568D01*
X0289994Y0144935D01*
X0291429Y0143500D01*
X0293303Y0142724D01*
X0295332Y0142724D01*
X0297206Y0143500D01*
X0298641Y0144935D01*
X0299107Y0146060D01*
X0299221Y0145712D01*
X0299614Y0144941D01*
X0300122Y0144241D01*
X0300735Y0143628D01*
X0301435Y0143120D01*
X0302206Y0142727D01*
X0303030Y0142459D01*
X0303885Y0142324D01*
X0304118Y0142324D01*
X0304118Y0147624D01*
X0304518Y0147624D01*
X0304518Y0142324D01*
X0304750Y0142324D01*
X0305605Y0142459D01*
X0306429Y0142727D01*
X0307200Y0143120D01*
X0307901Y0143628D01*
X0308513Y0144241D01*
X0309022Y0144941D01*
X0309415Y0145712D01*
X0309528Y0146060D01*
X0309994Y0144935D01*
X0311429Y0143500D01*
X0313303Y0142724D01*
X0315332Y0142724D01*
X0317206Y0143500D01*
X0318641Y0144935D01*
X0319318Y0146568D01*
X0319994Y0144935D01*
X0321429Y0143500D01*
X0323303Y0142724D01*
X0325332Y0142724D01*
X0327206Y0143500D01*
X0328641Y0144935D01*
X0329318Y0146568D01*
X0329994Y0144935D01*
X0331429Y0143500D01*
X0333303Y0142724D01*
X0335332Y0142724D01*
X0337206Y0143500D01*
X0338641Y0144935D01*
X0338818Y0145361D01*
X0338818Y0143887D01*
X0338940Y0143429D01*
X0339177Y0143018D01*
X0339512Y0142683D01*
X0339923Y0142446D01*
X0340381Y0142324D01*
X0344118Y0142324D01*
X0344118Y0147624D01*
X0344518Y0147624D01*
X0344518Y0148024D01*
X0349818Y0148024D01*
X0349818Y0151761D01*
X0349695Y0152218D01*
X0349458Y0152629D01*
X0349123Y0152964D01*
X0348712Y0153201D01*
X0348255Y0153324D01*
X0344518Y0153324D01*
X0344518Y0148024D01*
X0344118Y0148024D01*
X0344118Y0153324D01*
X0340381Y0153324D01*
X0339923Y0153201D01*
X0339512Y0152964D01*
X0339177Y0152629D01*
X0338940Y0152218D01*
X0338818Y0151761D01*
X0338818Y0150287D01*
X0338641Y0150713D01*
X0337206Y0152147D01*
X0335332Y0152924D01*
X0333303Y0152924D01*
X0331429Y0152147D01*
X0329994Y0150713D01*
X0329318Y0149079D01*
X0328641Y0150713D01*
X0327206Y0152147D01*
X0325332Y0152924D01*
X0323303Y0152924D01*
X0321429Y0152147D01*
X0319994Y0150713D01*
X0319318Y0149079D01*
X0318641Y0150713D01*
X0317206Y0152147D01*
X0315332Y0152924D01*
X0313303Y0152924D01*
X0311429Y0152147D01*
X0309994Y0150713D01*
X0309528Y0149587D01*
X0309415Y0149935D01*
X0309022Y0150706D01*
X0308513Y0151407D01*
X0307901Y0152019D01*
X0307200Y0152528D01*
X0306429Y0152921D01*
X0305605Y0153188D01*
X0304750Y0153324D01*
X0304518Y0153324D01*
X0304518Y0148024D01*
X0304118Y0148024D01*
X0304118Y0153324D01*
X0303885Y0153324D01*
X0303030Y0153188D01*
X0302206Y0152921D01*
X0301435Y0152528D01*
X0300735Y0152019D01*
X0300122Y0151407D01*
X0299614Y0150706D01*
X0299221Y0149935D01*
X0299107Y0149587D01*
X0298641Y0150713D01*
X0297206Y0152147D01*
X0295332Y0152924D01*
X0293303Y0152924D01*
X0291429Y0152147D01*
X0289994Y0150713D01*
X0289318Y0149079D01*
X0288641Y0150713D01*
X0287206Y0152147D01*
X0285332Y0152924D01*
X0283303Y0152924D01*
X0281429Y0152147D01*
X0279994Y0150713D01*
X0279318Y0149079D01*
X0278641Y0150713D01*
X0277206Y0152147D01*
X0275332Y0152924D01*
X0273303Y0152924D01*
X0271429Y0152147D01*
X0269994Y0150713D01*
X0269318Y0149079D01*
X0268641Y0150713D01*
X0267206Y0152147D01*
X0265332Y0152924D01*
X0263303Y0152924D01*
X0261429Y0152147D01*
X0261333Y0152052D01*
X0261333Y0161972D01*
X0261430Y0162068D01*
X0262319Y0161700D01*
X0264348Y0161700D01*
X0266222Y0162476D01*
X0267657Y0163911D01*
X0268333Y0165544D01*
X0269010Y0163911D01*
X0270444Y0162476D01*
X0272319Y0161700D01*
X0274348Y0161700D01*
X0276222Y0162476D01*
X0277657Y0163911D01*
X0278333Y0165544D01*
X0279010Y0163911D01*
X0280444Y0162476D01*
X0282319Y0161700D01*
X0284348Y0161700D01*
X0286222Y0162476D01*
X0287657Y0163911D01*
X0288333Y0165544D01*
X0289010Y0163911D01*
X0290444Y0162476D01*
X0292319Y0161700D01*
X0294348Y0161700D01*
X0296222Y0162476D01*
X0297657Y0163911D01*
X0298333Y0165544D01*
X0299010Y0163911D01*
X0300444Y0162476D01*
X0302319Y0161700D01*
X0304348Y0161700D01*
X0306222Y0162476D01*
X0307657Y0163911D01*
X0308333Y0165544D01*
X0309010Y0163911D01*
X0310444Y0162476D01*
X0312319Y0161700D01*
X0314348Y0161700D01*
X0316222Y0162476D01*
X0317657Y0163911D01*
X0318433Y0165786D01*
X0318433Y0167814D01*
X0317657Y0169689D01*
X0316222Y0171124D01*
X0314348Y0171900D01*
X0312319Y0171900D01*
X0310444Y0171124D01*
X0309010Y0169689D01*
X0308333Y0168056D01*
X0307657Y0169689D01*
X0306222Y0171124D01*
X0304348Y0171900D01*
X0302319Y0171900D01*
X0300444Y0171124D01*
X0299010Y0169689D01*
X0298333Y0168056D01*
X0297657Y0169689D01*
X0296222Y0171124D01*
X0294348Y0171900D01*
X0292319Y0171900D01*
X0290444Y0171124D01*
X0289010Y0169689D01*
X0288333Y0168056D01*
X0287657Y0169689D01*
X0286222Y0171124D01*
X0284348Y0171900D01*
X0282319Y0171900D01*
X0280444Y0171124D01*
X0279010Y0169689D01*
X0278333Y0168056D01*
X0277657Y0169689D01*
X0276222Y0171124D01*
X0274348Y0171900D01*
X0272319Y0171900D01*
X0270444Y0171124D01*
X0269010Y0169689D01*
X0268333Y0168056D01*
X0267657Y0169689D01*
X0266222Y0171124D01*
X0264348Y0171900D01*
X0262319Y0171900D01*
X0260444Y0171124D01*
X0259010Y0169689D01*
X0258333Y0168056D01*
X0257657Y0169689D01*
X0256222Y0171124D01*
X0254348Y0171900D01*
X0252319Y0171900D01*
X0250444Y0171124D01*
X0249010Y0169689D01*
X0248333Y0168056D01*
X0247657Y0169689D01*
X0246222Y0171124D01*
X0244348Y0171900D01*
X0242319Y0171900D01*
X0240444Y0171124D01*
X0239010Y0169689D01*
X0238333Y0168056D01*
X0237657Y0169689D01*
X0236222Y0171124D01*
X0234348Y0171900D01*
X0232319Y0171900D01*
X0230444Y0171124D01*
X0229010Y0169689D01*
X0228333Y0168056D01*
X0227657Y0169689D01*
X0226222Y0171124D01*
X0224348Y0171900D01*
X0222319Y0171900D01*
X0220444Y0171124D01*
X0219010Y0169689D01*
X0218333Y0168056D01*
X0217657Y0169689D01*
X0216222Y0171124D01*
X0214348Y0171900D01*
X0212319Y0171900D01*
X0210444Y0171124D01*
X0209010Y0169689D01*
X0208333Y0168056D01*
X0207657Y0169689D01*
X0206222Y0171124D01*
X0204348Y0171900D01*
X0202319Y0171900D01*
X0200444Y0171124D01*
X0199010Y0169689D01*
X0198233Y0167814D01*
X0198233Y0165786D01*
X0199010Y0163911D01*
X0200444Y0162476D01*
X0202319Y0161700D01*
X0204348Y0161700D01*
X0206222Y0162476D01*
X0207657Y0163911D01*
X0208333Y0165544D01*
X0209010Y0163911D01*
X0210444Y0162476D01*
X0212319Y0161700D01*
X0214348Y0161700D01*
X0216222Y0162476D01*
X0217657Y0163911D01*
X0218333Y0165544D01*
X0219010Y0163911D01*
X0220444Y0162476D01*
X0222319Y0161700D01*
X0224348Y0161700D01*
X0226222Y0162476D01*
X0227657Y0163911D01*
X0228333Y0165544D01*
X0229010Y0163911D01*
X0230444Y0162476D01*
X0232319Y0161700D01*
X0234348Y0161700D01*
X0236222Y0162476D01*
X0237657Y0163911D01*
X0238333Y0165544D01*
X0239010Y0163911D01*
X0240444Y0162476D01*
X0242319Y0161700D01*
X0244348Y0161700D01*
X0246222Y0162476D01*
X0247657Y0163911D01*
X0248333Y0165544D01*
X0249010Y0163911D01*
X0250444Y0162476D01*
X0252319Y0161700D01*
X0254348Y0161700D01*
X0256222Y0162476D01*
X0257333Y0163588D01*
X0257333Y0152020D01*
X0257206Y0152147D01*
X0255332Y0152924D01*
X0253303Y0152924D01*
X0251429Y0152147D01*
X0249994Y0150713D01*
X0249318Y0149079D01*
X0248641Y0150713D01*
X0247206Y0152147D01*
X0245332Y0152924D01*
X0243303Y0152924D01*
X0241429Y0152147D01*
X0239994Y0150713D01*
X0239318Y0149079D01*
X0238641Y0150713D01*
X0237206Y0152147D01*
X0235332Y0152924D01*
X0233303Y0152924D01*
X0231429Y0152147D01*
X0229994Y0150713D01*
X0229318Y0149079D01*
X0228641Y0150713D01*
X0227206Y0152147D01*
X0225332Y0152924D01*
X0223303Y0152924D01*
X0221429Y0152147D01*
X0219994Y0150713D01*
X0219318Y0149079D01*
X0218641Y0150713D01*
X0217206Y0152147D01*
X0215332Y0152924D01*
X0213303Y0152924D01*
X0211429Y0152147D01*
X0209994Y0150713D01*
X0209318Y0149079D01*
X0208641Y0150713D01*
X0207206Y0152147D01*
X0205332Y0152924D01*
X0203303Y0152924D01*
X0201429Y0152147D01*
X0199994Y0150713D01*
X0199528Y0149587D01*
X0199415Y0149935D01*
X0199022Y0150706D01*
X0198513Y0151407D01*
X0197901Y0152019D01*
X0197200Y0152528D01*
X0196429Y0152921D01*
X0195605Y0153188D01*
X0194750Y0153324D01*
X0194518Y0153324D01*
X0194518Y0148024D01*
X0194118Y0148024D01*
X0194118Y0153324D01*
X0193885Y0153324D01*
X0193030Y0153188D01*
X0192206Y0152921D01*
X0191435Y0152528D01*
X0190735Y0152019D01*
X0190122Y0151407D01*
X0189614Y0150706D01*
X0189221Y0149935D01*
X0188953Y0149112D01*
X0188818Y0148256D01*
X0188818Y0148024D01*
X0194117Y0148024D01*
X0194117Y0147624D01*
X0188818Y0147624D01*
X0188818Y0147391D01*
X0188953Y0146536D01*
X0189221Y0145712D01*
X0189614Y0144941D01*
X0190122Y0144241D01*
X0190735Y0143628D01*
X0191435Y0143120D01*
X0192206Y0142727D01*
X0193030Y0142459D01*
X0193885Y0142324D01*
X0194118Y0142324D01*
X0194118Y0147624D01*
X0194518Y0147624D01*
X0194518Y0142324D01*
X0194750Y0142324D01*
X0195605Y0142459D01*
X0196429Y0142727D01*
X0197200Y0143120D01*
X0197901Y0143628D01*
X0198513Y0144241D01*
X0199022Y0144941D01*
X0199415Y0145712D01*
X0199528Y0146060D01*
X0199994Y0144935D01*
X0201429Y0143500D01*
X0203303Y0142724D01*
X0205332Y0142724D01*
X0207206Y0143500D01*
X0208641Y0144935D01*
X0209318Y0146568D01*
X0209994Y0144935D01*
X0211429Y0143500D01*
X0213303Y0142724D01*
X0215332Y0142724D01*
X0217206Y0143500D01*
X0218641Y0144935D01*
X0219318Y0146568D01*
X0219994Y0144935D01*
X0221429Y0143500D01*
X0223303Y0142724D01*
X0225332Y0142724D01*
X0227206Y0143500D01*
X0228641Y0144935D01*
X0229318Y0146568D01*
X0229994Y0144935D01*
X0231429Y0143500D01*
X0233303Y0142724D01*
X0235332Y0142724D01*
X0237206Y0143500D01*
X0238641Y0144935D01*
X0239318Y0146568D01*
X0239994Y0144935D01*
X0241429Y0143500D01*
X0243303Y0142724D01*
X0245332Y0142724D01*
X0247206Y0143500D01*
X0248641Y0144935D01*
X0249318Y0146568D01*
X0249994Y0144935D01*
X0251429Y0143500D01*
X0253303Y0142724D01*
X0255332Y0142724D01*
X0257206Y0143500D01*
X0257333Y0143627D01*
X0257333Y0138628D01*
X0242505Y0123800D01*
X0241333Y0122628D01*
X0242196Y0123491D02*
X0156333Y0123491D01*
X0156333Y0125090D02*
X0243795Y0125090D01*
X0245393Y0126688D02*
X0156333Y0126688D01*
X0156333Y0128287D02*
X0246992Y0128287D01*
X0248590Y0129885D02*
X0156333Y0129885D01*
X0156333Y0131484D02*
X0250189Y0131484D01*
X0251787Y0133082D02*
X0156333Y0133082D01*
X0156333Y0134681D02*
X0253386Y0134681D01*
X0254984Y0136279D02*
X0156333Y0136279D01*
X0156333Y0137878D02*
X0164477Y0137878D01*
X0164750Y0137605D02*
X0165451Y0137096D01*
X0166222Y0136703D01*
X0167045Y0136435D01*
X0167900Y0136300D01*
X0167952Y0136300D01*
X0167952Y0141419D01*
X0162833Y0141419D01*
X0162833Y0141367D01*
X0162969Y0140512D01*
X0163236Y0139689D01*
X0163629Y0138917D01*
X0164138Y0138217D01*
X0164750Y0137605D01*
X0163344Y0139476D02*
X0156333Y0139476D01*
X0156333Y0141075D02*
X0162880Y0141075D01*
X0162833Y0142181D02*
X0167952Y0142181D01*
X0167952Y0141419D01*
X0168714Y0141419D01*
X0168714Y0136300D01*
X0168766Y0136300D01*
X0169621Y0136435D01*
X0170445Y0136703D01*
X0171216Y0137096D01*
X0171916Y0137605D01*
X0172528Y0138217D01*
X0173037Y0138917D01*
X0173430Y0139689D01*
X0173698Y0140512D01*
X0173833Y0141367D01*
X0173833Y0141419D01*
X0168715Y0141419D01*
X0168715Y0142181D01*
X0173833Y0142181D01*
X0173833Y0142233D01*
X0173698Y0143088D01*
X0173430Y0143911D01*
X0173037Y0144683D01*
X0172528Y0145383D01*
X0171916Y0145995D01*
X0171216Y0146504D01*
X0170445Y0146897D01*
X0169621Y0147165D01*
X0168766Y0147300D01*
X0168714Y0147300D01*
X0168714Y0142181D01*
X0167952Y0142181D01*
X0167952Y0147300D01*
X0167900Y0147300D01*
X0167045Y0147165D01*
X0166222Y0146897D01*
X0165451Y0146504D01*
X0164750Y0145995D01*
X0164138Y0145383D01*
X0163629Y0144683D01*
X0163236Y0143911D01*
X0162969Y0143088D01*
X0162833Y0142233D01*
X0162833Y0142181D01*
X0162903Y0142673D02*
X0156333Y0142673D01*
X0156333Y0144272D02*
X0163420Y0144272D01*
X0164626Y0145870D02*
X0156333Y0145870D01*
X0156333Y0147469D02*
X0188818Y0147469D01*
X0188946Y0149068D02*
X0156333Y0149068D01*
X0156333Y0150666D02*
X0189593Y0150666D01*
X0191073Y0152265D02*
X0156333Y0152265D01*
X0156333Y0153863D02*
X0257333Y0153863D01*
X0257333Y0152265D02*
X0256923Y0152265D01*
X0257333Y0155462D02*
X0156333Y0155462D01*
X0156333Y0157060D02*
X0166579Y0157060D01*
X0166395Y0157120D02*
X0167151Y0156874D01*
X0167936Y0156750D01*
X0168333Y0156750D01*
X0168333Y0161800D01*
X0168333Y0161800D01*
X0163283Y0161800D01*
X0163283Y0161403D01*
X0163408Y0160617D01*
X0163653Y0159861D01*
X0164014Y0159153D01*
X0164481Y0158510D01*
X0165043Y0157948D01*
X0165687Y0157481D01*
X0166395Y0157120D01*
X0168333Y0157060D02*
X0168333Y0157060D01*
X0168333Y0156750D02*
X0168731Y0156750D01*
X0169516Y0156874D01*
X0170272Y0157120D01*
X0170980Y0157481D01*
X0171623Y0157948D01*
X0172185Y0158510D01*
X0172652Y0159153D01*
X0173013Y0159861D01*
X0173259Y0160617D01*
X0173383Y0161403D01*
X0173383Y0161800D01*
X0173383Y0162197D01*
X0173259Y0162983D01*
X0173013Y0163739D01*
X0172652Y0164447D01*
X0172185Y0165090D01*
X0171623Y0165652D01*
X0170980Y0166119D01*
X0170272Y0166480D01*
X0169516Y0166726D01*
X0168731Y0166850D01*
X0168333Y0166850D01*
X0167936Y0166850D01*
X0167151Y0166726D01*
X0166395Y0166480D01*
X0165687Y0166119D01*
X0165043Y0165652D01*
X0164481Y0165090D01*
X0164014Y0164447D01*
X0163653Y0163739D01*
X0163408Y0162983D01*
X0163283Y0162197D01*
X0163283Y0161800D01*
X0168333Y0161800D01*
X0168333Y0166850D01*
X0168333Y0161800D01*
X0168333Y0161800D01*
X0168333Y0161800D01*
X0168333Y0156750D01*
X0170087Y0157060D02*
X0186579Y0157060D01*
X0186395Y0157120D02*
X0187151Y0156874D01*
X0187936Y0156750D01*
X0188333Y0156750D01*
X0188333Y0161800D01*
X0188333Y0161800D01*
X0183283Y0161800D01*
X0183283Y0161403D01*
X0183408Y0160617D01*
X0183653Y0159861D01*
X0184014Y0159153D01*
X0184481Y0158510D01*
X0185043Y0157948D01*
X0185687Y0157481D01*
X0186395Y0157120D01*
X0188333Y0157060D02*
X0188333Y0157060D01*
X0188333Y0156750D02*
X0188731Y0156750D01*
X0189516Y0156874D01*
X0190272Y0157120D01*
X0190980Y0157481D01*
X0191623Y0157948D01*
X0192185Y0158510D01*
X0192652Y0159153D01*
X0193013Y0159861D01*
X0193259Y0160617D01*
X0193383Y0161403D01*
X0193383Y0161800D01*
X0193383Y0162197D01*
X0193259Y0162983D01*
X0193013Y0163739D01*
X0192652Y0164447D01*
X0192185Y0165090D01*
X0191623Y0165652D01*
X0190980Y0166119D01*
X0190272Y0166480D01*
X0189516Y0166726D01*
X0188731Y0166850D01*
X0188333Y0166850D01*
X0187936Y0166850D01*
X0187151Y0166726D01*
X0186395Y0166480D01*
X0185687Y0166119D01*
X0185043Y0165652D01*
X0184481Y0165090D01*
X0184014Y0164447D01*
X0183653Y0163739D01*
X0183408Y0162983D01*
X0183283Y0162197D01*
X0183283Y0161800D01*
X0188333Y0161800D01*
X0188333Y0166850D01*
X0188333Y0161800D01*
X0188333Y0161800D01*
X0188333Y0161800D01*
X0188333Y0156750D01*
X0190087Y0157060D02*
X0257333Y0157060D01*
X0257333Y0158659D02*
X0192293Y0158659D01*
X0193142Y0160257D02*
X0257333Y0160257D01*
X0257333Y0161856D02*
X0254723Y0161856D01*
X0251943Y0161856D02*
X0244723Y0161856D01*
X0241943Y0161856D02*
X0234723Y0161856D01*
X0231943Y0161856D02*
X0224723Y0161856D01*
X0221943Y0161856D02*
X0214723Y0161856D01*
X0211943Y0161856D02*
X0204723Y0161856D01*
X0201943Y0161856D02*
X0193383Y0161856D01*
X0193383Y0161800D02*
X0188333Y0161800D01*
X0188333Y0161800D01*
X0193383Y0161800D01*
X0193106Y0163454D02*
X0199467Y0163454D01*
X0198537Y0165053D02*
X0192212Y0165053D01*
X0189745Y0166651D02*
X0198233Y0166651D01*
X0198414Y0168250D02*
X0191359Y0168250D01*
X0190967Y0167858D02*
X0192275Y0169166D01*
X0192983Y0170875D01*
X0192983Y0172725D01*
X0192275Y0174434D01*
X0190967Y0175742D01*
X0189258Y0176450D01*
X0187408Y0176450D01*
X0185699Y0175742D01*
X0184391Y0174434D01*
X0183683Y0172725D01*
X0183683Y0170875D01*
X0184391Y0169166D01*
X0185699Y0167858D01*
X0187408Y0167150D01*
X0189258Y0167150D01*
X0190967Y0167858D01*
X0192558Y0169848D02*
X0199169Y0169848D01*
X0201224Y0171447D02*
X0192983Y0171447D01*
X0192851Y0173045D02*
X0226464Y0173045D01*
X0226694Y0172950D02*
X0228723Y0172950D01*
X0230597Y0173726D01*
X0232032Y0175161D01*
X0232708Y0176794D01*
X0233385Y0175161D01*
X0234819Y0173726D01*
X0236694Y0172950D01*
X0238723Y0172950D01*
X0240597Y0173726D01*
X0242032Y0175161D01*
X0242808Y0177036D01*
X0242808Y0179064D01*
X0242032Y0180939D01*
X0240597Y0182374D01*
X0238723Y0183150D01*
X0236694Y0183150D01*
X0234819Y0182374D01*
X0233385Y0180939D01*
X0232708Y0179306D01*
X0232032Y0180939D01*
X0230597Y0182374D01*
X0228723Y0183150D01*
X0226694Y0183150D01*
X0224819Y0182374D01*
X0223385Y0180939D01*
X0222608Y0179064D01*
X0222608Y0177036D01*
X0223385Y0175161D01*
X0224819Y0173726D01*
X0226694Y0172950D01*
X0225442Y0171447D02*
X0231224Y0171447D01*
X0229169Y0169848D02*
X0227498Y0169848D01*
X0228253Y0168250D02*
X0228414Y0168250D01*
X0228537Y0165053D02*
X0228130Y0165053D01*
X0227200Y0163454D02*
X0229467Y0163454D01*
X0237200Y0163454D02*
X0239467Y0163454D01*
X0238537Y0165053D02*
X0238130Y0165053D01*
X0238253Y0168250D02*
X0238414Y0168250D01*
X0239169Y0169848D02*
X0237498Y0169848D01*
X0235442Y0171447D02*
X0241224Y0171447D01*
X0238953Y0173045D02*
X0267714Y0173045D01*
X0267944Y0172950D02*
X0269973Y0172950D01*
X0271847Y0173726D01*
X0273282Y0175161D01*
X0273958Y0176794D01*
X0274635Y0175161D01*
X0276069Y0173726D01*
X0277944Y0172950D01*
X0279973Y0172950D01*
X0281847Y0173726D01*
X0283282Y0175161D01*
X0284058Y0177036D01*
X0284058Y0179064D01*
X0283282Y0180939D01*
X0281847Y0182374D01*
X0279973Y0183150D01*
X0277944Y0183150D01*
X0276069Y0182374D01*
X0274635Y0180939D01*
X0273958Y0179306D01*
X0273282Y0180939D01*
X0271847Y0182374D01*
X0269973Y0183150D01*
X0267944Y0183150D01*
X0266069Y0182374D01*
X0264635Y0180939D01*
X0263858Y0179064D01*
X0263858Y0177036D01*
X0264635Y0175161D01*
X0266069Y0173726D01*
X0267944Y0172950D01*
X0270203Y0173045D02*
X0277714Y0173045D01*
X0280203Y0173045D02*
X0318329Y0173045D01*
X0318233Y0172814D02*
X0318233Y0170786D01*
X0319010Y0168911D01*
X0320444Y0167476D01*
X0322319Y0166700D01*
X0324348Y0166700D01*
X0326222Y0167476D01*
X0327657Y0168911D01*
X0328433Y0170786D01*
X0328433Y0172814D01*
X0327657Y0174689D01*
X0326222Y0176124D01*
X0324589Y0176800D01*
X0326222Y0177476D01*
X0327657Y0178911D01*
X0328433Y0180786D01*
X0328433Y0182814D01*
X0327657Y0184689D01*
X0326222Y0186124D01*
X0324589Y0186800D01*
X0326222Y0187476D01*
X0327657Y0188911D01*
X0328433Y0190786D01*
X0328433Y0192814D01*
X0327657Y0194689D01*
X0326222Y0196124D01*
X0324589Y0196800D01*
X0326222Y0197476D01*
X0327657Y0198911D01*
X0328433Y0200786D01*
X0328433Y0202814D01*
X0327657Y0204689D01*
X0326222Y0206124D01*
X0324589Y0206800D01*
X0326222Y0207476D01*
X0327657Y0208911D01*
X0328433Y0210786D01*
X0328433Y0212814D01*
X0327657Y0214689D01*
X0326222Y0216124D01*
X0324589Y0216800D01*
X0326222Y0217476D01*
X0327657Y0218911D01*
X0328433Y0220786D01*
X0328433Y0222814D01*
X0327657Y0224689D01*
X0326222Y0226124D01*
X0324348Y0226900D01*
X0322319Y0226900D01*
X0320444Y0226124D01*
X0319010Y0224689D01*
X0318233Y0222814D01*
X0318233Y0220786D01*
X0319010Y0218911D01*
X0320444Y0217476D01*
X0322077Y0216800D01*
X0320444Y0216124D01*
X0319010Y0214689D01*
X0318233Y0212814D01*
X0318233Y0210786D01*
X0319010Y0208911D01*
X0320444Y0207476D01*
X0322077Y0206800D01*
X0320444Y0206124D01*
X0319010Y0204689D01*
X0318233Y0202814D01*
X0318233Y0200786D01*
X0319010Y0198911D01*
X0320444Y0197476D01*
X0322077Y0196800D01*
X0320444Y0196124D01*
X0319010Y0194689D01*
X0318233Y0192814D01*
X0318233Y0190786D01*
X0319010Y0188911D01*
X0320444Y0187476D01*
X0322077Y0186800D01*
X0320444Y0186124D01*
X0319010Y0184689D01*
X0318233Y0182814D01*
X0318233Y0180786D01*
X0319010Y0178911D01*
X0320444Y0177476D01*
X0322077Y0176800D01*
X0320444Y0176124D01*
X0319010Y0174689D01*
X0318233Y0172814D01*
X0318233Y0171447D02*
X0315442Y0171447D01*
X0317498Y0169848D02*
X0318622Y0169848D01*
X0318253Y0168250D02*
X0319671Y0168250D01*
X0318433Y0166651D02*
X0348382Y0166651D01*
X0348222Y0166703D02*
X0349045Y0166435D01*
X0349900Y0166300D01*
X0350133Y0166300D01*
X0350133Y0171600D01*
X0350533Y0171600D01*
X0350533Y0166300D01*
X0350766Y0166300D01*
X0351621Y0166435D01*
X0352445Y0166703D01*
X0353216Y0167096D01*
X0353916Y0167605D01*
X0354528Y0168217D01*
X0355037Y0168917D01*
X0355430Y0169689D01*
X0355543Y0170037D01*
X0356010Y0168911D01*
X0357444Y0167476D01*
X0359319Y0166700D01*
X0361348Y0166700D01*
X0363222Y0167476D01*
X0364657Y0168911D01*
X0365433Y0170786D01*
X0365433Y0172814D01*
X0364657Y0174689D01*
X0363222Y0176124D01*
X0361348Y0176900D01*
X0359319Y0176900D01*
X0357444Y0176124D01*
X0356010Y0174689D01*
X0355543Y0173563D01*
X0355430Y0173911D01*
X0355037Y0174683D01*
X0354528Y0175383D01*
X0353916Y0175995D01*
X0353216Y0176504D01*
X0352445Y0176897D01*
X0351621Y0177165D01*
X0350766Y0177300D01*
X0350533Y0177300D01*
X0350533Y0172000D01*
X0350133Y0172000D01*
X0350133Y0177300D01*
X0349900Y0177300D01*
X0349045Y0177165D01*
X0348222Y0176897D01*
X0347451Y0176504D01*
X0346750Y0175995D01*
X0346138Y0175383D01*
X0345629Y0174683D01*
X0345236Y0173911D01*
X0345123Y0173563D01*
X0344657Y0174689D01*
X0343222Y0176124D01*
X0341348Y0176900D01*
X0339319Y0176900D01*
X0337444Y0176124D01*
X0336010Y0174689D01*
X0335233Y0172814D01*
X0335233Y0170786D01*
X0336010Y0168911D01*
X0337444Y0167476D01*
X0339319Y0166700D01*
X0341348Y0166700D01*
X0343222Y0167476D01*
X0344657Y0168911D01*
X0345123Y0170037D01*
X0345236Y0169689D01*
X0345629Y0168917D01*
X0346138Y0168217D01*
X0346750Y0167605D01*
X0347451Y0167096D01*
X0348222Y0166703D01*
X0350133Y0166651D02*
X0350533Y0166651D01*
X0350533Y0168250D02*
X0350133Y0168250D01*
X0350133Y0169848D02*
X0350533Y0169848D01*
X0350533Y0171447D02*
X0350133Y0171447D01*
X0350133Y0173045D02*
X0350533Y0173045D01*
X0350533Y0174644D02*
X0350133Y0174644D01*
X0350133Y0176242D02*
X0350533Y0176242D01*
X0353576Y0176242D02*
X0357731Y0176242D01*
X0355991Y0174644D02*
X0355057Y0174644D01*
X0355482Y0169848D02*
X0355622Y0169848D01*
X0356671Y0168250D02*
X0354552Y0168250D01*
X0352285Y0166651D02*
X0365011Y0166651D01*
X0365110Y0166889D02*
X0364333Y0165014D01*
X0364333Y0162986D01*
X0365110Y0161111D01*
X0366544Y0159676D01*
X0368419Y0158900D01*
X0370448Y0158900D01*
X0372322Y0159676D01*
X0373757Y0161111D01*
X0374533Y0162986D01*
X0374533Y0165014D01*
X0373757Y0166889D01*
X0372322Y0168324D01*
X0370448Y0169100D01*
X0368419Y0169100D01*
X0366544Y0168324D01*
X0365110Y0166889D01*
X0363995Y0168250D02*
X0366470Y0168250D01*
X0365045Y0169848D02*
X0400133Y0169848D01*
X0400133Y0168250D02*
X0390196Y0168250D01*
X0390122Y0168324D02*
X0388248Y0169100D01*
X0386219Y0169100D01*
X0384344Y0168324D01*
X0382910Y0166889D01*
X0382133Y0165014D01*
X0382133Y0162986D01*
X0382910Y0161111D01*
X0384344Y0159676D01*
X0386219Y0158900D01*
X0388248Y0158900D01*
X0390122Y0159676D01*
X0391557Y0161111D01*
X0392333Y0162986D01*
X0392333Y0165014D01*
X0391557Y0166889D01*
X0390122Y0168324D01*
X0391655Y0166651D02*
X0400133Y0166651D01*
X0400133Y0165053D02*
X0392318Y0165053D01*
X0392333Y0163454D02*
X0400133Y0163454D01*
X0400133Y0161856D02*
X0391865Y0161856D01*
X0390703Y0160257D02*
X0400133Y0160257D01*
X0400133Y0158659D02*
X0261333Y0158659D01*
X0261333Y0160257D02*
X0365964Y0160257D01*
X0364801Y0161856D02*
X0314723Y0161856D01*
X0311943Y0161856D02*
X0304723Y0161856D01*
X0301943Y0161856D02*
X0294723Y0161856D01*
X0291943Y0161856D02*
X0284723Y0161856D01*
X0281943Y0161856D02*
X0274723Y0161856D01*
X0271943Y0161856D02*
X0264723Y0161856D01*
X0261943Y0161856D02*
X0261333Y0161856D01*
X0257333Y0163454D02*
X0257200Y0163454D01*
X0261333Y0157060D02*
X0400133Y0157060D01*
X0400133Y0155462D02*
X0261333Y0155462D01*
X0261333Y0153863D02*
X0400133Y0153863D01*
X0400133Y0152265D02*
X0349668Y0152265D01*
X0349818Y0150666D02*
X0400133Y0150666D01*
X0400133Y0149068D02*
X0349818Y0149068D01*
X0349818Y0147624D02*
X0344518Y0147624D01*
X0344518Y0142324D01*
X0348255Y0142324D01*
X0348712Y0142446D01*
X0349123Y0142683D01*
X0349458Y0143018D01*
X0349695Y0143429D01*
X0349818Y0143887D01*
X0349818Y0147624D01*
X0349818Y0147469D02*
X0400133Y0147469D01*
X0400133Y0145870D02*
X0349818Y0145870D01*
X0349818Y0144272D02*
X0400133Y0144272D01*
X0400133Y0142673D02*
X0349106Y0142673D01*
X0344518Y0142673D02*
X0344118Y0142673D01*
X0344118Y0144272D02*
X0344518Y0144272D01*
X0344518Y0145870D02*
X0344118Y0145870D01*
X0344118Y0147469D02*
X0344518Y0147469D01*
X0344518Y0149068D02*
X0344118Y0149068D01*
X0344118Y0150666D02*
X0344518Y0150666D01*
X0344518Y0152265D02*
X0344118Y0152265D01*
X0338967Y0152265D02*
X0336923Y0152265D01*
X0338660Y0150666D02*
X0338818Y0150666D01*
X0331712Y0152265D02*
X0326923Y0152265D01*
X0328660Y0150666D02*
X0329975Y0150666D01*
X0329606Y0145870D02*
X0329029Y0145870D01*
X0327978Y0144272D02*
X0330657Y0144272D01*
X0337978Y0144272D02*
X0338818Y0144272D01*
X0339529Y0142673D02*
X0306265Y0142673D01*
X0304518Y0142673D02*
X0304118Y0142673D01*
X0304118Y0144272D02*
X0304518Y0144272D01*
X0304518Y0145870D02*
X0304118Y0145870D01*
X0304118Y0147469D02*
X0304518Y0147469D01*
X0304518Y0149068D02*
X0304118Y0149068D01*
X0304118Y0150666D02*
X0304518Y0150666D01*
X0304518Y0152265D02*
X0304118Y0152265D01*
X0301073Y0152265D02*
X0296923Y0152265D01*
X0298660Y0150666D02*
X0299593Y0150666D01*
X0299169Y0145870D02*
X0299029Y0145870D01*
X0297978Y0144272D02*
X0300100Y0144272D01*
X0302370Y0142673D02*
X0261333Y0142673D01*
X0261333Y0141075D02*
X0400133Y0141075D01*
X0400133Y0139476D02*
X0261333Y0139476D01*
X0261333Y0137878D02*
X0400133Y0137878D01*
X0400133Y0136279D02*
X0260641Y0136279D01*
X0259043Y0134681D02*
X0400133Y0134681D01*
X0400133Y0133082D02*
X0257444Y0133082D01*
X0255846Y0131484D02*
X0400133Y0131484D01*
X0400133Y0129885D02*
X0254247Y0129885D01*
X0252649Y0128287D02*
X0400133Y0128287D01*
X0400133Y0126688D02*
X0352691Y0126688D01*
X0353381Y0126402D02*
X0350106Y0127759D01*
X0346561Y0127759D01*
X0343285Y0126402D01*
X0340778Y0123895D01*
X0339422Y0120620D01*
X0339422Y0117075D01*
X0340778Y0113799D01*
X0343285Y0111292D01*
X0346561Y0109935D01*
X0350106Y0109935D01*
X0353381Y0111292D01*
X0355888Y0113799D01*
X0357245Y0117075D01*
X0357245Y0120620D01*
X0355888Y0123895D01*
X0353381Y0126402D01*
X0354694Y0125090D02*
X0400133Y0125090D01*
X0400133Y0123491D02*
X0356056Y0123491D01*
X0356718Y0121893D02*
X0400133Y0121893D01*
X0400133Y0120294D02*
X0357245Y0120294D01*
X0357245Y0118696D02*
X0400133Y0118696D01*
X0400133Y0117097D02*
X0357245Y0117097D01*
X0356592Y0115499D02*
X0400133Y0115499D01*
X0400133Y0113900D02*
X0355930Y0113900D01*
X0354391Y0112302D02*
X0400133Y0112302D01*
X0400133Y0110703D02*
X0351960Y0110703D01*
X0344707Y0110703D02*
X0287910Y0110703D01*
X0287983Y0110630D02*
X0287163Y0111450D01*
X0279503Y0111450D01*
X0278683Y0110630D01*
X0278683Y0102970D01*
X0279503Y0102150D01*
X0287163Y0102150D01*
X0287983Y0102970D01*
X0287983Y0110630D01*
X0287983Y0109105D02*
X0400133Y0109105D01*
X0400133Y0107506D02*
X0287983Y0107506D01*
X0287983Y0105908D02*
X0400133Y0105908D01*
X0400133Y0104309D02*
X0287983Y0104309D01*
X0287724Y0102711D02*
X0400133Y0102711D01*
X0400133Y0101112D02*
X0245333Y0101112D01*
X0245333Y0102711D02*
X0251055Y0102711D01*
X0250699Y0102858D02*
X0252408Y0102150D01*
X0254258Y0102150D01*
X0255967Y0102858D01*
X0257275Y0104166D01*
X0257983Y0105875D01*
X0257983Y0107725D01*
X0257275Y0109434D01*
X0255967Y0110742D01*
X0254258Y0111450D01*
X0252408Y0111450D01*
X0250699Y0110742D01*
X0249391Y0109434D01*
X0248683Y0107725D01*
X0248683Y0105875D01*
X0249391Y0104166D01*
X0250699Y0102858D01*
X0249332Y0104309D02*
X0245333Y0104309D01*
X0245333Y0105908D02*
X0248683Y0105908D01*
X0248683Y0107506D02*
X0245333Y0107506D01*
X0245333Y0109105D02*
X0249255Y0109105D01*
X0250660Y0110703D02*
X0245333Y0110703D01*
X0245333Y0112302D02*
X0251038Y0112302D01*
X0250687Y0112481D02*
X0251395Y0112120D01*
X0252151Y0111874D01*
X0252936Y0111750D01*
X0253333Y0111750D01*
X0253333Y0116800D01*
X0253333Y0116800D01*
X0248283Y0116800D01*
X0248283Y0116403D01*
X0248408Y0115617D01*
X0248653Y0114861D01*
X0249014Y0114153D01*
X0249481Y0113510D01*
X0250043Y0112948D01*
X0250687Y0112481D01*
X0249198Y0113900D02*
X0245333Y0113900D01*
X0245333Y0115499D02*
X0248446Y0115499D01*
X0248283Y0116800D02*
X0253333Y0116800D01*
X0253333Y0121850D01*
X0252936Y0121850D01*
X0252151Y0121726D01*
X0251395Y0121480D01*
X0250687Y0121119D01*
X0250043Y0120652D01*
X0249481Y0120090D01*
X0249014Y0119447D01*
X0248653Y0118739D01*
X0248408Y0117983D01*
X0248283Y0117197D01*
X0248283Y0116800D01*
X0248283Y0117097D02*
X0245333Y0117097D01*
X0245333Y0118696D02*
X0248639Y0118696D01*
X0249686Y0120294D02*
X0245333Y0120294D01*
X0246255Y0121893D02*
X0339949Y0121893D01*
X0339422Y0120294D02*
X0286981Y0120294D01*
X0287185Y0120090D02*
X0286623Y0120652D01*
X0285980Y0121119D01*
X0285272Y0121480D01*
X0284516Y0121726D01*
X0283731Y0121850D01*
X0283333Y0121850D01*
X0282936Y0121850D01*
X0282151Y0121726D01*
X0281395Y0121480D01*
X0280687Y0121119D01*
X0280043Y0120652D01*
X0279481Y0120090D01*
X0279014Y0119447D01*
X0278653Y0118739D01*
X0278408Y0117983D01*
X0278283Y0117197D01*
X0278283Y0116800D01*
X0278283Y0116403D01*
X0278408Y0115617D01*
X0278653Y0114861D01*
X0279014Y0114153D01*
X0279481Y0113510D01*
X0280043Y0112948D01*
X0280687Y0112481D01*
X0281395Y0112120D01*
X0282151Y0111874D01*
X0282936Y0111750D01*
X0283333Y0111750D01*
X0283333Y0116800D01*
X0283333Y0116800D01*
X0278283Y0116800D01*
X0283333Y0116800D01*
X0283333Y0121850D01*
X0283333Y0116800D01*
X0283333Y0116800D01*
X0283333Y0116800D01*
X0283333Y0111750D01*
X0283731Y0111750D01*
X0284516Y0111874D01*
X0285272Y0112120D01*
X0285980Y0112481D01*
X0286623Y0112948D01*
X0287185Y0113510D01*
X0287652Y0114153D01*
X0288013Y0114861D01*
X0288259Y0115617D01*
X0288383Y0116403D01*
X0288383Y0116800D01*
X0288383Y0117197D01*
X0288259Y0117983D01*
X0288013Y0118739D01*
X0287652Y0119447D01*
X0287185Y0120090D01*
X0288027Y0118696D02*
X0339422Y0118696D01*
X0339422Y0117097D02*
X0288383Y0117097D01*
X0288383Y0116800D02*
X0283333Y0116800D01*
X0283333Y0116800D01*
X0288383Y0116800D01*
X0288220Y0115499D02*
X0340074Y0115499D01*
X0340736Y0113900D02*
X0287469Y0113900D01*
X0285629Y0112302D02*
X0342276Y0112302D01*
X0340611Y0123491D02*
X0247853Y0123491D01*
X0249452Y0125090D02*
X0341973Y0125090D01*
X0343976Y0126688D02*
X0251050Y0126688D01*
X0253333Y0121850D02*
X0253333Y0116800D01*
X0253333Y0116800D01*
X0253333Y0116800D01*
X0253333Y0111750D01*
X0253731Y0111750D01*
X0254516Y0111874D01*
X0255272Y0112120D01*
X0255980Y0112481D01*
X0256623Y0112948D01*
X0257185Y0113510D01*
X0257652Y0114153D01*
X0258013Y0114861D01*
X0258259Y0115617D01*
X0258383Y0116403D01*
X0258383Y0116800D01*
X0258383Y0117197D01*
X0258259Y0117983D01*
X0258013Y0118739D01*
X0257652Y0119447D01*
X0257185Y0120090D01*
X0256623Y0120652D01*
X0255980Y0121119D01*
X0255272Y0121480D01*
X0254516Y0121726D01*
X0253731Y0121850D01*
X0253333Y0121850D01*
X0253333Y0120294D02*
X0253333Y0120294D01*
X0253333Y0118696D02*
X0253333Y0118696D01*
X0253333Y0117097D02*
X0253333Y0117097D01*
X0253333Y0116800D02*
X0258383Y0116800D01*
X0253333Y0116800D01*
X0253333Y0116800D01*
X0253333Y0115499D02*
X0253333Y0115499D01*
X0253333Y0113900D02*
X0253333Y0113900D01*
X0253333Y0112302D02*
X0253333Y0112302D01*
X0255629Y0112302D02*
X0281038Y0112302D01*
X0283333Y0112302D02*
X0283333Y0112302D01*
X0283333Y0113900D02*
X0283333Y0113900D01*
X0283333Y0115499D02*
X0283333Y0115499D01*
X0283333Y0117097D02*
X0283333Y0117097D01*
X0283333Y0118696D02*
X0283333Y0118696D01*
X0283333Y0120294D02*
X0283333Y0120294D01*
X0279686Y0120294D02*
X0256981Y0120294D01*
X0258027Y0118696D02*
X0278639Y0118696D01*
X0278283Y0117097D02*
X0258383Y0117097D01*
X0258220Y0115499D02*
X0278446Y0115499D01*
X0279198Y0113900D02*
X0257469Y0113900D01*
X0256006Y0110703D02*
X0278757Y0110703D01*
X0278683Y0109105D02*
X0257412Y0109105D01*
X0257983Y0107506D02*
X0278683Y0107506D01*
X0278683Y0105908D02*
X0257983Y0105908D01*
X0257335Y0104309D02*
X0278683Y0104309D01*
X0278943Y0102711D02*
X0255612Y0102711D01*
X0256345Y0091600D02*
X0253533Y0088788D01*
X0253533Y0084812D01*
X0256345Y0082000D01*
X0260322Y0082000D01*
X0263133Y0084812D01*
X0263133Y0088788D01*
X0260322Y0091600D01*
X0256345Y0091600D01*
X0256266Y0091521D02*
X0250400Y0091521D01*
X0250322Y0091600D02*
X0253133Y0088788D01*
X0253133Y0084812D01*
X0250322Y0082000D01*
X0246345Y0082000D01*
X0243533Y0084812D01*
X0243533Y0088788D01*
X0246345Y0091600D01*
X0250322Y0091600D01*
X0251999Y0089923D02*
X0254668Y0089923D01*
X0253533Y0088324D02*
X0253133Y0088324D01*
X0253133Y0086726D02*
X0253533Y0086726D01*
X0253533Y0085127D02*
X0253133Y0085127D01*
X0251850Y0083529D02*
X0254817Y0083529D01*
X0261850Y0083529D02*
X0276287Y0083529D01*
X0276603Y0084292D02*
X0275933Y0082675D01*
X0275933Y0080925D01*
X0276603Y0079308D01*
X0277841Y0078070D01*
X0279458Y0077400D01*
X0287209Y0077400D01*
X0288826Y0078070D01*
X0290063Y0079308D01*
X0290733Y0080925D01*
X0290733Y0082675D01*
X0290063Y0084292D01*
X0288826Y0085530D01*
X0287209Y0086200D01*
X0279458Y0086200D01*
X0277841Y0085530D01*
X0276603Y0084292D01*
X0277438Y0085127D02*
X0263133Y0085127D01*
X0263133Y0086726D02*
X0400133Y0086726D01*
X0400133Y0088324D02*
X0263133Y0088324D01*
X0261999Y0089923D02*
X0347149Y0089923D01*
X0347233Y0089888D02*
X0349434Y0089888D01*
X0351468Y0090731D01*
X0353025Y0092287D01*
X0353867Y0094321D01*
X0353867Y0096523D01*
X0353025Y0098557D01*
X0351468Y0100113D01*
X0349434Y0100956D01*
X0347233Y0100956D01*
X0345199Y0100113D01*
X0343642Y0098557D01*
X0342799Y0096523D01*
X0342799Y0094321D01*
X0343642Y0092287D01*
X0345199Y0090731D01*
X0347233Y0089888D01*
X0349517Y0089923D02*
X0400133Y0089923D01*
X0400133Y0091521D02*
X0352258Y0091521D01*
X0353369Y0093120D02*
X0400133Y0093120D01*
X0400133Y0094718D02*
X0353867Y0094718D01*
X0353867Y0096317D02*
X0400133Y0096317D01*
X0400133Y0097915D02*
X0353290Y0097915D01*
X0352068Y0099514D02*
X0400133Y0099514D01*
X0400133Y0085127D02*
X0289229Y0085127D01*
X0290380Y0083529D02*
X0400133Y0083529D01*
X0400133Y0081930D02*
X0290733Y0081930D01*
X0290488Y0080332D02*
X0400133Y0080332D01*
X0400133Y0078733D02*
X0289489Y0078733D01*
X0288812Y0075536D02*
X0400133Y0075536D01*
X0400133Y0077134D02*
X0188624Y0077134D01*
X0188058Y0076900D02*
X0189859Y0077646D01*
X0191237Y0079024D01*
X0191983Y0080825D01*
X0191983Y0082775D01*
X0191237Y0084576D01*
X0189859Y0085954D01*
X0188058Y0086700D01*
X0186109Y0086700D01*
X0184308Y0085954D01*
X0182929Y0084576D01*
X0182183Y0082775D01*
X0182183Y0080825D01*
X0182929Y0079024D01*
X0184308Y0077646D01*
X0186109Y0076900D01*
X0188058Y0076900D01*
X0185543Y0077134D02*
X0170397Y0077134D01*
X0172479Y0078733D02*
X0183221Y0078733D01*
X0182388Y0080332D02*
X0173245Y0080332D01*
X0173433Y0081930D02*
X0182183Y0081930D01*
X0182496Y0083529D02*
X0173138Y0083529D01*
X0172219Y0085127D02*
X0183481Y0085127D01*
X0190686Y0085127D02*
X0223533Y0085127D01*
X0223533Y0086726D02*
X0169769Y0086726D01*
X0166898Y0086726D02*
X0138433Y0086726D01*
X0138222Y0088324D02*
X0223533Y0088324D01*
X0224668Y0089923D02*
X0137423Y0089923D01*
X0135262Y0091521D02*
X0226266Y0091521D01*
X0231825Y0093120D02*
X0136865Y0093120D01*
X0137991Y0094718D02*
X0233423Y0094718D01*
X0235022Y0096317D02*
X0138433Y0096317D01*
X0138691Y0097915D02*
X0236620Y0097915D01*
X0238219Y0099514D02*
X0140290Y0099514D01*
X0141888Y0101112D02*
X0239817Y0101112D01*
X0241333Y0102711D02*
X0232022Y0102711D01*
X0231916Y0102605D02*
X0232528Y0103217D01*
X0233037Y0103917D01*
X0233430Y0104689D01*
X0233698Y0105512D01*
X0233833Y0106367D01*
X0233833Y0106714D01*
X0228419Y0106714D01*
X0228419Y0101300D01*
X0228766Y0101300D01*
X0229621Y0101435D01*
X0230445Y0101703D01*
X0231216Y0102096D01*
X0231916Y0102605D01*
X0233237Y0104309D02*
X0241333Y0104309D01*
X0241333Y0105908D02*
X0233761Y0105908D01*
X0233833Y0106886D02*
X0233833Y0107233D01*
X0233698Y0108088D01*
X0233430Y0108911D01*
X0233037Y0109683D01*
X0232528Y0110383D01*
X0231916Y0110995D01*
X0231216Y0111504D01*
X0230445Y0111897D01*
X0229621Y0112165D01*
X0228766Y0112300D01*
X0228419Y0112300D01*
X0228419Y0106886D01*
X0228247Y0106886D01*
X0228247Y0106714D01*
X0222833Y0106714D01*
X0222833Y0106367D01*
X0222969Y0105512D01*
X0223236Y0104689D01*
X0223629Y0103917D01*
X0224138Y0103217D01*
X0224750Y0102605D01*
X0225451Y0102096D01*
X0226222Y0101703D01*
X0227045Y0101435D01*
X0227900Y0101300D01*
X0228247Y0101300D01*
X0228247Y0106714D01*
X0228419Y0106714D01*
X0228419Y0106886D01*
X0233833Y0106886D01*
X0233790Y0107506D02*
X0241333Y0107506D01*
X0241333Y0109105D02*
X0233332Y0109105D01*
X0232208Y0110703D02*
X0241333Y0110703D01*
X0243875Y0099514D02*
X0344599Y0099514D01*
X0343376Y0097915D02*
X0242277Y0097915D01*
X0240678Y0096317D02*
X0342799Y0096317D01*
X0342799Y0094718D02*
X0239080Y0094718D01*
X0237481Y0093120D02*
X0343297Y0093120D01*
X0344408Y0091521D02*
X0260400Y0091521D01*
X0246266Y0091521D02*
X0240400Y0091521D01*
X0240322Y0091600D02*
X0236345Y0091600D01*
X0233533Y0088788D01*
X0233533Y0084812D01*
X0236345Y0082000D01*
X0240322Y0082000D01*
X0243133Y0084812D01*
X0243133Y0088788D01*
X0240322Y0091600D01*
X0241999Y0089923D02*
X0244668Y0089923D01*
X0243533Y0088324D02*
X0243133Y0088324D01*
X0243133Y0086726D02*
X0243533Y0086726D01*
X0243533Y0085127D02*
X0243133Y0085127D01*
X0241850Y0083529D02*
X0244817Y0083529D01*
X0234817Y0083529D02*
X0231850Y0083529D01*
X0233133Y0085127D02*
X0233533Y0085127D01*
X0233533Y0086726D02*
X0233133Y0086726D01*
X0233133Y0088324D02*
X0233533Y0088324D01*
X0234284Y0089923D02*
X0234668Y0089923D01*
X0235883Y0091521D02*
X0236266Y0091521D01*
X0224817Y0083529D02*
X0191671Y0083529D01*
X0191983Y0081930D02*
X0275933Y0081930D01*
X0276179Y0080332D02*
X0191779Y0080332D01*
X0190946Y0078733D02*
X0277178Y0078733D01*
X0277855Y0075536D02*
X0190277Y0075536D01*
X0191502Y0073937D02*
X0276456Y0073937D01*
X0276603Y0074292D02*
X0275933Y0072675D01*
X0275933Y0070925D01*
X0276603Y0069308D01*
X0277841Y0068070D01*
X0279458Y0067400D01*
X0287209Y0067400D01*
X0288826Y0068070D01*
X0290063Y0069308D01*
X0290733Y0070925D01*
X0290733Y0072675D01*
X0290063Y0074292D01*
X0288826Y0075530D01*
X0287209Y0076200D01*
X0279458Y0076200D01*
X0277841Y0075530D01*
X0276603Y0074292D01*
X0275933Y0072339D02*
X0191983Y0072339D01*
X0191948Y0070740D02*
X0276010Y0070740D01*
X0276769Y0069142D02*
X0191286Y0069142D01*
X0189611Y0067543D02*
X0279112Y0067543D01*
X0279458Y0066200D02*
X0277841Y0065530D01*
X0276603Y0064292D01*
X0275933Y0062675D01*
X0275933Y0060925D01*
X0276603Y0059308D01*
X0277841Y0058070D01*
X0279458Y0057400D01*
X0287209Y0057400D01*
X0288826Y0058070D01*
X0290063Y0059308D01*
X0290733Y0060925D01*
X0290733Y0062675D01*
X0290063Y0064292D01*
X0288826Y0065530D01*
X0287209Y0066200D01*
X0279458Y0066200D01*
X0278842Y0065945D02*
X0189868Y0065945D01*
X0191332Y0064346D02*
X0276657Y0064346D01*
X0275963Y0062748D02*
X0191983Y0062748D01*
X0191983Y0061149D02*
X0225895Y0061149D01*
X0226345Y0061600D02*
X0223533Y0058788D01*
X0223533Y0054812D01*
X0226345Y0052000D01*
X0230322Y0052000D01*
X0233133Y0054812D01*
X0233133Y0058788D01*
X0230322Y0061600D01*
X0226345Y0061600D01*
X0224296Y0059551D02*
X0191455Y0059551D01*
X0190165Y0057952D02*
X0223533Y0057952D01*
X0223533Y0056354D02*
X0035633Y0056354D01*
X0035633Y0057952D02*
X0154968Y0057952D01*
X0153745Y0059551D02*
X0035633Y0059551D01*
X0035633Y0061149D02*
X0153233Y0061149D01*
X0130173Y0062748D02*
X0116494Y0062748D01*
X0117837Y0064346D02*
X0128829Y0064346D01*
X0128233Y0065945D02*
X0118433Y0065945D01*
X0118433Y0067543D02*
X0128233Y0067543D01*
X0128783Y0069142D02*
X0117883Y0069142D01*
X0116605Y0070740D02*
X0130061Y0070740D01*
X0137274Y0083529D02*
X0163529Y0083529D01*
X0164448Y0085127D02*
X0138161Y0085127D01*
X0119797Y0107506D02*
X0118433Y0107506D01*
X0117899Y0109105D02*
X0120333Y0109105D01*
X0120333Y0110703D02*
X0116643Y0110703D01*
X0120333Y0112302D02*
X0106433Y0112302D01*
X0106433Y0112814D02*
X0105657Y0114689D01*
X0104222Y0116124D01*
X0102348Y0116900D01*
X0100319Y0116900D01*
X0098444Y0116124D01*
X0097010Y0114689D01*
X0096333Y0113056D01*
X0096333Y0145557D01*
X0098033Y0147257D01*
X0098877Y0148101D01*
X0099333Y0149203D01*
X0099333Y0153588D01*
X0100444Y0152476D01*
X0102319Y0151700D01*
X0104348Y0151700D01*
X0106222Y0152476D01*
X0107657Y0153911D01*
X0108433Y0155786D01*
X0108433Y0157814D01*
X0107657Y0159689D01*
X0106222Y0161124D01*
X0104348Y0161900D01*
X0102319Y0161900D01*
X0100444Y0161124D01*
X0099333Y0160012D01*
X0099333Y0168588D01*
X0100444Y0167476D01*
X0102319Y0166700D01*
X0104348Y0166700D01*
X0106222Y0167476D01*
X0107657Y0168911D01*
X0108433Y0170786D01*
X0108433Y0172814D01*
X0107657Y0174689D01*
X0106222Y0176124D01*
X0104589Y0176800D01*
X0106222Y0177476D01*
X0107657Y0178911D01*
X0108433Y0180786D01*
X0108433Y0182814D01*
X0107657Y0184689D01*
X0106222Y0186124D01*
X0104589Y0186800D01*
X0106222Y0187476D01*
X0107657Y0188911D01*
X0108433Y0190786D01*
X0108433Y0192814D01*
X0107657Y0194689D01*
X0106222Y0196124D01*
X0104589Y0196800D01*
X0106222Y0197476D01*
X0107657Y0198911D01*
X0108433Y0200786D01*
X0108433Y0202814D01*
X0107657Y0204689D01*
X0106222Y0206124D01*
X0105333Y0206492D01*
X0105333Y0222108D01*
X0106222Y0222476D01*
X0107657Y0223911D01*
X0108433Y0225786D01*
X0108433Y0227814D01*
X0107657Y0229689D01*
X0106222Y0231124D01*
X0104348Y0231900D01*
X0102319Y0231900D01*
X0101221Y0231445D01*
X0102576Y0232800D01*
X0106930Y0232800D01*
X0108033Y0233257D01*
X0116129Y0241353D01*
X0117644Y0240478D01*
X0120734Y0239650D01*
X0123933Y0239650D01*
X0127023Y0240478D01*
X0129794Y0242078D01*
X0132056Y0244340D01*
X0133655Y0247110D01*
X0134483Y0250200D01*
X0134483Y0253400D01*
X0133655Y0256490D01*
X0132056Y0259260D01*
X0129794Y0261522D01*
X0127023Y0263122D01*
X0123933Y0263950D01*
X0120734Y0263950D01*
X0117644Y0263122D01*
X0114873Y0261522D01*
X0112611Y0259260D01*
X0111011Y0256490D01*
X0110183Y0253400D01*
X0110183Y0250200D01*
X0111011Y0247110D01*
X0111886Y0245595D01*
X0105091Y0238800D01*
X0100737Y0238800D01*
X0099634Y0238343D01*
X0098790Y0237499D01*
X0093790Y0232499D01*
X0093333Y0231397D01*
X0093333Y0228056D01*
X0092657Y0229689D01*
X0091222Y0231124D01*
X0089348Y0231900D01*
X0087319Y0231900D01*
X0085444Y0231124D01*
X0084010Y0229689D01*
X0083233Y0227814D01*
X0083233Y0225786D01*
X0084010Y0223911D01*
X0085444Y0222476D01*
X0087319Y0221700D01*
X0089348Y0221700D01*
X0091222Y0222476D01*
X0092657Y0223911D01*
X0093333Y0225544D01*
X0093333Y0204102D01*
X0093037Y0204683D01*
X0092528Y0205383D01*
X0091916Y0205995D01*
X0091216Y0206504D01*
X0090445Y0206897D01*
X0089621Y0207165D01*
X0088766Y0207300D01*
X0088533Y0207300D01*
X0088533Y0202000D01*
X0088133Y0202000D01*
X0088133Y0201600D01*
X0082833Y0201600D01*
X0082833Y0201367D01*
X0082969Y0200512D01*
X0083236Y0199689D01*
X0083629Y0198917D01*
X0084138Y0198217D01*
X0084750Y0197605D01*
X0085451Y0197096D01*
X0086222Y0196703D01*
X0086570Y0196590D01*
X0085444Y0196124D01*
X0084010Y0194689D01*
X0083233Y0192814D01*
X0083233Y0190786D01*
X0084010Y0188911D01*
X0085444Y0187476D01*
X0087077Y0186800D01*
X0085444Y0186124D01*
X0084010Y0184689D01*
X0083233Y0182814D01*
X0083233Y0180786D01*
X0084010Y0178911D01*
X0085444Y0177476D01*
X0086836Y0176900D01*
X0086221Y0176900D01*
X0083233Y0173912D01*
X0083233Y0169688D01*
X0086221Y0166700D01*
X0090446Y0166700D01*
X0093333Y0169588D01*
X0093333Y0158056D01*
X0092657Y0159689D01*
X0091222Y0161124D01*
X0089348Y0161900D01*
X0087319Y0161900D01*
X0085444Y0161124D01*
X0084010Y0159689D01*
X0083233Y0157814D01*
X0083233Y0155786D01*
X0084010Y0153911D01*
X0085444Y0152476D01*
X0087319Y0151700D01*
X0089348Y0151700D01*
X0091222Y0152476D01*
X0092657Y0153911D01*
X0093333Y0155544D01*
X0093333Y0151043D01*
X0090790Y0148499D01*
X0090333Y0147397D01*
X0090333Y0113043D01*
X0083433Y0106143D01*
X0083433Y0107814D01*
X0082657Y0109689D01*
X0081222Y0111124D01*
X0079348Y0111900D01*
X0077319Y0111900D01*
X0075444Y0111124D01*
X0074010Y0109689D01*
X0073233Y0107814D01*
X0073233Y0105943D01*
X0063433Y0096143D01*
X0063433Y0097657D01*
X0070877Y0105101D01*
X0071333Y0106203D01*
X0071333Y0242397D01*
X0070877Y0243499D01*
X0070033Y0244343D01*
X0068781Y0245595D01*
X0069655Y0247110D01*
X0070483Y0250200D01*
X0070483Y0253400D01*
X0069655Y0256490D01*
X0068056Y0259260D01*
X0065794Y0261522D01*
X0063023Y0263122D01*
X0059933Y0263950D01*
X0056734Y0263950D01*
X0053644Y0263122D01*
X0050873Y0261522D01*
X0048611Y0259260D01*
X0047011Y0256490D01*
X0046183Y0253400D01*
X0046183Y0250200D01*
X0047011Y0247110D01*
X0048611Y0244340D01*
X0050873Y0242078D01*
X0053644Y0240478D01*
X0056734Y0239650D01*
X0059933Y0239650D01*
X0063023Y0240478D01*
X0064538Y0241353D01*
X0065333Y0240557D01*
X0065333Y0108043D01*
X0063433Y0106143D01*
X0063433Y0107814D01*
X0062657Y0109689D01*
X0061222Y0111124D01*
X0059348Y0111900D01*
X0057319Y0111900D01*
X0055444Y0111124D01*
X0054010Y0109689D01*
X0053233Y0107814D01*
X0053233Y0105786D01*
X0054010Y0103911D01*
X0055444Y0102476D01*
X0057077Y0101800D01*
X0055444Y0101124D01*
X0054010Y0099689D01*
X0053233Y0097814D01*
X0053233Y0095786D01*
X0054010Y0093911D01*
X0055444Y0092476D01*
X0057077Y0091800D01*
X0055444Y0091124D01*
X0054010Y0089689D01*
X0053233Y0087814D01*
X0053233Y0085786D01*
X0054010Y0083911D01*
X0055444Y0082476D01*
X0057319Y0081700D01*
X0059348Y0081700D01*
X0061222Y0082476D01*
X0062657Y0083911D01*
X0063433Y0085786D01*
X0063433Y0087657D01*
X0073233Y0097457D01*
X0073233Y0095786D01*
X0074010Y0093911D01*
X0075444Y0092476D01*
X0077077Y0091800D01*
X0075444Y0091124D01*
X0074010Y0089689D01*
X0073233Y0087814D01*
X0073233Y0085786D01*
X0074010Y0083911D01*
X0075444Y0082476D01*
X0077319Y0081700D01*
X0079348Y0081700D01*
X0081222Y0082476D01*
X0082657Y0083911D01*
X0083433Y0085786D01*
X0083433Y0087814D01*
X0082657Y0089689D01*
X0081222Y0091124D01*
X0079589Y0091800D01*
X0081222Y0092476D01*
X0082657Y0093911D01*
X0083433Y0095786D01*
X0083433Y0097657D01*
X0095033Y0109257D01*
X0095877Y0110101D01*
X0096233Y0110962D01*
X0096233Y0110786D01*
X0097010Y0108911D01*
X0098444Y0107476D01*
X0100319Y0106700D01*
X0102348Y0106700D01*
X0104222Y0107476D01*
X0105657Y0108911D01*
X0106433Y0110786D01*
X0106433Y0112814D01*
X0105984Y0113900D02*
X0120333Y0113900D01*
X0120333Y0115499D02*
X0104847Y0115499D01*
X0106399Y0110703D02*
X0110024Y0110703D01*
X0108768Y0109105D02*
X0105737Y0109105D01*
X0104252Y0107506D02*
X0108233Y0107506D01*
X0108233Y0105908D02*
X0091684Y0105908D01*
X0093282Y0107506D02*
X0098415Y0107506D01*
X0096930Y0109105D02*
X0094881Y0109105D01*
X0096126Y0110703D02*
X0096267Y0110703D01*
X0096333Y0113900D02*
X0096683Y0113900D01*
X0096333Y0115499D02*
X0097820Y0115499D01*
X0096333Y0117097D02*
X0120333Y0117097D01*
X0120333Y0118696D02*
X0096333Y0118696D01*
X0096333Y0120294D02*
X0120333Y0120294D01*
X0120333Y0121893D02*
X0096333Y0121893D01*
X0096333Y0123491D02*
X0120333Y0123491D01*
X0120333Y0125090D02*
X0096333Y0125090D01*
X0096333Y0126688D02*
X0120333Y0126688D01*
X0120333Y0128287D02*
X0096333Y0128287D01*
X0096333Y0129885D02*
X0120333Y0129885D01*
X0120333Y0131484D02*
X0096333Y0131484D01*
X0096333Y0133082D02*
X0120333Y0133082D01*
X0120333Y0134681D02*
X0096333Y0134681D01*
X0096333Y0136279D02*
X0120333Y0136279D01*
X0120333Y0137878D02*
X0096333Y0137878D01*
X0096333Y0139476D02*
X0120333Y0139476D01*
X0120333Y0141075D02*
X0096333Y0141075D01*
X0096333Y0142673D02*
X0120333Y0142673D01*
X0120333Y0144272D02*
X0096333Y0144272D01*
X0096646Y0145870D02*
X0120333Y0145870D01*
X0120333Y0147469D02*
X0098245Y0147469D01*
X0099277Y0149068D02*
X0120333Y0149068D01*
X0120333Y0150666D02*
X0099333Y0150666D01*
X0099333Y0152265D02*
X0100956Y0152265D01*
X0105711Y0152265D02*
X0120333Y0152265D01*
X0120333Y0153863D02*
X0107609Y0153863D01*
X0108299Y0155462D02*
X0120333Y0155462D01*
X0120333Y0157060D02*
X0108433Y0157060D01*
X0108084Y0158659D02*
X0120333Y0158659D01*
X0120333Y0160257D02*
X0107089Y0160257D01*
X0104455Y0161856D02*
X0120333Y0161856D01*
X0120333Y0163454D02*
X0099333Y0163454D01*
X0099333Y0161856D02*
X0102212Y0161856D01*
X0099578Y0160257D02*
X0099333Y0160257D01*
X0099333Y0165053D02*
X0120333Y0165053D01*
X0120333Y0166651D02*
X0099333Y0166651D01*
X0099333Y0168250D02*
X0099671Y0168250D01*
X0106995Y0168250D02*
X0120333Y0168250D01*
X0120333Y0169848D02*
X0108045Y0169848D01*
X0108433Y0171447D02*
X0120333Y0171447D01*
X0120333Y0173045D02*
X0108338Y0173045D01*
X0107676Y0174644D02*
X0120333Y0174644D01*
X0120333Y0176242D02*
X0105936Y0176242D01*
X0106587Y0177841D02*
X0120333Y0177841D01*
X0120333Y0179439D02*
X0107876Y0179439D01*
X0108433Y0181038D02*
X0120333Y0181038D01*
X0120333Y0182636D02*
X0108433Y0182636D01*
X0107845Y0184235D02*
X0120333Y0184235D01*
X0120333Y0185833D02*
X0106513Y0185833D01*
X0106114Y0187432D02*
X0120333Y0187432D01*
X0120333Y0189030D02*
X0107706Y0189030D01*
X0108368Y0190629D02*
X0120333Y0190629D01*
X0120333Y0192227D02*
X0108433Y0192227D01*
X0108014Y0193826D02*
X0120333Y0193826D01*
X0120333Y0195424D02*
X0106921Y0195424D01*
X0105127Y0197023D02*
X0120333Y0197023D01*
X0120333Y0198621D02*
X0107367Y0198621D01*
X0108199Y0200220D02*
X0120333Y0200220D01*
X0120333Y0201818D02*
X0108433Y0201818D01*
X0108184Y0203417D02*
X0120333Y0203417D01*
X0120333Y0205015D02*
X0107330Y0205015D01*
X0105333Y0206614D02*
X0120333Y0206614D01*
X0120333Y0208212D02*
X0105333Y0208212D01*
X0105333Y0209811D02*
X0120333Y0209811D01*
X0120333Y0211409D02*
X0105333Y0211409D01*
X0105333Y0213008D02*
X0120333Y0213008D01*
X0120333Y0214606D02*
X0105333Y0214606D01*
X0105333Y0216205D02*
X0120333Y0216205D01*
X0120333Y0217803D02*
X0105333Y0217803D01*
X0105333Y0219402D02*
X0120333Y0219402D01*
X0120333Y0221001D02*
X0105333Y0221001D01*
X0106345Y0222599D02*
X0120333Y0222599D01*
X0120333Y0224198D02*
X0107776Y0224198D01*
X0108433Y0225796D02*
X0120333Y0225796D01*
X0120333Y0227395D02*
X0108433Y0227395D01*
X0107945Y0228993D02*
X0120580Y0228993D01*
X0121882Y0230592D02*
X0106754Y0230592D01*
X0108565Y0233789D02*
X0125079Y0233789D01*
X0126678Y0235387D02*
X0110163Y0235387D01*
X0111762Y0236986D02*
X0128276Y0236986D01*
X0130215Y0238584D02*
X0113360Y0238584D01*
X0114959Y0240183D02*
X0118746Y0240183D01*
X0125921Y0240183D02*
X0170473Y0240183D01*
X0172072Y0241781D02*
X0129280Y0241781D01*
X0131096Y0243380D02*
X0173670Y0243380D01*
X0175269Y0244978D02*
X0132424Y0244978D01*
X0133347Y0246577D02*
X0175319Y0246577D01*
X0174726Y0248175D02*
X0133941Y0248175D01*
X0134369Y0249774D02*
X0174298Y0249774D01*
X0174183Y0251372D02*
X0134483Y0251372D01*
X0134483Y0252971D02*
X0174183Y0252971D01*
X0174497Y0254569D02*
X0134170Y0254569D01*
X0133742Y0256168D02*
X0174925Y0256168D01*
X0175748Y0257766D02*
X0132918Y0257766D01*
X0131951Y0259365D02*
X0176715Y0259365D01*
X0178314Y0260963D02*
X0130353Y0260963D01*
X0127993Y0262562D02*
X0180673Y0262562D01*
X0191993Y0262562D02*
X0242673Y0262562D01*
X0240314Y0260963D02*
X0194353Y0260963D01*
X0195951Y0259365D02*
X0238715Y0259365D01*
X0237748Y0257766D02*
X0196918Y0257766D01*
X0197742Y0256168D02*
X0236925Y0256168D01*
X0236497Y0254569D02*
X0198170Y0254569D01*
X0198483Y0252971D02*
X0236183Y0252971D01*
X0236183Y0251372D02*
X0198483Y0251372D01*
X0198369Y0249774D02*
X0236298Y0249774D01*
X0236726Y0248175D02*
X0197941Y0248175D01*
X0197347Y0246577D02*
X0237319Y0246577D01*
X0237269Y0244978D02*
X0196424Y0244978D01*
X0195096Y0243380D02*
X0235670Y0243380D01*
X0234072Y0241781D02*
X0193280Y0241781D01*
X0189921Y0240183D02*
X0232473Y0240183D01*
X0237762Y0236986D02*
X0400133Y0236986D01*
X0400133Y0238584D02*
X0239360Y0238584D01*
X0240959Y0240183D02*
X0244746Y0240183D01*
X0251921Y0240183D02*
X0309585Y0240183D01*
X0310100Y0239969D02*
X0311280Y0239611D01*
X0312490Y0239371D01*
X0313533Y0239268D01*
X0313533Y0251000D01*
X0301801Y0251000D01*
X0301904Y0249956D01*
X0302145Y0248747D01*
X0302503Y0247567D01*
X0302975Y0246428D01*
X0303556Y0245340D01*
X0304241Y0244315D01*
X0305023Y0243362D01*
X0305895Y0242490D01*
X0306848Y0241708D01*
X0307874Y0241023D01*
X0308961Y0240441D01*
X0310100Y0239969D01*
X0313533Y0240183D02*
X0315133Y0240183D01*
X0315133Y0239268D02*
X0316177Y0239371D01*
X0317386Y0239611D01*
X0318566Y0239969D01*
X0319706Y0240441D01*
X0320793Y0241023D01*
X0321818Y0241708D01*
X0322772Y0242490D01*
X0323643Y0243362D01*
X0324426Y0244315D01*
X0325111Y0245340D01*
X0325692Y0246428D01*
X0326164Y0247567D01*
X0326522Y0248747D01*
X0326762Y0249956D01*
X0326865Y0251000D01*
X0315133Y0251000D01*
X0315133Y0239268D01*
X0315133Y0241781D02*
X0313533Y0241781D01*
X0313533Y0243380D02*
X0315133Y0243380D01*
X0315133Y0244978D02*
X0313533Y0244978D01*
X0313533Y0246577D02*
X0315133Y0246577D01*
X0315133Y0248175D02*
X0313533Y0248175D01*
X0313533Y0249774D02*
X0315133Y0249774D01*
X0315133Y0251000D02*
X0313533Y0251000D01*
X0313533Y0252600D01*
X0301801Y0252600D01*
X0301904Y0253644D01*
X0302145Y0254853D01*
X0302503Y0256033D01*
X0302975Y0257172D01*
X0303556Y0258260D01*
X0304241Y0259285D01*
X0305023Y0260238D01*
X0305895Y0261110D01*
X0306848Y0261892D01*
X0307874Y0262577D01*
X0308961Y0263159D01*
X0310100Y0263631D01*
X0311280Y0263989D01*
X0312490Y0264229D01*
X0313533Y0264332D01*
X0313533Y0252600D01*
X0315133Y0252600D01*
X0315133Y0264332D01*
X0316177Y0264229D01*
X0317386Y0263989D01*
X0318566Y0263631D01*
X0319706Y0263159D01*
X0320793Y0262577D01*
X0321818Y0261892D01*
X0322772Y0261110D01*
X0323643Y0260238D01*
X0324426Y0259285D01*
X0325111Y0258260D01*
X0325692Y0257172D01*
X0326164Y0256033D01*
X0326522Y0254853D01*
X0326762Y0253644D01*
X0326865Y0252600D01*
X0315133Y0252600D01*
X0315133Y0251000D01*
X0315133Y0251372D02*
X0366183Y0251372D01*
X0366183Y0250200D02*
X0367011Y0247110D01*
X0368611Y0244340D01*
X0370873Y0242078D01*
X0373644Y0240478D01*
X0376734Y0239650D01*
X0379933Y0239650D01*
X0383023Y0240478D01*
X0385794Y0242078D01*
X0388056Y0244340D01*
X0389655Y0247110D01*
X0390483Y0250200D01*
X0390483Y0253400D01*
X0389655Y0256490D01*
X0388056Y0259260D01*
X0385794Y0261522D01*
X0383023Y0263122D01*
X0379933Y0263950D01*
X0376734Y0263950D01*
X0373644Y0263122D01*
X0370873Y0261522D01*
X0368611Y0259260D01*
X0367011Y0256490D01*
X0366183Y0253400D01*
X0366183Y0250200D01*
X0366298Y0249774D02*
X0326726Y0249774D01*
X0326348Y0248175D02*
X0366726Y0248175D01*
X0367319Y0246577D02*
X0325754Y0246577D01*
X0324869Y0244978D02*
X0368242Y0244978D01*
X0369571Y0243380D02*
X0323658Y0243380D01*
X0321908Y0241781D02*
X0371386Y0241781D01*
X0374746Y0240183D02*
X0319081Y0240183D01*
X0316222Y0231124D02*
X0314348Y0231900D01*
X0312319Y0231900D01*
X0310444Y0231124D01*
X0309010Y0229689D01*
X0308333Y0228056D01*
X0307657Y0229689D01*
X0306222Y0231124D01*
X0304348Y0231900D01*
X0302319Y0231900D01*
X0300444Y0231124D01*
X0299010Y0229689D01*
X0298333Y0228056D01*
X0297657Y0229689D01*
X0296222Y0231124D01*
X0294348Y0231900D01*
X0292319Y0231900D01*
X0290444Y0231124D01*
X0289010Y0229689D01*
X0288543Y0228563D01*
X0288430Y0228911D01*
X0288037Y0229683D01*
X0287528Y0230383D01*
X0286916Y0230995D01*
X0286216Y0231504D01*
X0285445Y0231897D01*
X0284621Y0232165D01*
X0283766Y0232300D01*
X0283533Y0232300D01*
X0283533Y0227000D01*
X0283133Y0227000D01*
X0283133Y0232300D01*
X0282900Y0232300D01*
X0282045Y0232165D01*
X0281222Y0231897D01*
X0280451Y0231504D01*
X0279750Y0230995D01*
X0279138Y0230383D01*
X0278629Y0229683D01*
X0278236Y0228911D01*
X0278123Y0228563D01*
X0277657Y0229689D01*
X0276222Y0231124D01*
X0274348Y0231900D01*
X0272319Y0231900D01*
X0270444Y0231124D01*
X0269010Y0229689D01*
X0268333Y0228056D01*
X0267657Y0229689D01*
X0266222Y0231124D01*
X0264348Y0231900D01*
X0262319Y0231900D01*
X0260444Y0231124D01*
X0259010Y0229689D01*
X0258333Y0228056D01*
X0257657Y0229689D01*
X0256222Y0231124D01*
X0254348Y0231900D01*
X0252319Y0231900D01*
X0250444Y0231124D01*
X0249010Y0229689D01*
X0248333Y0228056D01*
X0247657Y0229689D01*
X0246222Y0231124D01*
X0244348Y0231900D01*
X0242319Y0231900D01*
X0240444Y0231124D01*
X0239010Y0229689D01*
X0238333Y0228056D01*
X0237657Y0229689D01*
X0236222Y0231124D01*
X0234348Y0231900D01*
X0232319Y0231900D01*
X0230444Y0231124D01*
X0229010Y0229689D01*
X0228333Y0228056D01*
X0227657Y0229689D01*
X0226222Y0231124D01*
X0224348Y0231900D01*
X0222319Y0231900D01*
X0220444Y0231124D01*
X0219010Y0229689D01*
X0218333Y0228056D01*
X0217657Y0229689D01*
X0216222Y0231124D01*
X0214348Y0231900D01*
X0212319Y0231900D01*
X0210444Y0231124D01*
X0209010Y0229689D01*
X0208333Y0228056D01*
X0207657Y0229689D01*
X0206222Y0231124D01*
X0204348Y0231900D01*
X0202319Y0231900D01*
X0200444Y0231124D01*
X0199010Y0229689D01*
X0198233Y0227814D01*
X0198233Y0225786D01*
X0199010Y0223911D01*
X0200444Y0222476D01*
X0202319Y0221700D01*
X0204348Y0221700D01*
X0206222Y0222476D01*
X0207657Y0223911D01*
X0208333Y0225544D01*
X0209010Y0223911D01*
X0210444Y0222476D01*
X0212319Y0221700D01*
X0214348Y0221700D01*
X0216222Y0222476D01*
X0217657Y0223911D01*
X0218333Y0225544D01*
X0219010Y0223911D01*
X0220444Y0222476D01*
X0222319Y0221700D01*
X0224348Y0221700D01*
X0226222Y0222476D01*
X0227657Y0223911D01*
X0228333Y0225544D01*
X0229010Y0223911D01*
X0230444Y0222476D01*
X0232319Y0221700D01*
X0234348Y0221700D01*
X0236222Y0222476D01*
X0237657Y0223911D01*
X0238333Y0225544D01*
X0239010Y0223911D01*
X0240444Y0222476D01*
X0242319Y0221700D01*
X0244348Y0221700D01*
X0246222Y0222476D01*
X0247657Y0223911D01*
X0248333Y0225544D01*
X0249010Y0223911D01*
X0250444Y0222476D01*
X0252319Y0221700D01*
X0254348Y0221700D01*
X0256222Y0222476D01*
X0257657Y0223911D01*
X0258333Y0225544D01*
X0259010Y0223911D01*
X0260444Y0222476D01*
X0262319Y0221700D01*
X0264348Y0221700D01*
X0266222Y0222476D01*
X0267657Y0223911D01*
X0268333Y0225544D01*
X0269010Y0223911D01*
X0270444Y0222476D01*
X0272319Y0221700D01*
X0274348Y0221700D01*
X0276222Y0222476D01*
X0277657Y0223911D01*
X0278123Y0225037D01*
X0278236Y0224689D01*
X0278629Y0223917D01*
X0279138Y0223217D01*
X0279750Y0222605D01*
X0280451Y0222096D01*
X0281222Y0221703D01*
X0282045Y0221435D01*
X0282900Y0221300D01*
X0283133Y0221300D01*
X0283133Y0226600D01*
X0283533Y0226600D01*
X0283533Y0221300D01*
X0283766Y0221300D01*
X0284621Y0221435D01*
X0285445Y0221703D01*
X0286216Y0222096D01*
X0286916Y0222605D01*
X0287528Y0223217D01*
X0288037Y0223917D01*
X0288430Y0224689D01*
X0288543Y0225037D01*
X0289010Y0223911D01*
X0290444Y0222476D01*
X0292319Y0221700D01*
X0294348Y0221700D01*
X0296222Y0222476D01*
X0297657Y0223911D01*
X0298333Y0225544D01*
X0299010Y0223911D01*
X0300444Y0222476D01*
X0302319Y0221700D01*
X0304348Y0221700D01*
X0306222Y0222476D01*
X0307657Y0223911D01*
X0308333Y0225544D01*
X0309010Y0223911D01*
X0310444Y0222476D01*
X0312319Y0221700D01*
X0314348Y0221700D01*
X0316222Y0222476D01*
X0317657Y0223911D01*
X0318433Y0225786D01*
X0318433Y0227814D01*
X0317657Y0229689D01*
X0316222Y0231124D01*
X0316754Y0230592D02*
X0364333Y0230592D01*
X0364333Y0230614D02*
X0364333Y0228586D01*
X0365110Y0226711D01*
X0366544Y0225276D01*
X0368419Y0224500D01*
X0370448Y0224500D01*
X0372322Y0225276D01*
X0373757Y0226711D01*
X0374533Y0228586D01*
X0374533Y0230614D01*
X0373757Y0232489D01*
X0372322Y0233924D01*
X0370448Y0234700D01*
X0368419Y0234700D01*
X0366544Y0233924D01*
X0365110Y0232489D01*
X0364333Y0230614D01*
X0364333Y0228993D02*
X0317945Y0228993D01*
X0318433Y0227395D02*
X0364827Y0227395D01*
X0366025Y0225796D02*
X0326550Y0225796D01*
X0327860Y0224198D02*
X0386185Y0224198D01*
X0385945Y0224235D02*
X0386800Y0224100D01*
X0387033Y0224100D01*
X0387033Y0229400D01*
X0381733Y0229400D01*
X0381733Y0229167D01*
X0381869Y0228312D01*
X0382136Y0227489D01*
X0382529Y0226717D01*
X0383038Y0226017D01*
X0383650Y0225405D01*
X0384351Y0224896D01*
X0385122Y0224503D01*
X0385945Y0224235D01*
X0387033Y0224198D02*
X0387433Y0224198D01*
X0387433Y0224100D02*
X0387666Y0224100D01*
X0388521Y0224235D01*
X0389345Y0224503D01*
X0390116Y0224896D01*
X0390816Y0225405D01*
X0391428Y0226017D01*
X0391937Y0226717D01*
X0392330Y0227489D01*
X0392598Y0228312D01*
X0392733Y0229167D01*
X0392733Y0229400D01*
X0387433Y0229400D01*
X0387433Y0224100D01*
X0388282Y0224198D02*
X0400133Y0224198D01*
X0400133Y0225796D02*
X0391208Y0225796D01*
X0392282Y0227395D02*
X0400133Y0227395D01*
X0400133Y0228993D02*
X0392706Y0228993D01*
X0392733Y0229800D02*
X0392733Y0230033D01*
X0392598Y0230888D01*
X0392330Y0231711D01*
X0391937Y0232483D01*
X0391428Y0233183D01*
X0390816Y0233795D01*
X0390116Y0234304D01*
X0389345Y0234697D01*
X0388521Y0234965D01*
X0387666Y0235100D01*
X0387433Y0235100D01*
X0387433Y0229800D01*
X0387033Y0229800D01*
X0387033Y0229400D01*
X0387433Y0229400D01*
X0387433Y0229800D01*
X0392733Y0229800D01*
X0392645Y0230592D02*
X0400133Y0230592D01*
X0400133Y0232190D02*
X0392086Y0232190D01*
X0390823Y0233789D02*
X0400133Y0233789D01*
X0400133Y0235387D02*
X0236163Y0235387D01*
X0234565Y0233789D02*
X0366409Y0233789D01*
X0364986Y0232190D02*
X0284460Y0232190D01*
X0283533Y0232190D02*
X0283133Y0232190D01*
X0282207Y0232190D02*
X0186966Y0232190D01*
X0191754Y0230592D02*
X0199912Y0230592D01*
X0198722Y0228993D02*
X0192945Y0228993D01*
X0193433Y0227395D02*
X0198233Y0227395D01*
X0198233Y0225796D02*
X0193433Y0225796D01*
X0192776Y0224198D02*
X0198891Y0224198D01*
X0200322Y0222599D02*
X0191345Y0222599D01*
X0185322Y0222599D02*
X0177375Y0222599D01*
X0175776Y0221001D02*
X0318233Y0221001D01*
X0318233Y0222599D02*
X0316345Y0222599D01*
X0317776Y0224198D02*
X0318806Y0224198D01*
X0318433Y0225796D02*
X0320117Y0225796D01*
X0318806Y0219402D02*
X0174178Y0219402D01*
X0172579Y0217803D02*
X0320117Y0217803D01*
X0320641Y0216205D02*
X0170981Y0216205D01*
X0169382Y0214606D02*
X0318976Y0214606D01*
X0318313Y0213008D02*
X0167784Y0213008D01*
X0166185Y0211409D02*
X0318233Y0211409D01*
X0318637Y0209811D02*
X0164587Y0209811D01*
X0162988Y0208212D02*
X0319708Y0208212D01*
X0321628Y0206614D02*
X0161390Y0206614D01*
X0159791Y0205015D02*
X0319336Y0205015D01*
X0318483Y0203417D02*
X0158193Y0203417D01*
X0156594Y0201818D02*
X0318233Y0201818D01*
X0318468Y0200220D02*
X0156333Y0200220D01*
X0156333Y0198621D02*
X0319299Y0198621D01*
X0321539Y0197023D02*
X0156333Y0197023D01*
X0156333Y0195424D02*
X0319745Y0195424D01*
X0318652Y0193826D02*
X0156333Y0193826D01*
X0156333Y0192227D02*
X0318233Y0192227D01*
X0318298Y0190629D02*
X0191717Y0190629D01*
X0191222Y0191124D02*
X0189348Y0191900D01*
X0187319Y0191900D01*
X0185444Y0191124D01*
X0184010Y0189689D01*
X0183233Y0187814D01*
X0183233Y0185786D01*
X0184010Y0183911D01*
X0185444Y0182476D01*
X0187319Y0181700D01*
X0189348Y0181700D01*
X0191222Y0182476D01*
X0192657Y0183911D01*
X0193433Y0185786D01*
X0193433Y0187814D01*
X0192657Y0189689D01*
X0191222Y0191124D01*
X0192930Y0189030D02*
X0318960Y0189030D01*
X0320552Y0187432D02*
X0193433Y0187432D01*
X0193433Y0185833D02*
X0320154Y0185833D01*
X0318822Y0184235D02*
X0192791Y0184235D01*
X0191382Y0182636D02*
X0225454Y0182636D01*
X0223484Y0181038D02*
X0156333Y0181038D01*
X0156333Y0182636D02*
X0165285Y0182636D01*
X0165444Y0182476D02*
X0167319Y0181700D01*
X0169348Y0181700D01*
X0171222Y0182476D01*
X0172657Y0183911D01*
X0173433Y0185786D01*
X0173433Y0187814D01*
X0172657Y0189689D01*
X0171222Y0191124D01*
X0169348Y0191900D01*
X0167319Y0191900D01*
X0165444Y0191124D01*
X0164010Y0189689D01*
X0163233Y0187814D01*
X0163233Y0185786D01*
X0164010Y0183911D01*
X0165444Y0182476D01*
X0163876Y0184235D02*
X0156333Y0184235D01*
X0156333Y0185833D02*
X0163233Y0185833D01*
X0163233Y0187432D02*
X0156333Y0187432D01*
X0156333Y0189030D02*
X0163737Y0189030D01*
X0164950Y0190629D02*
X0156333Y0190629D01*
X0150333Y0190629D02*
X0148368Y0190629D01*
X0148433Y0190786D02*
X0148433Y0192814D01*
X0147657Y0194689D01*
X0146222Y0196124D01*
X0145096Y0196590D01*
X0145445Y0196703D01*
X0146216Y0197096D01*
X0146916Y0197605D01*
X0147528Y0198217D01*
X0148037Y0198917D01*
X0148430Y0199689D01*
X0148698Y0200512D01*
X0148833Y0201367D01*
X0148833Y0201600D01*
X0143533Y0201600D01*
X0143533Y0202000D01*
X0143133Y0202000D01*
X0143133Y0201600D01*
X0137833Y0201600D01*
X0137833Y0201367D01*
X0137969Y0200512D01*
X0138236Y0199689D01*
X0138629Y0198917D01*
X0139138Y0198217D01*
X0139750Y0197605D01*
X0140451Y0197096D01*
X0141222Y0196703D01*
X0141570Y0196590D01*
X0140444Y0196124D01*
X0139010Y0194689D01*
X0138233Y0192814D01*
X0138233Y0190786D01*
X0139010Y0188911D01*
X0140444Y0187476D01*
X0141570Y0187010D01*
X0141222Y0186897D01*
X0140451Y0186504D01*
X0139750Y0185995D01*
X0139138Y0185383D01*
X0138629Y0184683D01*
X0138236Y0183911D01*
X0137969Y0183088D01*
X0137833Y0182233D01*
X0137833Y0182000D01*
X0143133Y0182000D01*
X0143133Y0181600D01*
X0137833Y0181600D01*
X0137833Y0181367D01*
X0137969Y0180512D01*
X0138236Y0179689D01*
X0138629Y0178917D01*
X0139138Y0178217D01*
X0139750Y0177605D01*
X0140451Y0177096D01*
X0141091Y0176770D01*
X0138233Y0173912D01*
X0138233Y0169688D01*
X0141221Y0166700D01*
X0145446Y0166700D01*
X0148433Y0169688D01*
X0148433Y0173912D01*
X0145576Y0176770D01*
X0146216Y0177096D01*
X0146916Y0177605D01*
X0147528Y0178217D01*
X0148037Y0178917D01*
X0148430Y0179689D01*
X0148698Y0180512D01*
X0148833Y0181367D01*
X0148833Y0181600D01*
X0143533Y0181600D01*
X0143533Y0182000D01*
X0148833Y0182000D01*
X0148833Y0182233D01*
X0148698Y0183088D01*
X0148430Y0183911D01*
X0148037Y0184683D01*
X0147528Y0185383D01*
X0146916Y0185995D01*
X0146216Y0186504D01*
X0145445Y0186897D01*
X0145096Y0187010D01*
X0146222Y0187476D01*
X0147657Y0188911D01*
X0148433Y0190786D01*
X0148433Y0192227D02*
X0150333Y0192227D01*
X0150333Y0193826D02*
X0148014Y0193826D01*
X0146921Y0195424D02*
X0150333Y0195424D01*
X0150333Y0197023D02*
X0146072Y0197023D01*
X0147822Y0198621D02*
X0150333Y0198621D01*
X0150333Y0200220D02*
X0148603Y0200220D01*
X0148833Y0202000D02*
X0148833Y0202233D01*
X0148698Y0203088D01*
X0148430Y0203911D01*
X0148037Y0204683D01*
X0147528Y0205383D01*
X0146916Y0205995D01*
X0146216Y0206504D01*
X0145445Y0206897D01*
X0144621Y0207165D01*
X0143766Y0207300D01*
X0143533Y0207300D01*
X0143533Y0202000D01*
X0148833Y0202000D01*
X0148591Y0203417D02*
X0150342Y0203417D01*
X0150333Y0201818D02*
X0143533Y0201818D01*
X0143133Y0201818D02*
X0126333Y0201818D01*
X0126333Y0200220D02*
X0138064Y0200220D01*
X0138844Y0198621D02*
X0126333Y0198621D01*
X0126333Y0197023D02*
X0140594Y0197023D01*
X0139745Y0195424D02*
X0126333Y0195424D01*
X0126333Y0193826D02*
X0138652Y0193826D01*
X0138233Y0192227D02*
X0126333Y0192227D01*
X0126333Y0190629D02*
X0138298Y0190629D01*
X0138960Y0189030D02*
X0126333Y0189030D01*
X0126333Y0187432D02*
X0140552Y0187432D01*
X0139588Y0185833D02*
X0126333Y0185833D01*
X0126333Y0184235D02*
X0138401Y0184235D01*
X0137897Y0182636D02*
X0126333Y0182636D01*
X0126333Y0181038D02*
X0137885Y0181038D01*
X0138363Y0179439D02*
X0126333Y0179439D01*
X0126333Y0177841D02*
X0139514Y0177841D01*
X0140563Y0176242D02*
X0126333Y0176242D01*
X0126333Y0174644D02*
X0138965Y0174644D01*
X0138233Y0173045D02*
X0126333Y0173045D01*
X0126333Y0171447D02*
X0138233Y0171447D01*
X0138233Y0169848D02*
X0126333Y0169848D01*
X0126333Y0168250D02*
X0139671Y0168250D01*
X0142319Y0161900D02*
X0140444Y0161124D01*
X0139010Y0159689D01*
X0138233Y0157814D01*
X0138233Y0155786D01*
X0139010Y0153911D01*
X0140444Y0152476D01*
X0142319Y0151700D01*
X0144348Y0151700D01*
X0146222Y0152476D01*
X0147657Y0153911D01*
X0148433Y0155786D01*
X0148433Y0157814D01*
X0147657Y0159689D01*
X0146222Y0161124D01*
X0144348Y0161900D01*
X0142319Y0161900D01*
X0142212Y0161856D02*
X0126333Y0161856D01*
X0126333Y0163454D02*
X0150333Y0163454D01*
X0150333Y0161856D02*
X0144455Y0161856D01*
X0147089Y0160257D02*
X0150333Y0160257D01*
X0150333Y0158659D02*
X0148084Y0158659D01*
X0148433Y0157060D02*
X0150333Y0157060D01*
X0150333Y0155462D02*
X0148299Y0155462D01*
X0147609Y0153863D02*
X0150333Y0153863D01*
X0150333Y0152265D02*
X0145711Y0152265D01*
X0140956Y0152265D02*
X0126333Y0152265D01*
X0126333Y0153863D02*
X0139058Y0153863D01*
X0138368Y0155462D02*
X0126333Y0155462D01*
X0126333Y0157060D02*
X0138233Y0157060D01*
X0138583Y0158659D02*
X0126333Y0158659D01*
X0126333Y0160257D02*
X0139578Y0160257D01*
X0150333Y0165053D02*
X0126333Y0165053D01*
X0126333Y0166651D02*
X0150333Y0166651D01*
X0150333Y0168250D02*
X0146995Y0168250D01*
X0148433Y0169848D02*
X0150333Y0169848D01*
X0150333Y0171447D02*
X0148433Y0171447D01*
X0148433Y0173045D02*
X0150333Y0173045D01*
X0150333Y0174644D02*
X0147702Y0174644D01*
X0146104Y0176242D02*
X0150333Y0176242D01*
X0150333Y0177841D02*
X0147152Y0177841D01*
X0148303Y0179439D02*
X0150333Y0179439D01*
X0150333Y0181038D02*
X0148781Y0181038D01*
X0148769Y0182636D02*
X0150333Y0182636D01*
X0150333Y0184235D02*
X0148266Y0184235D01*
X0147078Y0185833D02*
X0150333Y0185833D01*
X0150333Y0187432D02*
X0146114Y0187432D01*
X0147706Y0189030D02*
X0150333Y0189030D01*
X0156333Y0179439D02*
X0222764Y0179439D01*
X0222608Y0177841D02*
X0156333Y0177841D01*
X0156333Y0176242D02*
X0166907Y0176242D01*
X0167408Y0176450D02*
X0165699Y0175742D01*
X0164391Y0174434D01*
X0163683Y0172725D01*
X0163683Y0170875D01*
X0164391Y0169166D01*
X0165699Y0167858D01*
X0167408Y0167150D01*
X0169258Y0167150D01*
X0170967Y0167858D01*
X0172275Y0169166D01*
X0172983Y0170875D01*
X0172983Y0172725D01*
X0172275Y0174434D01*
X0170967Y0175742D01*
X0169258Y0176450D01*
X0167408Y0176450D01*
X0169760Y0176242D02*
X0186907Y0176242D01*
X0184601Y0174644D02*
X0172066Y0174644D01*
X0172851Y0173045D02*
X0183816Y0173045D01*
X0183683Y0171447D02*
X0172983Y0171447D01*
X0172558Y0169848D02*
X0184109Y0169848D01*
X0185308Y0168250D02*
X0171359Y0168250D01*
X0169745Y0166651D02*
X0186921Y0166651D01*
X0188333Y0166651D02*
X0188333Y0166651D01*
X0188333Y0165053D02*
X0188333Y0165053D01*
X0188333Y0163454D02*
X0188333Y0163454D01*
X0188333Y0161856D02*
X0188333Y0161856D01*
X0188333Y0160257D02*
X0188333Y0160257D01*
X0188333Y0158659D02*
X0188333Y0158659D01*
X0184374Y0158659D02*
X0172293Y0158659D01*
X0173142Y0160257D02*
X0183525Y0160257D01*
X0183283Y0161856D02*
X0173383Y0161856D01*
X0173383Y0161800D02*
X0168333Y0161800D01*
X0168333Y0161800D01*
X0173383Y0161800D01*
X0173106Y0163454D02*
X0183561Y0163454D01*
X0184454Y0165053D02*
X0172212Y0165053D01*
X0168333Y0165053D02*
X0168333Y0165053D01*
X0168333Y0166651D02*
X0168333Y0166651D01*
X0166921Y0166651D02*
X0156333Y0166651D01*
X0156333Y0165053D02*
X0164454Y0165053D01*
X0163561Y0163454D02*
X0156333Y0163454D01*
X0156333Y0161856D02*
X0163283Y0161856D01*
X0163525Y0160257D02*
X0156333Y0160257D01*
X0156333Y0158659D02*
X0164374Y0158659D01*
X0168333Y0158659D02*
X0168333Y0158659D01*
X0168333Y0160257D02*
X0168333Y0160257D01*
X0168333Y0161856D02*
X0168333Y0161856D01*
X0168333Y0163454D02*
X0168333Y0163454D01*
X0165308Y0168250D02*
X0156333Y0168250D01*
X0156333Y0169848D02*
X0164109Y0169848D01*
X0163683Y0171447D02*
X0156333Y0171447D01*
X0156333Y0173045D02*
X0163816Y0173045D01*
X0164601Y0174644D02*
X0156333Y0174644D01*
X0171382Y0182636D02*
X0185285Y0182636D01*
X0183876Y0184235D02*
X0172791Y0184235D01*
X0173433Y0185833D02*
X0183233Y0185833D01*
X0183233Y0187432D02*
X0173433Y0187432D01*
X0172930Y0189030D02*
X0183737Y0189030D01*
X0184950Y0190629D02*
X0171717Y0190629D01*
X0151634Y0205343D02*
X0151634Y0205343D01*
X0151306Y0205015D02*
X0147796Y0205015D01*
X0146000Y0206614D02*
X0152905Y0206614D01*
X0154503Y0208212D02*
X0126333Y0208212D01*
X0126333Y0206614D02*
X0140666Y0206614D01*
X0140451Y0206504D02*
X0139750Y0205995D01*
X0139138Y0205383D01*
X0138629Y0204683D01*
X0138236Y0203911D01*
X0137969Y0203088D01*
X0137833Y0202233D01*
X0137833Y0202000D01*
X0143133Y0202000D01*
X0143133Y0207300D01*
X0142900Y0207300D01*
X0142045Y0207165D01*
X0141222Y0206897D01*
X0140451Y0206504D01*
X0138871Y0205015D02*
X0126333Y0205015D01*
X0126333Y0203417D02*
X0138076Y0203417D01*
X0143133Y0203417D02*
X0143533Y0203417D01*
X0143533Y0205015D02*
X0143133Y0205015D01*
X0143133Y0206614D02*
X0143533Y0206614D01*
X0156102Y0209811D02*
X0126333Y0209811D01*
X0126333Y0211409D02*
X0157700Y0211409D01*
X0159299Y0213008D02*
X0126333Y0213008D01*
X0126333Y0214606D02*
X0160897Y0214606D01*
X0162496Y0216205D02*
X0126333Y0216205D01*
X0126333Y0217803D02*
X0164094Y0217803D01*
X0165693Y0219402D02*
X0126333Y0219402D01*
X0126333Y0221001D02*
X0167291Y0221001D01*
X0165322Y0222599D02*
X0146908Y0222599D01*
X0146916Y0222605D02*
X0147528Y0223217D01*
X0148037Y0223917D01*
X0148430Y0224689D01*
X0148698Y0225512D01*
X0148833Y0226367D01*
X0148833Y0226714D01*
X0143419Y0226714D01*
X0143419Y0221300D01*
X0143766Y0221300D01*
X0144621Y0221435D01*
X0145445Y0221703D01*
X0146216Y0222096D01*
X0146916Y0222605D01*
X0148180Y0224198D02*
X0163891Y0224198D01*
X0163233Y0225796D02*
X0148743Y0225796D01*
X0148833Y0226886D02*
X0148833Y0227233D01*
X0148698Y0228088D01*
X0148430Y0228911D01*
X0148037Y0229683D01*
X0147528Y0230383D01*
X0146916Y0230995D01*
X0146216Y0231504D01*
X0145445Y0231897D01*
X0144621Y0232165D01*
X0143766Y0232300D01*
X0143419Y0232300D01*
X0143419Y0226886D01*
X0143247Y0226886D01*
X0143247Y0226714D01*
X0137833Y0226714D01*
X0137833Y0226367D01*
X0137969Y0225512D01*
X0138236Y0224689D01*
X0138629Y0223917D01*
X0139138Y0223217D01*
X0139750Y0222605D01*
X0140451Y0222096D01*
X0141222Y0221703D01*
X0142045Y0221435D01*
X0142900Y0221300D01*
X0143247Y0221300D01*
X0143247Y0226714D01*
X0143419Y0226714D01*
X0143419Y0226886D01*
X0148833Y0226886D01*
X0148808Y0227395D02*
X0163233Y0227395D01*
X0163722Y0228993D02*
X0148389Y0228993D01*
X0147320Y0230592D02*
X0164912Y0230592D01*
X0171754Y0230592D02*
X0176882Y0230592D01*
X0178481Y0232190D02*
X0144460Y0232190D01*
X0143419Y0232190D02*
X0143247Y0232190D01*
X0143247Y0232300D02*
X0143247Y0226886D01*
X0137833Y0226886D01*
X0137833Y0227233D01*
X0137969Y0228088D01*
X0138236Y0228911D01*
X0138629Y0229683D01*
X0139138Y0230383D01*
X0139750Y0230995D01*
X0140451Y0231504D01*
X0141222Y0231897D01*
X0142045Y0232165D01*
X0142900Y0232300D01*
X0143247Y0232300D01*
X0142207Y0232190D02*
X0131966Y0232190D01*
X0130368Y0230592D02*
X0139347Y0230592D01*
X0138278Y0228993D02*
X0128769Y0228993D01*
X0127171Y0227395D02*
X0137859Y0227395D01*
X0137924Y0225796D02*
X0126333Y0225796D01*
X0126333Y0224198D02*
X0138487Y0224198D01*
X0139758Y0222599D02*
X0126333Y0222599D01*
X0123481Y0232190D02*
X0101966Y0232190D01*
X0096678Y0235387D02*
X0071333Y0235387D01*
X0071333Y0233789D02*
X0095079Y0233789D01*
X0093662Y0232190D02*
X0071333Y0232190D01*
X0071333Y0230592D02*
X0084912Y0230592D01*
X0083722Y0228993D02*
X0071333Y0228993D01*
X0071333Y0227395D02*
X0083233Y0227395D01*
X0083233Y0225796D02*
X0071333Y0225796D01*
X0071333Y0224198D02*
X0083891Y0224198D01*
X0085322Y0222599D02*
X0071333Y0222599D01*
X0071333Y0221001D02*
X0093333Y0221001D01*
X0093333Y0222599D02*
X0091345Y0222599D01*
X0092776Y0224198D02*
X0093333Y0224198D01*
X0093333Y0219402D02*
X0071333Y0219402D01*
X0071333Y0217803D02*
X0093333Y0217803D01*
X0093333Y0216205D02*
X0071333Y0216205D01*
X0071333Y0214606D02*
X0093333Y0214606D01*
X0093333Y0213008D02*
X0071333Y0213008D01*
X0071333Y0211409D02*
X0093333Y0211409D01*
X0093333Y0209811D02*
X0071333Y0209811D01*
X0071333Y0208212D02*
X0093333Y0208212D01*
X0093333Y0206614D02*
X0091000Y0206614D01*
X0092796Y0205015D02*
X0093333Y0205015D01*
X0088533Y0205015D02*
X0088133Y0205015D01*
X0088133Y0203417D02*
X0088533Y0203417D01*
X0088133Y0202000D02*
X0088133Y0207300D01*
X0087900Y0207300D01*
X0087045Y0207165D01*
X0086222Y0206897D01*
X0085451Y0206504D01*
X0084750Y0205995D01*
X0084138Y0205383D01*
X0083629Y0204683D01*
X0083236Y0203911D01*
X0082969Y0203088D01*
X0082833Y0202233D01*
X0082833Y0202000D01*
X0088133Y0202000D01*
X0088133Y0201818D02*
X0071333Y0201818D01*
X0071333Y0200220D02*
X0083064Y0200220D01*
X0083844Y0198621D02*
X0071333Y0198621D01*
X0071333Y0197023D02*
X0085594Y0197023D01*
X0084745Y0195424D02*
X0071333Y0195424D01*
X0071333Y0193826D02*
X0083652Y0193826D01*
X0083233Y0192227D02*
X0071333Y0192227D01*
X0071333Y0190629D02*
X0083298Y0190629D01*
X0083960Y0189030D02*
X0071333Y0189030D01*
X0071333Y0187432D02*
X0085552Y0187432D01*
X0085154Y0185833D02*
X0071333Y0185833D01*
X0071333Y0184235D02*
X0083822Y0184235D01*
X0083233Y0182636D02*
X0071333Y0182636D01*
X0071333Y0181038D02*
X0083233Y0181038D01*
X0083791Y0179439D02*
X0071333Y0179439D01*
X0071333Y0177841D02*
X0085080Y0177841D01*
X0085563Y0176242D02*
X0071333Y0176242D01*
X0071333Y0174644D02*
X0083965Y0174644D01*
X0083233Y0173045D02*
X0071333Y0173045D01*
X0071333Y0171447D02*
X0083233Y0171447D01*
X0083233Y0169848D02*
X0071333Y0169848D01*
X0071333Y0168250D02*
X0084671Y0168250D01*
X0087212Y0161856D02*
X0071333Y0161856D01*
X0071333Y0163454D02*
X0093333Y0163454D01*
X0093333Y0161856D02*
X0089455Y0161856D01*
X0092089Y0160257D02*
X0093333Y0160257D01*
X0093333Y0158659D02*
X0093084Y0158659D01*
X0093299Y0155462D02*
X0093333Y0155462D01*
X0093333Y0153863D02*
X0092609Y0153863D01*
X0093333Y0152265D02*
X0090711Y0152265D01*
X0092957Y0150666D02*
X0071333Y0150666D01*
X0071333Y0149068D02*
X0091358Y0149068D01*
X0090363Y0147469D02*
X0071333Y0147469D01*
X0071333Y0145870D02*
X0090333Y0145870D01*
X0090333Y0144272D02*
X0071333Y0144272D01*
X0071333Y0142673D02*
X0090333Y0142673D01*
X0090333Y0141075D02*
X0071333Y0141075D01*
X0071333Y0139476D02*
X0090333Y0139476D01*
X0090333Y0137878D02*
X0071333Y0137878D01*
X0071333Y0136279D02*
X0090333Y0136279D01*
X0090333Y0134681D02*
X0071333Y0134681D01*
X0071333Y0133082D02*
X0090333Y0133082D01*
X0090333Y0131484D02*
X0071333Y0131484D01*
X0071333Y0129885D02*
X0090333Y0129885D01*
X0090333Y0128287D02*
X0071333Y0128287D01*
X0071333Y0126688D02*
X0090333Y0126688D01*
X0090333Y0125090D02*
X0071333Y0125090D01*
X0071333Y0123491D02*
X0090333Y0123491D01*
X0090333Y0121893D02*
X0071333Y0121893D01*
X0071333Y0120294D02*
X0090333Y0120294D01*
X0090333Y0118696D02*
X0071333Y0118696D01*
X0071333Y0117097D02*
X0090333Y0117097D01*
X0090333Y0115499D02*
X0071333Y0115499D01*
X0071333Y0113900D02*
X0090333Y0113900D01*
X0089592Y0112302D02*
X0071333Y0112302D01*
X0071333Y0110703D02*
X0075024Y0110703D01*
X0073768Y0109105D02*
X0071333Y0109105D01*
X0071333Y0107506D02*
X0073233Y0107506D01*
X0073198Y0105908D02*
X0071211Y0105908D01*
X0071600Y0104309D02*
X0070085Y0104309D01*
X0070001Y0102711D02*
X0068487Y0102711D01*
X0068403Y0101112D02*
X0066888Y0101112D01*
X0066804Y0099514D02*
X0065290Y0099514D01*
X0065206Y0097915D02*
X0063691Y0097915D01*
X0063607Y0096317D02*
X0063433Y0096317D01*
X0067297Y0091521D02*
X0076404Y0091521D01*
X0074801Y0093120D02*
X0068896Y0093120D01*
X0070494Y0094718D02*
X0073675Y0094718D01*
X0073233Y0096317D02*
X0072093Y0096317D01*
X0074243Y0089923D02*
X0065699Y0089923D01*
X0064100Y0088324D02*
X0073444Y0088324D01*
X0073233Y0086726D02*
X0063433Y0086726D01*
X0063161Y0085127D02*
X0073506Y0085127D01*
X0074392Y0083529D02*
X0062274Y0083529D01*
X0059903Y0081930D02*
X0076764Y0081930D01*
X0079903Y0081930D02*
X0111764Y0081930D01*
X0109392Y0083529D02*
X0082274Y0083529D01*
X0083161Y0085127D02*
X0108506Y0085127D01*
X0108233Y0086726D02*
X0083433Y0086726D01*
X0083222Y0088324D02*
X0108444Y0088324D01*
X0109243Y0089923D02*
X0082423Y0089923D01*
X0080262Y0091521D02*
X0111404Y0091521D01*
X0109801Y0093120D02*
X0081865Y0093120D01*
X0082991Y0094718D02*
X0108675Y0094718D01*
X0108233Y0096317D02*
X0083433Y0096317D01*
X0083691Y0097915D02*
X0108275Y0097915D01*
X0108937Y0099514D02*
X0085290Y0099514D01*
X0086888Y0101112D02*
X0110433Y0101112D01*
X0110210Y0102711D02*
X0088487Y0102711D01*
X0090085Y0104309D02*
X0108845Y0104309D01*
X0126333Y0113900D02*
X0146191Y0113900D01*
X0147789Y0115499D02*
X0126333Y0115499D01*
X0126333Y0117097D02*
X0149388Y0117097D01*
X0150333Y0118696D02*
X0126333Y0118696D01*
X0126333Y0120294D02*
X0150333Y0120294D01*
X0150333Y0121893D02*
X0126333Y0121893D01*
X0126333Y0123491D02*
X0150333Y0123491D01*
X0150333Y0125090D02*
X0126333Y0125090D01*
X0126333Y0126688D02*
X0150333Y0126688D01*
X0150333Y0128287D02*
X0126333Y0128287D01*
X0126333Y0129885D02*
X0150333Y0129885D01*
X0150333Y0131484D02*
X0126333Y0131484D01*
X0126333Y0133082D02*
X0150333Y0133082D01*
X0150333Y0134681D02*
X0126333Y0134681D01*
X0126333Y0136279D02*
X0150333Y0136279D01*
X0150333Y0137878D02*
X0126333Y0137878D01*
X0126333Y0139476D02*
X0150333Y0139476D01*
X0150333Y0141075D02*
X0126333Y0141075D01*
X0126333Y0142673D02*
X0150333Y0142673D01*
X0150333Y0144272D02*
X0126333Y0144272D01*
X0126333Y0145870D02*
X0150333Y0145870D01*
X0150333Y0147469D02*
X0126333Y0147469D01*
X0126333Y0149068D02*
X0150333Y0149068D01*
X0150333Y0150666D02*
X0126333Y0150666D01*
X0093333Y0165053D02*
X0071333Y0165053D01*
X0071333Y0166651D02*
X0093333Y0166651D01*
X0093333Y0168250D02*
X0091995Y0168250D01*
X0084578Y0160257D02*
X0071333Y0160257D01*
X0071333Y0158659D02*
X0083583Y0158659D01*
X0083233Y0157060D02*
X0071333Y0157060D01*
X0071333Y0155462D02*
X0083368Y0155462D01*
X0084058Y0153863D02*
X0071333Y0153863D01*
X0071333Y0152265D02*
X0085956Y0152265D01*
X0065333Y0152265D02*
X0050711Y0152265D01*
X0051222Y0152476D02*
X0052657Y0153911D01*
X0053433Y0155786D01*
X0053433Y0157814D01*
X0052657Y0159689D01*
X0051222Y0161124D01*
X0049348Y0161900D01*
X0047319Y0161900D01*
X0045444Y0161124D01*
X0044010Y0159689D01*
X0043233Y0157814D01*
X0043233Y0155786D01*
X0044010Y0153911D01*
X0045444Y0152476D01*
X0047319Y0151700D01*
X0049348Y0151700D01*
X0051222Y0152476D01*
X0052609Y0153863D02*
X0065333Y0153863D01*
X0065333Y0155462D02*
X0053299Y0155462D01*
X0053433Y0157060D02*
X0065333Y0157060D01*
X0065333Y0158659D02*
X0053084Y0158659D01*
X0052089Y0160257D02*
X0065333Y0160257D01*
X0065333Y0161856D02*
X0049455Y0161856D01*
X0047212Y0161856D02*
X0035633Y0161856D01*
X0035633Y0163454D02*
X0065333Y0163454D01*
X0065333Y0165053D02*
X0035633Y0165053D01*
X0035633Y0166651D02*
X0065333Y0166651D01*
X0065333Y0168250D02*
X0051995Y0168250D01*
X0052657Y0168911D02*
X0053433Y0170786D01*
X0053433Y0172814D01*
X0052657Y0174689D01*
X0051222Y0176124D01*
X0049589Y0176800D01*
X0051222Y0177476D01*
X0052657Y0178911D01*
X0053433Y0180786D01*
X0053433Y0182814D01*
X0052657Y0184689D01*
X0051222Y0186124D01*
X0049589Y0186800D01*
X0051222Y0187476D01*
X0052657Y0188911D01*
X0053433Y0190786D01*
X0053433Y0192814D01*
X0052657Y0194689D01*
X0051222Y0196124D01*
X0049589Y0196800D01*
X0051222Y0197476D01*
X0052657Y0198911D01*
X0053433Y0200786D01*
X0053433Y0202814D01*
X0052657Y0204689D01*
X0051222Y0206124D01*
X0049348Y0206900D01*
X0047319Y0206900D01*
X0045444Y0206124D01*
X0044010Y0204689D01*
X0043233Y0202814D01*
X0043233Y0200786D01*
X0044010Y0198911D01*
X0045444Y0197476D01*
X0047077Y0196800D01*
X0045444Y0196124D01*
X0044010Y0194689D01*
X0043233Y0192814D01*
X0043233Y0190786D01*
X0044010Y0188911D01*
X0045444Y0187476D01*
X0047077Y0186800D01*
X0045444Y0186124D01*
X0044010Y0184689D01*
X0043233Y0182814D01*
X0043233Y0180786D01*
X0044010Y0178911D01*
X0045444Y0177476D01*
X0047077Y0176800D01*
X0045444Y0176124D01*
X0044010Y0174689D01*
X0043233Y0172814D01*
X0043233Y0170786D01*
X0044010Y0168911D01*
X0045444Y0167476D01*
X0047319Y0166700D01*
X0049348Y0166700D01*
X0051222Y0167476D01*
X0052657Y0168911D01*
X0053045Y0169848D02*
X0065333Y0169848D01*
X0065333Y0171447D02*
X0053433Y0171447D01*
X0053338Y0173045D02*
X0065333Y0173045D01*
X0065333Y0174644D02*
X0052676Y0174644D01*
X0050936Y0176242D02*
X0065333Y0176242D01*
X0065333Y0177841D02*
X0051587Y0177841D01*
X0052876Y0179439D02*
X0065333Y0179439D01*
X0065333Y0181038D02*
X0053433Y0181038D01*
X0053433Y0182636D02*
X0065333Y0182636D01*
X0065333Y0184235D02*
X0052845Y0184235D01*
X0051513Y0185833D02*
X0065333Y0185833D01*
X0065333Y0187432D02*
X0051114Y0187432D01*
X0052706Y0189030D02*
X0065333Y0189030D01*
X0065333Y0190629D02*
X0053368Y0190629D01*
X0053433Y0192227D02*
X0065333Y0192227D01*
X0065333Y0193826D02*
X0053014Y0193826D01*
X0051921Y0195424D02*
X0065333Y0195424D01*
X0065333Y0197023D02*
X0050127Y0197023D01*
X0052367Y0198621D02*
X0065333Y0198621D01*
X0065333Y0200220D02*
X0053199Y0200220D01*
X0053433Y0201818D02*
X0065333Y0201818D01*
X0065333Y0203417D02*
X0053184Y0203417D01*
X0052330Y0205015D02*
X0065333Y0205015D01*
X0065333Y0206614D02*
X0050038Y0206614D01*
X0046628Y0206614D02*
X0035633Y0206614D01*
X0035633Y0208212D02*
X0065333Y0208212D01*
X0065333Y0209811D02*
X0035633Y0209811D01*
X0035633Y0211409D02*
X0065333Y0211409D01*
X0065333Y0213008D02*
X0035633Y0213008D01*
X0035633Y0214606D02*
X0065333Y0214606D01*
X0065333Y0216205D02*
X0035633Y0216205D01*
X0035633Y0217803D02*
X0065333Y0217803D01*
X0065333Y0219402D02*
X0035633Y0219402D01*
X0035633Y0221001D02*
X0065333Y0221001D01*
X0065333Y0222599D02*
X0051345Y0222599D01*
X0051222Y0222476D02*
X0052657Y0223911D01*
X0053433Y0225786D01*
X0053433Y0227814D01*
X0052657Y0229689D01*
X0051222Y0231124D01*
X0049348Y0231900D01*
X0047319Y0231900D01*
X0045444Y0231124D01*
X0044010Y0229689D01*
X0043233Y0227814D01*
X0043233Y0225786D01*
X0044010Y0223911D01*
X0045444Y0222476D01*
X0047319Y0221700D01*
X0049348Y0221700D01*
X0051222Y0222476D01*
X0052776Y0224198D02*
X0065333Y0224198D01*
X0065333Y0225796D02*
X0053433Y0225796D01*
X0053433Y0227395D02*
X0065333Y0227395D01*
X0065333Y0228993D02*
X0052945Y0228993D01*
X0051754Y0230592D02*
X0065333Y0230592D01*
X0065333Y0232190D02*
X0035633Y0232190D01*
X0035633Y0230592D02*
X0044912Y0230592D01*
X0043722Y0228993D02*
X0035633Y0228993D01*
X0035633Y0227395D02*
X0043233Y0227395D01*
X0043233Y0225796D02*
X0035633Y0225796D01*
X0035633Y0224198D02*
X0043891Y0224198D01*
X0045322Y0222599D02*
X0035633Y0222599D01*
X0035633Y0233789D02*
X0065333Y0233789D01*
X0065333Y0235387D02*
X0035633Y0235387D01*
X0035633Y0236986D02*
X0065333Y0236986D01*
X0065333Y0238584D02*
X0035633Y0238584D01*
X0035633Y0240183D02*
X0054746Y0240183D01*
X0051386Y0241781D02*
X0035633Y0241781D01*
X0035633Y0243380D02*
X0049571Y0243380D01*
X0048242Y0244978D02*
X0035633Y0244978D01*
X0035633Y0246577D02*
X0047319Y0246577D01*
X0046726Y0248175D02*
X0035633Y0248175D01*
X0035633Y0249774D02*
X0046298Y0249774D01*
X0046183Y0251372D02*
X0035633Y0251372D01*
X0035633Y0252971D02*
X0046183Y0252971D01*
X0046497Y0254569D02*
X0036013Y0254569D01*
X0039848Y0255499D02*
X0039848Y0255499D01*
X0041072Y0256168D02*
X0046925Y0256168D01*
X0047748Y0257766D02*
X0043900Y0257766D01*
X0043766Y0257639D02*
X0043766Y0257639D01*
X0045577Y0259365D02*
X0048715Y0259365D01*
X0046998Y0260719D02*
X0046998Y0260719D01*
X0046998Y0260719D01*
X0047147Y0260963D02*
X0050314Y0260963D01*
X0048121Y0262562D02*
X0052673Y0262562D01*
X0049321Y0264530D02*
X0049321Y0264530D01*
X0049096Y0264160D02*
X0312144Y0264160D01*
X0313533Y0264160D02*
X0315133Y0264160D01*
X0316523Y0264160D02*
X0386671Y0264160D01*
X0386445Y0264530D02*
X0386445Y0264530D01*
X0386085Y0265759D02*
X0049682Y0265759D01*
X0050152Y0267357D02*
X0385615Y0267357D01*
X0383993Y0262562D02*
X0387646Y0262562D01*
X0388620Y0260963D02*
X0386353Y0260963D01*
X0387951Y0259365D02*
X0390189Y0259365D01*
X0388918Y0257766D02*
X0391866Y0257766D01*
X0392000Y0257639D02*
X0392000Y0257639D01*
X0389742Y0256168D02*
X0394694Y0256168D01*
X0395918Y0255499D02*
X0395918Y0255499D01*
X0399754Y0254569D02*
X0390170Y0254569D01*
X0390483Y0252971D02*
X0400133Y0252971D01*
X0400133Y0251372D02*
X0390483Y0251372D01*
X0390369Y0249774D02*
X0400133Y0249774D01*
X0400133Y0248175D02*
X0389941Y0248175D01*
X0389347Y0246577D02*
X0400133Y0246577D01*
X0400133Y0244978D02*
X0388424Y0244978D01*
X0387096Y0243380D02*
X0400133Y0243380D01*
X0400133Y0241781D02*
X0385280Y0241781D01*
X0381921Y0240183D02*
X0400133Y0240183D01*
X0387033Y0235100D02*
X0387033Y0229800D01*
X0381733Y0229800D01*
X0381733Y0230033D01*
X0381869Y0230888D01*
X0382136Y0231711D01*
X0382529Y0232483D01*
X0383038Y0233183D01*
X0383650Y0233795D01*
X0384351Y0234304D01*
X0385122Y0234697D01*
X0385945Y0234965D01*
X0386800Y0235100D01*
X0387033Y0235100D01*
X0387033Y0233789D02*
X0387433Y0233789D01*
X0387433Y0232190D02*
X0387033Y0232190D01*
X0387033Y0230592D02*
X0387433Y0230592D01*
X0387433Y0228993D02*
X0387033Y0228993D01*
X0387033Y0227395D02*
X0387433Y0227395D01*
X0387433Y0225796D02*
X0387033Y0225796D01*
X0383259Y0225796D02*
X0372842Y0225796D01*
X0374040Y0227395D02*
X0382184Y0227395D01*
X0381761Y0228993D02*
X0374533Y0228993D01*
X0374533Y0230592D02*
X0381822Y0230592D01*
X0382380Y0232190D02*
X0373881Y0232190D01*
X0372457Y0233789D02*
X0383644Y0233789D01*
X0400133Y0222599D02*
X0328433Y0222599D01*
X0328433Y0221001D02*
X0400133Y0221001D01*
X0400133Y0219402D02*
X0327860Y0219402D01*
X0326549Y0217803D02*
X0400133Y0217803D01*
X0400133Y0216205D02*
X0326026Y0216205D01*
X0327691Y0214606D02*
X0400133Y0214606D01*
X0400133Y0213008D02*
X0328353Y0213008D01*
X0328433Y0211409D02*
X0400133Y0211409D01*
X0400133Y0209811D02*
X0328030Y0209811D01*
X0326958Y0208212D02*
X0366433Y0208212D01*
X0366544Y0208324D02*
X0365110Y0206889D01*
X0364333Y0205014D01*
X0364333Y0202986D01*
X0365110Y0201111D01*
X0366544Y0199676D01*
X0368419Y0198900D01*
X0370448Y0198900D01*
X0372322Y0199676D01*
X0373757Y0201111D01*
X0374533Y0202986D01*
X0374533Y0205014D01*
X0373757Y0206889D01*
X0372322Y0208324D01*
X0370448Y0209100D01*
X0368419Y0209100D01*
X0366544Y0208324D01*
X0364996Y0206614D02*
X0325038Y0206614D01*
X0327330Y0205015D02*
X0364334Y0205015D01*
X0364333Y0203417D02*
X0328184Y0203417D01*
X0328433Y0201818D02*
X0342736Y0201818D01*
X0342936Y0201850D02*
X0342151Y0201726D01*
X0341395Y0201480D01*
X0340687Y0201119D01*
X0340043Y0200652D01*
X0339481Y0200090D01*
X0339014Y0199447D01*
X0338653Y0198739D01*
X0338408Y0197983D01*
X0338283Y0197197D01*
X0338283Y0196800D01*
X0338283Y0196403D01*
X0338408Y0195617D01*
X0338653Y0194861D01*
X0339014Y0194153D01*
X0339481Y0193510D01*
X0340043Y0192948D01*
X0340687Y0192481D01*
X0341395Y0192120D01*
X0342151Y0191874D01*
X0342936Y0191750D01*
X0343333Y0191750D01*
X0343333Y0196800D01*
X0343333Y0196800D01*
X0338283Y0196800D01*
X0343333Y0196800D01*
X0343333Y0201850D01*
X0342936Y0201850D01*
X0343333Y0201850D02*
X0343333Y0196800D01*
X0343333Y0196800D01*
X0343333Y0196800D01*
X0343333Y0191750D01*
X0343731Y0191750D01*
X0344516Y0191874D01*
X0345272Y0192120D01*
X0345980Y0192481D01*
X0346623Y0192948D01*
X0347185Y0193510D01*
X0347652Y0194153D01*
X0348013Y0194861D01*
X0348259Y0195617D01*
X0348383Y0196403D01*
X0348383Y0196800D01*
X0348383Y0197197D01*
X0348259Y0197983D01*
X0348013Y0198739D01*
X0347652Y0199447D01*
X0347185Y0200090D01*
X0346623Y0200652D01*
X0345980Y0201119D01*
X0345272Y0201480D01*
X0344516Y0201726D01*
X0343731Y0201850D01*
X0343333Y0201850D01*
X0343333Y0201818D02*
X0343333Y0201818D01*
X0343930Y0201818D02*
X0357736Y0201818D01*
X0357936Y0201850D02*
X0357151Y0201726D01*
X0356395Y0201480D01*
X0355687Y0201119D01*
X0355043Y0200652D01*
X0354481Y0200090D01*
X0354014Y0199447D01*
X0353653Y0198739D01*
X0353408Y0197983D01*
X0353283Y0197197D01*
X0353283Y0196800D01*
X0353283Y0196403D01*
X0353408Y0195617D01*
X0353653Y0194861D01*
X0354014Y0194153D01*
X0354481Y0193510D01*
X0355043Y0192948D01*
X0355687Y0192481D01*
X0356395Y0192120D01*
X0357151Y0191874D01*
X0357936Y0191750D01*
X0358333Y0191750D01*
X0358333Y0196800D01*
X0358333Y0196800D01*
X0353283Y0196800D01*
X0358333Y0196800D01*
X0358333Y0201850D01*
X0357936Y0201850D01*
X0358333Y0201850D02*
X0358333Y0196800D01*
X0358333Y0196800D01*
X0358333Y0196800D01*
X0358333Y0191750D01*
X0358731Y0191750D01*
X0359516Y0191874D01*
X0360272Y0192120D01*
X0360980Y0192481D01*
X0361623Y0192948D01*
X0362185Y0193510D01*
X0362652Y0194153D01*
X0363013Y0194861D01*
X0363259Y0195617D01*
X0363383Y0196403D01*
X0363383Y0196800D01*
X0363383Y0197197D01*
X0363259Y0197983D01*
X0363013Y0198739D01*
X0362652Y0199447D01*
X0362185Y0200090D01*
X0361623Y0200652D01*
X0360980Y0201119D01*
X0360272Y0201480D01*
X0359516Y0201726D01*
X0358731Y0201850D01*
X0358333Y0201850D01*
X0358333Y0201818D02*
X0358333Y0201818D01*
X0358930Y0201818D02*
X0364817Y0201818D01*
X0366001Y0200220D02*
X0362055Y0200220D01*
X0363051Y0198621D02*
X0400133Y0198621D01*
X0400133Y0197023D02*
X0363383Y0197023D01*
X0363383Y0196800D02*
X0358333Y0196800D01*
X0358333Y0196800D01*
X0363383Y0196800D01*
X0363196Y0195424D02*
X0400133Y0195424D01*
X0400133Y0193826D02*
X0390774Y0193826D01*
X0390816Y0193795D02*
X0390116Y0194304D01*
X0389345Y0194697D01*
X0388521Y0194965D01*
X0387666Y0195100D01*
X0387433Y0195100D01*
X0387433Y0189800D01*
X0387033Y0189800D01*
X0387033Y0189400D01*
X0381733Y0189400D01*
X0381733Y0189167D01*
X0381869Y0188312D01*
X0382136Y0187489D01*
X0382529Y0186717D01*
X0383038Y0186017D01*
X0383650Y0185405D01*
X0384351Y0184896D01*
X0385122Y0184503D01*
X0385945Y0184235D01*
X0386800Y0184100D01*
X0387033Y0184100D01*
X0387033Y0189400D01*
X0387433Y0189400D01*
X0387433Y0184100D01*
X0387666Y0184100D01*
X0388521Y0184235D01*
X0389345Y0184503D01*
X0390116Y0184896D01*
X0390816Y0185405D01*
X0391428Y0186017D01*
X0391937Y0186717D01*
X0392330Y0187489D01*
X0392598Y0188312D01*
X0392733Y0189167D01*
X0392733Y0189400D01*
X0387433Y0189400D01*
X0387433Y0189800D01*
X0392733Y0189800D01*
X0392733Y0190033D01*
X0392598Y0190888D01*
X0392330Y0191711D01*
X0391937Y0192483D01*
X0391428Y0193183D01*
X0390816Y0193795D01*
X0392067Y0192227D02*
X0400133Y0192227D01*
X0400133Y0190629D02*
X0392639Y0190629D01*
X0392712Y0189030D02*
X0400133Y0189030D01*
X0400133Y0187432D02*
X0392301Y0187432D01*
X0391245Y0185833D02*
X0400133Y0185833D01*
X0400133Y0184235D02*
X0388517Y0184235D01*
X0387433Y0184235D02*
X0387033Y0184235D01*
X0385950Y0184235D02*
X0362304Y0184235D01*
X0362275Y0184166D02*
X0362983Y0185875D01*
X0362983Y0187725D01*
X0362275Y0189434D01*
X0360967Y0190742D01*
X0359258Y0191450D01*
X0357408Y0191450D01*
X0355699Y0190742D01*
X0354391Y0189434D01*
X0353683Y0187725D01*
X0353683Y0185875D01*
X0354391Y0184166D01*
X0355699Y0182858D01*
X0357408Y0182150D01*
X0359258Y0182150D01*
X0360967Y0182858D01*
X0362275Y0184166D01*
X0362966Y0185833D02*
X0365988Y0185833D01*
X0366544Y0185276D02*
X0368419Y0184500D01*
X0370448Y0184500D01*
X0372322Y0185276D01*
X0373757Y0186711D01*
X0374533Y0188586D01*
X0374533Y0190614D01*
X0373757Y0192489D01*
X0372322Y0193924D01*
X0370448Y0194700D01*
X0368419Y0194700D01*
X0366544Y0193924D01*
X0365110Y0192489D01*
X0364333Y0190614D01*
X0364333Y0188586D01*
X0365110Y0186711D01*
X0366544Y0185276D01*
X0364811Y0187432D02*
X0362983Y0187432D01*
X0362443Y0189030D02*
X0364333Y0189030D01*
X0364339Y0190629D02*
X0361081Y0190629D01*
X0360482Y0192227D02*
X0365001Y0192227D01*
X0366447Y0193826D02*
X0362415Y0193826D01*
X0358333Y0193826D02*
X0358333Y0193826D01*
X0358333Y0195424D02*
X0358333Y0195424D01*
X0358333Y0197023D02*
X0358333Y0197023D01*
X0358333Y0198621D02*
X0358333Y0198621D01*
X0358333Y0200220D02*
X0358333Y0200220D01*
X0354611Y0200220D02*
X0347055Y0200220D01*
X0348051Y0198621D02*
X0353615Y0198621D01*
X0353283Y0197023D02*
X0348383Y0197023D01*
X0348383Y0196800D02*
X0343333Y0196800D01*
X0343333Y0196800D01*
X0348383Y0196800D01*
X0348196Y0195424D02*
X0353470Y0195424D01*
X0354252Y0193826D02*
X0347415Y0193826D01*
X0345482Y0192227D02*
X0356184Y0192227D01*
X0355586Y0190629D02*
X0346081Y0190629D01*
X0345967Y0190742D02*
X0344258Y0191450D01*
X0342408Y0191450D01*
X0340699Y0190742D01*
X0339391Y0189434D01*
X0338683Y0187725D01*
X0338683Y0185875D01*
X0339391Y0184166D01*
X0340699Y0182858D01*
X0342408Y0182150D01*
X0344258Y0182150D01*
X0345967Y0182858D01*
X0347275Y0184166D01*
X0347983Y0185875D01*
X0347983Y0187725D01*
X0347275Y0189434D01*
X0345967Y0190742D01*
X0347443Y0189030D02*
X0354224Y0189030D01*
X0353683Y0187432D02*
X0347983Y0187432D01*
X0347966Y0185833D02*
X0353701Y0185833D01*
X0354363Y0184235D02*
X0347304Y0184235D01*
X0345432Y0182636D02*
X0356234Y0182636D01*
X0360432Y0182636D02*
X0400133Y0182636D01*
X0400133Y0181038D02*
X0328433Y0181038D01*
X0328433Y0182636D02*
X0341234Y0182636D01*
X0339363Y0184235D02*
X0327845Y0184235D01*
X0326513Y0185833D02*
X0338701Y0185833D01*
X0338683Y0187432D02*
X0326114Y0187432D01*
X0327706Y0189030D02*
X0339224Y0189030D01*
X0340586Y0190629D02*
X0328368Y0190629D01*
X0328433Y0192227D02*
X0341184Y0192227D01*
X0343333Y0192227D02*
X0343333Y0192227D01*
X0343333Y0193826D02*
X0343333Y0193826D01*
X0343333Y0195424D02*
X0343333Y0195424D01*
X0343333Y0197023D02*
X0343333Y0197023D01*
X0343333Y0198621D02*
X0343333Y0198621D01*
X0343333Y0200220D02*
X0343333Y0200220D01*
X0339611Y0200220D02*
X0328199Y0200220D01*
X0327367Y0198621D02*
X0338615Y0198621D01*
X0338283Y0197023D02*
X0325127Y0197023D01*
X0326921Y0195424D02*
X0338470Y0195424D01*
X0339252Y0193826D02*
X0328014Y0193826D01*
X0318233Y0182636D02*
X0281213Y0182636D01*
X0283183Y0181038D02*
X0318233Y0181038D01*
X0318791Y0179439D02*
X0283903Y0179439D01*
X0284058Y0177841D02*
X0320080Y0177841D01*
X0320731Y0176242D02*
X0283730Y0176242D01*
X0282765Y0174644D02*
X0318991Y0174644D01*
X0325936Y0176242D02*
X0337731Y0176242D01*
X0335991Y0174644D02*
X0327676Y0174644D01*
X0328338Y0173045D02*
X0335329Y0173045D01*
X0335233Y0171447D02*
X0328433Y0171447D01*
X0328045Y0169848D02*
X0335622Y0169848D01*
X0336671Y0168250D02*
X0326995Y0168250D01*
X0318130Y0165053D02*
X0364349Y0165053D01*
X0364333Y0163454D02*
X0317200Y0163454D01*
X0309467Y0163454D02*
X0307200Y0163454D01*
X0308130Y0165053D02*
X0308537Y0165053D01*
X0308414Y0168250D02*
X0308253Y0168250D01*
X0307498Y0169848D02*
X0309169Y0169848D01*
X0311224Y0171447D02*
X0305442Y0171447D01*
X0301224Y0171447D02*
X0295442Y0171447D01*
X0297498Y0169848D02*
X0299169Y0169848D01*
X0298414Y0168250D02*
X0298253Y0168250D01*
X0298130Y0165053D02*
X0298537Y0165053D01*
X0299467Y0163454D02*
X0297200Y0163454D01*
X0289467Y0163454D02*
X0287200Y0163454D01*
X0288130Y0165053D02*
X0288537Y0165053D01*
X0288414Y0168250D02*
X0288253Y0168250D01*
X0287498Y0169848D02*
X0289169Y0169848D01*
X0291224Y0171447D02*
X0285442Y0171447D01*
X0281224Y0171447D02*
X0275442Y0171447D01*
X0277498Y0169848D02*
X0279169Y0169848D01*
X0278414Y0168250D02*
X0278253Y0168250D01*
X0278130Y0165053D02*
X0278537Y0165053D01*
X0279467Y0163454D02*
X0277200Y0163454D01*
X0269467Y0163454D02*
X0267200Y0163454D01*
X0268130Y0165053D02*
X0268537Y0165053D01*
X0268414Y0168250D02*
X0268253Y0168250D01*
X0267498Y0169848D02*
X0269169Y0169848D01*
X0271224Y0171447D02*
X0265442Y0171447D01*
X0265152Y0174644D02*
X0241515Y0174644D01*
X0242480Y0176242D02*
X0264187Y0176242D01*
X0263858Y0177841D02*
X0242808Y0177841D01*
X0242653Y0179439D02*
X0264014Y0179439D01*
X0264734Y0181038D02*
X0241933Y0181038D01*
X0239963Y0182636D02*
X0266704Y0182636D01*
X0271213Y0182636D02*
X0276704Y0182636D01*
X0274734Y0181038D02*
X0273183Y0181038D01*
X0273903Y0179439D02*
X0274014Y0179439D01*
X0274187Y0176242D02*
X0273730Y0176242D01*
X0272765Y0174644D02*
X0275152Y0174644D01*
X0261224Y0171447D02*
X0255442Y0171447D01*
X0257498Y0169848D02*
X0259169Y0169848D01*
X0258414Y0168250D02*
X0258253Y0168250D01*
X0251224Y0171447D02*
X0245442Y0171447D01*
X0247498Y0169848D02*
X0249169Y0169848D01*
X0248414Y0168250D02*
X0248253Y0168250D01*
X0248130Y0165053D02*
X0248537Y0165053D01*
X0249467Y0163454D02*
X0247200Y0163454D01*
X0246923Y0152265D02*
X0251712Y0152265D01*
X0249975Y0150666D02*
X0248660Y0150666D01*
X0241712Y0152265D02*
X0236923Y0152265D01*
X0238660Y0150666D02*
X0239975Y0150666D01*
X0239606Y0145870D02*
X0239029Y0145870D01*
X0237978Y0144272D02*
X0240657Y0144272D01*
X0247978Y0144272D02*
X0250657Y0144272D01*
X0249606Y0145870D02*
X0249029Y0145870D01*
X0257333Y0142673D02*
X0196265Y0142673D01*
X0194518Y0142673D02*
X0194118Y0142673D01*
X0194118Y0144272D02*
X0194518Y0144272D01*
X0194518Y0145870D02*
X0194118Y0145870D01*
X0194118Y0147469D02*
X0194518Y0147469D01*
X0194518Y0149068D02*
X0194118Y0149068D01*
X0194118Y0150666D02*
X0194518Y0150666D01*
X0194518Y0152265D02*
X0194118Y0152265D01*
X0197562Y0152265D02*
X0201712Y0152265D01*
X0199975Y0150666D02*
X0199042Y0150666D01*
X0199466Y0145870D02*
X0199606Y0145870D01*
X0200657Y0144272D02*
X0198536Y0144272D01*
X0192370Y0142673D02*
X0173764Y0142673D01*
X0173787Y0141075D02*
X0257333Y0141075D01*
X0257333Y0139476D02*
X0173322Y0139476D01*
X0172189Y0137878D02*
X0256583Y0137878D01*
X0267978Y0144272D02*
X0270657Y0144272D01*
X0269606Y0145870D02*
X0269029Y0145870D01*
X0268660Y0150666D02*
X0269975Y0150666D01*
X0271712Y0152265D02*
X0266923Y0152265D01*
X0261712Y0152265D02*
X0261333Y0152265D01*
X0276923Y0152265D02*
X0281712Y0152265D01*
X0279975Y0150666D02*
X0278660Y0150666D01*
X0279029Y0145870D02*
X0279606Y0145870D01*
X0280657Y0144272D02*
X0277978Y0144272D01*
X0287978Y0144272D02*
X0290657Y0144272D01*
X0289606Y0145870D02*
X0289029Y0145870D01*
X0288660Y0150666D02*
X0289975Y0150666D01*
X0291712Y0152265D02*
X0286923Y0152265D01*
X0307562Y0152265D02*
X0311712Y0152265D01*
X0309975Y0150666D02*
X0309042Y0150666D01*
X0309466Y0145870D02*
X0309606Y0145870D01*
X0310657Y0144272D02*
X0308536Y0144272D01*
X0317978Y0144272D02*
X0320657Y0144272D01*
X0319606Y0145870D02*
X0319029Y0145870D01*
X0318660Y0150666D02*
X0319975Y0150666D01*
X0321712Y0152265D02*
X0316923Y0152265D01*
X0343995Y0168250D02*
X0346114Y0168250D01*
X0345184Y0169848D02*
X0345045Y0169848D01*
X0344676Y0174644D02*
X0345609Y0174644D01*
X0347090Y0176242D02*
X0342936Y0176242D01*
X0327876Y0179439D02*
X0400133Y0179439D01*
X0400133Y0177841D02*
X0326587Y0177841D01*
X0358333Y0192227D02*
X0358333Y0192227D01*
X0372420Y0193826D02*
X0383693Y0193826D01*
X0383650Y0193795D02*
X0383038Y0193183D01*
X0382529Y0192483D01*
X0382136Y0191711D01*
X0381869Y0190888D01*
X0381733Y0190033D01*
X0381733Y0189800D01*
X0387033Y0189800D01*
X0387033Y0195100D01*
X0386800Y0195100D01*
X0385945Y0194965D01*
X0385122Y0194697D01*
X0384351Y0194304D01*
X0383650Y0193795D01*
X0382399Y0192227D02*
X0373865Y0192227D01*
X0374527Y0190629D02*
X0381828Y0190629D01*
X0381755Y0189030D02*
X0374533Y0189030D01*
X0374055Y0187432D02*
X0382165Y0187432D01*
X0383222Y0185833D02*
X0372879Y0185833D01*
X0362936Y0176242D02*
X0400133Y0176242D01*
X0400133Y0174644D02*
X0364676Y0174644D01*
X0365338Y0173045D02*
X0400133Y0173045D01*
X0400133Y0171447D02*
X0365433Y0171447D01*
X0372396Y0168250D02*
X0384270Y0168250D01*
X0382811Y0166651D02*
X0373855Y0166651D01*
X0374518Y0165053D02*
X0382149Y0165053D01*
X0382133Y0163454D02*
X0374533Y0163454D01*
X0374065Y0161856D02*
X0382601Y0161856D01*
X0383764Y0160257D02*
X0372903Y0160257D01*
X0387033Y0185833D02*
X0387433Y0185833D01*
X0387433Y0187432D02*
X0387033Y0187432D01*
X0387033Y0189030D02*
X0387433Y0189030D01*
X0387433Y0190629D02*
X0387033Y0190629D01*
X0387033Y0192227D02*
X0387433Y0192227D01*
X0387433Y0193826D02*
X0387033Y0193826D01*
X0386219Y0198900D02*
X0388248Y0198900D01*
X0390122Y0199676D01*
X0391557Y0201111D01*
X0392333Y0202986D01*
X0392333Y0205014D01*
X0391557Y0206889D01*
X0390122Y0208324D01*
X0388248Y0209100D01*
X0386219Y0209100D01*
X0384344Y0208324D01*
X0382910Y0206889D01*
X0382133Y0205014D01*
X0382133Y0202986D01*
X0382910Y0201111D01*
X0384344Y0199676D01*
X0386219Y0198900D01*
X0383801Y0200220D02*
X0372866Y0200220D01*
X0374050Y0201818D02*
X0382617Y0201818D01*
X0382133Y0203417D02*
X0374533Y0203417D01*
X0374533Y0205015D02*
X0382134Y0205015D01*
X0382796Y0206614D02*
X0373871Y0206614D01*
X0372433Y0208212D02*
X0384233Y0208212D01*
X0390233Y0208212D02*
X0400133Y0208212D01*
X0400133Y0206614D02*
X0391671Y0206614D01*
X0392333Y0205015D02*
X0400133Y0205015D01*
X0400133Y0203417D02*
X0392333Y0203417D01*
X0391850Y0201818D02*
X0400133Y0201818D01*
X0400133Y0200220D02*
X0390666Y0200220D01*
X0366183Y0252971D02*
X0326829Y0252971D01*
X0326578Y0254569D02*
X0366497Y0254569D01*
X0366925Y0256168D02*
X0326108Y0256168D01*
X0325375Y0257766D02*
X0367748Y0257766D01*
X0368715Y0259365D02*
X0324360Y0259365D01*
X0322918Y0260963D02*
X0370314Y0260963D01*
X0372673Y0262562D02*
X0320817Y0262562D01*
X0315133Y0262562D02*
X0313533Y0262562D01*
X0313533Y0260963D02*
X0315133Y0260963D01*
X0315133Y0259365D02*
X0313533Y0259365D01*
X0313533Y0257766D02*
X0315133Y0257766D01*
X0315133Y0256168D02*
X0313533Y0256168D01*
X0313533Y0254569D02*
X0315133Y0254569D01*
X0315133Y0252971D02*
X0313533Y0252971D01*
X0313533Y0251372D02*
X0260483Y0251372D01*
X0260483Y0252971D02*
X0301838Y0252971D01*
X0302088Y0254569D02*
X0260170Y0254569D01*
X0259742Y0256168D02*
X0302559Y0256168D01*
X0303292Y0257766D02*
X0258918Y0257766D01*
X0257951Y0259365D02*
X0304306Y0259365D01*
X0305748Y0260963D02*
X0256353Y0260963D01*
X0253993Y0262562D02*
X0307850Y0262562D01*
X0301941Y0249774D02*
X0260369Y0249774D01*
X0259941Y0248175D02*
X0302318Y0248175D01*
X0302913Y0246577D02*
X0259347Y0246577D01*
X0258424Y0244978D02*
X0303798Y0244978D01*
X0305008Y0243380D02*
X0257096Y0243380D01*
X0255280Y0241781D02*
X0306759Y0241781D01*
X0306754Y0230592D02*
X0309912Y0230592D01*
X0308722Y0228993D02*
X0307945Y0228993D01*
X0307776Y0224198D02*
X0308891Y0224198D01*
X0310322Y0222599D02*
X0306345Y0222599D01*
X0300322Y0222599D02*
X0296345Y0222599D01*
X0297776Y0224198D02*
X0298891Y0224198D01*
X0298722Y0228993D02*
X0297945Y0228993D01*
X0296754Y0230592D02*
X0299912Y0230592D01*
X0289912Y0230592D02*
X0287320Y0230592D01*
X0288389Y0228993D02*
X0288722Y0228993D01*
X0288891Y0224198D02*
X0288180Y0224198D01*
X0286908Y0222599D02*
X0290322Y0222599D01*
X0283533Y0222599D02*
X0283133Y0222599D01*
X0283133Y0224198D02*
X0283533Y0224198D01*
X0283533Y0225796D02*
X0283133Y0225796D01*
X0283133Y0227395D02*
X0283533Y0227395D01*
X0283533Y0228993D02*
X0283133Y0228993D01*
X0283133Y0230592D02*
X0283533Y0230592D01*
X0279347Y0230592D02*
X0276754Y0230592D01*
X0277945Y0228993D02*
X0278278Y0228993D01*
X0278487Y0224198D02*
X0277776Y0224198D01*
X0276345Y0222599D02*
X0279758Y0222599D01*
X0270322Y0222599D02*
X0266345Y0222599D01*
X0267776Y0224198D02*
X0268891Y0224198D01*
X0268722Y0228993D02*
X0267945Y0228993D01*
X0266754Y0230592D02*
X0269912Y0230592D01*
X0259912Y0230592D02*
X0256754Y0230592D01*
X0257945Y0228993D02*
X0258722Y0228993D01*
X0258891Y0224198D02*
X0257776Y0224198D01*
X0256345Y0222599D02*
X0260322Y0222599D01*
X0250322Y0222599D02*
X0246345Y0222599D01*
X0247776Y0224198D02*
X0248891Y0224198D01*
X0248722Y0228993D02*
X0247945Y0228993D01*
X0246754Y0230592D02*
X0249912Y0230592D01*
X0239912Y0230592D02*
X0236754Y0230592D01*
X0237945Y0228993D02*
X0238722Y0228993D01*
X0238891Y0224198D02*
X0237776Y0224198D01*
X0236345Y0222599D02*
X0240322Y0222599D01*
X0230322Y0222599D02*
X0226345Y0222599D01*
X0227776Y0224198D02*
X0228891Y0224198D01*
X0228722Y0228993D02*
X0227945Y0228993D01*
X0226754Y0230592D02*
X0229912Y0230592D01*
X0219912Y0230592D02*
X0216754Y0230592D01*
X0217945Y0228993D02*
X0218722Y0228993D01*
X0218891Y0224198D02*
X0217776Y0224198D01*
X0216345Y0222599D02*
X0220322Y0222599D01*
X0210322Y0222599D02*
X0206345Y0222599D01*
X0207776Y0224198D02*
X0208891Y0224198D01*
X0208722Y0228993D02*
X0207945Y0228993D01*
X0206754Y0230592D02*
X0209912Y0230592D01*
X0185215Y0238584D02*
X0177360Y0238584D01*
X0175762Y0236986D02*
X0183276Y0236986D01*
X0183790Y0237499D02*
X0183790Y0237499D01*
X0182746Y0240183D02*
X0178959Y0240183D01*
X0181678Y0235387D02*
X0174163Y0235387D01*
X0172565Y0233789D02*
X0180079Y0233789D01*
X0175284Y0228993D02*
X0172945Y0228993D01*
X0173433Y0227395D02*
X0173685Y0227395D01*
X0178973Y0224198D02*
X0183891Y0224198D01*
X0183233Y0225796D02*
X0180572Y0225796D01*
X0182171Y0227395D02*
X0183233Y0227395D01*
X0143419Y0227395D02*
X0143247Y0227395D01*
X0143247Y0228993D02*
X0143419Y0228993D01*
X0143419Y0230592D02*
X0143247Y0230592D01*
X0143247Y0225796D02*
X0143419Y0225796D01*
X0143419Y0224198D02*
X0143247Y0224198D01*
X0143247Y0222599D02*
X0143419Y0222599D01*
X0111269Y0244978D02*
X0069398Y0244978D01*
X0069347Y0246577D02*
X0111319Y0246577D01*
X0110726Y0248175D02*
X0069941Y0248175D01*
X0070369Y0249774D02*
X0110298Y0249774D01*
X0110183Y0251372D02*
X0070483Y0251372D01*
X0070483Y0252971D02*
X0110183Y0252971D01*
X0110497Y0254569D02*
X0070170Y0254569D01*
X0069742Y0256168D02*
X0110925Y0256168D01*
X0111748Y0257766D02*
X0068918Y0257766D01*
X0067951Y0259365D02*
X0112715Y0259365D01*
X0114314Y0260963D02*
X0066353Y0260963D01*
X0063993Y0262562D02*
X0116673Y0262562D01*
X0109670Y0243380D02*
X0070926Y0243380D01*
X0071333Y0241781D02*
X0108072Y0241781D01*
X0106473Y0240183D02*
X0071333Y0240183D01*
X0071333Y0238584D02*
X0100215Y0238584D01*
X0098276Y0236986D02*
X0071333Y0236986D01*
X0065333Y0240183D02*
X0061921Y0240183D01*
X0091754Y0230592D02*
X0093333Y0230592D01*
X0093333Y0228993D02*
X0092945Y0228993D01*
X0088533Y0206614D02*
X0088133Y0206614D01*
X0085666Y0206614D02*
X0071333Y0206614D01*
X0071333Y0205015D02*
X0083871Y0205015D01*
X0083076Y0203417D02*
X0071333Y0203417D01*
X0046539Y0197023D02*
X0035633Y0197023D01*
X0035633Y0198621D02*
X0044299Y0198621D01*
X0043468Y0200220D02*
X0035633Y0200220D01*
X0035633Y0201818D02*
X0043233Y0201818D01*
X0043483Y0203417D02*
X0035633Y0203417D01*
X0035633Y0205015D02*
X0044336Y0205015D01*
X0044745Y0195424D02*
X0035633Y0195424D01*
X0035633Y0193826D02*
X0043652Y0193826D01*
X0043233Y0192227D02*
X0035633Y0192227D01*
X0035633Y0190629D02*
X0043298Y0190629D01*
X0043960Y0189030D02*
X0035633Y0189030D01*
X0035633Y0187432D02*
X0045552Y0187432D01*
X0045154Y0185833D02*
X0035633Y0185833D01*
X0035633Y0184235D02*
X0043822Y0184235D01*
X0043233Y0182636D02*
X0035633Y0182636D01*
X0035633Y0181038D02*
X0043233Y0181038D01*
X0043791Y0179439D02*
X0035633Y0179439D01*
X0035633Y0177841D02*
X0045080Y0177841D01*
X0045731Y0176242D02*
X0035633Y0176242D01*
X0035633Y0174644D02*
X0043991Y0174644D01*
X0043329Y0173045D02*
X0035633Y0173045D01*
X0035633Y0171447D02*
X0043233Y0171447D01*
X0043622Y0169848D02*
X0035633Y0169848D01*
X0035633Y0168250D02*
X0044671Y0168250D01*
X0044578Y0160257D02*
X0035633Y0160257D01*
X0035633Y0158659D02*
X0043583Y0158659D01*
X0043233Y0157060D02*
X0035633Y0157060D01*
X0035633Y0155462D02*
X0043368Y0155462D01*
X0044058Y0153863D02*
X0035633Y0153863D01*
X0035633Y0152265D02*
X0045956Y0152265D01*
X0035633Y0150666D02*
X0065333Y0150666D01*
X0065333Y0149068D02*
X0035633Y0149068D01*
X0035633Y0147469D02*
X0065333Y0147469D01*
X0065333Y0145870D02*
X0035633Y0145870D01*
X0035633Y0144272D02*
X0065333Y0144272D01*
X0065333Y0142673D02*
X0035633Y0142673D01*
X0035633Y0141075D02*
X0065333Y0141075D01*
X0065333Y0139476D02*
X0035633Y0139476D01*
X0035633Y0137878D02*
X0065333Y0137878D01*
X0065333Y0136279D02*
X0035633Y0136279D01*
X0035633Y0134681D02*
X0065333Y0134681D01*
X0065333Y0133082D02*
X0035633Y0133082D01*
X0035633Y0131484D02*
X0065333Y0131484D01*
X0065333Y0129885D02*
X0035633Y0129885D01*
X0035633Y0128287D02*
X0065333Y0128287D01*
X0065333Y0126688D02*
X0035633Y0126688D01*
X0035633Y0125090D02*
X0065333Y0125090D01*
X0065333Y0123491D02*
X0035633Y0123491D01*
X0035633Y0121893D02*
X0065333Y0121893D01*
X0065333Y0120294D02*
X0035633Y0120294D01*
X0035633Y0118696D02*
X0065333Y0118696D01*
X0065333Y0117097D02*
X0035633Y0117097D01*
X0035633Y0115499D02*
X0044350Y0115499D01*
X0043444Y0115124D02*
X0042010Y0113689D01*
X0041233Y0111814D01*
X0041233Y0109786D01*
X0042010Y0107911D01*
X0043444Y0106476D01*
X0045319Y0105700D01*
X0047348Y0105700D01*
X0049222Y0106476D01*
X0050657Y0107911D01*
X0051433Y0109786D01*
X0051433Y0111814D01*
X0050657Y0113689D01*
X0049222Y0115124D01*
X0047348Y0115900D01*
X0045319Y0115900D01*
X0043444Y0115124D01*
X0042221Y0113900D02*
X0035633Y0113900D01*
X0035633Y0112302D02*
X0041435Y0112302D01*
X0041233Y0110703D02*
X0035633Y0110703D01*
X0035633Y0109105D02*
X0041515Y0109105D01*
X0042415Y0107506D02*
X0035633Y0107506D01*
X0035633Y0105908D02*
X0044817Y0105908D01*
X0047849Y0105908D02*
X0053233Y0105908D01*
X0053233Y0107506D02*
X0050252Y0107506D01*
X0051151Y0109105D02*
X0053768Y0109105D01*
X0055024Y0110703D02*
X0051433Y0110703D01*
X0051231Y0112302D02*
X0065333Y0112302D01*
X0065333Y0113900D02*
X0050446Y0113900D01*
X0048316Y0115499D02*
X0065333Y0115499D01*
X0065333Y0110703D02*
X0061643Y0110703D01*
X0062899Y0109105D02*
X0065333Y0109105D01*
X0064797Y0107506D02*
X0063433Y0107506D01*
X0055210Y0102711D02*
X0035633Y0102711D01*
X0035633Y0104309D02*
X0053845Y0104309D01*
X0055433Y0101112D02*
X0035633Y0101112D01*
X0035633Y0099514D02*
X0053937Y0099514D01*
X0053275Y0097915D02*
X0035633Y0097915D01*
X0035633Y0096317D02*
X0053233Y0096317D01*
X0053675Y0094718D02*
X0035633Y0094718D01*
X0035633Y0093120D02*
X0054801Y0093120D01*
X0056404Y0091521D02*
X0035633Y0091521D01*
X0035633Y0089923D02*
X0054243Y0089923D01*
X0053444Y0088324D02*
X0035633Y0088324D01*
X0035633Y0086726D02*
X0053233Y0086726D01*
X0053506Y0085127D02*
X0035633Y0085127D01*
X0035633Y0083529D02*
X0054392Y0083529D01*
X0056764Y0081930D02*
X0035633Y0081930D01*
X0048227Y0075536D02*
X0097857Y0075536D01*
X0096699Y0073937D02*
X0050408Y0073937D01*
X0053829Y0064346D02*
X0035633Y0064346D01*
X0035633Y0062748D02*
X0055173Y0062748D01*
X0061494Y0062748D02*
X0075173Y0062748D01*
X0073829Y0064346D02*
X0062837Y0064346D01*
X0063433Y0065945D02*
X0073233Y0065945D01*
X0073233Y0067543D02*
X0063433Y0067543D01*
X0062883Y0069142D02*
X0073783Y0069142D01*
X0075061Y0070740D02*
X0061605Y0070740D01*
X0045971Y0051558D02*
X0035633Y0051558D01*
X0035633Y0049960D02*
X0043998Y0049960D01*
X0043243Y0048361D02*
X0035633Y0048361D01*
X0035633Y0046763D02*
X0043033Y0046763D01*
X0043274Y0045164D02*
X0035633Y0045164D01*
X0035633Y0043566D02*
X0044072Y0043566D01*
X0046151Y0041967D02*
X0035633Y0041967D01*
X0035633Y0040369D02*
X0214128Y0040369D01*
X0216438Y0041967D02*
X0174802Y0041967D01*
X0173333Y0035573D02*
X0173333Y0035573D01*
X0173333Y0033975D02*
X0173333Y0033975D01*
X0173333Y0032376D02*
X0173333Y0032376D01*
X0173333Y0031800D02*
X0173333Y0031800D01*
X0173333Y0030778D02*
X0173333Y0030778D01*
X0173333Y0029179D02*
X0173333Y0029179D01*
X0173333Y0027581D02*
X0173333Y0027581D01*
X0171279Y0025982D02*
X0161364Y0025982D01*
X0162783Y0024384D02*
X0169370Y0024384D01*
X0168708Y0022785D02*
X0163433Y0022785D01*
X0163433Y0021187D02*
X0168683Y0021187D01*
X0169216Y0019588D02*
X0162937Y0019588D01*
X0161735Y0017990D02*
X0170568Y0017990D01*
X0168774Y0033975D02*
X0035633Y0033975D01*
X0035633Y0035573D02*
X0169965Y0035573D01*
X0125099Y0030778D02*
X0122134Y0030778D01*
X0123294Y0029179D02*
X0123799Y0029179D01*
X0118333Y0029179D02*
X0118333Y0029179D01*
X0118333Y0027581D02*
X0118333Y0027581D01*
X0118333Y0025982D02*
X0118333Y0025982D01*
X0118333Y0024384D02*
X0118333Y0024384D01*
X0118333Y0022785D02*
X0118333Y0022785D01*
X0118333Y0030778D02*
X0118333Y0030778D01*
X0086151Y0041967D02*
X0050516Y0041967D01*
X0035633Y0053157D02*
X0225188Y0053157D01*
X0223590Y0054755D02*
X0035633Y0054755D01*
X0083433Y0107506D02*
X0084797Y0107506D01*
X0086395Y0109105D02*
X0082899Y0109105D01*
X0081643Y0110703D02*
X0087994Y0110703D01*
X0167952Y0137878D02*
X0168714Y0137878D01*
X0168714Y0139476D02*
X0167952Y0139476D01*
X0167952Y0141075D02*
X0168714Y0141075D01*
X0168714Y0142673D02*
X0167952Y0142673D01*
X0167952Y0144272D02*
X0168714Y0144272D01*
X0168714Y0145870D02*
X0167952Y0145870D01*
X0172041Y0145870D02*
X0189169Y0145870D01*
X0190100Y0144272D02*
X0173247Y0144272D01*
X0206923Y0152265D02*
X0211712Y0152265D01*
X0209975Y0150666D02*
X0208660Y0150666D01*
X0209029Y0145870D02*
X0209606Y0145870D01*
X0210657Y0144272D02*
X0207978Y0144272D01*
X0217978Y0144272D02*
X0220657Y0144272D01*
X0219606Y0145870D02*
X0219029Y0145870D01*
X0218660Y0150666D02*
X0219975Y0150666D01*
X0221712Y0152265D02*
X0216923Y0152265D01*
X0226923Y0152265D02*
X0231712Y0152265D01*
X0229975Y0150666D02*
X0228660Y0150666D01*
X0229029Y0145870D02*
X0229606Y0145870D01*
X0230657Y0144272D02*
X0227978Y0144272D01*
X0219467Y0163454D02*
X0217200Y0163454D01*
X0218130Y0165053D02*
X0218537Y0165053D01*
X0218414Y0168250D02*
X0218253Y0168250D01*
X0217498Y0169848D02*
X0219169Y0169848D01*
X0221224Y0171447D02*
X0215442Y0171447D01*
X0211224Y0171447D02*
X0205442Y0171447D01*
X0207498Y0169848D02*
X0209169Y0169848D01*
X0208414Y0168250D02*
X0208253Y0168250D01*
X0208130Y0165053D02*
X0208537Y0165053D01*
X0209467Y0163454D02*
X0207200Y0163454D01*
X0192066Y0174644D02*
X0223902Y0174644D01*
X0222937Y0176242D02*
X0189760Y0176242D01*
X0228953Y0173045D02*
X0236464Y0173045D01*
X0233902Y0174644D02*
X0231515Y0174644D01*
X0232480Y0176242D02*
X0232937Y0176242D01*
X0232764Y0179439D02*
X0232653Y0179439D01*
X0231933Y0181038D02*
X0233484Y0181038D01*
X0235454Y0182636D02*
X0229963Y0182636D01*
X0228247Y0112300D02*
X0227900Y0112300D01*
X0227045Y0112165D01*
X0226222Y0111897D01*
X0225451Y0111504D01*
X0224750Y0110995D01*
X0224138Y0110383D01*
X0223629Y0109683D01*
X0223236Y0108911D01*
X0222969Y0108088D01*
X0222833Y0107233D01*
X0222833Y0106886D01*
X0228247Y0106886D01*
X0228247Y0112300D01*
X0228247Y0110703D02*
X0228419Y0110703D01*
X0228419Y0109105D02*
X0228247Y0109105D01*
X0228247Y0107506D02*
X0228419Y0107506D01*
X0228419Y0105908D02*
X0228247Y0105908D01*
X0228247Y0104309D02*
X0228419Y0104309D01*
X0228419Y0102711D02*
X0228247Y0102711D01*
X0224644Y0102711D02*
X0191456Y0102711D01*
X0192822Y0104309D02*
X0223430Y0104309D01*
X0222906Y0105908D02*
X0193433Y0105908D01*
X0193433Y0107506D02*
X0222877Y0107506D01*
X0223335Y0109105D02*
X0192899Y0109105D01*
X0191643Y0110703D02*
X0224458Y0110703D01*
X0287555Y0067543D02*
X0400133Y0067543D01*
X0400133Y0065945D02*
X0287824Y0065945D01*
X0290009Y0064346D02*
X0400133Y0064346D01*
X0400133Y0062748D02*
X0290703Y0062748D01*
X0290733Y0061149D02*
X0400133Y0061149D01*
X0400133Y0059551D02*
X0290164Y0059551D01*
X0288542Y0057952D02*
X0400133Y0057952D01*
X0400133Y0056354D02*
X0263133Y0056354D01*
X0263133Y0054812D02*
X0263133Y0058788D01*
X0260322Y0061600D01*
X0256345Y0061600D01*
X0253533Y0058788D01*
X0253533Y0054812D01*
X0256345Y0052000D01*
X0260322Y0052000D01*
X0263133Y0054812D01*
X0263077Y0054755D02*
X0400133Y0054755D01*
X0400133Y0053157D02*
X0350774Y0053157D01*
X0352779Y0051558D02*
X0400133Y0051558D01*
X0400133Y0049960D02*
X0353585Y0049960D01*
X0353867Y0048361D02*
X0400133Y0048361D01*
X0400133Y0046763D02*
X0353737Y0046763D01*
X0353075Y0045164D02*
X0400133Y0045164D01*
X0400133Y0043566D02*
X0351547Y0043566D01*
X0345893Y0053157D02*
X0261478Y0053157D01*
X0263133Y0057952D02*
X0278125Y0057952D01*
X0276502Y0059551D02*
X0262371Y0059551D01*
X0260772Y0061149D02*
X0275933Y0061149D01*
X0289898Y0069142D02*
X0400133Y0069142D01*
X0400133Y0070740D02*
X0290657Y0070740D01*
X0290733Y0072339D02*
X0400133Y0072339D01*
X0400133Y0073937D02*
X0290210Y0073937D01*
X0255895Y0061149D02*
X0251338Y0061149D01*
X0250487Y0062000D02*
X0248333Y0062000D01*
X0246179Y0062000D01*
X0243333Y0059154D01*
X0240487Y0062000D01*
X0238333Y0062000D01*
X0236179Y0062000D01*
X0233133Y0058954D01*
X0233133Y0056800D01*
X0233133Y0054646D01*
X0236179Y0051600D01*
X0238333Y0051600D01*
X0238333Y0056800D01*
X0238333Y0056800D01*
X0233133Y0056800D01*
X0238333Y0056800D01*
X0238333Y0056800D01*
X0238333Y0062000D01*
X0238333Y0056800D01*
X0238333Y0056800D01*
X0238333Y0051600D01*
X0240487Y0051600D01*
X0243333Y0054446D01*
X0246179Y0051600D01*
X0248333Y0051600D01*
X0248333Y0056800D01*
X0248333Y0056800D01*
X0238333Y0056800D01*
X0238333Y0056800D01*
X0243133Y0056800D01*
X0248333Y0056800D01*
X0248333Y0056800D01*
X0248333Y0062000D01*
X0248333Y0056800D01*
X0248333Y0056800D01*
X0248333Y0051600D01*
X0250487Y0051600D01*
X0253533Y0054646D01*
X0253533Y0056800D01*
X0253533Y0058954D01*
X0250487Y0062000D01*
X0248333Y0061149D02*
X0248333Y0061149D01*
X0248333Y0059551D02*
X0248333Y0059551D01*
X0248333Y0057952D02*
X0248333Y0057952D01*
X0248333Y0056800D02*
X0253533Y0056800D01*
X0248333Y0056800D01*
X0248333Y0056800D01*
X0248333Y0056354D02*
X0248333Y0056354D01*
X0248333Y0054755D02*
X0248333Y0054755D01*
X0248333Y0053157D02*
X0248333Y0053157D01*
X0244623Y0053157D02*
X0242044Y0053157D01*
X0238333Y0053157D02*
X0238333Y0053157D01*
X0238333Y0054755D02*
X0238333Y0054755D01*
X0238333Y0056354D02*
X0238333Y0056354D01*
X0238333Y0057952D02*
X0238333Y0057952D01*
X0238333Y0059551D02*
X0238333Y0059551D01*
X0238333Y0061149D02*
X0238333Y0061149D01*
X0235329Y0061149D02*
X0230772Y0061149D01*
X0232371Y0059551D02*
X0233730Y0059551D01*
X0233133Y0057952D02*
X0233133Y0057952D01*
X0233133Y0056354D02*
X0233133Y0056354D01*
X0233077Y0054755D02*
X0233133Y0054755D01*
X0234623Y0053157D02*
X0231478Y0053157D01*
X0241338Y0061149D02*
X0245329Y0061149D01*
X0243730Y0059551D02*
X0242936Y0059551D01*
X0252936Y0059551D02*
X0254296Y0059551D01*
X0253533Y0057952D02*
X0253533Y0057952D01*
X0253533Y0056354D02*
X0253533Y0056354D01*
X0253533Y0054755D02*
X0253590Y0054755D01*
X0252044Y0053157D02*
X0255188Y0053157D01*
X0281647Y0025982D02*
X0315020Y0025982D01*
X0313667Y0024384D02*
X0283000Y0024384D01*
X0283633Y0022785D02*
X0313033Y0022785D01*
X0313033Y0021187D02*
X0283633Y0021187D01*
X0283154Y0019588D02*
X0313513Y0019588D01*
X0314648Y0017990D02*
X0282018Y0017990D01*
D23*
X0153333Y0116800D02*
X0153333Y0202800D01*
X0186333Y0235800D01*
X0232333Y0235800D01*
X0248333Y0251800D01*
X0186333Y0251800D02*
X0170333Y0235800D01*
X0131333Y0235800D01*
X0123333Y0227800D01*
X0123333Y0106800D01*
X0113333Y0096800D01*
X0113333Y0086800D02*
X0133333Y0106800D01*
X0133333Y0096800D02*
X0153333Y0116800D01*
X0096333Y0149800D02*
X0096333Y0230800D01*
X0101333Y0235800D01*
X0106333Y0235800D01*
X0122333Y0251800D01*
X0068333Y0241800D02*
X0068333Y0106800D01*
X0058333Y0096800D01*
X0058333Y0086800D02*
X0078333Y0106800D01*
X0078333Y0096800D02*
X0093333Y0111800D01*
X0093333Y0146800D01*
X0096333Y0149800D01*
X0068333Y0241800D02*
X0058333Y0251800D01*
D24*
X0103333Y0226800D02*
X0103333Y0201800D01*
X0243333Y0121800D02*
X0243333Y0101800D01*
X0228333Y0086800D01*
X0243333Y0121800D02*
X0259333Y0137800D01*
X0259333Y0162800D01*
X0263333Y0166800D01*
M02*
