G75*
%MOIN*%
%OFA0B0*%
%FSLAX25Y25*%
%IPPOS*%
%LPD*%
%AMOC8*
5,1,8,0,0,1.08239X$1,22.5*
%
%ADD10C,0.08000*%
%ADD11OC8,0.08000*%
%ADD12C,0.08400*%
%ADD13C,0.07100*%
%ADD14R,0.08000X0.08000*%
%ADD15C,0.22100*%
%ADD16R,0.07100X0.07100*%
%ADD17C,0.06600*%
%ADD18OC8,0.07400*%
%ADD19C,0.07600*%
%ADD20C,0.08868*%
%ADD21C,0.15624*%
D10*
X0063333Y0026800D03*
X0068333Y0019300D03*
X0073333Y0026800D03*
X0118333Y0026800D03*
X0128333Y0026800D03*
X0123333Y0019300D03*
X0158333Y0021800D03*
X0158333Y0061800D03*
X0133333Y0066800D03*
X0113333Y0066800D03*
X0101333Y0071800D03*
X0113333Y0086800D03*
X0113333Y0096800D03*
X0113333Y0106800D03*
X0101333Y0111800D03*
X0078333Y0106800D03*
X0078333Y0096800D03*
X0078333Y0086800D03*
X0058333Y0086800D03*
X0058333Y0096800D03*
X0058333Y0106800D03*
X0046333Y0110800D03*
X0046333Y0070800D03*
X0058333Y0066800D03*
X0078333Y0066800D03*
X0133333Y0086800D03*
X0133333Y0096800D03*
X0133333Y0106800D03*
X0168333Y0081800D03*
X0188333Y0106800D03*
X0228333Y0106800D03*
X0224318Y0147824D03*
X0234318Y0147824D03*
X0244318Y0147824D03*
X0254318Y0147824D03*
X0264318Y0147824D03*
X0274318Y0147824D03*
X0284318Y0147824D03*
X0294318Y0147824D03*
X0304318Y0147824D03*
X0314318Y0147824D03*
X0324318Y0147824D03*
X0334318Y0147824D03*
X0313333Y0166800D03*
X0303333Y0166800D03*
X0293333Y0166800D03*
X0283333Y0166800D03*
X0273333Y0166800D03*
X0263333Y0166800D03*
X0253333Y0166800D03*
X0243333Y0166800D03*
X0233333Y0166800D03*
X0223333Y0166800D03*
X0213333Y0166800D03*
X0203333Y0166800D03*
X0204318Y0147824D03*
X0214318Y0147824D03*
X0194318Y0147824D03*
X0168333Y0141800D03*
X0143333Y0156800D03*
X0143333Y0181800D03*
X0143333Y0191800D03*
X0143333Y0201800D03*
X0168333Y0186800D03*
X0188333Y0186800D03*
X0227708Y0178050D03*
X0237708Y0178050D03*
X0268958Y0178050D03*
X0278958Y0178050D03*
X0323333Y0181800D03*
X0323333Y0171800D03*
X0340333Y0171800D03*
X0350333Y0171800D03*
X0360333Y0171800D03*
X0369433Y0164000D03*
X0387233Y0164000D03*
X0387233Y0189600D03*
X0387233Y0204000D03*
X0369433Y0204000D03*
X0369433Y0189600D03*
X0323333Y0191800D03*
X0323333Y0201800D03*
X0323333Y0211800D03*
X0323333Y0221800D03*
X0313333Y0226800D03*
X0303333Y0226800D03*
X0293333Y0226800D03*
X0283333Y0226800D03*
X0273333Y0226800D03*
X0263333Y0226800D03*
X0253333Y0226800D03*
X0243333Y0226800D03*
X0233333Y0226800D03*
X0223333Y0226800D03*
X0213333Y0226800D03*
X0203333Y0226800D03*
X0188333Y0226800D03*
X0168333Y0226800D03*
X0143333Y0226800D03*
X0103333Y0226800D03*
X0088333Y0226800D03*
X0088333Y0201800D03*
X0088333Y0191800D03*
X0088333Y0181800D03*
X0103333Y0181800D03*
X0103333Y0171800D03*
X0103333Y0156800D03*
X0088333Y0156800D03*
X0048333Y0156800D03*
X0048333Y0171800D03*
X0048333Y0181800D03*
X0048333Y0191800D03*
X0048333Y0201800D03*
X0048333Y0226800D03*
X0103333Y0201800D03*
X0103333Y0191800D03*
X0218333Y0036800D03*
X0278333Y0036800D03*
X0369433Y0229600D03*
X0387233Y0229600D03*
D11*
X0143333Y0171800D03*
X0088333Y0171800D03*
D12*
X0048333Y0046800D03*
X0088333Y0046800D03*
X0103333Y0046800D03*
X0143333Y0046800D03*
X0278333Y0021800D03*
X0318333Y0021800D03*
D13*
X0253333Y0106800D03*
X0253333Y0116800D03*
X0283333Y0116800D03*
X0343333Y0186800D03*
X0343333Y0196800D03*
X0358333Y0196800D03*
X0358333Y0186800D03*
X0188333Y0171800D03*
X0188333Y0161800D03*
X0168333Y0161800D03*
X0168333Y0171800D03*
X0173333Y0046800D03*
X0183333Y0046800D03*
X0173333Y0031800D03*
X0173333Y0021800D03*
X0198333Y0031800D03*
D14*
X0344318Y0147824D03*
D15*
X0314333Y0251800D03*
X0378333Y0251800D03*
X0248333Y0251800D03*
X0186333Y0251800D03*
X0122333Y0251800D03*
X0058333Y0251800D03*
D16*
X0283333Y0106800D03*
X0198333Y0021800D03*
D17*
X0280333Y0061800D02*
X0286333Y0061800D01*
X0286333Y0071800D02*
X0280333Y0071800D01*
X0280333Y0081800D02*
X0286333Y0081800D01*
D18*
X0258333Y0086800D03*
X0248333Y0086800D03*
X0238333Y0086800D03*
X0228333Y0086800D03*
X0228333Y0056800D03*
X0238333Y0056800D03*
X0248333Y0056800D03*
X0258333Y0056800D03*
D19*
X0187083Y0061800D03*
X0187083Y0071800D03*
X0187083Y0081800D03*
D20*
X0348333Y0095422D03*
X0348333Y0048178D03*
D21*
X0348333Y0024753D03*
X0348333Y0118847D03*
M02*
